<?xml version="1.0" encoding="utf-8"?>
<!-- Generator: Adobe Illustrator 23.0.3, SVG Export Plug-In . SVG Version: 6.00 Build 0)  -->
<svg version="1.1" id="Layer_1" xmlns="http://www.w3.org/2000/svg" xmlns:xlink="http://www.w3.org/1999/xlink" x="0px" y="0px"
	 viewBox="0 0 500 500" style="enable-background:new 0 0 500 500;" xml:space="preserve">
<style type="text/css">
	.st0{fill:#44CEE3;}
	.st1{fill:#FFFFFF;}
	.st2{fill:#F4628F;}
	.st3{fill:#E8EC3A;}
	.st4{fill:#97BB02;}
	.st5{opacity:0.2;}
	.st6{opacity:0.5;}
	.st7{fill:#9470D0;}
	.st8{fill:#F23D7A;}
	.st9{fill:#DA1160;}
	.st10{fill:#B2B1B1;}
	.st11{fill:#E2E1DE;}
	.st12{fill:#6332BA;}
	.st13{fill:#5420AE;}
	.st14{fill:#FFC300;}
	.st15{fill:#DDA507;}
	.st16{fill:#49D8E5;}
	.st17{fill:#64095D;}
	.st18{fill:#490748;}
	.st19{fill:#EA0446;}
	.st20{fill:#EEF443;}
	.st21{fill:#03C4DE;}
	.st22{fill:#492111;}
	.st23{fill:#00838C;}
	.st24{fill:#652A1F;}
	.st25{fill:#C09670;}
	.st26{fill:#EBE0AE;}
	.st27{fill:#4E1E14;}
	.st28{fill:#D9A24B;}
	.st29{fill:#FFEAC0;}
	.st30{fill:#CB2519;}
	.st31{fill:#43CEE3;}
	.st32{fill:#00B8D2;}
	.st33{fill:#FFBD17;}
	.st34{fill:#FFD901;}
	.st35{fill:#5E0084;}
	.st36{fill:#F978A3;}
	.st37{fill:#EC115F;}
	.st38{fill:#FF9900;}
	.st39{fill:#EDB107;}
	.st40{fill:#B90615;}
	.st41{fill:#E1E5D8;}
	.st42{fill:#DD3107;}
	.st43{fill:#CDD905;}
	.st44{fill:#B2B212;}
	.st45{fill:#EB024D;}
</style>
<g>
	<g>
		<path class="st9" d="M246.7,64.5c2-1.1,4.5-1.1,6.5,0l47,26.5c0.8,0.4,1.6,0.7,2.5,0.8l53.6,6.2c2.3,0.3,4.3,1.7,5.3,3.8
			l22.5,49.1c0.4,0.8,0.9,1.5,1.5,2.1l39.7,36.5c1.7,1.6,2.5,3.9,2,6.2l-10.7,52.9c-0.2,0.9-0.2,1.8,0,2.6l10.7,52.9
			c0.5,2.3-0.3,4.6-2,6.2L385.7,347c-0.7,0.6-1.2,1.3-1.5,2.1l-22.5,49.1c-1,2.1-3,3.6-5.3,3.8l-53.6,6.2c-0.9,0.1-1.7,0.4-2.5,0.8
			l-47,26.5c-2,1.1-4.5,1.1-6.5,0l-47-26.5c-0.8-0.4-1.6-0.7-2.5-0.8l-53.6-6.2c-2.3-0.3-4.3-1.7-5.3-3.8l-22.5-49.1
			c-0.4-0.8-0.9-1.5-1.5-2.1l-39.7-36.5c-1.7-1.6-2.5-3.9-2-6.2l10.7-52.9c0.2-0.9,0.2-1.8,0-2.6l-10.7-52.9c-0.5-2.3,0.3-4.6,2-6.2
			l39.7-36.5c0.7-0.6,1.2-1.3,1.5-2.1l22.5-49.1c1-2.1,3-3.6,5.3-3.8l53.6-6.2c0.9-0.1,1.7-0.4,2.5-0.8L246.7,64.5z"/>
	</g>
	<g>
		<path class="st2" d="M189.5,77.1c1.6-1.7,3.9-2.5,6.2-2l52.9,10.6c0.9,0.2,1.8,0.2,2.6,0l52.9-10.7c2.3-0.5,4.6,0.3,6.2,2
			l36.5,39.7c0.6,0.7,1.3,1.2,2.1,1.5l49.1,22.5c2.1,1,3.6,3,3.8,5.3l6.2,53.6c0.1,0.9,0.4,1.7,0.8,2.5l26.5,47c1.1,2,1.1,4.5,0,6.5
			l-26.5,47c-0.4,0.8-0.7,1.6-0.8,2.5l-6.2,53.6c-0.3,2.3-1.7,4.3-3.8,5.3l-49.1,22.5c-0.8,0.4-1.5,0.9-2.1,1.5L310.5,428
			c-1.6,1.7-3.9,2.5-6.2,2l-52.9-10.6c-0.9-0.2-1.8-0.2-2.6,0L195.8,430c-2.3,0.5-4.6-0.3-6.2-2L153,388.3c-0.6-0.7-1.3-1.2-2.1-1.5
			l-49.1-22.5c-2.1-1-3.6-3-3.8-5.3l-6.2-53.6c-0.1-0.9-0.4-1.7-0.8-2.5l-26.5-47c-1.1-2-1.1-4.5,0-6.5l26.5-47
			c0.4-0.8,0.7-1.6,0.8-2.5l6.2-53.6c0.3-2.3,1.7-4.3,3.8-5.3l49.1-22.5c0.8-0.4,1.5-0.9,2.1-1.5L189.5,77.1z"/>
	</g>
	<g>
		<path class="st9" d="M248,76.4c1.9-1.1,4.3-1.1,6.2,0l44.5,25c0.7,0.4,1.5,0.7,2.4,0.8l50.7,5.9c2.2,0.3,4.1,1.6,5,3.6l21.3,46.4
			c0.3,0.8,0.8,1.4,1.5,2l37.6,34.6c1.6,1.5,2.3,3.7,1.9,5.9l-10.1,50c-0.2,0.8-0.2,1.7,0,2.5l10.1,50c0.4,2.2-0.3,4.4-1.9,5.9
			l-37.6,34.6c-0.6,0.6-1.1,1.3-1.5,2L356.7,392c-0.9,2-2.8,3.4-5,3.6l-50.7,5.9c-0.8,0.1-1.6,0.4-2.4,0.8l-44.5,25
			c-1.9,1.1-4.3,1.1-6.2,0l-44.5-25c-0.7-0.4-1.5-0.7-2.4-0.8l-50.7-5.9c-2.2-0.3-4.1-1.6-5-3.6l-21.3-46.4c-0.3-0.8-0.8-1.4-1.5-2
			L85.2,309c-1.6-1.5-2.3-3.7-1.9-5.9l10.1-50c0.2-0.8,0.2-1.7,0-2.5l-10.1-50c-0.4-2.2,0.3-4.4,1.9-5.9l37.6-34.6
			c0.6-0.6,1.1-1.3,1.5-2l21.3-46.4c0.9-2,2.8-3.4,5-3.6l50.7-5.9c0.8-0.1,1.6-0.4,2.4-0.8L248,76.4z"/>
	</g>
	<g>
		<path class="st1" d="M385.9,253.1c0,75.7-61.4,137-137,137c-75.7,0-137-61.4-137-137c0-75.7,61.4-137,137-137
			C324.5,116,385.9,177.4,385.9,253.1z"/>
	</g>
	<g>
		<g>
			<g>
				<g>
					<path class="st10" d="M222.3,350.9c-0.8,0.9-1.9,1.6-3.1,2c-3.8,1.2-7.9-0.8-9.1-4.6l-36.7-111.5c-1.2-3.8,0.8-7.9,4.6-9.1
						c3.8-1.2,7.9,0.8,9.1,4.6l36.7,111.5C224.7,346.3,224,349,222.3,350.9z"/>
				</g>
			</g>
		</g>
		<g>
			<g>
				<g>
					<path class="st11" d="M216.7,350.9c-0.3,0.4-0.8,0.7-1.3,0.9c-1.6,0.5-3.4-0.3-3.9-2l-36.7-111.5c-0.5-1.6,0.3-3.4,2-3.9
						c1.6-0.5,3.4,0.3,3.9,2l36.7,111.5C217.7,349,217.4,350.1,216.7,350.9z"/>
				</g>
			</g>
		</g>
		<g>
			<g>
				<path class="st30" d="M143.7,176C143.7,176,143.7,176,143.7,176c8.8-12.2,25.1,0.2,34.7-9.1c0.6-0.6,1.1-1.2,1.6-1.9
					c0,0,0.1,0,0.1,0c0,0,0,0,0,0c1.5,0.3,3.4,3.2,4.5,7c1.2,3.8,1.2,7.2,0.1,8.3c0,0,0,0,0,0c-9.3,12.9-27.1-1.9-36.4,11
					c0,0,0,0,0,0c-1.5-0.3-3.4-3.2-4.5-7C142.7,180.5,142.7,177.1,143.7,176z"/>
			</g>
		</g>
		<g>
			<g>
				<path class="st41" d="M148.4,191.2C148.4,191.2,148.4,191.2,148.4,191.2c8.8-12.2,25.1,0.2,34.7-9.1c0.6-0.6,1.1-1.2,1.6-1.9
					c0,0,0.1,0,0.1,0c0,0,0,0,0,0c1.5,0.3,3.4,3.2,4.5,7c1.2,3.8,1.2,7.2,0.1,8.3c0,0,0,0,0,0c-9.3,12.9-27.1-1.9-36.4,11
					c0,0,0,0,0,0c-1.5-0.3-3.4-3.2-4.5-7C147.3,195.8,147.3,192.3,148.4,191.2z"/>
			</g>
		</g>
		<g>
			<g>
				<path class="st30" d="M152.9,206.1L152.9,206.1c8.8-12.2,25,0.2,34.7-9.1c0.6-0.6,1.1-1.2,1.6-1.9c0,0,0.1,0,0.1,0c0,0,0,0,0,0
					c1.5,0.3,3.4,3.2,4.5,7c1.2,3.8,1.2,7.2,0.1,8.3c0,0,0,0,0,0c-9.3,12.9-27.1-1.9-36.4,11c0,0,0,0,0,0c-1.5-0.3-3.4-3.2-4.5-7
					C151.8,210.6,151.8,207.2,152.9,206.1z"/>
			</g>
		</g>
		<g>
			<g>
				<path class="st41" d="M157.5,221.3L157.5,221.3c8.8-12.2,25.1,0.2,34.7-9.1c0.6-0.6,1.1-1.2,1.6-1.9c0,0,0.1,0,0.1,0
					c0,0,0,0,0,0c1.5,0.3,3.4,3.2,4.5,7c1.2,3.8,1.2,7.2,0.1,8.3c0,0,0,0,0,0c-9.3,12.9-27.1-1.9-36.4,11c0,0,0,0,0,0
					c-1.5-0.3-3.4-3.2-4.5-7C156.5,225.9,156.5,222.4,157.5,221.3z"/>
			</g>
		</g>
		<g>
			<g>
				<path class="st30" d="M162.1,236.3L162.1,236.3c8.8-12.2,25.1,0.2,34.7-9.1c0.6-0.6,1.1-1.2,1.6-1.9c0,0,0.1,0,0.1,0
					c0,0,0,0,0,0c1.5,0.3,3.4,3.2,4.5,7c1.2,3.8,1.2,7.2,0.1,8.3c0,0,0,0,0,0c-9.3,12.9-27.1-1.9-36.4,11c0,0,0,0,0,0
					c-1.5-0.3-3.4-3.2-4.5-7C161,240.9,161,237.4,162.1,236.3z"/>
			</g>
		</g>
		<g>
			<g>
				<path class="st41" d="M166.7,251.6L166.7,251.6c8.8-12.2,25.1,0.2,34.7-9.1c0.6-0.6,1.1-1.2,1.6-1.9c0,0,0.1,0,0.1,0
					c0,0,0,0,0,0c1.5,0.3,3.4,3.2,4.5,7c1.2,3.8,1.2,7.2,0.1,8.3c0,0,0,0,0,0c-9.3,12.9-27.1-1.9-36.4,11c0,0,0,0,0,0
					c-1.5-0.3-3.4-3.2-4.5-7S165.6,252.7,166.7,251.6z"/>
			</g>
		</g>
		<g>
			<g>
				<path class="st30" d="M171.2,266.4L171.2,266.4c8.8-12.2,25.1,0.2,34.7-9.1c0.6-0.6,1.1-1.2,1.6-1.9c0,0,0.1,0,0.1,0
					c0,0,0,0,0,0c1.5,0.3,3.4,3.2,4.5,7c1.2,3.8,1.2,7.2,0.1,8.3c0,0,0,0,0,0c-9.3,12.9-27.1-1.9-36.4,11c0,0,0,0,0,0
					c-1.5-0.3-3.4-3.2-4.5-7C170.2,271,170.2,267.5,171.2,266.4z"/>
			</g>
		</g>
		<g>
			<g>
				<path class="st41" d="M175.8,281.7L175.8,281.7c8.8-12.2,25.1,0.2,34.7-9.1c0.6-0.6,1.1-1.2,1.6-1.9c0,0,0.1,0,0.1,0
					c0,0,0,0,0,0c1.5,0.3,3.4,3.2,4.5,7c1.2,3.8,1.2,7.2,0.1,8.3c0,0,0,0,0,0c-9.3,12.9-27.1-1.9-36.4,11c0,0,0,0,0,0
					c-1.5-0.3-3.4-3.2-4.5-7C174.8,286.2,174.8,282.8,175.8,281.7z"/>
			</g>
		</g>
		<g>
			<g>
				<path class="st41" d="M139,160.7C139,160.7,139,160.7,139,160.7c17-17.4,35.8-11.3,36.3-11.1c0.7,0.4,3.5,3.3,4.7,7.1
					c1.2,3.8,1.2,7.2,0.1,8.3c0,0,0,0,0,0c-9.3,12.9-27.1-1.9-36.4,11c0,0,0,0,0,0c-1.5-0.3-3.4-3.2-4.5-7
					C138,165.2,138,161.8,139,160.7z"/>
			</g>
		</g>
		<g>
			<g>
				<path class="st30" d="M221.5,301.3C221.5,301.3,221.5,301.3,221.5,301.3c-17,17.4-35.8,11.3-36.3,11.1c-0.7-0.4-3.5-3.3-4.7-7.1
					c-1.2-3.8-1.2-7.2-0.1-8.3c0,0,0,0,0,0c9.3-12.9,27.1,1.9,36.4-11c0,0,0,0,0,0c1.5,0.3,3.4,3.2,4.6,7
					C222.6,296.7,222.6,300.2,221.5,301.3z"/>
			</g>
		</g>
		<g class="st5">
			<g>
				<path class="st1" d="M188.6,200.3c-7.1-23.4-18.3-42.3-29.1-51c-6.2,1.3-13.4,4.5-20.4,11.6l0,0c-1,1.1-1,4.6,0.1,8.4
					c1.2,3.8,3.1,6.7,4.5,7c-1,1.2-0.9,4.5,0.2,8.3c1.1,3.7,3,6.5,4.4,7c-1,1.2-0.9,4.5,0.2,8.3c1.1,3.5,2.8,6.2,4.2,6.9
					c-0.8,1.3-0.7,4.5,0.4,8c1.1,3.7,3,6.5,4.4,7c-1,1.2-0.9,4.5,0.2,8.3c1.1,3.6,2.8,6.3,4.3,6.9c-0.9,1.3-0.8,4.5,0.3,8.1
					c1.1,3.7,3,6.5,4.4,7c-1,1.2-0.9,4.5,0.2,8.3c1.1,3.5,2.8,6.2,4.2,6.9c-0.2,0.4-0.4,1-0.5,1.7c4.3,2.7,8.5,3.7,12.2,2.6
					C196.6,267.1,199.2,235.4,188.6,200.3z"/>
			</g>
		</g>
		<g class="st6">
			<g>
				<g>
					<path class="st1" d="M143,173.9c0,0-0.3-0.4-0.7-1.1c-0.4-0.7-0.9-1.8-1.1-3.2c-0.2-0.7-0.3-1.4-0.3-2.3
						c-0.1-0.8,0-1.7,0.1-2.6c0.2-0.9,0.3-1.8,0.7-2.7c0.3-0.9,0.7-1.8,1.2-2.7c0.4-0.9,1.1-1.6,1.7-2.4c0.6-0.7,1.4-1.3,2.1-1.9
						c0.7-0.5,1.5-0.9,2.2-1.3c0.7-0.4,1.5-0.6,2.1-0.8c1.3-0.5,2.5-0.5,3.3-0.5c0.8,0,1.3,0,1.3,0s-0.3,0.3-0.9,0.9
						c-0.3,0.3-0.6,0.6-1.1,0.9c-0.4,0.3-0.8,0.7-1.3,1.1c-0.4,0.4-1,0.8-1.4,1.3c-0.5,0.5-1,1-1.5,1.5c-0.4,0.5-0.9,1.1-1.4,1.7
						c-0.4,0.6-0.9,1.1-1.2,1.8c-1.5,2.5-2.4,5.4-3,7.8c-0.3,1.2-0.5,2.3-0.6,3C143.1,173.4,143,173.9,143,173.9z"/>
				</g>
			</g>
		</g>
	</g>
	<g>
		<g>
			<g>
				<g>
					<path class="st10" d="M245.5,314.5c-1.2,0.5-2.5,0.6-3.8,0.4c-4.1-0.6-6.9-4.4-6.3-8.5l9.1-59.2c0.6-4.1,4.4-6.9,8.5-6.3
						c4.1,0.6,6.9,4.4,6.3,8.5l-9.1,59.2C249.7,311.4,247.9,313.6,245.5,314.5z"/>
				</g>
			</g>
		</g>
		<g>
			<g>
				<g>
					<path class="st11" d="M240.2,312c-0.5,0.2-1.1,0.3-1.6,0.2c-1.7-0.3-3-1.9-2.7-3.6l9.1-59.2c0.3-1.7,1.9-2.9,3.6-2.7
						c1.7,0.3,3,1.9,2.7,3.6l-9.1,59.3C242.1,310.6,241.3,311.6,240.2,312z"/>
				</g>
			</g>
		</g>
		<g>
			<g>
				<g>
					<path class="st30" d="M307.2,212.6c1.6-16.2-10.2-30.7-26.4-32.3c-9.3-0.9-18,2.5-24,8.7c-4.7-7.2-12.6-12.4-21.8-13.3
						c-16.2-1.6-30.7,10.2-32.3,26.4c0,0-6.5,26.4,46.5,62.9l0,0c0,0,0,0,0,0c0,0,0,0,0,0l0.1-0.1
						C308.4,239.7,307.2,212.6,307.2,212.6z"/>
				</g>
			</g>
		</g>
		<g class="st5">
			<g>
				<path class="st1" d="M256.7,188.9c-4.7-7.2-12.6-12.4-21.8-13.3c-16.2-1.6-30.7,10.2-32.3,26.4c0,0-4.6,18.7,25.6,46.4
					c8.5,3.3,17.9,4.4,27.5,2.4c26.4-5.4,43.4-31.1,38-57.5c-0.8-3.7-2-7.2-3.5-10.5c-2.9-1.4-6.1-2.3-9.5-2.6
					C271.5,179.3,262.8,182.8,256.7,188.9z"/>
			</g>
		</g>
		<g class="st6">
			<g>
				<g>
					<path class="st1" d="M249.6,189.5c0,0-1.4-0.8-4-1.7c-1.3-0.5-2.8-1-4.6-1.4c-1.8-0.4-3.8-0.7-5.9-0.8c-2.1,0-4.3,0.3-6.3,1.1
						c-2.1,0.8-4,2-5.8,3.7c-1.8,1.6-3.5,3.8-4.9,6.1c-0.3,0.6-0.4,0.8-0.6,1.4c-0.2,0.5-0.4,1.1-0.5,1.7c-0.3,1.1-0.4,2.4-0.5,3.7
						c-0.1,5.2,1.6,10.9,3.7,16c2.1,5.2,4.6,9.9,6.9,13.9c1.2,2,2.2,3.8,3.3,5.4c1,1.6,1.9,3,2.7,4.1c0.8,1.1,1.4,2,1.8,2.6
						c0.4,0.6,0.7,0.9,0.7,0.9s-1.4-0.7-3.7-2.4c-2.3-1.7-5.4-4.3-8.6-7.9c-3.3-3.6-6.8-8.1-9.8-13.5c-1.5-2.7-2.8-5.7-3.9-8.9
						c-1-3.2-1.7-6.7-1.7-10.5c0-1.9,0.2-3.8,0.8-5.6c0.2-0.9,0.6-1.9,0.9-2.8c0.3-0.9,1-2,1.4-2.8c1.9-3,4.3-5.4,7-7.5
						c1.4-1,2.9-1.9,4.4-2.6c1.6-0.7,3.1-1.2,4.7-1.5c3.2-0.6,6.2-0.3,8.7,0.3c2.6,0.6,4.7,1.6,6.5,2.7c1.8,1,3.1,2.1,4.2,3.1
						C248.7,188.1,249.6,189.5,249.6,189.5z"/>
				</g>
			</g>
		</g>
	</g>
	<g>
		<g>
			<g>
				<path class="st43" d="M345.7,210.6c0,0,23.2-1.1,28.3-3.2c5.1-2.1,11.5-7.9,8.8-11.6c-2.7-3.7-11.2-1.5-11.2-6.9
					c0-5.4,0.3-9.6-3.1-9.9c-7.2-0.7-10.2,1.3-11.1-2.1c-0.9-3.4-1-11.4-8.4-6.4c-7.4,5.1-7.8,31.3-7.8,31.3S338,207.3,345.7,210.6z
					"/>
			</g>
		</g>
		<g>
			<g>
				<path class="st44" d="M351.5,206.6c0,0,20.8-7.2,24.9-9.6c4.1-2.4,5.4,2.6,3.2,4.4C377.5,203.2,370.4,208.4,351.5,206.6z"/>
			</g>
		</g>
		<g>
			<g>
				<path class="st44" d="M358.3,201.6c0,0,14.4-8.7,11.7-14.8c-2.7-6.2-11.5,3.6-13,7.9C355.6,199,354.2,202.2,358.3,201.6z"/>
			</g>
		</g>
		<g>
			<g>
				<path class="st44" d="M358.6,183.6c0,0-6.1,8.7-7.5,14c-1.4,5.3-2.6,6.3-4,2.9c-1.4-3.3-0.4-21.3,5.7-21.9
					C356,178.3,357.7,179.6,358.6,183.6z"/>
			</g>
		</g>
		<g>
			<g>
				<path class="st43" d="M272.1,327.1c0,0-21.2,1.2-25.8,3.1c-4.7,2-10.5,7.3-8.1,10.6c2.5,3.3,10.2,1.3,10.2,6.2
					c0,4.9-0.4,8.7,2.7,9c6.5,0.6,9.3-1.3,10.1,1.8c0.8,3.1,0.8,10.4,7.6,5.7c6.8-4.7,7.4-28.5,7.4-28.5S279.1,330,272.1,327.1z"/>
			</g>
		</g>
		<g>
			<g>
				<path class="st44" d="M266.8,330.8c0,0-19,6.7-22.8,8.9c-3.7,2.2-4.9-2.3-2.9-4C243.1,334.1,249.6,329.3,266.8,330.8z"/>
			</g>
		</g>
		<g>
			<g>
				<path class="st44" d="M260.6,335.4c0,0-13.2,8-10.8,13.6c2.4,5.6,10.6-3.4,11.9-7.3C263.1,337.7,264.4,334.8,260.6,335.4z"/>
			</g>
		</g>
		<g>
			<g>
				<path class="st44" d="M260.2,351.7c0,0,5.6-8,6.9-12.8c1.3-4.8,2.4-5.7,3.6-2.7c1.2,3,0.2,19.3-5.4,19.9
					C262.4,356.5,260.9,355.4,260.2,351.7z"/>
			</g>
		</g>
		<g>
			<g>
				<path class="st43" d="M300.6,325.9c-4.7,7.6-13.1,11.4-21.4,10.6c-3.3-0.3-5.8-3.4-8.9-5.3l0,0c-3.4-2.1-6.7-2.8-8.5-6
					c-3.9-6.9-4-15.6,0.4-22.8l55.5-90.3c4.9-7.9,13.9-11.8,22.5-10.5c2.9,0.4,4.5,2.5,7.2,4.1l0,0c2.4,1.5,5.6,2.2,7.2,4.3
					c5.6,7.2,6.5,17.3,1.4,25.6L300.6,325.9z"/>
			</g>
		</g>
		<g>
			<g>
				<path class="st9" d="M259.1,316.6c0.3,3,1.3,5.9,2.8,8.6c1.6,2.8,4.3,3.7,7.1,5.2c7.5-2.4,18.9-5,31.5-4.3
					c0-0.1,0.1-0.1,0.1-0.2l9.4-15.2C288.4,307.4,268.9,312.9,259.1,316.6z"/>
			</g>
			<g>
				<path class="st9" d="M276.1,279.9l-13.2,21.4c1.1,0,2.3-0.3,3.4-0.8c0.3-0.1,26.3-12.6,53.6-6.1l8.9-14.4
					C308.9,273.8,289.4,276.4,276.1,279.9z"/>
			</g>
			<g>
				<path class="st9" d="M297.6,244.9L285.3,265c10.3-3.7,32.2-9.5,53.9-1.8l8.7-14.1C329.8,241.7,311.6,242.3,297.6,244.9z"/>
			</g>
			<g>
				<path class="st9" d="M358,216c-13.3-5.7-26.6-7.1-38.4-6.4c-0.6,0.8-1.2,1.6-1.8,2.5l-9.4,15.3c13.3-2.6,31.2-3.1,47.9,5.8
					c0.3,0.1,0.5,0.2,0.8,0.4C359.9,228,360.1,221.6,358,216z"/>
			</g>
		</g>
		<g class="st5">
			<g>
				<path class="st1" d="M340.7,201.7c-0.1,0-0.2-0.1-0.4-0.1c-8.7-1.3-17.7,2.5-22.5,10.5l-54.1,88c1.4,0.8,2.9,1.4,4.4,2
					c9.8-0.4,19.6-2.6,29-6.8C333.4,279,351.4,238.8,340.7,201.7z"/>
			</g>
		</g>
		<g class="st6">
			<g>
				<g>
					<path class="st1" d="M332.6,205.6c0,0-0.5,1.7-1.6,4.5c-1.1,2.9-2.7,6.8-4.9,11.5c-4.3,9.3-10.9,21.2-18.4,32.5
						c-7.4,11.3-15.7,22.1-22.6,29.8c-3.4,3.8-6.4,6.9-8.6,9c-2.2,2.1-3.5,3.3-3.5,3.3s0.5-1.7,1.6-4.5c1.1-2.9,2.7-6.8,4.9-11.5
						c4.3-9.3,10.9-21.2,18.4-32.5c7.4-11.3,15.7-22.1,22.6-29.8c3.4-3.8,6.4-6.9,8.6-9C331.2,206.7,332.6,205.6,332.6,205.6z"/>
				</g>
			</g>
		</g>
	</g>
	<g>
		<g>
			<g>
				<g>
					<g>
						<path class="st36" d="M281.9,316.6c12.2,21.5,4.6,48.8-17,60.9c-21.5,12.1-48.8,4.6-61-16.9c-12.2-21.5-4.6-48.8,17-60.9
							C242.5,287.5,269.8,295.1,281.9,316.6z"/>
					</g>
				</g>
			</g>
		</g>
		<g>
			<g>
				<g>
					<g>
						<g>
							<path class="st37" d="M242.6,338.8c18.7,4.5,21.5,26.2,16.1,41.6c2.2-0.8,4.4-1.8,6.6-3c4.4-2.5,8.2-5.6,11.4-9.2
								C275.7,350.6,259.3,335.8,242.6,338.8z"/>
						</g>
					</g>
				</g>
			</g>
			<g>
				<g>
					<g>
						<g>
							<path class="st37" d="M242.6,338.8c-17.2-5.5-21.4-26.7-15.2-42.2c-2.1,0.8-4.1,1.8-6.2,2.9c-4.6,2.6-8.5,5.9-11.8,9.6
								C210.9,326,224.6,341.4,242.6,338.8z"/>
						</g>
					</g>
				</g>
			</g>
			<g>
				<g>
					<g>
						<g>
							<path class="st37" d="M242.6,338.8c13.4-10.8,35.3-6.6,44.8,7.2c1.2-7,0.8-14.4-1.5-21.4
								C270.3,316.9,249.4,321.8,242.6,338.8z"/>
						</g>
					</g>
				</g>
			</g>
			<g>
				<g>
					<g>
						<g>
							<path class="st37" d="M242.6,338.8c-12.3,12.3-34.3,5.7-43.6-7c-1.1,7-0.5,14.3,2,21.2C216,359.2,237.2,355.7,242.6,338.8z"
								/>
						</g>
					</g>
				</g>
			</g>
			<g>
				<g>
					<g>
						<g>
							<path class="st37" d="M242.6,338.8c4.2,16.9-11.2,31.6-27.5,34.4c5.7,4.6,12.4,7.7,19.4,9.1
								C247.2,372.7,255.3,351.8,242.6,338.8z"/>
						</g>
					</g>
				</g>
			</g>
			<g>
				<g>
					<g>
						<g>
							<path class="st37" d="M242.6,338.8c-3.4-17.6,12.3-34.5,29.1-34.9c-5.7-4.7-12.4-7.8-19.5-9.3
								C237.7,304.4,231.7,325.3,242.6,338.8z"/>
						</g>
					</g>
				</g>
			</g>
		</g>
		<g class="st6">
			<g>
				<g>
					<g>
						<path class="st1" d="M223.9,373.3c0,0-0.4-0.2-1.1-0.7c-0.7-0.5-1.7-1.2-2.9-2.2c-1.2-1-2.6-2.4-4-4.1c-1.4-1.7-3-3.7-4.3-6.1
							c-1.4-2.4-2.7-5.1-3.7-8.1c-0.3-0.8-0.5-1.5-0.7-2.3c-0.2-0.8-0.4-1.5-0.6-2.5c-0.3-1.6-0.6-3.1-0.8-5
							c-0.3-3.6-0.3-7.3,0.4-11c0.6-3.7,1.8-7.4,3.5-10.8c1.6-3.4,3.8-6.6,6.2-9.5c1.3-1.4,2.6-2.7,4.3-3.9c1.5-1.1,3.1-2,4.7-2.8
							c6.3-3.2,12.7-4.7,18.2-5c2.7-0.2,5.3,0,7.5,0.2c2.2,0.2,4.1,0.7,5.6,1.1c1.5,0.4,2.7,0.8,3.5,1.1c0.8,0.3,1.2,0.5,1.2,0.5
							s-0.4,0-1.3-0.1c-0.8-0.1-2-0.1-3.6-0.1c-1.5,0-3.4,0-5.5,0.2c-2.1,0.2-4.4,0.6-6.9,1.1c-2.5,0.5-5.1,1.4-7.7,2.4
							c-2.7,1.1-5.4,2.4-8,4c-1.3,0.8-2.5,1.7-3.7,2.7c-1.1,0.8-2.1,2-3.1,3.2c-1.9,2.4-3.7,5.2-5,8.1c-1.4,2.9-2.4,6-3.1,9
							c-0.7,3.1-0.9,6.3-0.9,9.2c-0.1,1.4,0.2,3.1,0.3,4.7c0.1,0.5,0.2,1.4,0.3,2.1c0.1,0.7,0.2,1.4,0.4,2.1
							c0.5,2.8,1.3,5.4,2.2,7.8c1.8,4.7,4,8.5,5.7,11C222.7,372,223.9,373.3,223.9,373.3z"/>
					</g>
				</g>
			</g>
		</g>
		<g class="st5">
			<g>
				<g>
					<path class="st1" d="M274.7,333c0,20.8-16.9,37.6-37.7,37.6c-20.8,0-37.7-16.8-37.7-37.6s16.9-37.6,37.7-37.6
						C257.8,295.4,274.7,312.2,274.7,333z"/>
				</g>
			</g>
		</g>
	</g>
</g>
</svg>
