<?xml version="1.0" encoding="utf-8"?>
<!-- Generator: Adobe Illustrator 23.0.3, SVG Export Plug-In . SVG Version: 6.00 Build 0)  -->
<svg version="1.1" id="Layer_1" xmlns="http://www.w3.org/2000/svg" xmlns:xlink="http://www.w3.org/1999/xlink" x="0px" y="0px"
	 viewBox="0 0 500 500" style="enable-background:new 0 0 500 500;" xml:space="preserve">
<style type="text/css">
	.st0{fill:#44CEE3;}
	.st1{fill:#FFFFFF;}
	.st2{fill:#F4628F;}
	.st3{fill:#E8EC3A;}
	.st4{fill:#97BB02;}
	.st5{opacity:0.2;}
	.st6{opacity:0.5;}
	.st7{fill:#9470D0;}
	.st8{fill:#F23D7A;}
	.st9{fill:#DA1160;}
	.st10{fill:#B2B1B1;}
	.st11{fill:#E2E1DE;}
	.st12{fill:#6332BA;}
	.st13{fill:#5420AE;}
	.st14{fill:#FFC300;}
	.st15{fill:#DDA507;}
	.st16{fill:#49D8E5;}
	.st17{fill:#64095D;}
	.st18{fill:#490748;}
	.st19{fill:#EA0446;}
	.st20{fill:#EEF443;}
	.st21{fill:#03C4DE;}
	.st22{fill:#492111;}
	.st23{fill:#00838C;}
	.st24{fill:#652A1F;}
	.st25{fill:#C09670;}
	.st26{fill:#EBE0AE;}
	.st27{fill:#4E1E14;}
	.st28{fill:#D9A24B;}
	.st29{fill:#FFEAC0;}
	.st30{fill:#CB2519;}
	.st31{fill:#43CEE3;}
	.st32{fill:#00B8D2;}
	.st33{fill:#FFBD17;}
	.st34{fill:#FFD901;}
	.st35{fill:#5E0084;}
	.st36{fill:#F978A3;}
	.st37{fill:#EC115F;}
	.st38{fill:#FF9900;}
	.st39{fill:#EDB107;}
	.st40{fill:#B90615;}
	.st41{fill:#E1E5D8;}
	.st42{fill:#DD3107;}
	.st43{fill:#CDD905;}
	.st44{fill:#B2B212;}
	.st45{fill:#EB024D;}
</style>
<g>
	<g>
		<path class="st8" d="M248.9,65c2.4-1.9,5.8-1.9,8.2,0l25.6,20.2c1.7,1.3,3.9,1.8,5.9,1.2l31.4-8.8c3-0.8,6.1,0.5,7.6,3.1
			l15.9,28.4c1,1.9,2.9,3.1,5,3.3l32.4,3.8c3,0.4,5.4,2.8,5.8,5.8l3.8,32.4c0.3,2.1,1.5,4,3.3,5l28.4,15.9c2.7,1.5,4,4.6,3.1,7.6
			l-8.8,31.4c-0.6,2-0.1,4.2,1.2,5.9l20.2,25.6c1.9,2.4,1.9,5.8,0,8.2l-20.2,25.6c-1.3,1.7-1.8,3.9-1.2,5.9l8.8,31.4
			c0.8,3-0.5,6.1-3.1,7.6l-28.4,15.9c-1.9,1-3.1,2.9-3.3,5l-3.8,32.4c-0.4,3-2.8,5.4-5.8,5.8l-32.4,3.8c-2.1,0.3-4,1.5-5,3.3
			l-15.9,28.4c-1.5,2.7-4.6,4-7.6,3.1l-31.4-8.8c-2-0.6-4.2-0.1-5.9,1.2L257.1,435c-2.4,1.9-5.8,1.9-8.2,0l-25.6-20.2
			c-1.7-1.3-3.9-1.8-5.9-1.2l-31.4,8.8c-3,0.8-6.1-0.5-7.6-3.1l-15.9-28.4c-1-1.9-2.9-3.1-5-3.3l-32.4-3.8c-3-0.4-5.4-2.8-5.8-5.8
			l-3.8-32.4c-0.3-2.1-1.5-4-3.3-5l-28.4-15.9c-2.7-1.5-4-4.6-3.1-7.6l8.8-31.4c0.6-2,0.1-4.2-1.2-5.9l-20.2-25.6
			c-1.9-2.4-1.9-5.8,0-8.2l20.2-25.6c1.3-1.7,1.8-3.9,1.2-5.9L80.6,183c-0.8-3,0.5-6.1,3.1-7.6l28.4-15.9c1.9-1,3.1-2.9,3.3-5
			l3.8-32.4c0.4-3,2.8-5.4,5.8-5.8l32.4-3.8c2.1-0.2,4-1.5,5-3.3l15.9-28.4c1.5-2.7,4.6-4,7.6-3.1l31.4,8.8c2,0.6,4.2,0.1,5.9-1.2
			L248.9,65z"/>
	</g>
	<g>
		<path class="st7" d="M285.3,67.8c2.7-1.4,6.1-0.7,8.1,1.6l21.1,24.8c1.4,1.6,3.4,2.5,5.6,2.3l32.5-2.5c3.1-0.2,5.9,1.7,6.8,4.6
			l10,31c0.7,2,2.2,3.6,4.3,4.3l31,10.1c2.9,1,4.8,3.8,4.6,6.8l-2.6,32.5c-0.2,2.1,0.7,4.2,2.3,5.6l24.8,21.2c2.3,2,3,5.3,1.6,8.1
			l-14.8,29c-1,1.9-1,4.1,0,6l14.8,29.1c1.4,2.7,0.7,6.1-1.6,8.1l-24.8,21.1c-1.6,1.4-2.5,3.4-2.3,5.6l2.5,32.5
			c0.2,3.1-1.7,5.9-4.6,6.8l-31,10c-2,0.7-3.6,2.2-4.3,4.3l-10.1,31c-1,2.9-3.8,4.8-6.8,4.6l-32.5-2.6c-2.1-0.2-4.2,0.7-5.6,2.3
			l-21.2,24.8c-2,2.3-5.3,3-8.1,1.6l-29-14.8c-1.9-1-4.1-1-6,0l-29.1,14.8c-2.7,1.4-6.1,0.7-8.1-1.6l-21.1-24.8
			c-1.4-1.6-3.4-2.5-5.6-2.3l-32.5,2.5c-3.1,0.2-5.9-1.7-6.8-4.6l-10-31c-0.7-2-2.2-3.6-4.3-4.3l-31-10.1c-2.9-1-4.8-3.8-4.6-6.8
			l2.6-32.5c0.2-2.1-0.7-4.2-2.3-5.6l-24.8-21.2c-2.3-2-3-5.3-1.6-8.1l14.8-29c1-1.9,1-4.1,0-6l-14.8-29.1c-1.4-2.7-0.7-6.1,1.6-8.1
			l24.8-21.1c1.6-1.4,2.5-3.4,2.3-5.6l-2.5-32.5c-0.2-3.1,1.7-5.9,4.6-6.8l31-10c2-0.7,3.6-2.2,4.3-4.3l10.1-31
			c1-2.9,3.8-4.8,6.8-4.6l32.5,2.6c2.1,0.2,4.2-0.7,5.6-2.3l21.2-24.8c2-2.3,5.3-3,8.1-1.6l29,14.8c1.9,1,4.1,1,6,0L285.3,67.8z"/>
	</g>
	<g>
		
			<ellipse transform="matrix(9.998598e-03 -0.9999 0.9999 9.998598e-03 0.7565 500.2694)" class="st1" cx="253" cy="249.8" rx="156.9" ry="156.9"/>
	</g>
	<g>
		<polygon class="st8" points="38.7,284.6 253,284.6 253,210.9 38.7,210.9 65.7,249 		"/>
	</g>
	<g>
		<polygon class="st8" points="461.3,284.6 266.1,284.6 266.1,210.9 461.3,210.9 436.7,249 		"/>
	</g>
	<g>
		<path class="st1" d="M359.4,265.1v-21.3h-3.6v-2.9c1-0.1,2-0.5,2.9-1.1c0.9-0.6,1.6-1.4,2-2.3h2.9v27.7H359.4z"/>
		<path class="st1" d="M373.5,237c1.8,0,3.3,0.7,4.5,2c1.2,1.3,1.7,2.8,1.7,4.6v15.1c0,1.8-0.6,3.4-1.8,4.7
			c-1.2,1.3-2.7,1.9-4.5,1.9c-1.8,0-3.4-0.7-4.5-2c-1.2-1.3-1.7-2.8-1.7-4.6v-0.6h4.3v0.7c0,0.7,0.2,1.2,0.5,1.7
			c0.4,0.5,0.9,0.7,1.5,0.7c0.7,0,1.2-0.2,1.5-0.7c0.4-0.5,0.5-1,0.5-1.7v-5.5c-1,0.9-2,1.3-3.2,1.3c-1.8,0-3.2-0.6-4.1-1.9
			c-0.8-1.1-1.2-2.7-1.2-4.7v-4.7h0c0.1-1.3,0.4-2.4,1.1-3.5c0.7-1,1.6-1.8,2.7-2.3C371.8,237.2,372.6,237,373.5,237z M375.6,243.7
			c0-0.7-0.2-1.2-0.5-1.7c-0.4-0.5-0.9-0.7-1.5-0.7c-0.7,0-1.2,0.2-1.5,0.7c-0.4,0.5-0.5,1-0.5,1.7v5.1c0,0.8,0.3,1.5,0.9,2
			c0.3,0.2,0.7,0.4,1.2,0.4c1.1,0,1.7-0.6,2-1.7c0.1-0.3,0.1-0.6,0.1-0.8V243.7z"/>
		<path class="st1" d="M389.5,237c1.8,0,3.3,0.7,4.5,2c1.2,1.3,1.7,2.8,1.7,4.6v15.1c0,1.8-0.6,3.4-1.8,4.7
			c-1.2,1.3-2.7,1.9-4.5,1.9c-1.8,0-3.4-0.7-4.5-2c-1.2-1.3-1.7-2.8-1.7-4.6v-0.6h4.3v0.7c0,0.7,0.2,1.2,0.5,1.7
			c0.4,0.5,0.9,0.7,1.5,0.7c0.7,0,1.2-0.2,1.5-0.7c0.4-0.5,0.5-1,0.5-1.7v-5.5c-1,0.9-2,1.3-3.2,1.3c-1.8,0-3.2-0.6-4.1-1.9
			c-0.8-1.1-1.2-2.7-1.2-4.7v-4.7h0c0.1-1.3,0.4-2.4,1.1-3.5c0.7-1,1.6-1.8,2.7-2.3C387.8,237.2,388.7,237,389.5,237z M391.7,243.7
			c0-0.7-0.2-1.2-0.5-1.7c-0.4-0.5-0.9-0.7-1.5-0.7c-0.7,0-1.2,0.2-1.5,0.7c-0.4,0.5-0.5,1-0.5,1.7v5.1c0,0.8,0.3,1.5,0.9,2
			c0.3,0.2,0.7,0.4,1.2,0.4c1.1,0,1.7-0.6,2-1.7c0.1-0.3,0.1-0.6,0.1-0.8V243.7z"/>
		<path class="st1" d="M407.7,244.3v-0.7c0-0.7-0.2-1.2-0.5-1.7c-0.4-0.5-0.9-0.7-1.5-0.7c-0.7,0-1.2,0.2-1.5,0.7
			c-0.4,0.5-0.5,1-0.5,1.7v5.5c1-0.9,2-1.3,3.2-1.3c1.8,0,3.2,0.6,4.1,1.9c0.8,1.1,1.2,2.7,1.2,4.7v4.7h0c-0.1,1.8-0.7,3.2-1.9,4.4
			c-1.2,1.2-2.6,1.8-4.4,1.8c-1.8,0-3.4-0.7-4.5-2c-1.2-1.3-1.7-2.8-1.7-4.6v-15.1c0-1.4,0.3-2.6,1-3.7c0.7-1.1,1.6-1.9,2.8-2.4
			c0.8-0.4,1.6-0.5,2.5-0.5c1.8,0,3.3,0.7,4.5,2c1.2,1.3,1.7,2.8,1.7,4.6v0.6H407.7z M403.5,258.7c0,0.7,0.2,1.2,0.5,1.7
			c0.4,0.5,0.9,0.7,1.6,0.7c0.7,0,1.2-0.2,1.6-0.7c0.4-0.4,0.5-1,0.5-1.7v-5.1c0-0.8-0.3-1.5-0.9-2c-0.3-0.2-0.7-0.4-1.2-0.4
			c-0.7,0-1.3,0.3-1.6,0.9c-0.3,0.5-0.4,1-0.4,1.6V258.7z"/>
	</g>
	<g>
		<path class="st1" d="M99.7,257.2c0,1.9-0.5,3.6-1.5,4.9c-0.7,0.9-1.6,1.6-2.9,2c-0.7,0.2-1.4,0.3-2.3,0.3c-1.6,0-3-0.4-4.1-1.2
			c-0.9-0.7-1.6-1.6-2.1-2.7c-0.5-1.1-0.8-2.4-0.9-3.9l4-0.3c0.2,1.6,0.6,2.8,1.3,3.5c0.5,0.5,1.1,0.8,1.7,0.8
			c0.9,0,1.6-0.5,2.2-1.3c0.3-0.4,0.4-1,0.4-1.8c0-1.1-0.5-2.3-1.6-3.4c-0.8-0.8-2.1-2-3.7-3.5c-1.4-1.3-2.4-2.5-2.9-3.6
			c-0.6-1.2-0.9-2.5-0.9-3.9c0-2.5,0.8-4.4,2.5-5.7c1-0.8,2.3-1.2,3.9-1.2c1.5,0,2.8,0.3,3.8,1c0.8,0.5,1.5,1.2,2,2.2
			c0.5,0.9,0.8,2,0.9,3.2l-4,0.7c-0.1-1.1-0.4-2-1-2.6c-0.4-0.5-0.9-0.7-1.7-0.7c-0.8,0-1.3,0.3-1.7,1c-0.3,0.5-0.5,1.2-0.5,2
			c0,1.3,0.5,2.6,1.6,3.9c0.4,0.5,1,1.1,1.9,1.8c1,0.8,1.6,1.4,1.9,1.7c1,1,1.8,2,2.4,3c0.3,0.5,0.5,0.9,0.6,1.3
			C99.4,255.5,99.6,256.4,99.7,257.2z"/>
		<path class="st1" d="M107.3,264.1h-4.2v-27.6h4.2V264.1z"/>
		<path class="st1" d="M115.7,236.4l5.5,18.6v-18.6h4.2v27.7h-4.5l-5.7-17.7v17.7H111v-27.7H115.7z"/>
		<path class="st1" d="M135.7,264.4c-1.8,0-3.4-0.6-4.7-1.9c-1.3-1.3-1.9-2.8-1.9-4.7v-15.1c0-1.8,0.6-3.4,1.9-4.7
			c1.3-1.3,2.9-1.9,4.7-1.9c1.8,0,3.4,0.6,4.7,1.9c1.3,1.3,1.9,2.9,1.9,4.7v3.2H138v-3.2c0-0.7-0.2-1.2-0.7-1.7
			c-0.5-0.5-1-0.7-1.7-0.7c-0.7,0-1.2,0.2-1.7,0.7c-0.5,0.5-0.7,1-0.7,1.7v15.1c0,0.7,0.2,1.2,0.7,1.7c0.5,0.5,1,0.7,1.7,0.7
			c0.7,0,1.2-0.2,1.7-0.7c0.5-0.5,0.7-1,0.7-1.7v-3.8h4.3v3.9c0,1.8-0.6,3.4-1.9,4.7C139.1,263.8,137.5,264.4,135.7,264.4z"/>
		<path class="st1" d="M145.7,264.1v-27.7h11.9v4.2h-7.7v7.5h5.6v4.2h-5.6v7.5h7.7v4.2H145.7z"/>
	</g>
	<g>
		<g>
			<g>
				<path class="st14" d="M303.1,220.7c0,0,44.1,7.3,54.6,5.4c10.5-1.9,25-10.2,21.5-18.1c-3.5-8-20.5-7.3-18.1-17.4
					c2.3-10.1,4.7-17.8-1.5-19.8c-13.2-4.2-19.8-1.7-20.1-8.4c-0.2-6.7,3.1-21.8-13.1-15.3c-16.2,6.5-28.2,55.4-28.2,55.4
					S290,211.5,303.1,220.7z"/>
			</g>
		</g>
		<g>
			<g>
				<path class="st39" d="M315.8,215.4c0,0,42.3-5.1,51-8c8.7-2.9,9,6.9,4.2,9.5C366.2,219.5,350.6,226.4,315.8,215.4z"/>
			</g>
		</g>
		<g>
			<g>
				<path class="st39" d="M330.6,208.9c0,0,30.8-10.4,28.4-23c-2.4-12.6-23.3,2.1-27.9,9.6C326.6,202.9,322.6,208.3,330.6,208.9z"/>
			</g>
		</g>
		<g>
			<g>
				<path class="st39" d="M339,175.5c0,0-15.2,13.8-20.2,23.2c-4.9,9.4-7.6,10.7-8.7,3.9c-1.2-6.8,8.4-39.8,20.1-38.6
					C336.5,164.6,339.1,167.5,339,175.5z"/>
			</g>
		</g>
		<g>
			<g>
				<path class="st14" d="M199.6,289.8c0,0-44.4-5.5-54.8-3.1c-10.4,2.4-24.6,11.2-20.7,19c3.9,7.8,20.8,6.4,18.9,16.6
					c-1.9,10.2-4,18,2.3,19.7c13.4,3.6,19.9,0.9,20.4,7.5c0.5,6.7-2.2,21.9,13.7,14.7c15.9-7.1,25.9-56.5,25.9-56.5
					S213.1,298.4,199.6,289.8z"/>
			</g>
		</g>
		<g>
			<g>
				<path class="st39" d="M187.1,295.5c0,0-42,6.8-50.6,10.1c-8.6,3.3-9.2-6.6-4.6-9.3C136.6,293.6,151.9,286.1,187.1,295.5z"/>
			</g>
		</g>
		<g>
			<g>
				<path class="st39" d="M172.6,302.7c0,0-30.3,11.7-27.4,24.2c2.9,12.5,23.2-3.1,27.4-10.7C176.8,308.5,180.6,302.9,172.6,302.7z"
					/>
			</g>
		</g>
		<g>
			<g>
				<path class="st39" d="M165.6,336.4c0,0,14.6-14.5,19.2-24c4.5-9.6,7.1-11,8.6-4.2c1.5,6.7-6.8,40.2-18.5,39.5
					C168.6,347.3,165.8,344.4,165.6,336.4z"/>
			</g>
		</g>
		<g>
			<g>
				<g>
					<path class="st14" d="M305.9,211.4c3.6,4.7,10.9,9.2,12.5,14.8c7.2,24.4-4.6,55.3-30.9,75.7c-26.2,20.2-58.7,23.8-80.5,11
						c-5.1-3-8-9.5-11.7-14.3c-4.9-6.3-9.5-10.9-10.8-18.6c-3.9-23.4,8-51.1,32.3-69.8c24.2-18.7,54-23.2,75.6-13.6
						C299.4,199.7,301,205.1,305.9,211.4z"/>
				</g>
			</g>
		</g>
		<g>
			<g>
				<path class="st40" d="M305.9,211.4c-1-1.4-1.9-2.6-2.7-3.9c-1.5-1.3-3-2.5-4.6-3.6c-20.1-12.9-46.3-14.8-64,1
					c-5.9,5.3-13.8,16.6-6.3,23.8c5.8,7.6,19.1,9.4,30.3,10c-7-5.4-17.7-4.3-23.9-13.6c-6.2-9.3,6-18.2,12.4-21.8
					c34.4-15,68.2,14.3,72,48.2c0.1,0.7,0.1,1.4,0.2,2.1c1.9-9.3,1.8-18.5-0.6-27c-1.2-2.2-2.4-4.2-3.8-6.3
					C311.8,217.2,308.2,214.3,305.9,211.4z"/>
			</g>
			<g>
				<path class="st40" d="M242.8,301.8c15.8-2.5,28.9-15.3,33.6-31.3c3.5-13.8-2.8-30.4-17.9-31.8c18.2,6,15.7,30.6,6.1,42.4
					c-23.9,26.7-64.1,13.9-77.7-15.4c-0.9-1.9-1.6-3.9-2.3-5.8c-0.9,4.7-1.2,9.4-0.9,14C196.6,293,218.8,305.6,242.8,301.8z"/>
			</g>
			<g>
				<path class="st40" d="M206.4,249.4c5,11.5,17.6,17.2,27.8,14.4c11.5-5,18.1-14.2,24.3-25c-14.4,7.6-39.6,16.4-43.5-4.6
					c-1.9-10,0.6-19.4,5.9-27.2c-1.5,1-2.9,2-4.3,3.1c-4.3,3.3-8.2,6.9-11.7,10.7C202.5,229.7,202.6,239.5,206.4,249.4z"/>
			</g>
			<g>
				<path class="st40" d="M264.9,308.6c14.4-7.6,25.7-19.9,28.8-35.5c1.4-15.1,2.3-31.8-13-40.5c-8.2-3.2-15.8,2.5-22.2,6.1
					c10.2-2.8,21.9-0.5,25.2,11.4c3.7,13.7,3.6,26.5-6,38.4c-13.3,18.3-35.5,24.4-57.1,19.4c-12.5-3.2-23.1-9.4-31.8-17.6
					c1.9,2.7,4.1,5.4,6.4,8.3c2.3,3,4.4,6.7,6.8,9.8C220.9,318.9,244.2,318.7,264.9,308.6z"/>
			</g>
			<g>
				<path class="st40" d="M278.1,209.5c-9.9-2.8-22.8-2.9-29.5,6.3c-4.5,10.4,4.2,15.4,10,23c-2-14.1,9.7-24.7,22.3-19
					c32.2,16.9,27.6,60.3,4.5,83.2c-0.9,0.9-1.8,1.6-2.7,2.4c1.6-1.1,3.2-2.3,4.8-3.5c9.2-7.1,16.6-15.5,22.1-24.5
					C317.6,250.7,308.4,219.6,278.1,209.5z"/>
			</g>
			<g>
				<path class="st40" d="M256.5,277.9c10.1-10.1,17.3-30.5,2.1-39.1c6.4,16.6-4.7,36.2-22.3,39.2c-15.8,2.5-27.6-7.1-34.3-18.1
					c-5-8.4-6.7-17.8-6.1-27.2c-2.9,4.5-5.3,9.1-7.2,13.7c1.4,7.1,4.2,13.9,7.8,20.4C209.4,287.1,237.6,295.9,256.5,277.9z"/>
			</g>
		</g>
		<g class="st5">
			<g>
				<path class="st1" d="M314.3,228.1c0.3-2.6,0.4-5.1,0.5-7.6c-2.9-3.2-6.6-6.1-8.9-9c-4.9-6.3-6.5-11.7-13.7-14.9
					c-21.6-9.6-51.3-5.1-75.6,13.6c-24.3,18.8-36.2,46.5-32.3,69.8c0.9,5.2,3.3,9,6.3,12.9c9.2,4.9,19.4,8.3,30.4,9.6
					C267.4,307.6,309.1,274.4,314.3,228.1z"/>
			</g>
		</g>
		<g class="st6">
			<g>
				<g>
					<path class="st1" d="M288.7,204.9c0,0-2.4,0.1-6.3,0.5c-2,0.2-4.4,0.5-7.1,0.8c-2.7,0.4-5.7,0.9-9,1.6
						c-3.2,0.7-6.7,1.4-10.2,2.5c-0.9,0.2-1.8,0.5-2.7,0.7c-0.9,0.3-1.8,0.6-2.7,0.9c-1.8,0.6-3.7,1.2-5.5,2
						c-3.7,1.4-7.2,3.3-10.8,5.2c-1.7,1.1-3.4,2.2-5.2,3.2c-1.7,1.2-3.2,2.5-4.9,3.7c-1.7,1.1-3.1,2.7-4.6,4l-2.3,2.1
						c-0.7,0.7-1.4,1.5-2,2.3l-2,2.3l-1,1.1l-0.5,0.6l-0.1,0.1l0,0c0.1-0.1-0.2,0.2,0.1-0.2l-0.1,0.1l-0.2,0.3
						c-1.2,1.7-2.8,3.6-3.7,5.1c-2,3-4.1,6.3-5.6,9.6c-1.6,3.2-2.9,6.4-4,9.5c-1,3.1-1.9,5.9-2.4,8.6c-0.6,2.6-1,5-1.3,6.9
						c-0.5,3.9-0.6,6.3-0.6,6.3s-1.1-2.1-2.2-6.1c-1.1-4-2-10-1.5-17.3c0.3-3.6,0.9-7.6,2-11.7c0.5-2.1,1.2-4.1,2.1-6.2
						c0.7-2.1,1.8-4.2,2.9-6.4c1.1-2.3,2.2-3.8,3.3-5.8c1.6-2.3,2.9-3.9,4.5-5.9c0.8-0.9,1.5-1.9,2.3-2.9l2.6-2.6
						c1.8-1.7,3.5-3.6,5.5-5c2-1.5,4-3,6-4.4c2.1-1.3,4.3-2.4,6.5-3.6c4.4-2.1,8.9-3.9,13.3-5c2.2-0.7,4.4-1.1,6.6-1.5
						c2.2-0.4,4.3-0.7,6.3-0.8c4.1-0.4,8-0.4,11.6-0.2c1.8,0.2,3.5,0.2,5.1,0.5c1.6,0.3,3.1,0.5,4.5,0.7c2.8,0.5,5.3,1.2,7.2,1.8
						c2,0.5,3.5,1.2,4.5,1.6C288.2,204.6,288.7,204.9,288.7,204.9z"/>
				</g>
			</g>
		</g>
	</g>
	<g>
		<path class="st7" d="M184.7,162.7c-0.7,1.9-1.8,3.5-3,4.8c-1.3,1.3-2.7,2.4-4.1,3.2c-1.5,0.8-3,1.4-4.5,1.8
			c-1.5,0.4-3,0.6-4.2,0.6c-2.1,0-3.9-0.2-5.4-0.7c-1.5-0.5-2.8-1.3-3.8-2.4c-1-1.1-1.8-2.5-2.3-4.3c-0.5-1.7-0.7-3.9-0.7-6.4
			c0-1.3,0.1-2.7,0.2-4.2c0.2-1.5,0.4-3.1,0.7-4.7c0.3-1.6,0.8-3.2,1.3-4.8c0.5-1.6,1.2-3.2,2-4.7c0.8-1.5,1.6-2.9,2.6-4.2
			c1-1.3,2.1-2.4,3.4-3.4c1.3-1,2.6-1.7,4.2-2.3c1.5-0.6,3.2-0.8,5.1-0.8c1.3,0,2.5,0.1,3.6,0.4c1.1,0.3,2.1,0.7,3,1.3
			c0.8,0.6,1.5,1.4,2,2.3c0.5,0.9,0.7,2.1,0.7,3.4c0,0.7-0.1,1.4-0.2,2.1c-0.1,0.6-0.4,1.2-0.7,1.6c-0.3,0.5-0.7,0.8-1.2,1.1
			c-0.5,0.3-1.1,0.4-1.8,0.4c-0.4,0-0.9-0.1-1.5-0.2c-0.6-0.2-1.1-0.6-1.7-1.2c0.3-0.2,0.6-0.4,1-0.8c0.3-0.4,0.6-0.8,0.8-1.2
			c0.2-0.5,0.4-1,0.6-1.5c0.1-0.5,0.2-1.1,0.2-1.6c0-0.4-0.1-0.9-0.2-1.3c-0.1-0.4-0.3-0.8-0.6-1.1c-0.3-0.3-0.6-0.6-1.1-0.8
			c-0.4-0.2-1-0.3-1.6-0.3c-1,0-2,0.4-3,1.1c-1,0.8-1.9,1.8-2.8,3.1c-0.9,1.3-1.7,2.8-2.4,4.5c-0.7,1.7-1.3,3.6-1.8,5.5
			c-0.5,1.9-0.9,3.9-1.2,6c-0.3,2-0.4,4-0.4,5.9c0,1.3,0.1,2.5,0.3,3.5c0.2,1.1,0.5,2,1,2.7c0.5,0.8,1.2,1.4,2,1.8
			c0.9,0.4,2,0.6,3.3,0.6c2.2,0,4.2-0.5,6.1-1.5c1.9-1,3.5-2.4,4.8-4.1L184.7,162.7z"/>
		<path class="st7" d="M215,162.2c-0.5,1.5-1.1,2.8-1.7,3.9c-0.6,1.1-1.3,2-1.9,2.8c-0.7,0.8-1.3,1.4-2,1.9c-0.7,0.5-1.4,0.8-2,1.1
			c-0.7,0.3-1.3,0.4-1.9,0.5c-0.6,0.1-1.1,0.1-1.6,0.1c-1.6,0-2.8-0.4-3.8-1.3c-0.9-0.9-1.5-2.1-1.7-3.8c-0.5,0.6-1,1.3-1.5,1.9
			c-0.5,0.6-1.2,1.2-1.8,1.6c-0.7,0.5-1.4,0.9-2.3,1.2c-0.8,0.3-1.7,0.4-2.7,0.4c-1,0-1.9-0.2-2.8-0.5c-0.9-0.3-1.7-0.8-2.4-1.5
			c-0.7-0.7-1.2-1.6-1.7-2.8c-0.4-1.1-0.6-2.5-0.6-4.2c0-1.3,0.1-2.6,0.4-4.1c0.3-1.5,0.6-2.9,1.2-4.4c0.5-1.5,1.2-2.9,2-4.2
			c0.8-1.3,1.7-2.5,2.8-3.5c1.1-1,2.3-1.8,3.6-2.5s2.8-0.9,4.5-0.9c1.6,0,2.7,0.3,3.5,0.8c0.7,0.5,1.1,1.2,1.1,2v0.4l0.6-3h8.1
			l-4,19c-0.1,0.3-0.2,0.6-0.2,0.9c0,0.3-0.1,0.6-0.1,0.9c0,1.6,0.8,2.4,2.3,2.4c0.5,0,1.1-0.1,1.5-0.4c0.5-0.3,0.9-0.7,1.3-1.1
			c0.4-0.5,0.7-1,1-1.7c0.3-0.6,0.5-1.3,0.7-2H215z M200.9,149.6c0-0.2,0-0.4-0.1-0.6c-0.1-0.2-0.2-0.5-0.4-0.7
			c-0.2-0.2-0.4-0.4-0.7-0.6c-0.3-0.2-0.7-0.2-1.1-0.2c-0.8,0-1.5,0.3-2.2,0.8c-0.7,0.5-1.3,1.2-1.9,2c-0.6,0.8-1.1,1.8-1.6,2.9
			c-0.5,1.1-0.8,2.2-1.2,3.3c-0.3,1.1-0.6,2.3-0.7,3.4c-0.2,1.1-0.2,2.1-0.2,3c0,1.1,0.1,1.9,0.3,2.5c0.2,0.6,0.4,1,0.7,1.3
			c0.3,0.3,0.6,0.5,0.9,0.5c0.3,0.1,0.6,0.1,0.9,0.1c0.4,0,0.9-0.1,1.3-0.3c0.5-0.2,0.9-0.5,1.3-0.9c0.4-0.4,0.8-0.9,1.2-1.5
			c0.4-0.6,0.6-1.3,0.8-2.2L200.9,149.6z"/>
		<path class="st7" d="M243.3,162.2c-0.8,2.3-1.6,4.1-2.5,5.5c-0.9,1.4-1.8,2.4-2.7,3.1c-0.9,0.7-1.8,1.2-2.7,1.4
			c-0.9,0.2-1.7,0.3-2.4,0.3c-1.2,0-2.3-0.2-3.1-0.5c-0.8-0.4-1.5-0.8-2-1.4c-0.5-0.6-0.9-1.3-1.1-2c-0.2-0.8-0.3-1.5-0.3-2.3
			c0-0.9,0.1-2.1,0.4-3.3c0.3-1.3,0.5-2.6,0.9-3.9c0.3-1.3,0.6-2.6,0.9-3.8c0.3-1.2,0.4-2.3,0.4-3.2c0-1.9-0.7-2.9-2-2.9
			c-0.5,0-1,0.1-1.4,0.4c-0.4,0.3-0.8,0.6-1.2,1.1c-0.4,0.5-0.7,1-1,1.6c-0.3,0.6-0.5,1.3-0.8,2l-3.8,17.9h-8.1l5.9-28h8.1l-0.6,2.9
			c0.6-0.7,1.2-1.2,1.8-1.6c0.6-0.4,1.2-0.7,1.7-0.9c0.6-0.2,1.1-0.4,1.6-0.4c0.5-0.1,1-0.1,1.4-0.1c0.9,0,1.7,0.1,2.5,0.4
			c0.8,0.2,1.4,0.6,2,1.1c0.6,0.5,1,1.2,1.3,2c0.3,0.8,0.5,1.8,0.5,2.9c0,0.7-0.1,1.6-0.2,2.4c-0.1,0.9-0.3,1.7-0.5,2.6
			c-0.2,0.9-0.4,1.8-0.6,2.7c-0.2,0.9-0.4,1.7-0.6,2.6c-0.2,0.8-0.4,1.6-0.5,2.3c-0.1,0.7-0.2,1.3-0.2,1.8c0,0.7,0.2,1.3,0.5,1.7
			c0.3,0.4,0.9,0.7,1.8,0.7c0.6,0,1.1-0.1,1.6-0.4c0.5-0.2,0.9-0.6,1.2-1c0.4-0.4,0.7-1,1-1.6c0.3-0.6,0.6-1.3,0.9-2H243.3z"/>
		<path class="st7" d="M272.6,162.2c-0.5,1.5-1.1,2.8-1.7,3.9c-0.6,1.1-1.3,2-1.9,2.7c-0.7,0.7-1.3,1.3-2,1.8c-0.7,0.4-1.4,0.8-2,1
			c-0.7,0.2-1.3,0.4-1.9,0.5c-0.6,0.1-1.1,0.1-1.6,0.1c-1.5,0-2.8-0.4-3.7-1.2c-0.9-0.8-1.5-2-1.7-3.6c-0.4,0.6-0.9,1.3-1.4,1.9
			c-0.5,0.6-1.1,1.2-1.8,1.6c-0.7,0.5-1.4,0.9-2.3,1.2c-0.8,0.3-1.7,0.4-2.7,0.4c-1,0-1.9-0.2-2.8-0.5c-0.9-0.3-1.7-0.8-2.4-1.5
			c-0.7-0.7-1.2-1.6-1.7-2.8c-0.4-1.1-0.6-2.5-0.6-4.2c0-1.3,0.1-2.6,0.4-4.1c0.3-1.5,0.6-2.9,1.2-4.4c0.5-1.5,1.2-2.9,2-4.2
			c0.8-1.3,1.7-2.5,2.8-3.5c1.1-1,2.3-1.8,3.6-2.5s2.8-0.9,4.5-0.9c1.6,0,2.7,0.3,3.5,0.8c0.7,0.5,1.1,1.2,1.1,2v0.2l2.7-12.9
			l8.3-1.1l-6.4,30.2c-0.1,0.3-0.2,0.6-0.2,0.9c0,0.3-0.1,0.6-0.1,0.9c0,0.8,0.2,1.3,0.6,1.6c0.4,0.3,1,0.4,1.7,0.4
			c0.5,0,1-0.1,1.5-0.4c0.5-0.2,0.9-0.6,1.3-1c0.4-0.4,0.7-1,1-1.6c0.3-0.6,0.5-1.3,0.8-2H272.6z M255.8,162.2l2.7-12.8
			c0-0.2-0.1-0.4-0.2-0.6c-0.1-0.2-0.2-0.4-0.4-0.6c-0.2-0.2-0.4-0.4-0.7-0.5c-0.3-0.1-0.6-0.2-1.1-0.2c-0.8,0-1.5,0.3-2.2,0.8
			c-0.7,0.5-1.3,1.2-1.9,2c-0.6,0.8-1.1,1.8-1.6,2.9c-0.5,1.1-0.8,2.2-1.2,3.3c-0.3,1.1-0.6,2.3-0.7,3.4c-0.2,1.1-0.2,2.1-0.2,3
			c0,1.1,0.1,1.9,0.3,2.5c0.2,0.6,0.4,1,0.7,1.3c0.3,0.3,0.6,0.5,0.9,0.5c0.3,0.1,0.6,0.1,0.9,0.1c0.4,0,0.8-0.1,1.3-0.3
			c0.5-0.2,0.9-0.5,1.3-0.9c0.4-0.4,0.8-0.9,1.2-1.4c0.4-0.6,0.6-1.3,0.8-2V162.2z"/>
		<path class="st7" d="M282.6,169.3c-0.6,0.7-1.2,1.2-1.8,1.7c-0.6,0.4-1.2,0.7-1.8,1c-0.6,0.2-1.1,0.4-1.7,0.5
			c-0.5,0.1-1.1,0.1-1.6,0.1c-0.8,0-1.6-0.1-2.3-0.4c-0.7-0.3-1.4-0.7-1.9-1.2c-0.5-0.5-1-1.2-1.3-2.1c-0.3-0.8-0.5-1.8-0.5-3
			c0-0.5,0-1.1,0.1-1.7c0.1-0.6,0.2-1.3,0.3-2l3.8-17.9h8.1l-4,19c-0.1,0.5-0.2,0.9-0.2,1.4c0,0.3,0,0.6,0.1,0.9
			c0.1,0.3,0.1,0.6,0.3,0.8c0.1,0.2,0.3,0.4,0.5,0.5c0.2,0.1,0.5,0.2,0.8,0.2c0.5,0,1-0.1,1.5-0.4c0.5-0.2,0.9-0.6,1.2-1
			c0.4-0.4,0.7-1,1-1.6c0.3-0.6,0.5-1.3,0.8-2l3.8-17.9h8.1l-6.8,32.4c-0.4,2-1,3.6-1.8,4.9c-0.8,1.2-1.6,2.2-2.6,2.9
			c-0.9,0.7-1.9,1.2-2.9,1.4c-1,0.2-2,0.4-2.9,0.4c-0.8,0-1.7-0.1-2.4-0.4c-0.8-0.3-1.5-0.7-2.1-1.2c-0.6-0.5-1.1-1.2-1.5-1.9
			c-0.4-0.7-0.6-1.6-0.6-2.5c0-1.3,0.2-2.4,0.8-3.3c0.5-0.9,1.2-1.6,2.1-2.3c0.9-0.6,1.9-1.1,3.1-1.6c1.2-0.4,2.4-0.8,3.8-1.2
			L282.6,169.3z M281.7,173.5c-0.9,0.3-1.7,0.6-2.5,1c-0.8,0.4-1.4,0.8-2,1.2c-0.6,0.5-1,1-1.3,1.6c-0.3,0.6-0.5,1.3-0.5,2
			c0,0.2,0.1,0.4,0.2,0.7c0.1,0.2,0.3,0.4,0.5,0.6c0.2,0.2,0.4,0.3,0.7,0.4c0.3,0.1,0.6,0.2,0.9,0.2c0.3,0,0.6-0.1,0.9-0.2
			c0.3-0.1,0.6-0.4,0.9-0.7c0.3-0.3,0.6-0.8,0.8-1.4c0.3-0.6,0.5-1.3,0.7-2.1L281.7,173.5z"/>
	</g>
	<g>
		<path class="st7" d="M276.4,349.6c-1.5,1.7-2.9,3.1-4.4,4.2c-1.5,1.1-2.9,2-4.2,2.8c-0.6,0.6-1.2,1.1-2,1.6
			c-0.7,0.4-1.5,0.8-2.2,1c-0.8,0.3-1.6,0.5-2.3,0.6c-0.8,0.1-1.5,0.2-2.3,0.2c-1.4,0-2.6-0.2-3.6-0.6c-1-0.4-1.9-1-2.6-1.7
			c-0.7-0.7-1.2-1.4-1.5-2.3c-0.3-0.8-0.5-1.7-0.5-2.6c0-0.7,0.1-1.3,0.3-1.8c0.2-0.6,0.4-1,0.7-1.5c0.3-0.4,0.6-0.8,0.9-1.1
			c0.4-0.3,0.7-0.6,1.1-0.7c1.6-2.8,2.9-5.6,4-8.3c1.1-2.7,2-5.5,2.9-8.3l8.3-1.1c0.1,2.4,0.2,4.5,0.3,6.3c0.1,1.8,0.2,3.3,0.3,4.6
			c0.1,1.3,0.2,2.4,0.2,3.3c0.1,0.9,0.1,1.7,0.2,2.4c0.1,0.7,0.1,1.3,0.1,1.9c0,0.6,0,1.2,0,1.8c0,0.4,0,0.8,0,1.1
			c0,0.3-0.1,0.7-0.2,1c0.8-0.5,1.6-0.9,2.2-1.4c0.7-0.5,1.3-0.9,1.8-1.4H276.4z M253.9,351.6c0,1.3,0.3,2.3,0.8,2.9
			c0.5,0.6,1.4,1,2.6,1c0.6,0,1.2-0.1,1.8-0.3c0.6-0.2,1.1-0.5,1.6-0.9c0.5-0.4,0.8-0.9,1.1-1.6c0.3-0.7,0.4-1.5,0.4-2.5
			c0-0.5,0-0.9,0-1.4c0-0.4-0.1-0.9-0.1-1.4c0-0.5-0.1-1.1-0.1-1.7c-0.1-0.6-0.1-1.3-0.2-2.2c-0.1-0.8-0.2-1.8-0.3-2.8
			c-0.1-1.1-0.2-2.3-0.3-3.8c-0.6,1.8-1.2,3.6-2,5.3c-0.8,1.7-1.6,3.5-2.5,5.3c0.4,0.2,0.7,0.5,0.9,0.8c0.2,0.3,0.4,0.7,0.4,1.2
			c0,0.3-0.1,0.7-0.2,1c-0.1,0.3-0.3,0.6-0.5,0.9c-0.2,0.3-0.5,0.5-0.8,0.6c-0.3,0.2-0.6,0.2-1,0.2c-0.3,0-0.6,0-0.9-0.1
			C254.2,352.1,254,351.9,253.9,351.6z"/>
		<path class="st7" d="M304.6,349.6c-0.8,2.3-1.6,4.1-2.5,5.5c-0.9,1.4-1.8,2.4-2.7,3.1c-0.9,0.7-1.8,1.2-2.7,1.4
			c-0.9,0.2-1.7,0.3-2.4,0.3c-1.2,0-2.3-0.2-3.1-0.5c-0.8-0.4-1.5-0.8-2-1.4c-0.5-0.6-0.9-1.3-1.1-2c-0.2-0.8-0.3-1.5-0.3-2.3
			c0-0.9,0.1-2.1,0.4-3.3c0.3-1.3,0.6-2.6,0.9-3.9c0.3-1.3,0.6-2.6,0.9-3.8c0.3-1.2,0.4-2.3,0.4-3.2c0-1.9-0.7-2.9-2-2.9
			c-0.5,0-1,0.1-1.4,0.4c-0.4,0.3-0.8,0.6-1.2,1.1c-0.4,0.5-0.7,1-1,1.6c-0.3,0.6-0.5,1.3-0.8,2l-3.8,17.9h-8.1l8.1-38l8.3-1.1
			l-3,14.1c0.6-0.7,1.2-1.2,1.8-1.6c0.6-0.4,1.2-0.7,1.7-0.9c0.6-0.2,1.1-0.4,1.6-0.4c0.5-0.1,1-0.1,1.4-0.1c0.9,0,1.7,0.1,2.5,0.4
			c0.8,0.2,1.4,0.6,2,1.1c0.6,0.5,1,1.2,1.3,2c0.3,0.8,0.5,1.8,0.5,2.9c0,0.7-0.1,1.6-0.2,2.4c-0.1,0.9-0.3,1.7-0.5,2.7
			c-0.2,0.9-0.4,1.8-0.6,2.7c-0.2,0.9-0.4,1.7-0.6,2.6c-0.2,0.8-0.4,1.6-0.5,2.3c-0.1,0.7-0.2,1.3-0.2,1.8c0,0.7,0.2,1.3,0.5,1.7
			c0.3,0.4,0.9,0.7,1.8,0.7c0.6,0,1.1-0.1,1.6-0.4c0.5-0.2,0.9-0.6,1.2-1c0.4-0.4,0.7-1,1-1.6c0.3-0.6,0.6-1.3,0.9-2H304.6z"/>
		<path class="st7" d="M333.7,338.4c-1.1,1.1-2.5,2.1-4.2,2.9c-1.7,0.8-3.6,1.4-5.7,1.7c-0.2,2.6-0.7,4.9-1.5,7
			c-0.8,2.1-1.8,3.8-2.9,5.3c-1.2,1.5-2.5,2.6-4.1,3.4c-1.5,0.8-3.1,1.2-4.9,1.2c-1.3,0-2.5-0.2-3.6-0.5c-1.1-0.3-2.1-0.8-2.8-1.5
			c-0.8-0.7-1.4-1.6-1.9-2.7c-0.4-1.1-0.7-2.5-0.7-4.1c0-1.1,0.1-2.3,0.3-3.7c0.2-1.4,0.6-2.8,1.1-4.3c0.5-1.5,1.1-2.9,1.9-4.3
			c0.8-1.4,1.8-2.7,2.9-3.8c1.1-1.1,2.5-2,3.9-2.7c1.5-0.7,3.2-1,5.1-1c4.8,0,7.2,3,7.2,8.9v0.1c0.1,0,0.2,0.1,0.3,0.1
			c0.1,0,0.2,0,0.3,0c0.7,0,1.4-0.1,2.1-0.3c0.8-0.2,1.5-0.4,2.3-0.8c0.8-0.3,1.5-0.7,2.2-1.1c0.7-0.4,1.4-0.8,2-1.2L333.7,338.4z
			 M319.1,343.2c-0.6-0.1-1-0.4-1.2-0.9c-0.2-0.4-0.3-0.9-0.3-1.5c0-0.8,0.2-1.4,0.5-1.9c0.3-0.5,0.7-0.9,1.3-1.1
			c0-0.6-0.1-1.1-0.2-1.5c-0.1-0.4-0.2-0.7-0.4-1c-0.2-0.3-0.4-0.5-0.6-0.6c-0.2-0.1-0.6-0.2-0.9-0.2c-0.7,0-1.3,0.3-1.9,0.8
			c-0.6,0.5-1.2,1.2-1.8,2.1c-0.6,0.9-1.1,1.8-1.5,2.9c-0.5,1.1-0.9,2.2-1.2,3.4c-0.3,1.2-0.6,2.3-0.8,3.5c-0.2,1.1-0.3,2.2-0.3,3.1
			c0,0.9,0,1.7,0.2,2.3c0.1,0.6,0.3,1,0.5,1.4c0.2,0.3,0.5,0.6,0.9,0.7c0.4,0.1,0.8,0.2,1.3,0.2c0.7,0,1.3-0.3,2-0.9
			c0.7-0.6,1.3-1.4,1.9-2.5c0.6-1,1.1-2.3,1.5-3.7C318.6,346.3,318.9,344.8,319.1,343.2z"/>
		<path class="st7" d="M321.7,373.6l9.3-44h8.1l-0.9,4.2c0.8-0.7,1.8-1.3,2.8-1.7c1.1-0.5,2.3-0.7,3.7-0.7c0.9,0,1.8,0.1,2.7,0.5
			c0.8,0.3,1.6,0.8,2.2,1.5c0.6,0.7,1.1,1.6,1.4,2.7c0.4,1.1,0.5,2.5,0.5,4.2c0,1.3-0.1,2.6-0.3,4.1c-0.2,1.5-0.5,2.9-0.9,4.4
			c-0.4,1.5-1,2.9-1.7,4.2c-0.7,1.4-1.5,2.6-2.6,3.6c-1,1-2.2,1.9-3.6,2.5c-1.4,0.6-3,0.9-4.8,0.9c-0.7,0-1.3-0.1-1.9-0.2
			c-0.5-0.1-1-0.3-1.4-0.4c-0.4-0.2-0.7-0.4-0.9-0.6c-0.2-0.2-0.4-0.5-0.6-0.8l-2.9,13.6L321.7,373.6z M334,353.8
			c0.1,0.3,0.3,0.6,0.7,0.9c0.3,0.3,0.8,0.4,1.5,0.4c1,0,1.9-0.2,2.6-0.7c0.8-0.5,1.4-1.2,2-2c0.6-0.8,1.1-1.8,1.5-2.8
			c0.4-1.1,0.7-2.1,1-3.2c0.3-1.1,0.4-2.2,0.6-3.3c0.1-1.1,0.2-2.1,0.2-2.9c0-1.1-0.1-1.9-0.3-2.5c-0.2-0.6-0.4-1.1-0.7-1.4
			c-0.3-0.3-0.6-0.5-0.9-0.6c-0.3-0.1-0.6-0.1-0.9-0.1c-0.6,0-1.3,0.2-2,0.7c-0.7,0.5-1.3,1.1-1.8,2.1L334,353.8z"/>
	</g>
</g>
</svg>
