<?xml version="1.0" encoding="utf-8"?>
<!-- Generator: Adobe Illustrator 23.0.3, SVG Export Plug-In . SVG Version: 6.00 Build 0)  -->
<svg version="1.1" id="Layer_1" xmlns="http://www.w3.org/2000/svg" xmlns:xlink="http://www.w3.org/1999/xlink" x="0px" y="0px"
	 viewBox="0 0 500 500" style="enable-background:new 0 0 500 500;" xml:space="preserve">
<style type="text/css">
	.st0{fill:#44CEE3;}
	.st1{fill:#FFFFFF;}
	.st2{fill:#F4628F;}
	.st3{fill:#E8EC3A;}
	.st4{fill:#97BB02;}
	.st5{opacity:0.2;}
	.st6{opacity:0.5;}
	.st7{fill:#9470D0;}
	.st8{fill:#F23D7A;}
	.st9{fill:#DA1160;}
	.st10{fill:#B2B1B1;}
	.st11{fill:#E2E1DE;}
	.st12{fill:#6332BA;}
	.st13{fill:#5420AE;}
	.st14{fill:#FFC300;}
	.st15{fill:#DDA507;}
	.st16{fill:#49D8E5;}
	.st17{fill:#64095D;}
	.st18{fill:#490748;}
	.st19{fill:#EA0446;}
	.st20{fill:#EEF443;}
	.st21{fill:#03C4DE;}
	.st22{fill:#492111;}
	.st23{fill:#00838C;}
	.st24{fill:#652A1F;}
	.st25{fill:#C09670;}
	.st26{fill:#EBE0AE;}
	.st27{fill:#4E1E14;}
	.st28{fill:#D9A24B;}
	.st29{fill:#FFEAC0;}
	.st30{fill:#CB2519;}
	.st31{fill:#43CEE3;}
	.st32{fill:#00B8D2;}
	.st33{fill:#FFBD17;}
	.st34{fill:#FFD901;}
	.st35{fill:#5E0084;}
	.st36{fill:#F978A3;}
	.st37{fill:#EC115F;}
	.st38{fill:#FF9900;}
	.st39{fill:#EDB107;}
	.st40{fill:#B90615;}
	.st41{fill:#E1E5D8;}
	.st42{fill:#DD3107;}
	.st43{fill:#CDD905;}
	.st44{fill:#B2B212;}
	.st45{fill:#EB024D;}
</style>
<g>
	<g>
		<path class="st2" d="M249.7,58.3c0.6-1,1.7-1.5,2.9-1.5c1.2,0,2.2,0.6,2.9,1.5l10.7,16.1c0.6,0.9,1.5,1.4,2.6,1.5
			c1,0.1,2.1-0.3,2.8-1L285,61c0.8-0.8,2-1.2,3.1-1c1.1,0.2,2.1,1,2.5,2l7.6,17.8c0.4,1,1.2,1.7,2.2,2c1,0.3,2.1,0.1,2.9-0.5
			l15.8-11.1c0.9-0.7,2.2-0.8,3.2-0.4c1.1,0.4,1.9,1.3,2.1,2.5l4.2,18.9c0.2,1,0.9,1.9,1.8,2.3c0.9,0.5,2,0.5,3,0l17.6-8
			c1-0.5,2.3-0.4,3.3,0.2c1,0.6,1.6,1.7,1.6,2.8l0.6,19.3c0,1,0.5,2,1.4,2.6c0.8,0.6,1.9,0.8,2.9,0.6l18.7-4.7
			c1.1-0.3,2.3,0,3.2,0.8c0.9,0.8,1.3,1.9,1.1,3.1l-2.9,19.1c-0.2,1,0.2,2.1,0.9,2.9c0.7,0.8,1.7,1.2,2.8,1.1l19.3-1.2
			c1.2-0.1,2.3,0.4,3,1.4c0.7,0.9,0.9,2.1,0.5,3.2l-6.4,18.2c-0.3,1-0.2,2.1,0.3,3c0.6,0.9,1.5,1.5,2.5,1.6l19.2,2.4
			c1.1,0.1,2.1,0.9,2.7,1.9c0.5,1,0.5,2.3-0.1,3.3l-9.6,16.7c-0.5,0.9-0.6,2-0.2,3c0.4,1,1.2,1.7,2.2,2l18.4,5.9
			c1.1,0.4,2,1.2,2.3,2.3c0.3,1.1,0.1,2.3-0.7,3.2L425.2,215c-0.7,0.8-1,1.9-0.8,2.9c0.2,1,0.8,1.9,1.8,2.4l17,9.2
			c1,0.5,1.7,1.6,1.8,2.7c0.1,1.2-0.4,2.3-1.3,3l-15,12.1c-0.8,0.7-1.3,1.6-1.3,2.7c0,1,0.5,2,1.3,2.7l15,12.1
			c0.9,0.7,1.4,1.9,1.3,3c-0.1,1.2-0.8,2.2-1.8,2.7l-17,9.2c-0.9,0.5-1.6,1.4-1.8,2.4c-0.2,1,0.1,2.1,0.8,2.9l12.6,14.7
			c0.8,0.9,1,2.1,0.7,3.2c-0.3,1.1-1.2,2-2.3,2.3l-18.4,5.9c-1,0.3-1.8,1.1-2.2,2c-0.4,1-0.3,2.1,0.2,3l9.6,16.7
			c0.6,1,0.6,2.2,0.1,3.3c-0.5,1-1.5,1.7-2.7,1.9l-19.2,2.4c-1,0.1-2,0.7-2.5,1.6c-0.6,0.9-0.7,2-0.3,3l6.4,18.2
			c0.4,1.1,0.2,2.3-0.5,3.2c-0.7,0.9-1.8,1.4-3,1.4l-19.3-1.2c-1-0.1-2.1,0.3-2.8,1.1c-0.7,0.8-1,1.8-0.9,2.9l2.9,19.1
			c0.2,1.1-0.2,2.3-1.1,3.1c-0.9,0.8-2,1.1-3.2,0.8l-18.7-4.7c-1-0.3-2.1,0-2.9,0.6c-0.8,0.6-1.3,1.6-1.4,2.6l-0.6,19.3
			c0,1.2-0.7,2.2-1.6,2.8c-1,0.6-2.2,0.7-3.3,0.2l-17.6-8c-0.9-0.4-2-0.4-3,0c-0.9,0.5-1.6,1.3-1.8,2.3l-4.2,18.9
			c-0.3,1.1-1,2.1-2.1,2.5c-1.1,0.4-2.3,0.3-3.2-0.4l-15.8-11.1c-0.9-0.6-1.9-0.8-2.9-0.5c-1,0.3-1.8,1-2.2,2l-7.6,17.8
			c-0.5,1.1-1.4,1.8-2.5,2c-1.1,0.2-2.3-0.2-3.1-1l-13.5-13.9c-0.7-0.7-1.8-1.1-2.8-1c-1,0.1-2,0.7-2.6,1.5l-10.7,16.1
			c-0.6,1-1.7,1.5-2.9,1.5c-1.2,0-2.2-0.6-2.9-1.5L239,425.7c-0.6-0.9-1.5-1.4-2.6-1.5c-1-0.1-2.1,0.3-2.8,1L220.2,439
			c-0.8,0.8-2,1.2-3.1,1c-1.1-0.2-2.1-1-2.5-2l-7.6-17.8c-0.4-1-1.2-1.7-2.2-2c-1-0.3-2.1-0.1-2.9,0.5L186,429.8
			c-0.9,0.7-2.2,0.8-3.2,0.4c-1.1-0.4-1.9-1.3-2.1-2.5l-4.2-18.9c-0.2-1-0.9-1.9-1.8-2.3c-0.9-0.5-2-0.5-3,0l-17.6,8
			c-1,0.5-2.3,0.4-3.3-0.2c-1-0.6-1.6-1.7-1.6-2.8l-0.6-19.3c0-1-0.5-2-1.4-2.6c-0.8-0.6-1.9-0.8-2.9-0.6l-18.7,4.7
			c-1.1,0.3-2.3,0-3.2-0.8c-0.9-0.8-1.3-1.9-1.1-3.1l2.9-19.1c0.2-1-0.2-2.1-0.9-2.9c-0.7-0.8-1.7-1.2-2.8-1.1l-19.3,1.2
			c-1.2,0.1-2.3-0.4-3-1.4c-0.7-0.9-0.9-2.1-0.5-3.2l6.4-18.2c0.3-1,0.2-2.1-0.3-3c-0.6-0.9-1.5-1.5-2.5-1.6L82.2,338
			c-1.1-0.1-2.1-0.9-2.7-1.9c-0.5-1-0.5-2.3,0.1-3.3l9.6-16.7c0.5-0.9,0.6-2,0.2-3c-0.4-1-1.2-1.7-2.2-2l-18.4-5.9
			c-1.1-0.4-2-1.2-2.3-2.3c-0.3-1.1-0.1-2.3,0.7-3.2L79.9,285c0.7-0.8,1-1.9,0.8-2.9c-0.2-1-0.8-1.9-1.8-2.4l-17-9.2
			c-1-0.5-1.7-1.6-1.8-2.7c-0.1-1.2,0.4-2.3,1.3-3l15-12.1c0.8-0.7,1.3-1.6,1.3-2.7c0-1-0.5-2-1.3-2.7l-15-12.1
			c-0.9-0.7-1.4-1.9-1.3-3c0.1-1.2,0.8-2.2,1.8-2.7l17-9.2c0.9-0.5,1.6-1.4,1.8-2.4c0.2-1-0.1-2.1-0.8-2.9l-12.6-14.7
			c-0.8-0.9-1-2.1-0.7-3.2c0.3-1.1,1.2-2,2.3-2.3l18.4-5.9c1-0.3,1.8-1.1,2.2-2c0.4-1,0.3-2.1-0.2-3l-9.6-16.7
			c-0.6-1-0.6-2.2-0.1-3.3c0.5-1,1.5-1.7,2.7-1.9l19.2-2.4c1-0.1,2-0.7,2.5-1.6c0.6-0.9,0.7-2,0.3-3l-6.4-18.2
			c-0.4-1.1-0.2-2.3,0.5-3.2c0.7-0.9,1.8-1.4,3-1.4l19.3,1.2c1,0.1,2.1-0.3,2.8-1.1c0.7-0.8,1-1.8,0.9-2.9l-2.9-19.1
			c-0.2-1.1,0.2-2.3,1.1-3.1c0.9-0.8,2-1.1,3.2-0.8l18.7,4.7c1,0.3,2.1,0,2.9-0.6c0.8-0.6,1.3-1.6,1.4-2.6l0.6-19.3
			c0-1.2,0.7-2.2,1.6-2.8c1-0.6,2.2-0.7,3.3-0.2l17.6,8c1,0.4,2,0.4,3,0c0.9-0.5,1.6-1.3,1.8-2.3l4.2-18.9c0.3-1.1,1-2.1,2.1-2.5
			c1.1-0.4,2.3-0.3,3.2,0.4l15.8,11.1c0.9,0.6,1.9,0.8,2.9,0.5c1-0.3,1.8-1,2.2-2l7.6-17.8c0.5-1.1,1.4-1.8,2.5-2
			c1.1-0.2,2.3,0.2,3.1,1l13.5,13.9c0.7,0.7,1.8,1.1,2.8,1c1-0.1,2-0.7,2.6-1.5L249.7,58.3z"/>
	</g>
	<g>
		
			<ellipse transform="matrix(0.7071 -0.7071 0.7071 0.7071 -101.6153 251.786)" class="st1" cx="253.1" cy="248.6" rx="162" ry="162"/>
	</g>
	<g>
		<path class="st2" d="M253.2,403.1C167.6,403.1,98,333.5,98,247.9S167.6,92.7,253.2,92.7c85.6,0,155.2,69.6,155.2,155.2
			S338.8,403.1,253.2,403.1z M253.2,99.1c-82,0-148.8,66.8-148.8,148.8s66.8,148.8,148.8,148.8c82,0,148.8-66.8,148.8-148.8
			S335.3,99.1,253.2,99.1z"/>
	</g>
	<g>
		<polygon class="st16" points="31.8,284.5 222,284.5 222,208.5 31.8,208.5 55.8,247.8 		"/>
	</g>
	<g>
		<polygon class="st16" points="468.2,284.5 267.2,284.5 267.2,208.5 468.2,208.5 442.9,247.8 		"/>
	</g>
	<g>
		<path class="st1" d="M98.8,250.8c0,2-0.5,3.7-1.5,5.1c-0.7,1-1.7,1.6-3,2c-0.7,0.2-1.5,0.3-2.4,0.3c-1.7,0-3.1-0.4-4.2-1.3
			c-0.9-0.7-1.7-1.6-2.2-2.8c-0.5-1.2-0.9-2.5-0.9-4l4.1-0.3c0.2,1.7,0.6,2.9,1.3,3.6c0.5,0.6,1.1,0.8,1.8,0.8
			c0.9,0,1.7-0.5,2.3-1.4c0.3-0.4,0.4-1.1,0.4-1.9c0-1.2-0.5-2.4-1.6-3.5c-0.9-0.8-2.1-2-3.8-3.6c-1.4-1.4-2.4-2.6-3-3.7
			c-0.6-1.2-1-2.6-1-4c0-2.6,0.9-4.6,2.6-5.9c1.1-0.8,2.4-1.2,4-1.2c1.5,0,2.8,0.3,3.9,1c0.8,0.5,1.5,1.3,2.1,2.2
			c0.5,1,0.8,2.1,0.9,3.3l-4.1,0.8c-0.1-1.2-0.5-2.1-1-2.7c-0.4-0.5-1-0.7-1.7-0.7c-0.8,0-1.4,0.3-1.8,1c-0.3,0.6-0.5,1.3-0.5,2.1
			c0,1.3,0.6,2.6,1.7,4c0.4,0.5,1.1,1.1,1.9,1.8c1,0.8,1.7,1.4,2,1.8c1.1,1.1,1.9,2.1,2.5,3.1c0.3,0.5,0.5,0.9,0.7,1.3
			C98.6,249.1,98.8,250,98.8,250.8z"/>
		<path class="st1" d="M106.7,257.9h-4.3v-28.5h4.3V257.9z"/>
		<path class="st1" d="M115.4,229.4l5.7,19.2v-19.2h4.3v28.6h-4.6l-5.9-18.3v18.3h-4.3v-28.6H115.4z"/>
		<path class="st1" d="M136,258.3c-1.9,0-3.5-0.7-4.8-2c-1.3-1.3-2-2.9-2-4.8v-15.6c0-1.9,0.7-3.5,2-4.8c1.3-1.3,2.9-2,4.8-2
			c1.9,0,3.5,0.7,4.8,2c1.3,1.3,2,2.9,2,4.8v3.3h-4.5v-3.4c0-0.7-0.2-1.3-0.7-1.8c-0.5-0.5-1.1-0.7-1.8-0.7s-1.3,0.2-1.7,0.7
			c-0.5,0.5-0.7,1.1-0.7,1.8v15.6c0,0.7,0.2,1.3,0.7,1.7c0.5,0.5,1.1,0.7,1.7,0.7s1.3-0.2,1.8-0.7c0.5-0.5,0.7-1.1,0.7-1.7v-3.9h4.5
			v4c0,1.9-0.7,3.5-2,4.8C139.5,257.6,137.9,258.3,136,258.3z"/>
		<path class="st1" d="M146.4,257.9v-28.6h12.3v4.3h-8v7.8h5.8v4.3h-5.8v7.8h8v4.3H146.4z"/>
	</g>
	<g>
		<path class="st1" d="M356.6,257.9v-22h-3.7v-3c1-0.1,2-0.5,3-1.2c0.9-0.7,1.6-1.5,2-2.4h3v28.6H356.6z"/>
		<path class="st1" d="M371.1,229c1.9,0,3.4,0.7,4.7,2.1c1.2,1.3,1.8,2.9,1.8,4.8v15.6c0,1.9-0.6,3.5-1.9,4.8c-1.2,1.3-2.8,2-4.6,2
			c-1.9,0-3.5-0.7-4.7-2c-1.2-1.3-1.8-2.9-1.8-4.8v-0.6h4.5v0.7c0,0.7,0.2,1.3,0.6,1.8c0.4,0.5,0.9,0.7,1.6,0.7
			c0.7,0,1.2-0.2,1.6-0.7c0.4-0.5,0.6-1.1,0.6-1.8v-5.7c-1,0.9-2.1,1.3-3.3,1.3c-1.9,0-3.3-0.7-4.2-2c-0.8-1.2-1.3-2.8-1.3-4.8v-4.9
			h0c0.1-1.3,0.4-2.5,1.1-3.6c0.7-1.1,1.6-1.8,2.8-2.4C369.3,229.2,370.2,229,371.1,229z M373.3,235.9c0-0.7-0.2-1.3-0.6-1.8
			c-0.4-0.5-0.9-0.7-1.6-0.7c-0.7,0-1.2,0.2-1.6,0.7c-0.4,0.5-0.6,1.1-0.6,1.8v5.3c0,0.8,0.3,1.5,0.9,2.1c0.3,0.3,0.7,0.4,1.2,0.4
			c1.1,0,1.8-0.6,2-1.7c0.1-0.3,0.1-0.6,0.1-0.8V235.9z"/>
		<path class="st1" d="M387.7,229c1.9,0,3.4,0.7,4.7,2.1c1.2,1.3,1.8,2.9,1.8,4.8v15.6c0,1.9-0.6,3.5-1.9,4.8c-1.2,1.3-2.8,2-4.6,2
			c-1.9,0-3.5-0.7-4.7-2c-1.2-1.3-1.8-2.9-1.8-4.8v-0.6h4.5v0.7c0,0.7,0.2,1.3,0.6,1.8c0.4,0.5,0.9,0.7,1.6,0.7
			c0.7,0,1.2-0.2,1.6-0.7c0.4-0.5,0.6-1.1,0.6-1.8v-5.7c-1,0.9-2.1,1.3-3.3,1.3c-1.9,0-3.3-0.7-4.2-2c-0.8-1.2-1.3-2.8-1.3-4.8v-4.9
			h0c0.1-1.3,0.4-2.5,1.1-3.6c0.7-1.1,1.6-1.8,2.8-2.4C385.9,229.2,386.8,229,387.7,229z M389.9,235.9c0-0.7-0.2-1.3-0.6-1.8
			c-0.4-0.5-0.9-0.7-1.6-0.7c-0.7,0-1.2,0.2-1.6,0.7c-0.4,0.5-0.6,1.1-0.6,1.8v5.3c0,0.8,0.3,1.5,0.9,2.1c0.3,0.3,0.7,0.4,1.2,0.4
			c1.1,0,1.8-0.6,2-1.7c0.1-0.3,0.1-0.6,0.1-0.8V235.9z"/>
		<path class="st1" d="M406.4,236.5v-0.7c0-0.7-0.2-1.3-0.6-1.8c-0.4-0.5-0.9-0.7-1.6-0.7c-0.7,0-1.2,0.2-1.6,0.7
			c-0.4,0.5-0.6,1.1-0.6,1.8v5.7c1-0.9,2.1-1.3,3.3-1.3c1.9,0,3.3,0.7,4.3,2c0.8,1.2,1.3,2.8,1.3,4.8v4.9h0c-0.1,1.8-0.7,3.3-2,4.6
			c-1.2,1.2-2.7,1.8-4.5,1.8c-1.9,0-3.5-0.7-4.7-2c-1.2-1.3-1.8-2.9-1.8-4.8v-15.6c0-1.4,0.3-2.7,1-3.8c0.7-1.1,1.6-2,2.9-2.5
			c0.8-0.4,1.7-0.5,2.6-0.5c1.9,0,3.4,0.7,4.7,2.1c1.2,1.3,1.8,2.9,1.8,4.8v0.6H406.4z M402.1,251.4c0,0.7,0.2,1.3,0.5,1.7
			c0.4,0.5,0.9,0.8,1.6,0.8c0.7,0,1.2-0.3,1.6-0.8c0.4-0.5,0.5-1,0.5-1.7v-5.3c0-0.8-0.3-1.5-0.9-2.1c-0.3-0.3-0.7-0.4-1.2-0.4
			c-0.7,0-1.3,0.3-1.7,0.9c-0.3,0.5-0.5,1-0.5,1.6V251.4z"/>
	</g>
	<g>
		<g>
			<g>
				<path class="st17" d="M300.3,205.5c0,0,44.1,2.3,54.2-0.8c10.1-3.1,23.4-12.8,19.1-20.2c-4.4-7.4-20.9-4.9-19.7-15.1
					c1.2-10.2,2.7-18-3.7-19.3c-13.4-2.6-19.6,0.6-20.6-6c-1-6.6,0.6-21.7-14.6-13.6c-15.2,8.2-21.5,57.5-21.5,57.5
					S286.4,198,300.3,205.5z"/>
			</g>
		</g>
		<g>
			<g>
				<path class="st18" d="M312.2,199c0,0,40.9-9.7,49.1-13.5c8.2-3.8,9.6,5.8,5.2,8.9C362.1,197.4,347.6,205.9,312.2,199z"/>
			</g>
		</g>
		<g>
			<g>
				<path class="st18" d="M326,190.9c0,0,29.1-13.7,25.3-25.8c-3.7-12.1-22.6,4.7-26.3,12.5C321.4,185.5,318.1,191.3,326,190.9z"/>
			</g>
		</g>
		<g>
			<g>
				<path class="st18" d="M330.5,157.2c0,0-13.4,15.3-17.2,25c-3.8,9.8-6.2,11.3-8.1,4.8c-1.9-6.5,3.8-40,15.5-40.2
					C326.8,146.8,329.7,149.4,330.5,157.2z"/>
			</g>
		</g>
		<g>
			<g>
				<path class="st17" d="M206.4,284.9c0,0-44.2-0.4-54.1,3c-10,3.5-22.9,13.7-18.2,21c4.7,7.3,21.1,4,20.4,14.2
					c-0.7,10.2-1.9,18.1,4.5,19.1c13.5,2.1,19.6-1.4,20.9,5.1c1.3,6.5,0.3,21.7,15.1,12.9c14.8-8.8,19.1-58.3,19.1-58.3
					S220.6,291.9,206.4,284.9z"/>
			</g>
		</g>
		<g>
			<g>
				<path class="st18" d="M194.8,291.9c0,0-40.5,11.4-48.5,15.5c-8,4.2-9.8-5.4-5.5-8.6C145,295.6,159.2,286.5,194.8,291.9z"/>
			</g>
		</g>
		<g>
			<g>
				<path class="st18" d="M181.3,300.6c0,0-28.5,14.9-24.3,26.8c4.2,11.9,22.4-5.6,25.7-13.6C186.1,305.8,189.2,299.9,181.3,300.6z"
					/>
			</g>
		</g>
		<g>
			<g>
				<path class="st18" d="M178.2,334.5c0,0,12.8-15.8,16.1-25.7c3.4-9.9,5.8-11.5,7.9-5.1c2.2,6.5-2.2,40.2-13.8,40.8
					C182.3,344.8,179.3,342.3,178.2,334.5z"/>
			</g>
		</g>
		<g>
			<g>
				<g>
					<path class="st17" d="M302,196.2c4.1,4.2,11.7,7.9,13.9,13.1c9.8,23.2,1.7,54.8-21.9,77.7c-23.4,22.7-55,29.9-77.8,19.8
						c-5.4-2.4-8.9-8.4-13.1-12.8c-5.5-5.6-10.6-9.7-12.7-17.1c-6.4-22.5,2.1-51,23.9-72.1C236,183.7,264.7,176,287,183
						C294.4,185.4,296.5,190.5,302,196.2z"/>
				</g>
			</g>
		</g>
		<g>
			<g>
				<path class="st19" d="M195.7,230.4c6,18.9,5.1,41.7,6.8,63c0.2,0.2,0.4,0.4,0.6,0.6c3.4,3.6,6.5,8.3,10.4,11.1
					c-5.3-27.8-0.6-61.3-11.3-86C199.8,222.8,197.6,226.6,195.7,230.4z"/>
			</g>
			<g>
				<path class="st20" d="M214.3,204.8c-2.3,2.2-4.4,4.6-6.4,6.9c13.9,27.3,6.1,67,14.7,97.3c3.6,1,7.4,1.7,11.2,2
					c-12.8-32-1.4-77.7-18.6-107.1C214.9,204.2,214.6,204.5,214.3,204.8z"/>
			</g>
			<g>
				<path class="st16" d="M190.4,276.9c0.9,3.1,2.3,5.7,4.1,8c-0.7-14.1-1-28.4-3.7-41.3C187.7,255.1,187.5,266.6,190.4,276.9z"/>
			</g>
			<g>
				<path class="st16" d="M221.6,198.4c19.2,30.7,5.4,80,21.3,112.6c3.5-0.2,7.1-0.8,10.7-1.6c-18.9-32.7-2.9-85.2-23.6-116.9
					C227.1,194.4,224.3,196.3,221.6,198.4z"/>
			</g>
			<g>
				<path class="st19" d="M237.2,188.6c21,32.3,4.1,86,24.6,118.5c3.2-1.1,6.4-2.4,9.5-4c-21.2-32.1-4.3-85.8-24.6-118.5
					C243.5,185.7,240.3,187,237.2,188.6z"/>
			</g>
			<g>
				<path class="st20" d="M254.9,182.2c18.7,32.8,2.7,85.3,23.6,116.8c2.8-1.8,5.6-3.7,8.3-5.9c-19.4-30.6-5.6-79.9-21.2-112.5
					C262.1,180.9,258.5,181.4,254.9,182.2z"/>
			</g>
			<g>
				<path class="st16" d="M274.6,180.7c12.6,32.1,1.2,77.6,18.6,107c0.3-0.3,0.5-0.5,0.8-0.7c2.3-2.3,4.5-4.6,6.5-7.1
					c-14-27.2-6.2-66.8-14.7-97.2C282.2,181.7,278.5,181,274.6,180.7z"/>
			</g>
			<g>
				<path class="st19" d="M302,196.2c-2.8-2.8-4.7-5.5-6.8-7.8c4.7,27.4,0.4,60,11,84.2c2.5-3.7,4.6-7.5,6.5-11.3
					c-5.9-18.5-5.1-40.7-6.7-61.7C304.5,198.4,303.1,197.3,302,196.2z"/>
			</g>
			<g>
				<path class="st20" d="M313.8,206c0.7,14.4,1,28.9,3.7,42.1c3.7-13.6,3.3-27.3-1.6-38.9C315.5,208.1,314.7,207.1,313.8,206z"/>
			</g>
		</g>
		<g class="st5">
			<g>
				<path class="st1" d="M312.2,211.6c0-2.5-0.2-5.1-0.4-7.5c-3.2-2.8-7.2-5.2-9.8-7.9c-5.5-5.7-7.7-10.8-15.1-13.1
					c-22.3-7-50.9,0.7-72.7,21.7c-21.8,21.1-30.4,49.6-23.9,72.1c1.4,5,4.2,8.5,7.6,12c9.6,3.8,20,6,30.9,6
					C274.9,294.9,312.2,257.6,312.2,211.6z"/>
			</g>
		</g>
		<g class="st6">
			<g>
				<g>
					<path class="st1" d="M284.5,191.7c0,0-2.3,0.4-6.1,1.2c-1.9,0.4-4.2,1-6.9,1.6c-2.6,0.7-5.5,1.5-8.6,2.5
						c-3.1,1-6.4,2.1-9.8,3.6c-0.8,0.3-1.7,0.7-2.6,1c-0.8,0.4-1.7,0.8-2.5,1.2c-1.7,0.8-3.5,1.6-5.1,2.6c-3.5,1.8-6.7,4.1-10,6.3
						c-1.6,1.3-3.1,2.5-4.7,3.8c-1.5,1.4-2.9,2.8-4.4,4.2c-1.6,1.3-2.7,3-4.1,4.5l-2,2.3c-0.6,0.8-1.2,1.7-1.7,2.5l-1.7,2.5
						l-0.9,1.2l-0.4,0.6l-0.1,0.2l0,0c0-0.1-0.1,0.2,0.1-0.2l-0.1,0.1l-0.2,0.4c-1,1.8-2.3,3.8-3.1,5.4c-1.7,3.2-3.3,6.7-4.4,10
						c-1.2,3.3-2.1,6.6-2.8,9.8c-0.6,3.1-1.2,6-1.5,8.7c-0.3,2.6-0.4,5-0.5,6.9c-0.1,3.9,0.1,6.2,0.1,6.2s-1.4-1.9-2.9-5.7
						c-1.5-3.8-3.1-9.6-3.4-16.8c-0.1-3.6,0-7.5,0.7-11.7c0.3-2.1,0.8-4.2,1.3-6.3c0.5-2.1,1.3-4.3,2.1-6.6c0.8-2.3,1.7-4,2.6-6
						c1.3-2.5,2.4-4.2,3.7-6.3c0.6-1,1.2-2.1,1.9-3.1l2.3-2.9c1.6-1.8,3-3.9,4.9-5.5c1.8-1.7,3.6-3.4,5.4-5c2-1.5,4-2.9,5.9-4.3
						c4.1-2.5,8.3-4.8,12.5-6.4c2.1-0.9,4.2-1.6,6.3-2.2c2.1-0.6,4.1-1.2,6.1-1.5c4-0.9,7.8-1.2,11.4-1.5c1.8,0,3.4-0.1,5.1-0.1
						c1.6,0.1,3.1,0.2,4.5,0.2c2.8,0.2,5.3,0.6,7.3,0.9c2,0.3,3.5,0.8,4.6,1.1C283.9,191.5,284.5,191.7,284.5,191.7z"/>
				</g>
			</g>
		</g>
	</g>
	<g>
		<path class="st0" d="M310.1,319.7l3.1-14.5l-28.5,3.9l-2.2,10.3c-2.6,0.2-5.1,0.8-7.4,1.8c-2.2,1-4.2,2.4-6,4
			c-0.5-0.6-0.9-1.2-1.5-1.7c-1.6-1.5-3.5-2.6-5.7-3.3c-0.4-0.1-0.8-0.2-1.2-0.3l0.1-0.2h-1.2c-1.9-0.3-3.8-0.4-6,0
			c-0.1,0-0.1,0-0.2,0h-9H233h-11.4c-1.1-0.2-2.4-0.3-3.7-0.3c-1.4,0-2.9,0.1-4.2,0.4c-0.2-2.4-0.7-4.6-1.7-6.5
			c-1.2-2.4-2.9-4.4-5.1-5.9c-1.9-1.3-4.1-2.3-6.5-2.9c-4.9-1.2-10.6-0.9-15.2,0.7c-2.6,0.9-5,2.3-7.2,3.9c-2.1,1.6-3.9,3.5-5.6,5.6
			c-1.5,1.9-2.8,4-3.9,6.2c-1.1,2.1-2,4.3-2.8,6.6c-0.7,2.2-1.3,4.3-1.8,6.5c-0.5,2.1-0.8,4.3-1,6.3c-0.2,2-0.3,3.9-0.3,5.7
			c0,3.8,0.4,7,1.2,9.8c1,3.4,2.5,6.2,4.7,8.5c2.2,2.4,5,4.1,8.2,5.2c1.5,0.5,3.1,0.8,4.7,1v18.8c-0.3,0.4-0.7,0.9-1,1.4
			c-0.7,1.2-1.3,2.4-1.7,3.8c-0.5,1.5-0.7,3.1-0.7,4.8c0,2.1,0.4,4.1,1.1,6.1c0.8,2.2,2.1,4.1,3.7,5.8c1.6,1.6,3.6,3,5.9,3.9
			c1.7,0.7,3.6,1.2,5.7,1.3l-0.4,1.5l2.4-1.4c1.2,0,2.5-0.1,3.9-0.3c0.1,0,0.3-0.1,0.4-0.1h27l0.4-1.7c0.5,0.3,1,0.5,1.5,0.7
			c2.1,0.9,4.5,1.3,7.1,1.3c1.6,0,3.2-0.2,5-0.6c1.3-0.3,2.7-0.9,3.9-1.6c1,0.5,2,0.9,3,1.2c2.1,0.6,4.3,0.9,6.6,0.9
			c1.8,0,3.6-0.2,5.3-0.7l-4.1,19.5l29.1-7l2.5-11.8c2.8-0.2,5.4-0.8,7.8-1.8c2.6-1.2,4.9-2.8,6.9-4.8c1.8-1.9,3.4-4,4.6-6.4
			c1-2.1,1.9-4.2,2.5-6.4c0.6-2.1,1-4.3,1.3-6.5c0.2-1.7,0.3-3.3,0.3-4.9c0.1,0,0.3,0,0.4,0c1.7,0,3.5-0.2,5.4-0.6
			c2.4-0.5,4.7-1.6,6.7-3.1c2-1.5,3.8-3.4,5.2-5.8c1.5-2.4,2.5-5.2,3.2-8.5l10.1-48H310.1z"/>
	</g>
	<g>
		<g>
			<path class="st1" d="M204,351.4c-0.9,2.1-2,4-3.5,5.5c-1.5,1.5-3,2.7-4.7,3.7c-1.7,0.9-3.4,1.6-5.2,2.1c-1.8,0.4-3.4,0.7-4.9,0.7
				c-2.4,0-4.4-0.3-6.2-0.8c-1.8-0.6-3.2-1.5-4.4-2.7c-1.2-1.2-2-2.9-2.6-4.9c-0.6-2-0.9-4.4-0.9-7.3c0-1.5,0.1-3,0.3-4.8
				c0.2-1.7,0.5-3.5,0.9-5.3c0.4-1.8,0.9-3.7,1.5-5.5c0.6-1.9,1.4-3.6,2.2-5.4c0.9-1.7,1.9-3.3,3-4.8c1.1-1.5,2.4-2.8,3.9-3.9
				c1.4-1.1,3-2,4.8-2.6c1.7-0.6,3.7-1,5.8-1c1.5,0,2.9,0.2,4.2,0.5c1.3,0.3,2.4,0.8,3.4,1.5c1,0.7,1.7,1.6,2.3,2.7
				c0.6,1.1,0.8,2.4,0.8,3.9c0,0.9-0.1,1.6-0.2,2.4c-0.2,0.7-0.4,1.3-0.8,1.9c-0.4,0.5-0.8,0.9-1.4,1.2c-0.6,0.3-1.3,0.4-2.1,0.4
				c-0.5,0-1.1-0.1-1.7-0.3c-0.7-0.2-1.3-0.6-1.9-1.4c0.4-0.2,0.7-0.5,1.1-0.9c0.4-0.4,0.7-0.9,0.9-1.4c0.3-0.5,0.5-1.1,0.7-1.7
				c0.2-0.6,0.3-1.2,0.3-1.9c0-0.5-0.1-1-0.2-1.5c-0.1-0.5-0.4-0.9-0.7-1.2c-0.3-0.4-0.7-0.6-1.2-0.9c-0.5-0.2-1.1-0.3-1.8-0.3
				c-1.2,0-2.3,0.4-3.5,1.3c-1.1,0.9-2.2,2.1-3.2,3.5c-1,1.5-1.9,3.2-2.7,5.2c-0.8,2-1.5,4.1-2.1,6.3c-0.6,2.2-1,4.5-1.4,6.8
				c-0.3,2.3-0.5,4.6-0.5,6.7c0,1.5,0.1,2.8,0.3,4c0.2,1.2,0.6,2.3,1.2,3.1c0.6,0.9,1.4,1.6,2.3,2c1,0.5,2.3,0.7,3.8,0.7
				c2.5,0,4.9-0.6,7-1.7c2.1-1.1,4-2.7,5.5-4.7L204,351.4z"/>
		</g>
		<g>
			<path class="st1" d="M238.7,350.8c-0.6,1.7-1.3,3.2-2,4.5c-0.7,1.3-1.4,2.3-2.2,3.2c-0.8,0.9-1.5,1.6-2.3,2.1
				c-0.8,0.5-1.6,1-2.3,1.2c-0.7,0.3-1.5,0.5-2.2,0.6c-0.7,0.1-1.3,0.2-1.9,0.2c-1.8,0-3.3-0.5-4.3-1.5c-1.1-1-1.7-2.5-2-4.4
				c-0.5,0.7-1.1,1.4-1.7,2.1c-0.6,0.7-1.3,1.3-2.1,1.9c-0.8,0.6-1.6,1-2.6,1.3c-0.9,0.3-2,0.5-3.1,0.5c-1.1,0-2.2-0.2-3.2-0.5
				c-1-0.4-1.9-0.9-2.7-1.7c-0.8-0.8-1.4-1.9-1.9-3.2c-0.5-1.3-0.7-2.9-0.7-4.8c0-1.5,0.1-3,0.4-4.7c0.3-1.7,0.7-3.3,1.3-5
				c0.6-1.7,1.4-3.3,2.3-4.8c0.9-1.5,2-2.9,3.2-4.1c1.2-1.2,2.6-2.1,4.1-2.8c1.5-0.7,3.2-1,5.1-1c1.8,0,3.1,0.3,4,0.9
				c0.8,0.6,1.2,1.4,1.2,2.3v0.5l0.7-3.4h9.2l-4.6,21.8c-0.1,0.4-0.2,0.7-0.2,1c0,0.3-0.1,0.7-0.1,1c0,1.8,0.9,2.8,2.6,2.8
				c0.6,0,1.2-0.2,1.7-0.5c0.5-0.3,1-0.8,1.5-1.3c0.4-0.5,0.8-1.2,1.2-1.9c0.3-0.7,0.6-1.5,0.8-2.3H238.7z M222.5,336.4
				c0-0.2,0-0.4-0.1-0.7c-0.1-0.3-0.2-0.6-0.4-0.8c-0.2-0.3-0.5-0.5-0.8-0.7c-0.3-0.2-0.8-0.3-1.3-0.3c-0.9,0-1.7,0.3-2.5,0.9
				c-0.8,0.6-1.5,1.4-2.2,2.3c-0.7,1-1.3,2.1-1.8,3.3c-0.5,1.2-1,2.5-1.3,3.8c-0.4,1.3-0.6,2.6-0.8,3.8c-0.2,1.3-0.3,2.4-0.3,3.4
				c0,1.2,0.1,2.2,0.3,2.8c0.2,0.7,0.5,1.2,0.8,1.5c0.3,0.3,0.7,0.5,1,0.6c0.4,0.1,0.7,0.1,1,0.1c0.5,0,1-0.1,1.5-0.4
				c0.5-0.2,1-0.6,1.5-1.1c0.5-0.5,0.9-1.1,1.3-1.8c0.4-0.7,0.7-1.5,0.9-2.5L222.5,336.4z"/>
		</g>
		<g>
			<path class="st1" d="M271,350.8c-0.9,2.6-1.9,4.7-2.9,6.3c-1,1.6-2.1,2.8-3.1,3.6c-1.1,0.8-2.1,1.4-3.1,1.6
				c-1,0.3-1.9,0.4-2.8,0.4c-1.4,0-2.6-0.2-3.6-0.6c-1-0.4-1.7-0.9-2.3-1.6c-0.6-0.7-1-1.4-1.3-2.3c-0.3-0.9-0.4-1.8-0.4-2.7
				c0-1.1,0.2-2.3,0.5-3.8c0.3-1.4,0.6-2.9,1-4.5c0.4-1.5,0.7-3,1-4.4c0.3-1.4,0.5-2.6,0.5-3.7c0-2.2-0.8-3.3-2.3-3.3
				c-0.6,0-1.1,0.2-1.6,0.5c-0.5,0.3-1,0.7-1.4,1.3c-0.4,0.5-0.8,1.2-1.1,1.9c-0.3,0.7-0.6,1.5-0.9,2.3l-4.3,20.5h-9.2l6.8-32h9.2
				l-0.7,3.3c0.7-0.8,1.4-1.4,2-1.9c0.7-0.5,1.3-0.8,2-1.1c0.6-0.3,1.3-0.4,1.8-0.5c0.6-0.1,1.1-0.1,1.6-0.1c1,0,2,0.1,2.8,0.4
				c0.9,0.3,1.6,0.7,2.3,1.3c0.6,0.6,1.1,1.3,1.5,2.2c0.4,0.9,0.5,2,0.5,3.3c0,0.9-0.1,1.8-0.2,2.8c-0.2,1-0.4,2-0.6,3
				c-0.2,1-0.5,2.1-0.7,3.1c-0.3,1-0.5,2-0.7,2.9c-0.2,0.9-0.4,1.8-0.6,2.6c-0.2,0.8-0.2,1.5-0.2,2.1c0,0.8,0.2,1.4,0.5,1.9
				c0.4,0.5,1,0.7,2,0.7c0.7,0,1.3-0.1,1.8-0.4c0.5-0.3,1-0.7,1.4-1.2c0.4-0.5,0.8-1.1,1.1-1.8c0.3-0.7,0.7-1.5,1-2.3H271z"/>
		</g>
		<g>
			<path class="st1" d="M304.6,350.8c-0.6,1.7-1.3,3.2-2,4.5c-0.7,1.2-1.4,2.3-2.2,3.1c-0.8,0.8-1.5,1.5-2.3,2
				c-0.8,0.5-1.6,0.9-2.3,1.2c-0.8,0.3-1.5,0.4-2.2,0.5c-0.7,0.1-1.3,0.1-1.9,0.1c-1.8,0-3.2-0.5-4.3-1.4c-1.1-0.9-1.7-2.3-2-4.1
				c-0.5,0.7-1,1.4-1.6,2.1c-0.6,0.7-1.3,1.3-2.1,1.9c-0.8,0.6-1.7,1-2.6,1.3c-1,0.3-2,0.5-3.1,0.5c-1.1,0-2.2-0.2-3.2-0.5
				c-1-0.4-1.9-0.9-2.7-1.7c-0.8-0.8-1.4-1.9-1.9-3.2c-0.5-1.3-0.7-2.9-0.7-4.8c0-1.5,0.1-3,0.4-4.7c0.3-1.7,0.7-3.3,1.3-5
				c0.6-1.7,1.4-3.3,2.3-4.8c0.9-1.5,2-2.9,3.2-4.1c1.2-1.2,2.6-2.1,4.1-2.8c1.5-0.7,3.2-1,5.1-1c1.8,0,3.1,0.3,4,0.9
				c0.8,0.6,1.2,1.4,1.2,2.3v0.2l3.1-14.7l9.5-1.3l-7.3,34.6c-0.1,0.4-0.2,0.7-0.2,1c0,0.3-0.1,0.7-0.1,1c0,0.9,0.2,1.5,0.6,1.9
				c0.4,0.3,1.1,0.5,2,0.5c0.6,0,1.2-0.1,1.7-0.4c0.5-0.3,1-0.7,1.4-1.2c0.4-0.5,0.8-1.1,1.1-1.8c0.3-0.7,0.6-1.5,0.9-2.3H304.6z
				 M285.4,350.8l3.1-14.7c0-0.2-0.1-0.4-0.2-0.7c-0.1-0.3-0.2-0.5-0.4-0.7c-0.2-0.2-0.4-0.4-0.8-0.6c-0.3-0.2-0.7-0.2-1.2-0.2
				c-0.9,0-1.7,0.3-2.5,0.9c-0.8,0.6-1.5,1.4-2.2,2.3c-0.7,1-1.3,2.1-1.8,3.3c-0.5,1.2-1,2.5-1.3,3.8c-0.4,1.3-0.6,2.6-0.8,3.8
				c-0.2,1.3-0.3,2.4-0.3,3.4c0,1.2,0.1,2.2,0.3,2.8c0.2,0.7,0.5,1.2,0.8,1.5c0.3,0.3,0.7,0.5,1,0.6c0.4,0.1,0.7,0.1,1,0.1
				c0.4,0,0.9-0.1,1.5-0.3c0.5-0.2,1-0.5,1.5-1c0.5-0.4,0.9-1,1.3-1.7c0.4-0.7,0.7-1.4,0.9-2.3V350.8z"/>
		</g>
		<g>
			<path class="st1" d="M316,359c-0.7,0.8-1.4,1.4-2.1,1.9c-0.7,0.5-1.4,0.8-2,1.1c-0.7,0.3-1.3,0.4-1.9,0.5
				c-0.6,0.1-1.2,0.1-1.8,0.1c-1,0-1.9-0.1-2.7-0.4c-0.8-0.3-1.6-0.8-2.2-1.4c-0.6-0.6-1.1-1.4-1.5-2.4c-0.4-1-0.5-2.1-0.5-3.5
				c0-0.6,0-1.2,0.1-1.9c0.1-0.7,0.2-1.5,0.4-2.3l4.3-20.5h9.2l-4.6,21.8c-0.1,0.5-0.2,1.1-0.2,1.6c0,0.4,0,0.7,0.1,1.1
				c0.1,0.3,0.2,0.6,0.3,0.9c0.1,0.3,0.3,0.5,0.6,0.6c0.2,0.2,0.5,0.2,0.9,0.2c0.6,0,1.2-0.1,1.7-0.4c0.5-0.3,1-0.7,1.4-1.2
				c0.4-0.5,0.8-1.1,1.1-1.8c0.3-0.7,0.6-1.5,0.9-2.3l4.3-20.5h9.3l-7.8,37.1c-0.5,2.3-1.1,4.1-2,5.6c-0.9,1.4-1.9,2.5-2.9,3.3
				c-1.1,0.8-2.2,1.3-3.4,1.6c-1.2,0.3-2.3,0.4-3.3,0.4c-1,0-1.9-0.2-2.8-0.5c-0.9-0.3-1.7-0.8-2.4-1.4c-0.7-0.6-1.3-1.3-1.7-2.2
				c-0.4-0.8-0.6-1.8-0.6-2.8c0-1.5,0.3-2.8,0.9-3.8c0.6-1,1.4-1.9,2.4-2.6c1-0.7,2.2-1.3,3.5-1.8c1.3-0.5,2.8-1,4.3-1.4L316,359z
				 M314.9,363.8c-1,0.3-1.9,0.7-2.8,1.1c-0.9,0.4-1.6,0.9-2.3,1.4c-0.6,0.5-1.1,1.1-1.5,1.8c-0.4,0.7-0.5,1.4-0.5,2.3
				c0,0.3,0.1,0.5,0.2,0.8c0.1,0.2,0.3,0.5,0.5,0.7c0.2,0.2,0.5,0.4,0.8,0.5c0.3,0.1,0.7,0.2,1,0.2c0.3,0,0.7-0.1,1-0.2
				c0.4-0.2,0.7-0.4,1.1-0.8c0.3-0.4,0.7-0.9,1-1.5c0.3-0.6,0.5-1.4,0.7-2.4L314.9,363.8z"/>
		</g>
		<g>
			<path class="st1" d="M216.3,397.2c-1.7,1.9-3.3,3.5-5,4.8c-1.7,1.3-3.3,2.3-4.8,3.2c-0.7,0.7-1.4,1.3-2.2,1.8
				c-0.8,0.5-1.7,0.9-2.6,1.2c-0.9,0.3-1.8,0.5-2.7,0.7c-0.9,0.1-1.8,0.2-2.6,0.2c-1.6,0-3-0.2-4.2-0.7c-1.2-0.5-2.1-1.1-2.9-1.9
				c-0.8-0.8-1.3-1.7-1.7-2.6c-0.4-1-0.5-1.9-0.5-2.9c0-0.8,0.1-1.4,0.3-2.1c0.2-0.6,0.5-1.2,0.8-1.7c0.3-0.5,0.7-0.9,1.1-1.3
				c0.4-0.4,0.8-0.7,1.3-0.9c1.8-3.2,3.3-6.4,4.5-9.5c1.2-3.1,2.3-6.3,3.3-9.5l9.5-1.2c0.1,2.8,0.2,5.2,0.4,7.2
				c0.1,2,0.2,3.8,0.3,5.3c0.1,1.5,0.2,2.8,0.3,3.8c0.1,1,0.2,2,0.2,2.8c0.1,0.8,0.1,1.5,0.2,2.2c0,0.7,0,1.3,0,2c0,0.5,0,0.9,0,1.3
				c0,0.4-0.1,0.8-0.2,1.1c0.9-0.5,1.8-1.1,2.5-1.6c0.8-0.5,1.4-1.1,2-1.6H216.3z M190.6,399.6c0,1.5,0.3,2.6,0.9,3.4
				c0.6,0.7,1.6,1.1,3,1.1c0.7,0,1.4-0.1,2.1-0.3c0.7-0.2,1.3-0.5,1.8-1c0.5-0.5,0.9-1.1,1.3-1.8c0.3-0.8,0.5-1.7,0.5-2.8
				c0-0.5,0-1.1,0-1.6c0-0.5-0.1-1.1-0.1-1.6c0-0.6-0.1-1.2-0.2-1.9c-0.1-0.7-0.2-1.5-0.2-2.5c-0.1-0.9-0.2-2-0.3-3.3
				c-0.1-1.2-0.2-2.7-0.3-4.3c-0.6,2.1-1.4,4.1-2.3,6.1c-0.9,2-1.8,4-2.9,6c0.4,0.2,0.8,0.5,1,0.9c0.3,0.4,0.4,0.8,0.4,1.3
				c0,0.4-0.1,0.8-0.2,1.2c-0.1,0.4-0.3,0.7-0.6,1c-0.3,0.3-0.5,0.5-0.9,0.7c-0.3,0.2-0.7,0.3-1.2,0.3c-0.4,0-0.7-0.1-1-0.2
				C191,400.1,190.7,399.9,190.6,399.6z"/>
		</g>
		<g>
			<path class="st1" d="M248.7,397.2c-0.9,2.6-1.9,4.7-2.9,6.3c-1,1.6-2.1,2.8-3.1,3.6c-1.1,0.8-2.1,1.4-3.1,1.6
				c-1,0.2-1.9,0.4-2.8,0.4c-1.4,0-2.6-0.2-3.6-0.6c-1-0.4-1.7-0.9-2.3-1.6c-0.6-0.7-1-1.4-1.3-2.3c-0.3-0.9-0.4-1.8-0.4-2.7
				c0-1.1,0.2-2.3,0.5-3.8c0.3-1.4,0.6-2.9,1-4.5c0.4-1.5,0.7-3,1-4.4c0.3-1.4,0.5-2.6,0.5-3.7c0-2.2-0.8-3.3-2.3-3.3
				c-0.6,0-1.1,0.2-1.6,0.5c-0.5,0.3-1,0.7-1.4,1.3c-0.4,0.5-0.8,1.2-1.1,1.9c-0.3,0.7-0.6,1.5-0.9,2.3l-4.3,20.5h-9.2l9.3-43.5
				l9.5-1.3l-3.4,16.1c0.7-0.8,1.4-1.4,2-1.9c0.7-0.5,1.3-0.8,2-1.1c0.6-0.2,1.3-0.4,1.8-0.5c0.6-0.1,1.1-0.1,1.6-0.1
				c1,0,2,0.1,2.8,0.4c0.9,0.3,1.6,0.7,2.3,1.3c0.6,0.6,1.1,1.3,1.5,2.3c0.4,0.9,0.5,2,0.5,3.3c0,0.9-0.1,1.8-0.2,2.8
				c-0.2,1-0.4,2-0.6,3c-0.2,1-0.5,2.1-0.7,3.1c-0.3,1-0.5,2-0.7,2.9c-0.2,0.9-0.4,1.8-0.6,2.6c-0.2,0.8-0.2,1.5-0.2,2.1
				c0,0.8,0.2,1.4,0.5,1.9c0.4,0.5,1,0.8,2,0.8c0.7,0,1.3-0.1,1.8-0.4c0.5-0.3,1-0.7,1.4-1.2c0.4-0.5,0.8-1.1,1.1-1.8
				c0.3-0.7,0.7-1.5,1-2.3H248.7z"/>
		</g>
		<g>
			<path class="st1" d="M281.9,384.4c-1.3,1.3-2.9,2.4-4.8,3.3c-2,0.9-4.1,1.6-6.5,2c-0.3,3-0.8,5.6-1.7,8c-0.9,2.4-2,4.4-3.4,6.1
				c-1.4,1.7-2.9,2.9-4.7,3.8c-1.8,0.9-3.6,1.3-5.6,1.3c-1.5,0-2.8-0.2-4.1-0.5c-1.3-0.4-2.3-0.9-3.2-1.7c-0.9-0.8-1.6-1.8-2.1-3.1
				c-0.5-1.3-0.8-2.8-0.8-4.7c0-1.3,0.1-2.7,0.4-4.3c0.3-1.6,0.7-3.2,1.3-4.9c0.6-1.7,1.3-3.3,2.2-5c0.9-1.6,2-3.1,3.3-4.3
				c1.3-1.3,2.8-2.3,4.5-3.1c1.7-0.8,3.7-1.2,5.8-1.2c5.5,0,8.2,3.4,8.2,10.2v0.1c0.1,0,0.2,0.1,0.3,0.1c0.1,0,0.2,0,0.4,0
				c0.8,0,1.6-0.1,2.4-0.3c0.9-0.2,1.7-0.5,2.6-0.9c0.9-0.4,1.7-0.8,2.6-1.2c0.8-0.5,1.6-0.9,2.3-1.4L281.9,384.4z M265.3,389.9
				c-0.7-0.2-1.1-0.5-1.4-1c-0.2-0.5-0.4-1.1-0.4-1.7c0-0.9,0.2-1.6,0.5-2.2c0.4-0.6,0.8-1,1.5-1.3c0-0.7-0.1-1.3-0.2-1.7
				c-0.1-0.5-0.3-0.9-0.4-1.2c-0.2-0.3-0.4-0.5-0.7-0.6c-0.3-0.1-0.6-0.2-1.1-0.2c-0.8,0-1.5,0.3-2.2,0.9c-0.7,0.6-1.4,1.4-2,2.4
				c-0.6,1-1.2,2.1-1.7,3.4c-0.5,1.3-1,2.6-1.4,3.9c-0.4,1.3-0.7,2.7-0.9,4c-0.2,1.3-0.3,2.5-0.3,3.5c0,1.1,0.1,1.9,0.2,2.6
				c0.1,0.7,0.3,1.2,0.6,1.6c0.3,0.4,0.6,0.7,1,0.8c0.4,0.1,0.9,0.2,1.5,0.2c0.8,0,1.5-0.3,2.3-1c0.8-0.7,1.5-1.6,2.2-2.8
				c0.7-1.2,1.3-2.6,1.8-4.2C264.7,393.5,265,391.8,265.3,389.9z"/>
		</g>
		<g>
			<path class="st1" d="M268.3,424.7l10.7-50.4h9.2l-1,4.8c0.9-0.8,2-1.4,3.2-2c1.2-0.5,2.6-0.8,4.3-0.8c1.1,0,2.1,0.2,3.1,0.5
				c1,0.3,1.8,0.9,2.5,1.7c0.7,0.8,1.3,1.8,1.7,3.1c0.4,1.3,0.6,2.9,0.6,4.8c0,1.4-0.1,3-0.3,4.7c-0.2,1.7-0.5,3.4-1,5
				c-0.5,1.7-1.1,3.3-1.9,4.8c-0.8,1.6-1.8,2.9-2.9,4.1c-1.2,1.2-2.5,2.1-4.1,2.9c-1.6,0.7-3.4,1.1-5.5,1.1c-0.8,0-1.5-0.1-2.1-0.2
				c-0.6-0.1-1.1-0.3-1.5-0.5c-0.4-0.2-0.8-0.5-1.1-0.7c-0.3-0.3-0.5-0.6-0.7-0.9l-3.3,15.6L268.3,424.7z M282.3,402.1
				c0.1,0.4,0.4,0.7,0.8,1c0.4,0.3,0.9,0.5,1.7,0.5c1.1,0,2.1-0.3,3-0.9c0.9-0.6,1.6-1.3,2.3-2.3c0.7-0.9,1.2-2,1.7-3.2
				c0.5-1.2,0.8-2.4,1.1-3.7c0.3-1.3,0.5-2.5,0.6-3.8c0.1-1.2,0.2-2.4,0.2-3.4c0-1.2-0.1-2.2-0.3-2.9c-0.2-0.7-0.5-1.2-0.8-1.6
				c-0.3-0.4-0.7-0.6-1-0.7c-0.4-0.1-0.7-0.1-1-0.1c-0.7,0-1.5,0.3-2.3,0.8c-0.8,0.5-1.5,1.3-2.1,2.4L282.3,402.1z"/>
		</g>
	</g>
</g>
</svg>
