<?xml version="1.0" encoding="utf-8"?>
<!-- Generator: Adobe Illustrator 23.0.3, SVG Export Plug-In . SVG Version: 6.00 Build 0)  -->
<svg version="1.1" id="Layer_1" xmlns="http://www.w3.org/2000/svg" xmlns:xlink="http://www.w3.org/1999/xlink" x="0px" y="0px"
	 viewBox="0 0 500 500" style="enable-background:new 0 0 500 500;" xml:space="preserve">
<style type="text/css">
	.st0{fill:#44CEE3;}
	.st1{fill:#FFFFFF;}
	.st2{fill:#F4628F;}
	.st3{fill:#E8EC3A;}
	.st4{fill:#97BB02;}
	.st5{opacity:0.2;}
	.st6{opacity:0.5;}
	.st7{fill:#9470D0;}
	.st8{fill:#F23D7A;}
	.st9{fill:#DA1160;}
	.st10{fill:#B2B1B1;}
	.st11{fill:#E2E1DE;}
	.st12{fill:#6332BA;}
	.st13{fill:#5420AE;}
	.st14{fill:#FFC300;}
	.st15{fill:#DDA507;}
	.st16{fill:#49D8E5;}
	.st17{fill:#64095D;}
	.st18{fill:#490748;}
	.st19{fill:#EA0446;}
	.st20{fill:#EEF443;}
	.st21{fill:#03C4DE;}
	.st22{fill:#492111;}
	.st23{fill:#00838C;}
	.st24{fill:#652A1F;}
	.st25{fill:#C09670;}
	.st26{fill:#EBE0AE;}
	.st27{fill:#4E1E14;}
	.st28{fill:#D9A24B;}
	.st29{fill:#FFEAC0;}
	.st30{fill:#CB2519;}
	.st31{fill:#43CEE3;}
	.st32{fill:#00B8D2;}
	.st33{fill:#FFBD17;}
	.st34{fill:#FFD901;}
	.st35{fill:#5E0084;}
	.st36{fill:#F978A3;}
	.st37{fill:#EC115F;}
	.st38{fill:#FF9900;}
	.st39{fill:#EDB107;}
	.st40{fill:#B90615;}
	.st41{fill:#E1E5D8;}
	.st42{fill:#DD3107;}
	.st43{fill:#CDD905;}
	.st44{fill:#B2B212;}
	.st45{fill:#EB024D;}
</style>
<g>
	<g>
		<path class="st1" d="M135.7,251.3c0,1.6-0.4,2.9-1.2,4c-0.5,0.7-1.3,1.3-2.3,1.6c-0.5,0.2-1.2,0.3-1.9,0.3c-1.3,0-2.4-0.3-3.3-1
			c-0.7-0.5-1.3-1.3-1.7-2.2c-0.4-0.9-0.7-2-0.7-3.2l3.2-0.2c0.1,1.3,0.5,2.2,1,2.8c0.4,0.4,0.9,0.7,1.4,0.6c0.7,0,1.3-0.4,1.8-1.1
			c0.2-0.3,0.3-0.8,0.3-1.5c0-0.9-0.4-1.8-1.3-2.8c-0.7-0.6-1.7-1.6-3-2.8c-1.1-1.1-1.9-2-2.4-2.9c-0.5-1-0.7-2-0.7-3.1
			c0-2,0.7-3.6,2-4.6c0.8-0.6,1.9-0.9,3.1-0.9c1.2,0,2.2,0.3,3.1,0.8c0.7,0.4,1.2,1,1.6,1.7c0.4,0.7,0.7,1.6,0.7,2.6l-3.2,0.6
			c-0.1-0.9-0.4-1.6-0.8-2.1c-0.3-0.4-0.8-0.5-1.3-0.5c-0.6,0-1.1,0.3-1.4,0.8c-0.3,0.4-0.4,1-0.4,1.6c0,1,0.4,2.1,1.3,3.1
			c0.3,0.4,0.8,0.9,1.5,1.4c0.8,0.7,1.3,1.1,1.5,1.4c0.8,0.8,1.5,1.6,1.9,2.5c0.2,0.4,0.4,0.7,0.5,1
			C135.5,250,135.6,250.7,135.7,251.3z"/>
		<path class="st1" d="M141.8,256.8h-3.4v-22.3h3.4V256.8z"/>
		<path class="st1" d="M148.6,234.6l4.5,15v-15h3.4v22.3h-3.6l-4.6-14.3v14.3h-3.4v-22.3H148.6z"/>
		<path class="st1" d="M164.6,257.1c-1.5,0-2.7-0.5-3.8-1.6c-1-1-1.6-2.3-1.6-3.8v-12.1c0-1.5,0.5-2.7,1.6-3.8c1-1,2.3-1.6,3.8-1.6
			c1.5,0,2.7,0.5,3.8,1.6c1,1,1.5,2.3,1.5,3.8v2.5h-3.5v-2.6c0-0.5-0.2-1-0.6-1.4c-0.4-0.4-0.8-0.6-1.4-0.6c-0.5,0-1,0.2-1.4,0.6
			c-0.4,0.4-0.6,0.8-0.6,1.4v12.2c0,0.5,0.2,1,0.6,1.4c0.4,0.4,0.8,0.6,1.4,0.6c0.5,0,1-0.2,1.4-0.6c0.4-0.4,0.6-0.8,0.6-1.4v-3.1
			h3.5v3.1c0,1.5-0.5,2.7-1.6,3.8C167.4,256.6,166.1,257.1,164.6,257.1z"/>
		<path class="st1" d="M172.7,256.8v-22.3h9.6v3.4h-6.2v6.1h4.5v3.4h-4.5v6.1h6.2v3.4H172.7z"/>
	</g>
	<g>
		<path class="st22" d="M237.7,67.3c7.4-5.3,17.3-5.3,24.7,0l15.8,11.3c4.8,3.4,10.8,4.7,16.6,3.5l19.1-3.9
			c8.9-1.8,17.9,2.2,22.5,10l9.9,16.7c3,5.1,7.9,8.7,13.7,10l19,4.2c8.8,2,15.5,9.3,16.5,18.3l2.2,19.3c0.7,5.8,3.7,11.2,8.5,14.7
			l15.6,11.6c7.3,5.4,10.3,14.8,7.6,23.5l-5.8,18.5c-1.8,5.6-1.1,11.7,1.8,16.8l9.6,16.9c4.5,7.9,3.4,17.7-2.6,24.5l-12.9,14.6
			c-3.9,4.4-5.8,10.2-5.2,16.1l1.8,19.4c0.9,9-4.1,17.6-12.3,21.4l-17.7,8.1c-5.4,2.4-9.5,7-11.3,12.6l-6.2,18.4
			c-2.9,8.6-10.9,14.4-20,14.5l-19.4,0.2c-5.9,0.1-11.5,2.5-15.5,6.9l-13.1,14.3c-6.1,6.7-15.8,8.7-24.1,5.1l-17.8-7.7
			c-5.4-2.3-11.5-2.3-16.9,0l-17.8,7.7c-8.3,3.6-18,1.5-24.1-5.1l-13.1-14.3c-4-4.3-9.6-6.8-15.5-6.9l-19.4-0.2
			c-9.1-0.1-17.1-5.9-20-14.5l-6.2-18.4c-1.9-5.6-6-10.1-11.3-12.6l-17.7-8.1c-8.2-3.8-13.2-12.3-12.3-21.4l1.8-19.4
			c0.6-5.9-1.3-11.7-5.2-16.1l-12.9-14.6c-6-6.8-7-16.6-2.6-24.5l9.6-16.9c2.9-5.1,3.5-11.2,1.8-16.8l-5.8-18.5
			c-2.7-8.6,0.3-18.1,7.6-23.5L94,171.5c4.7-3.5,7.8-8.8,8.5-14.7l2.2-19.3c1-9,7.7-16.4,16.5-18.3l19-4.2c5.7-1.3,10.7-4.9,13.7-10
			l9.9-16.7c4.6-7.8,13.7-11.8,22.5-10l19.1,3.9c5.8,1.2,11.8-0.1,16.6-3.5L237.7,67.3z"/>
	</g>
	<g>
		
			<ellipse transform="matrix(0.7071 -0.7071 0.7071 0.7071 -103.5527 250.0002)" class="st1" cx="250" cy="250" rx="157.8" ry="157.8"/>
	</g>
	<g>
		<path class="st22" d="M250,402.1c-83,0-150.5-67.5-150.5-150.5C99.5,168.6,167,101,250,101c83,0,150.5,67.5,150.5,150.5
			C400.5,334.6,333,402.1,250,402.1z M250,104.2c-81.3,0-147.4,66.1-147.4,147.4S168.7,399,250,399s147.4-66.1,147.4-147.4
			S331.3,104.2,250,104.2z"/>
	</g>
	<g>
		<g>
			<g>
				<g>
					<g>
						<path class="st41" d="M218.1,351c-1.4,1.3-3.2,2.2-5.2,2.4c-5,0.6-9.5-3-10.1-8c-7.1-59.9-12.7-98.7-19.7-119.9
							c-6.6-19.9-13.1-21.2-21.6-20.8c-4.7,0.2-6.8,2.1-8.1,3.8c-6.1,7.9-4.7,26.9-2.5,37c1.1,4.9-2,9.8-6.9,10.9
							c-4.9,1.1-9.8-2-10.9-6.9c-0.8-3.5-7.4-34.8,5.7-52c5.2-6.8,12.7-10.6,21.8-11c39.3-1.7,45.8,36.3,60.1,156.8
							C221.2,346.2,220.1,349,218.1,351z"/>
					</g>
				</g>
			</g>
		</g>
		<g>
			<g>
				<path class="st42" d="M151.2,247.1c0-0.6-0.1-1.1-0.2-1.7c-1-4.3-1.7-10.1-1.9-16l-18.1-7.4c-0.4,6.2-0.1,12.2,0.5,17.1
					L151.2,247.1z"/>
			</g>
			<g>
				<path class="st42" d="M219.6,332.6c-0.8-6.7-1.6-13.1-2.4-19.3l-16.5,15.6c0.7,5.3,1.3,10.8,2,16.5c0.1,0.9,0.4,1.7,0.7,2.5
					L219.6,332.6z"/>
			</g>
			<g>
				<path class="st42" d="M196.5,295.7c0.8,6.1,1.7,12.4,2.5,19.2l16.4-15.6c-0.9-6.7-1.7-13.1-2.6-19.1L196.5,295.7z"/>
			</g>
			<g>
				<path class="st42" d="M191.3,261.5c1,5.8,2,12,3,18.7l16.2-15.4c-1.1-6.6-2.2-12.8-3.3-18.4L191.3,261.5z"/>
			</g>
			<g>
				<path class="st42" d="M183.8,227.9c1.5,4.9,3,10.7,4.4,17.4l15.4-14.6c-1.6-6.2-3.4-11.8-5.3-16.6L183.8,227.9z"/>
			</g>
			<g>
				<path class="st42" d="M174.6,187.9l-7.1,17c4.4,0.9,8.3,3.7,12.1,11.6l8.4-20.2C184.2,192.3,179.8,189.5,174.6,187.9z"/>
			</g>
			<g>
				<path class="st42" d="M139,197.4c-1.7,2.2-3,4.6-4.1,7.1l14,15.1c0.2,0.2,0.4,0.4,0.6,0.5c0.6-4.7,1.8-8.9,3.9-11.7
					c0.8-1,1.9-2.1,3.7-2.9L144.5,192C142.5,193.5,140.6,195.3,139,197.4z"/>
			</g>
		</g>
		<g class="st6">
			<g>
				<g>
					<path class="st1" d="M136.5,242.6c0,0-0.7-1.4-1.4-3.8c-0.8-2.5-1.6-6.1-2-10.5c-0.4-4.4-0.3-9.8,1-15.5
						c0.7-2.9,1.6-5.8,3.1-8.7c1.5-2.9,3.5-5.8,6.2-8.2c0.7-0.6,1.4-1.2,2.1-1.7c0.4-0.3,0.7-0.5,1.2-0.8l0.9-0.5
						c0.5-0.3,1.4-0.8,2.2-1.2c0.8-0.4,1.5-0.7,2.3-1c3-1.3,6.3-2.1,9.4-2.3c3.2-0.2,6.2,0.2,9,0.9c2.7,0.8,5.1,1.9,7.1,3.2
						c2,1.3,3.6,2.7,4.9,4.1c1.3,1.3,2.2,2.7,3,3.8c1.4,2.2,1.8,3.7,1.8,3.7s-1.2-0.9-3.3-2.1c-1-0.6-2.4-1.2-3.9-1.9
						c-1.5-0.7-3.3-1.2-5.1-1.7c-3.7-0.9-8-1.2-12.2-0.1c-2.1,0.5-4.1,1.3-6.2,2.4l-1.5,0.9c-0.5,0.3-0.8,0.5-1.5,0.9l-0.9,0.6
						c-0.1,0-0.4,0.3-0.5,0.4c-0.4,0.3-0.8,0.6-1.2,1c-3,2.8-5.3,7.1-7,11.5c-1.8,4.4-3,9-4.1,13C137.9,237,136.5,242.6,136.5,242.6
						z"/>
				</g>
			</g>
		</g>
	</g>
	<g>
		<g>
			<g>
				<g>
					<path class="st10" d="M251.5,388.2c-1.3,0-2.7-0.4-3.9-1.1c-3.7-2.2-5-7-2.8-10.7l64.6-110.2c2.2-3.7,7-5,10.7-2.8
						c3.7,2.2,5,7,2.8,10.7l-64.6,110.2C256.9,386.8,254.2,388.2,251.5,388.2z"/>
				</g>
			</g>
		</g>
		<g>
			<g>
				<g>
					<path class="st11" d="M247.4,383.7c-0.6,0-1.1-0.2-1.7-0.5c-1.6-0.9-2.1-3-1.2-4.6l64.6-110.2c0.9-1.6,3-2.1,4.6-1.2
						c1.6,0.9,2.1,3,1.2,4.6L250.4,382C249.7,383.1,248.6,383.7,247.4,383.7z"/>
				</g>
			</g>
		</g>
		<g>
			<g>
				<path class="st30" d="M337.7,198.4C337.7,198.4,337.7,198.4,337.7,198.4c16.2-1.6,17.8,20.6,32.3,21.7c0.9,0.1,1.8,0.1,2.7,0
					c0,0,0,0,0,0.1c0,0,0,0,0,0c0.8,1.4-0.2,5.1-2.4,8.7c-2.3,3.7-5.1,6.2-6.7,6.1c0,0,0,0,0,0c-17.2,1.7-17.9-23.4-35.2-21.7
					c0,0,0,0,0,0c-0.8-1.4,0.2-5.1,2.5-8.8C333.2,200.8,336.1,198.3,337.7,198.4z"/>
			</g>
		</g>
		<g>
			<g>
				<path class="st41" d="M328.6,213.1C328.6,213.1,328.6,213.1,328.6,213.1c16.2-1.6,17.8,20.6,32.3,21.7c0.9,0.1,1.8,0.1,2.7,0
					c0,0,0,0,0,0.1c0,0,0,0,0,0c0.8,1.4-0.2,5.1-2.4,8.7c-2.3,3.7-5.1,6.2-6.7,6.1c0,0,0,0,0,0c-17.2,1.7-17.9-23.4-35.2-21.7
					c0,0,0,0,0,0c-0.8-1.4,0.2-5.1,2.5-8.8C324.1,215.5,327,213,328.6,213.1z"/>
			</g>
		</g>
		<g>
			<g>
				<path class="st30" d="M319.7,227.5C319.7,227.5,319.7,227.5,319.7,227.5c16.2-1.6,17.8,20.6,32.3,21.7c0.9,0.1,1.8,0.1,2.7,0
					c0,0,0,0,0,0.1c0,0,0,0,0,0c0.8,1.4-0.2,5.1-2.4,8.7c-2.3,3.7-5.1,6.2-6.7,6.1c0,0,0,0,0,0c-17.2,1.7-17.9-23.4-35.1-21.7
					c0,0,0,0,0,0c-0.8-1.4,0.2-5.1,2.5-8.8C315.2,229.9,318.1,227.4,319.7,227.5z"/>
			</g>
		</g>
		<g>
			<g>
				<path class="st41" d="M310.6,242.2L310.6,242.2c16.2-1.6,17.8,20.6,32.3,21.7c0.9,0.1,1.8,0.1,2.7,0c0,0,0,0,0,0.1c0,0,0,0,0,0
					c0.8,1.4-0.2,5.1-2.4,8.7c-2.3,3.7-5.1,6.2-6.7,6.1c0,0,0,0,0,0c-17.2,1.7-17.9-23.4-35.1-21.7c0,0,0,0,0,0
					c-0.8-1.4,0.2-5.1,2.5-8.8C306.1,244.6,309,242.1,310.6,242.2z"/>
			</g>
		</g>
		<g>
			<g>
				<path class="st30" d="M301.6,256.7L301.6,256.7c16.2-1.6,17.8,20.6,32.3,21.7c0.9,0.1,1.8,0.1,2.7,0c0,0,0,0,0,0.1c0,0,0,0,0,0
					c0.8,1.4-0.2,5.1-2.4,8.7c-2.3,3.7-5.1,6.2-6.7,6.1c0,0,0,0,0,0c-17.2,1.7-17.9-23.4-35.1-21.7c0,0,0,0,0,0
					c-0.8-1.4,0.2-5.1,2.5-8.8C297.2,259.1,300,256.6,301.6,256.7z"/>
			</g>
		</g>
		<g>
			<g>
				<path class="st41" d="M292.5,271.4C292.5,271.4,292.5,271.4,292.5,271.4c16.2-1.6,17.8,20.6,32.3,21.7c0.9,0.1,1.8,0.1,2.7,0
					c0,0,0,0,0,0.1c0,0,0,0,0,0c0.8,1.4-0.2,5.1-2.4,8.7c-2.3,3.7-5.1,6.2-6.7,6.1c0,0,0,0,0,0c-17.2,1.7-17.9-23.4-35.1-21.7
					c0,0,0,0,0,0c-0.8-1.4,0.2-5.1,2.5-8.8C288.1,273.9,290.9,271.4,292.5,271.4z"/>
			</g>
		</g>
		<g>
			<g>
				<path class="st30" d="M283.6,285.8C283.6,285.8,283.6,285.8,283.6,285.8c16.2-1.6,17.8,20.6,32.3,21.7c0.9,0.1,1.8,0.1,2.7,0
					c0,0,0,0,0,0.1c0,0,0,0,0,0c0.8,1.4-0.2,5.1-2.4,8.7c-2.3,3.7-5.1,6.2-6.7,6.1c0,0,0,0,0,0c-17.2,1.7-17.9-23.4-35.1-21.7
					c0,0,0,0,0,0c-0.8-1.4,0.2-5.1,2.5-8.8C279.2,288.3,282,285.8,283.6,285.8z"/>
			</g>
		</g>
		<g>
			<g>
				<path class="st41" d="M274.5,300.6C274.5,300.5,274.5,300.5,274.5,300.6c16.2-1.6,17.8,20.6,32.3,21.7c0.9,0.1,1.8,0.1,2.7,0
					c0,0,0,0,0,0.1c0,0,0,0,0,0c0.8,1.4-0.2,5.1-2.4,8.7c-2.3,3.7-5.1,6.2-6.7,6.1c0,0,0,0,0,0c-17.2,1.7-17.9-23.4-35.1-21.7
					c0,0,0,0,0,0c-0.8-1.4,0.2-5.1,2.5-8.8C270.1,303,272.9,300.5,274.5,300.6z"/>
			</g>
		</g>
		<g>
			<g>
				<path class="st41" d="M346.8,183.5L346.8,183.5c26.4,1.4,35,21,35.1,21.6c0.1,0.9-0.1,5.2-2.4,8.9c-2.3,3.7-5.1,6.2-6.7,6.1
					c0,0,0,0,0,0c-17.2,1.7-17.9-23.4-35.2-21.7c0,0,0,0,0,0c-0.8-1.4,0.2-5.1,2.5-8.8C342.3,186,345.1,183.5,346.8,183.5z"/>
			</g>
		</g>
		<g>
			<g>
				<path class="st30" d="M291.4,351.9L291.4,351.9c-26.4-1.4-35-21-35.1-21.6c-0.1-0.9,0.1-5.2,2.4-8.9c2.3-3.7,5.1-6.2,6.7-6.1
					c0,0,0,0,0,0c17.2-1.7,17.9,23.4,35.1,21.7c0,0,0,0,0,0c0.8,1.4-0.2,5.1-2.5,8.8C295.8,349.4,293,351.9,291.4,351.9z"/>
			</g>
		</g>
		<g class="st5">
			<g>
				<path class="st1" d="M350.1,252.4c14-22.6,21.3-45.4,20.7-60.4c-5.5-4.1-13.3-7.7-24.1-8.3c0,0,0,0,0,0
					c-1.6-0.1-4.5,2.4-6.7,6.1c-2.3,3.7-3.2,7.3-2.5,8.7c-1.7,0.1-4.4,2.5-6.6,6.1c-2.2,3.6-3.2,7.1-2.5,8.6
					c-1.7,0.1-4.4,2.5-6.6,6.1c-2.1,3.4-3.1,6.7-2.6,8.3c-1.7,0.3-4.2,2.7-6.3,6.1c-2.2,3.6-3.2,7.1-2.5,8.6
					c-1.7,0.1-4.4,2.5-6.6,6.1c-2.1,3.5-3.1,6.8-2.6,8.4c-1.7,0.2-4.3,2.6-6.4,6.1c-2.2,3.6-3.2,7.1-2.5,8.6
					c-1.7,0.1-4.4,2.5-6.6,6.1c-2.1,3.4-3.1,6.7-2.6,8.3c-0.5,0.1-1.1,0.4-1.8,0.9c0.9,5.5,3,9.6,6.6,11.8
					C301.4,307,329.1,286.3,350.1,252.4z"/>
			</g>
		</g>
		<g class="st6">
			<g>
				<g>
					<path class="st1" d="M338.9,196.3c0,0,0-0.5,0.3-1.4c0.3-0.9,0.8-2.1,1.7-3.3c0.4-0.6,1-1.3,1.6-1.9c0.6-0.7,1.4-1.2,2.2-1.8
						c0.9-0.5,1.7-1.1,2.7-1.5c1-0.5,2-0.7,3.1-0.9c1.1-0.3,2.2-0.2,3.2-0.3c1.1,0,2.1,0.2,3.1,0.4c1,0.3,1.9,0.6,2.7,0.9
						c0.8,0.3,1.5,0.9,2.2,1.3c1.3,0.8,2.2,1.8,2.8,2.4c0.6,0.7,0.9,1.1,0.9,1.1s-0.5,0-1.4-0.1c-0.9,0-2-0.3-3.4-0.3
						c-0.7,0-1.4-0.2-2.1-0.2c-0.7,0-1.5,0-2.3-0.1c-0.8,0.1-1.5,0.1-2.3,0.1c-0.8,0.2-1.5,0.1-2.3,0.3c-3,0.5-6,1.8-8.5,3
						c-1.2,0.6-2.2,1.2-3,1.6C339.4,196,338.9,196.3,338.9,196.3z"/>
				</g>
			</g>
		</g>
	</g>
	<g>
		<g>
			<g>
				<path class="st43" d="M269.7,184.5c0,0,24.2-10.2,28.8-14.4c4.6-4.2,9.1-12.9,4.8-15.7c-4.3-2.9-12.5,2.8-14.6-3
					c-2.1-5.8-3.4-10.3-7.2-9.4c-7.9,2.1-10.4,5.4-12.7,2.1c-2.3-3.3-5.5-11.8-11.5-3.5c-5.9,8.3,4,36.4,4,36.4
					S260.2,184.1,269.7,184.5z"/>
			</g>
		</g>
		<g>
			<g>
				<path class="st44" d="M274.3,177.9c0,0,19.3-15.8,22.6-19.9c3.4-4.2,6.7,0.6,5.2,3.4C300.6,164.2,295.1,172.5,274.3,177.9z"/>
			</g>
		</g>
		<g>
			<g>
				<path class="st44" d="M279.5,170c0,0,11.9-14.8,6.6-20.3c-5.3-5.5-10.9,8.4-10.7,13.5C275.6,168.3,275.4,172.3,279.5,170z"/>
			</g>
		</g>
		<g>
			<g>
				<path class="st44" d="M272.8,150.8c0,0-3.1,11.6-2.5,17.9c0.6,6.2-0.3,7.7-3.1,4.7c-2.8-3-8.7-22.4-2.6-25.5
					C268,146.2,270.3,146.8,272.8,150.8z"/>
			</g>
		</g>
		<g>
			<g>
				<path class="st43" d="M237.1,337.2c0,0-22,9.5-26.2,13.4c-4.2,3.9-8.4,11.8-4.4,14.4c3.9,2.6,11.4-2.6,13.2,2.6
					c1.9,5.2,3,9.4,6.4,8.5c7.2-1.9,9.4-5,11.5-2c2.1,3,4.9,10.7,10.4,3.1c5.4-7.6-3.3-33.2-3.3-33.2S245.7,337.5,237.1,337.2z"/>
			</g>
		</g>
		<g>
			<g>
				<path class="st44" d="M232.9,343.2c0,0-17.6,14.5-20.7,18.4c-3.1,3.8-6.1-0.5-4.6-3.1C209,356,214,348.4,232.9,343.2z"/>
			</g>
		</g>
		<g>
			<g>
				<path class="st44" d="M228.1,350.5c0,0-10.9,13.6-6.2,18.6c4.7,5,9.9-7.7,9.8-12.4C231.6,352,231.9,348.4,228.1,350.5z"/>
			</g>
		</g>
		<g>
			<g>
				<path class="st44" d="M234,368c0,0,2.9-10.7,2.4-16.3c-0.5-5.7,0.3-7,2.8-4.3c2.5,2.7,7.7,20.4,2.1,23.3
					C238.3,372.2,236.3,371.6,234,368z"/>
			</g>
		</g>
		<g>
			<g>
				<path class="st43" d="M266.9,324.7c-2,9.9-9.4,17.2-18.5,19.6c-3.6,0.9-7.6-1.4-11.5-2.2l0,0c-4.4-0.9-8.2-0.4-11.4-3.1
					c-6.8-5.8-10.4-15-8.5-24.4L240.6,197c2.1-10.3,10.1-17.9,19.9-19.9c3.2-0.7,5.8,0.9,9.2,1.6l0,0c3.1,0.6,6.8,0.2,9.3,1.8
					c8.7,5.4,13.6,15.9,11.5,26.6L266.9,324.7z"/>
			</g>
		</g>
		<g>
			<g>
				<path class="st45" d="M266.8,325c0-0.1,0.1-0.2,0.1-0.3l4-19.8c-24.1,5-42.7,18.5-51.7,26.2c1.5,3.1,3.7,5.8,6.3,8.1
					c2.7,2.3,6,2.3,9.6,2.8C242.1,336.4,253.2,329.2,266.8,325z"/>
			</g>
			<g>
				<path class="st45" d="M220.5,311.1c0.3-0.3,23-23.7,54.6-27.4l3.8-18.8c-23.6,1.2-43.3,11.5-56,20.4l-5.6,27.9
					C218.5,312.8,219.6,312.1,220.5,311.1z"/>
			</g>
			<g>
				<path class="st45" d="M283.3,243l3.7-18.4c-22-0.7-41.1,6.9-55,15.2l-5.3,26.2C236.2,258.1,257.3,243.3,283.3,243z"/>
			</g>
			<g>
				<path class="st45" d="M289.8,204.5c0.3,0,0.7,0.1,1,0.1c0.7-7.1-1.5-13.9-5.9-19c-16.3-0.9-31.1,2.9-43.4,8.2
					c-0.4,1.1-0.7,2.2-0.9,3.3l-4,20C249.7,209.1,268.5,201.5,289.8,204.5z"/>
			</g>
		</g>
		<g class="st5">
			<g>
				<path class="st1" d="M260.9,177c-0.1,0-0.3,0-0.4,0.1c-9.7,2-17.8,9.6-19.9,19.9l-23,114.7c1.8,0.2,3.6,0.4,5.5,0.4
					c10.2-4.2,19.8-10.4,28.2-18.6C283.4,262.1,286.7,212.3,260.9,177z"/>
			</g>
		</g>
		<g class="st6">
			<g>
				<g>
					<path class="st1" d="M253.8,184.3c0,0,0.1,2-0.1,5.4c-0.1,3.4-0.4,8.3-1,14.1c-1.2,11.6-3.7,26.7-7.1,41.7
						c-3.5,15-7.9,29.7-11.9,40.6c-2,5.4-3.9,9.9-5.3,13.1c-1.4,3.1-2.3,4.9-2.3,4.9s-0.1-2,0.1-5.4c0.1-3.4,0.4-8.3,1-14.1
						c1.1-11.6,3.7-26.7,7.2-41.7c3.5-15,7.9-29.7,12-40.6c2-5.4,3.9-9.9,5.3-13.1C252.9,186.1,253.8,184.3,253.8,184.3z"/>
				</g>
			</g>
		</g>
	</g>
	<g>
		<path class="st22" d="M313,315.7l3-14.1l-27.8,3.8l-2.1,10.1c-2.6,0.2-5,0.7-7.2,1.8c-2.2,1-4.1,2.3-5.9,3.9
			c-0.5-0.6-0.9-1.2-1.5-1.7c-1.6-1.5-3.5-2.5-5.6-3.2c-0.4-0.1-0.8-0.2-1.2-0.3l0-0.2h-1.2c-1.8-0.3-3.7-0.4-5.9,0
			c-0.1,0-0.1,0-0.2,0h-8.8h-10.9h-11.1c-1.1-0.2-2.3-0.3-3.6-0.3c-1.4,0-2.8,0.1-4.1,0.4c-0.2-2.3-0.7-4.4-1.7-6.4
			c-1.2-2.3-2.9-4.3-5-5.8c-1.8-1.3-4-2.3-6.3-2.8c-4.7-1.2-10.3-0.9-14.8,0.7c-2.5,0.9-4.9,2.2-7,3.8c-2,1.5-3.8,3.4-5.4,5.4
			c-1.4,1.9-2.7,3.9-3.8,6.1c-1,2.1-2,4.2-2.7,6.4c-0.7,2.1-1.3,4.2-1.7,6.3c-0.5,2.1-0.8,4.2-1,6.2c-0.2,2-0.3,3.8-0.3,5.5
			c0,3.7,0.4,6.8,1.2,9.6c0.9,3.3,2.5,6.1,4.5,8.3c2.2,2.3,4.9,4,8,5.1c1.4,0.5,3,0.8,4.6,1v18.3c-0.3,0.4-0.7,0.9-1,1.4
			c-0.7,1.1-1.3,2.4-1.7,3.7c-0.5,1.5-0.7,3-0.7,4.6c0,2,0.4,4,1.1,6c0.8,2.1,2,4,3.6,5.6c1.6,1.6,3.5,2.9,5.7,3.8
			c1.7,0.7,3.5,1.1,5.5,1.3l-0.4,1.5l2.4-1.4c1.2,0,2.5-0.1,3.8-0.3c0.1,0,0.2-0.1,0.4-0.1h26.3l0.3-1.6c0.5,0.3,1,0.5,1.5,0.7
			c2,0.9,4.3,1.3,6.9,1.3c1.5,0,3.2-0.2,4.8-0.6c1.3-0.3,2.6-0.9,3.8-1.6c0.9,0.5,1.9,0.9,3,1.2c2,0.6,4.2,0.9,6.5,0.9
			c1.7,0,3.5-0.2,5.1-0.7l-4,19l28.4-6.8l2.4-11.5c2.7-0.2,5.3-0.8,7.6-1.8c2.5-1.1,4.8-2.7,6.7-4.6c1.8-1.8,3.3-3.9,4.4-6.2
			c1-2,1.8-4.1,2.4-6.3c0.6-2.1,1-4.2,1.3-6.3c0.2-1.7,0.3-3.3,0.3-4.8c0.1,0,0.3,0,0.4,0c1.7,0,3.4-0.2,5.2-0.6
			c2.3-0.5,4.5-1.6,6.5-3c1.9-1.4,3.7-3.3,5.1-5.6c1.4-2.3,2.5-5.1,3.1-8.3l9.9-46.8H313z"/>
	</g>
	<g>
		<g>
			<path class="st14" d="M209.5,346.6c-0.8,2.1-2,3.9-3.4,5.3c-1.4,1.5-3,2.7-4.6,3.6c-1.7,0.9-3.3,1.6-5.1,2
				c-1.7,0.4-3.3,0.6-4.7,0.6c-2.3,0-4.3-0.3-6-0.8c-1.7-0.5-3.1-1.4-4.2-2.6c-1.1-1.2-2-2.8-2.5-4.7c-0.6-2-0.8-4.3-0.8-7.1
				c0-1.4,0.1-3,0.3-4.6c0.2-1.7,0.5-3.4,0.8-5.2c0.4-1.8,0.9-3.6,1.5-5.4c0.6-1.8,1.3-3.5,2.2-5.2c0.9-1.7,1.8-3.2,3-4.7
				c1.1-1.5,2.4-2.7,3.8-3.8c1.4-1.1,3-1.9,4.7-2.5c1.7-0.6,3.6-0.9,5.6-0.9c1.4,0,2.8,0.2,4.1,0.5c1.3,0.3,2.4,0.8,3.3,1.5
				c0.9,0.7,1.7,1.5,2.2,2.6c0.5,1.1,0.8,2.3,0.8,3.8c0,0.8-0.1,1.6-0.2,2.3c-0.2,0.7-0.4,1.3-0.8,1.8c-0.4,0.5-0.8,0.9-1.4,1.2
				c-0.6,0.3-1.2,0.4-2,0.4c-0.5,0-1-0.1-1.7-0.3c-0.6-0.2-1.3-0.6-1.8-1.3c0.4-0.2,0.7-0.5,1.1-0.9c0.3-0.4,0.7-0.9,0.9-1.4
				c0.3-0.5,0.5-1.1,0.6-1.7c0.2-0.6,0.2-1.2,0.2-1.8c0-0.5-0.1-1-0.2-1.4c-0.1-0.5-0.4-0.9-0.7-1.2c-0.3-0.3-0.7-0.6-1.2-0.8
				c-0.5-0.2-1.1-0.3-1.8-0.3c-1.2,0-2.3,0.4-3.4,1.3c-1.1,0.9-2.1,2-3.1,3.5c-1,1.4-1.8,3.1-2.6,5.1c-0.8,1.9-1.5,4-2.1,6.1
				c-0.6,2.2-1,4.4-1.3,6.6c-0.3,2.3-0.5,4.5-0.5,6.6c0,1.4,0.1,2.8,0.3,3.9c0.2,1.2,0.6,2.2,1.2,3.1c0.6,0.9,1.3,1.5,2.3,2
				c1,0.5,2.2,0.7,3.7,0.7c2.5,0,4.7-0.5,6.8-1.6c2.1-1.1,3.9-2.6,5.3-4.6L209.5,346.6z"/>
		</g>
		<g>
			<path class="st14" d="M243.3,346c-0.6,1.7-1.2,3.1-1.9,4.4c-0.7,1.2-1.4,2.3-2.1,3.1c-0.7,0.9-1.5,1.5-2.3,2.1
				c-0.8,0.5-1.5,0.9-2.3,1.2c-0.7,0.3-1.4,0.5-2.1,0.6c-0.7,0.1-1.3,0.1-1.8,0.1c-1.8,0-3.2-0.5-4.2-1.4c-1-1-1.7-2.4-1.9-4.3
				c-0.5,0.7-1.1,1.4-1.7,2.1c-0.6,0.7-1.3,1.3-2,1.8c-0.8,0.5-1.6,1-2.5,1.3c-0.9,0.3-1.9,0.5-3.1,0.5c-1.1,0-2.1-0.2-3.1-0.5
				c-1-0.3-1.9-0.9-2.6-1.7c-0.8-0.8-1.4-1.8-1.9-3.1c-0.5-1.3-0.7-2.8-0.7-4.7c0-1.4,0.1-2.9,0.4-4.6c0.3-1.6,0.7-3.2,1.3-4.9
				c0.6-1.6,1.3-3.2,2.2-4.7c0.9-1.5,1.9-2.8,3.1-4c1.2-1.1,2.5-2.1,4-2.7c1.5-0.7,3.2-1,5-1c1.8,0,3,0.3,3.9,0.9
				c0.8,0.6,1.2,1.4,1.2,2.3v0.5l0.7-3.3h9l-4.5,21.2c-0.1,0.3-0.2,0.7-0.2,1c0,0.3-0.1,0.7-0.1,1c0,1.8,0.9,2.7,2.6,2.7
				c0.6,0,1.2-0.2,1.7-0.5c0.5-0.3,1-0.7,1.4-1.3c0.4-0.5,0.8-1.2,1.1-1.9c0.3-0.7,0.6-1.5,0.8-2.3H243.3z M227.6,331.9
				c0-0.2,0-0.4-0.1-0.7c-0.1-0.3-0.2-0.5-0.4-0.8c-0.2-0.3-0.5-0.5-0.8-0.6c-0.3-0.2-0.7-0.3-1.2-0.3c-0.9,0-1.7,0.3-2.5,0.9
				c-0.8,0.6-1.5,1.3-2.1,2.3c-0.6,0.9-1.2,2-1.7,3.2c-0.5,1.2-0.9,2.4-1.3,3.7c-0.4,1.3-0.6,2.5-0.8,3.7c-0.2,1.2-0.3,2.3-0.3,3.3
				c0,1.2,0.1,2.1,0.3,2.8c0.2,0.7,0.5,1.1,0.8,1.4c0.3,0.3,0.7,0.5,1,0.6c0.4,0.1,0.7,0.1,1,0.1c0.5,0,1-0.1,1.5-0.3
				c0.5-0.2,1-0.6,1.5-1c0.5-0.5,0.9-1,1.3-1.7c0.4-0.7,0.7-1.5,0.9-2.4L227.6,331.9z"/>
		</g>
		<g>
			<path class="st14" d="M274.8,346c-0.9,2.6-1.8,4.6-2.8,6.1c-1,1.5-2,2.7-3,3.5c-1,0.8-2,1.3-3,1.6c-1,0.2-1.9,0.4-2.7,0.4
				c-1.4,0-2.5-0.2-3.5-0.6c-0.9-0.4-1.7-0.9-2.3-1.6c-0.6-0.7-1-1.4-1.2-2.3c-0.3-0.8-0.4-1.7-0.4-2.6c0-1.1,0.1-2.3,0.4-3.7
				c0.3-1.4,0.6-2.9,1-4.3c0.3-1.5,0.7-2.9,1-4.3c0.3-1.4,0.4-2.6,0.4-3.6c0-2.1-0.8-3.2-2.3-3.2c-0.6,0-1.1,0.2-1.6,0.5
				c-0.5,0.3-0.9,0.7-1.3,1.2c-0.4,0.5-0.8,1.1-1.1,1.8c-0.3,0.7-0.6,1.4-0.9,2.2l-4.2,20h-9l6.6-31.2h9l-0.7,3.2
				c0.7-0.8,1.3-1.4,2-1.8c0.7-0.5,1.3-0.8,1.9-1.1c0.6-0.2,1.2-0.4,1.8-0.5c0.6-0.1,1.1-0.1,1.6-0.1c1,0,1.9,0.1,2.8,0.4
				c0.9,0.3,1.6,0.7,2.2,1.2c0.6,0.6,1.1,1.3,1.4,2.2c0.3,0.9,0.5,2,0.5,3.2c0,0.8-0.1,1.7-0.2,2.7c-0.2,1-0.3,1.9-0.6,3
				c-0.2,1-0.5,2-0.7,3c-0.3,1-0.5,1.9-0.7,2.9c-0.2,0.9-0.4,1.8-0.6,2.5c-0.2,0.8-0.2,1.5-0.2,2.1c0,0.8,0.2,1.4,0.5,1.9
				c0.4,0.5,1,0.7,2,0.7c0.7,0,1.3-0.1,1.8-0.4c0.5-0.3,1-0.6,1.4-1.1c0.4-0.5,0.8-1.1,1.1-1.8c0.3-0.7,0.7-1.4,1-2.2H274.8z"/>
		</g>
		<g>
			<path class="st14" d="M307.5,346c-0.6,1.7-1.2,3.1-1.9,4.4c-0.7,1.2-1.4,2.2-2.1,3.1c-0.7,0.8-1.5,1.5-2.3,2
				c-0.8,0.5-1.5,0.9-2.3,1.1c-0.7,0.3-1.4,0.4-2.1,0.5c-0.7,0.1-1.3,0.1-1.8,0.1c-1.7,0-3.1-0.5-4.2-1.4c-1.1-0.9-1.7-2.2-2-4
				c-0.5,0.7-1,1.4-1.6,2.1c-0.6,0.7-1.3,1.3-2,1.8c-0.8,0.5-1.6,1-2.5,1.3c-0.9,0.3-1.9,0.5-3,0.5c-1.1,0-2.1-0.2-3.1-0.5
				c-1-0.3-1.9-0.9-2.6-1.7c-0.8-0.8-1.4-1.8-1.9-3.1c-0.5-1.3-0.7-2.8-0.7-4.7c0-1.4,0.1-2.9,0.4-4.6c0.3-1.6,0.7-3.2,1.3-4.9
				c0.6-1.6,1.3-3.2,2.2-4.7c0.9-1.5,1.9-2.8,3.1-4c1.2-1.1,2.5-2.1,4-2.7c1.5-0.7,3.2-1,5-1c1.8,0,3.1,0.3,3.9,0.9
				c0.8,0.6,1.2,1.4,1.2,2.3v0.2l3-14.3l9.2-1.2l-7.2,33.7c-0.1,0.3-0.2,0.7-0.2,1c0,0.3-0.1,0.7-0.1,1c0,0.9,0.2,1.5,0.6,1.8
				c0.4,0.3,1.1,0.5,1.9,0.5c0.6,0,1.2-0.1,1.7-0.4c0.5-0.3,1-0.7,1.4-1.1c0.4-0.5,0.8-1.1,1.1-1.8c0.3-0.7,0.6-1.4,0.9-2.2H307.5z
				 M288.8,346l3-14.3c0-0.2-0.1-0.4-0.2-0.6c-0.1-0.2-0.2-0.5-0.4-0.7c-0.2-0.2-0.4-0.4-0.7-0.6c-0.3-0.2-0.7-0.2-1.2-0.2
				c-0.9,0-1.7,0.3-2.5,0.9c-0.8,0.6-1.5,1.3-2.1,2.3c-0.7,0.9-1.2,2-1.7,3.2c-0.5,1.2-0.9,2.4-1.3,3.7c-0.4,1.3-0.6,2.5-0.8,3.7
				c-0.2,1.2-0.3,2.3-0.3,3.3c0,1.2,0.1,2.1,0.3,2.8c0.2,0.7,0.5,1.1,0.8,1.4c0.3,0.3,0.7,0.5,1,0.6c0.4,0.1,0.7,0.1,1,0.1
				c0.4,0,0.9-0.1,1.4-0.3c0.5-0.2,1-0.5,1.5-1c0.5-0.4,0.9-1,1.3-1.6c0.4-0.7,0.7-1.4,0.9-2.3V346z"/>
		</g>
		<g>
			<path class="st14" d="M318.7,353.9c-0.7,0.8-1.3,1.4-2,1.9c-0.7,0.5-1.3,0.8-2,1.1c-0.7,0.3-1.3,0.4-1.9,0.5
				c-0.6,0.1-1.2,0.1-1.7,0.1c-0.9,0-1.8-0.1-2.6-0.4c-0.8-0.3-1.5-0.7-2.1-1.3c-0.6-0.6-1.1-1.4-1.4-2.3c-0.3-0.9-0.5-2.1-0.5-3.4
				c0-0.6,0-1.2,0.1-1.9c0.1-0.7,0.2-1.4,0.4-2.2l4.2-20h9l-4.5,21.2c-0.1,0.5-0.2,1.1-0.2,1.6c0,0.4,0,0.7,0.1,1
				c0.1,0.3,0.2,0.6,0.3,0.9c0.1,0.3,0.3,0.5,0.6,0.6c0.2,0.1,0.5,0.2,0.9,0.2c0.6,0,1.2-0.1,1.7-0.4c0.5-0.3,1-0.7,1.4-1.1
				c0.4-0.5,0.8-1.1,1.1-1.8c0.3-0.7,0.6-1.4,0.8-2.2l4.2-20h9l-7.6,36.2c-0.4,2.2-1.1,4-2,5.4c-0.9,1.4-1.8,2.5-2.9,3.2
				c-1,0.8-2.1,1.3-3.3,1.6c-1.1,0.3-2.2,0.4-3.2,0.4c-0.9,0-1.8-0.2-2.7-0.5c-0.9-0.3-1.7-0.8-2.3-1.4c-0.7-0.6-1.2-1.3-1.6-2.1
				c-0.4-0.8-0.6-1.7-0.6-2.8c0-1.5,0.3-2.7,0.8-3.7c0.6-1,1.3-1.8,2.3-2.5c1-0.7,2.1-1.3,3.4-1.8c1.3-0.5,2.7-0.9,4.2-1.4
				L318.7,353.9z M317.6,358.7c-1,0.3-1.9,0.7-2.7,1.1c-0.9,0.4-1.6,0.9-2.2,1.4c-0.6,0.5-1.1,1.1-1.5,1.8c-0.4,0.7-0.5,1.4-0.5,2.2
				c0,0.2,0.1,0.5,0.2,0.7c0.1,0.2,0.3,0.5,0.5,0.7c0.2,0.2,0.5,0.4,0.8,0.5c0.3,0.1,0.6,0.2,1,0.2c0.3,0,0.6-0.1,1-0.2
				c0.4-0.2,0.7-0.4,1-0.8c0.3-0.4,0.6-0.9,0.9-1.5c0.3-0.6,0.5-1.4,0.7-2.3L317.6,358.7z"/>
		</g>
		<g>
			<path class="st14" d="M221.6,391.2c-1.6,1.9-3.3,3.4-4.9,4.7c-1.6,1.2-3.2,2.3-4.6,3.1c-0.7,0.7-1.4,1.3-2.2,1.8
				c-0.8,0.5-1.6,0.9-2.5,1.2c-0.9,0.3-1.7,0.5-2.6,0.6c-0.9,0.1-1.7,0.2-2.5,0.2c-1.6,0-2.9-0.2-4.1-0.7c-1.1-0.5-2.1-1.1-2.8-1.9
				c-0.8-0.8-1.3-1.6-1.7-2.6c-0.4-0.9-0.5-1.9-0.5-2.8c0-0.7,0.1-1.4,0.3-2c0.2-0.6,0.4-1.2,0.7-1.7c0.3-0.5,0.7-0.9,1-1.3
				c0.4-0.4,0.8-0.6,1.2-0.8c1.7-3.1,3.2-6.2,4.4-9.3c1.2-3.1,2.3-6.1,3.3-9.2l9.2-1.2c0.1,2.7,0.2,5,0.4,7c0.1,2,0.2,3.7,0.3,5.1
				c0.1,1.4,0.2,2.7,0.3,3.7c0.1,1,0.2,1.9,0.2,2.7c0.1,0.8,0.1,1.5,0.2,2.1c0,0.6,0,1.3,0,2c0,0.5,0,0.9,0,1.3
				c0,0.4-0.1,0.8-0.2,1.1c0.9-0.5,1.7-1.1,2.5-1.6c0.7-0.5,1.4-1,2-1.6H221.6z M196.5,393.4c0,1.5,0.3,2.6,0.9,3.3
				c0.6,0.7,1.6,1.1,2.9,1.1c0.7,0,1.4-0.1,2-0.3c0.6-0.2,1.2-0.5,1.7-1c0.5-0.5,0.9-1,1.2-1.8c0.3-0.7,0.5-1.6,0.5-2.7
				c0-0.5,0-1,0-1.5c0-0.5-0.1-1-0.1-1.6c0-0.6-0.1-1.2-0.2-1.9c-0.1-0.7-0.2-1.5-0.2-2.4c-0.1-0.9-0.2-2-0.3-3.2
				c-0.1-1.2-0.2-2.6-0.3-4.2c-0.6,2-1.4,4-2.2,5.9c-0.9,1.9-1.8,3.9-2.8,5.9c0.4,0.2,0.7,0.5,1,0.9c0.3,0.3,0.4,0.8,0.4,1.3
				c0,0.4-0.1,0.8-0.2,1.1c-0.1,0.4-0.3,0.7-0.5,1c-0.2,0.3-0.5,0.5-0.9,0.7c-0.3,0.2-0.7,0.3-1.1,0.3c-0.3,0-0.7,0-1-0.2
				C196.9,394,196.6,393.8,196.5,393.4z"/>
		</g>
		<g>
			<path class="st14" d="M253.1,391.2c-0.9,2.6-1.8,4.6-2.8,6.1c-1,1.5-2,2.7-3,3.5c-1,0.8-2,1.3-3,1.6c-1,0.2-1.9,0.4-2.7,0.4
				c-1.4,0-2.5-0.2-3.5-0.6c-0.9-0.4-1.7-0.9-2.3-1.6c-0.6-0.7-1-1.4-1.2-2.3c-0.3-0.8-0.4-1.7-0.4-2.6c0-1.1,0.1-2.3,0.4-3.7
				c0.3-1.4,0.6-2.9,1-4.3c0.3-1.5,0.7-2.9,1-4.3c0.3-1.4,0.4-2.6,0.4-3.6c0-2.1-0.8-3.2-2.3-3.2c-0.6,0-1.1,0.1-1.6,0.5
				c-0.5,0.3-0.9,0.7-1.3,1.2c-0.4,0.5-0.8,1.1-1.1,1.8c-0.3,0.7-0.6,1.4-0.9,2.2l-4.2,20h-9l9-42.4l9.2-1.2l-3.3,15.7
				c0.7-0.8,1.3-1.4,2-1.8c0.7-0.5,1.3-0.8,1.9-1c0.6-0.2,1.2-0.4,1.8-0.5c0.6-0.1,1.1-0.1,1.6-0.1c1,0,1.9,0.1,2.8,0.4
				c0.9,0.3,1.6,0.7,2.2,1.2c0.6,0.6,1.1,1.3,1.4,2.2c0.3,0.9,0.5,2,0.5,3.2c0,0.8-0.1,1.7-0.2,2.7c-0.2,1-0.3,2-0.6,3
				c-0.2,1-0.5,2-0.7,3c-0.3,1-0.5,2-0.7,2.9c-0.2,0.9-0.4,1.8-0.6,2.5c-0.2,0.8-0.2,1.5-0.2,2.1c0,0.8,0.2,1.4,0.5,1.9
				c0.4,0.5,1,0.7,2,0.7c0.7,0,1.3-0.1,1.8-0.4c0.5-0.3,1-0.6,1.4-1.1c0.4-0.5,0.8-1.1,1.1-1.7c0.3-0.7,0.7-1.4,1-2.2H253.1z"/>
		</g>
		<g>
			<path class="st14" d="M285.5,378.7c-1.2,1.3-2.8,2.4-4.7,3.3c-1.9,0.9-4,1.5-6.3,1.9c-0.2,2.9-0.8,5.5-1.7,7.8
				c-0.9,2.3-2,4.3-3.3,5.9c-1.3,1.6-2.8,2.9-4.5,3.7c-1.7,0.9-3.5,1.3-5.4,1.3c-1.4,0-2.8-0.2-4-0.5c-1.2-0.4-2.3-0.9-3.2-1.7
				c-0.9-0.8-1.6-1.8-2.1-3c-0.5-1.2-0.7-2.8-0.7-4.6c0-1.2,0.1-2.6,0.4-4.2c0.3-1.6,0.7-3.2,1.2-4.8c0.6-1.6,1.3-3.3,2.2-4.8
				c0.9-1.6,2-3,3.2-4.2c1.3-1.2,2.7-2.2,4.4-3c1.7-0.8,3.6-1.1,5.7-1.1c5.3,0,8,3.3,8,10v0.1c0.1,0,0.2,0.1,0.3,0.1
				c0.1,0,0.2,0,0.4,0c0.7,0,1.5-0.1,2.4-0.3c0.8-0.2,1.7-0.5,2.5-0.8c0.9-0.3,1.7-0.7,2.5-1.2c0.8-0.5,1.6-0.9,2.2-1.4L285.5,378.7
				z M269.3,384c-0.7-0.2-1.1-0.5-1.3-1c-0.2-0.5-0.3-1-0.3-1.7c0-0.9,0.2-1.6,0.5-2.1c0.4-0.6,0.8-1,1.4-1.2c0-0.7-0.1-1.2-0.2-1.7
				c-0.1-0.5-0.2-0.8-0.4-1.1c-0.2-0.3-0.4-0.5-0.7-0.6c-0.3-0.1-0.6-0.2-1-0.2c-0.8,0-1.5,0.3-2.2,0.9c-0.7,0.6-1.3,1.3-2,2.3
				c-0.6,1-1.2,2-1.7,3.3c-0.5,1.2-1,2.5-1.3,3.8c-0.4,1.3-0.7,2.6-0.9,3.9c-0.2,1.3-0.3,2.4-0.3,3.5c0,1,0.1,1.9,0.2,2.5
				c0.1,0.7,0.3,1.2,0.5,1.5c0.3,0.4,0.6,0.6,1,0.8c0.4,0.1,0.9,0.2,1.5,0.2c0.8,0,1.5-0.3,2.3-1c0.8-0.7,1.5-1.6,2.1-2.7
				c0.6-1.2,1.2-2.5,1.7-4.1C268.6,387.6,269,385.9,269.3,384z"/>
		</g>
		<g>
			<path class="st14" d="M272.1,417.9l10.4-49.1h9l-1,4.7c0.9-0.8,2-1.4,3.1-1.9c1.2-0.5,2.6-0.8,4.1-0.8c1.1,0,2,0.2,3,0.5
				c0.9,0.3,1.7,0.9,2.4,1.6c0.7,0.8,1.2,1.8,1.6,3c0.4,1.3,0.6,2.8,0.6,4.7c0,1.4-0.1,2.9-0.3,4.6c-0.2,1.6-0.5,3.3-1,4.9
				c-0.5,1.6-1.1,3.2-1.8,4.7c-0.8,1.5-1.7,2.8-2.8,4c-1.1,1.2-2.5,2.1-4,2.8c-1.6,0.7-3.3,1.1-5.3,1.1c-0.8,0-1.5-0.1-2.1-0.2
				c-0.6-0.1-1.1-0.3-1.5-0.5c-0.4-0.2-0.8-0.4-1-0.7c-0.3-0.3-0.5-0.6-0.7-0.8l-3.2,15.2L272.1,417.9z M285.8,395.9
				c0.1,0.3,0.4,0.7,0.7,1c0.4,0.3,0.9,0.5,1.6,0.5c1.1,0,2.1-0.3,2.9-0.8c0.9-0.6,1.6-1.3,2.3-2.2c0.6-0.9,1.2-2,1.6-3.1
				c0.4-1.2,0.8-2.4,1.1-3.6c0.3-1.2,0.5-2.5,0.6-3.7c0.1-1.2,0.2-2.3,0.2-3.3c0-1.2-0.1-2.1-0.3-2.8c-0.2-0.7-0.5-1.2-0.8-1.6
				c-0.3-0.3-0.7-0.6-1-0.7c-0.4-0.1-0.7-0.1-1-0.1c-0.7,0-1.5,0.3-2.2,0.8c-0.8,0.5-1.5,1.3-2.1,2.3L285.8,395.9z"/>
		</g>
	</g>
</g>
</svg>
