<?xml version="1.0" encoding="utf-8"?>
<!-- Generator: Adobe Illustrator 23.0.3, SVG Export Plug-In . SVG Version: 6.00 Build 0)  -->
<svg version="1.1" id="Layer_1" xmlns="http://www.w3.org/2000/svg" xmlns:xlink="http://www.w3.org/1999/xlink" x="0px" y="0px"
	 viewBox="0 0 500 500" style="enable-background:new 0 0 500 500;" xml:space="preserve">
<style type="text/css">
	.st0{fill:#44CEE3;}
	.st1{fill:#FFFFFF;}
	.st2{fill:none;}
	.st3{fill:#F4628F;}
	.st4{fill:#E8EC3A;}
	.st5{fill:#97BB02;}
	.st6{opacity:0.2;}
	.st7{opacity:0.5;}
	.st8{fill:#9470D0;}
	.st9{fill:#F23D7A;}
	.st10{fill:#DA1160;}
	.st11{fill:#B2B1B1;}
	.st12{fill:#E2E1DE;}
	.st13{fill:#6332BA;}
	.st14{fill:#5420AE;}
	.st15{fill:#FFC300;}
	.st16{fill:#DDA507;}
	.st17{fill:#49D8E5;}
	.st18{fill:#64095D;}
	.st19{fill:#490748;}
	.st20{fill:#EA0446;}
	.st21{fill:#EEF443;}
	.st22{fill:#03C4DE;}
	.st23{fill:#492111;}
	.st24{fill:#00838C;}
	.st25{fill:#652A1F;}
	.st26{fill:#C09670;}
	.st27{fill:#EBE0AE;}
	.st28{fill:#4E1E14;}
	.st29{fill:#D9A24B;}
	.st30{fill:#FFEAC0;}
	.st31{fill:#CB2519;}
	.st32{fill:#43CEE3;}
	.st33{fill:#00B8D2;}
	.st34{fill:#FFBD17;}
	.st35{fill:#FFD901;}
	.st36{fill:#5E0084;}
	.st37{fill:#F978A3;}
	.st38{fill:#EC115F;}
	.st39{fill:#FF9900;}
	.st40{fill:#EDB107;}
	.st41{fill:#B90615;}
	.st42{fill:#E1E5D8;}
	.st43{fill:#DD3107;}
	.st44{fill:#CDD905;}
	.st45{fill:#B2B212;}
	.st46{fill:#EB024D;}
</style>
<g>
	<path class="st0" d="M248.6,65.8c2-1.1,4.5-1.1,6.5,0l46.7,26.3c0.8,0.4,1.6,0.7,2.5,0.8l53.2,6.2c2.3,0.3,4.3,1.7,5.3,3.8
		l22.3,48.7c0.4,0.8,0.9,1.5,1.5,2.1l39.4,36.3c1.7,1.6,2.5,3.9,2,6.2l-10.6,52.5c-0.2,0.9-0.2,1.8,0,2.6l10.6,52.5
		c0.5,2.3-0.3,4.6-2,6.2l-39.4,36.3c-0.6,0.6-1.2,1.3-1.5,2.1l-22.3,48.7c-1,2.1-3,3.5-5.3,3.8l-53.2,6.2c-0.9,0.1-1.7,0.4-2.5,0.8
		l-46.7,26.3c-2,1.1-4.5,1.1-6.5,0l-46.7-26.3c-0.8-0.4-1.6-0.7-2.5-0.8l-53.2-6.2c-2.3-0.3-4.3-1.7-5.3-3.8l-22.3-48.7
		c-0.4-0.8-0.9-1.5-1.5-2.1L77.6,310c-1.7-1.6-2.5-3.9-2-6.2l10.6-52.5c0.2-0.9,0.2-1.7,0-2.6l-10.6-52.5c-0.5-2.3,0.3-4.6,2-6.2
		l39.4-36.3c0.6-0.6,1.2-1.3,1.5-2.1l22.3-48.7c1-2.1,3-3.5,5.3-3.8l53.2-6.2c0.9-0.1,1.7-0.4,2.5-0.8L248.6,65.8z"/>
</g>
<g>
	<path class="st1" d="M252,95.2c1.7-1,3.8-1,5.5,0l39.3,22.1c0.6,0.4,1.4,0.6,2.1,0.7l44.8,5.2c1.9,0.2,3.6,1.4,4.4,3.2l18.8,41
		c0.3,0.7,0.7,1.3,1.3,1.8l33.2,30.5c1.4,1.3,2.1,3.3,1.7,5.2l-8.9,44.2c-0.1,0.7-0.1,1.5,0,2.2l8.9,44.2c0.4,1.9-0.3,3.9-1.7,5.2
		l-33.2,30.5c-0.5,0.5-1,1.1-1.3,1.8l-18.8,41c-0.8,1.8-2.5,3-4.4,3.2l-44.8,5.2c-0.7,0.1-1.4,0.3-2.1,0.7l-39.3,22.1
		c-1.7,1-3.8,1-5.5,0l-39.3-22.1c-0.6-0.4-1.4-0.6-2.1-0.7l-44.8-5.2c-1.9-0.2-3.6-1.4-4.4-3.2l-18.8-41c-0.3-0.7-0.7-1.3-1.3-1.8
		l-33.2-30.5c-1.4-1.3-2.1-3.3-1.7-5.2l8.9-44.2c0.1-0.7,0.1-1.5,0-2.2l-8.9-44.2c-0.4-1.9,0.3-3.9,1.7-5.2l33.2-30.5
		c0.5-0.5,1-1.1,1.3-1.8l18.8-41c0.8-1.8,2.5-3,4.4-3.2l44.8-5.2c0.7-0.1,1.4-0.3,2.1-0.7L252,95.2z"/>
</g>
<path id="SVGID_x5F_1_x5F_" class="st2" d="M150.6,254.5c0-56.7,45.9-102.6,102.6-102.6c56.7,0,102.6,45.9,102.6,102.6
	c0,56.7-45.9,102.6-102.6,102.6C196.6,357.1,150.6,311.2,150.6,254.5z"/>
<text><textPath  xlink:href="#SVGID_x5F_1_x5F_" startOffset="100%">
<tspan  class="st0" style="font-family:'Luminari-Regular'; font-size:48px;">new candy</tspan></textPath>
</text>
<g>
	<path class="st1" d="M254,423.2c-1.3,0-2.6-0.3-3.7-1l-43.3-24.4c-0.5-0.3-1.1-0.5-1.8-0.6l-49.4-5.7c-2.6-0.3-4.9-2-6-4.4
		L129,341.9c-0.3-0.6-0.6-1.1-1.1-1.5l-36.6-33.7c-1.9-1.8-2.8-4.5-2.3-7.1l9.8-48.7c0.1-0.6,0.1-1.2,0-1.8l-9.8-48.7
		c-0.5-2.6,0.4-5.3,2.3-7.1l36.6-33.7c0.5-0.4,0.8-0.9,1.1-1.5l20.7-45.2c1.1-2.4,3.4-4.1,6-4.4l49.4-5.7c0.6-0.1,1.2-0.3,1.8-0.6
		l43.3-24.4c2.3-1.3,5.2-1.3,7.5,0l43.3,24.4c0.5,0.3,1.1,0.5,1.8,0.6l49.4,5.7c2.6,0.3,4.9,2,6,4.4l20.7,45.2
		c0.3,0.6,0.6,1.1,1.1,1.5l36.6,33.7c1.9,1.8,2.8,4.5,2.3,7.1l-9.8,48.7c-0.1,0.6-0.1,1.2,0,1.8l9.8,48.7c0.5,2.6-0.4,5.3-2.3,7.1
		L380,340.4c-0.5,0.4-0.8,0.9-1.1,1.5l-20.7,45.2c-1.1,2.4-3.4,4.1-6,4.4l-49.4,5.7c-0.6,0.1-1.2,0.3-1.8,0.6l-43.3,24.4
		C256.6,422.8,255.3,423.2,254,423.2z M254,79.8c-0.8,0-1.6,0.2-2.3,0.6l-43.3,24.4c-0.9,0.5-1.8,0.8-2.9,0.9l-49.4,5.7
		c-1.6,0.2-3,1.2-3.7,2.7l-20.7,45.2c-0.4,0.9-1,1.7-1.8,2.4l-36.6,33.7c-1.2,1.1-1.7,2.8-1.4,4.4l9.8,48.7c0.2,1,0.2,2,0,3
		l-9.8,48.7c-0.3,1.6,0.2,3.3,1.4,4.4l36.6,33.7c0.7,0.7,1.3,1.5,1.8,2.4l20.7,45.2c0.7,1.5,2.1,2.5,3.7,2.7l49.4,5.7
		c1,0.1,2,0.4,2.9,0.9l43.3,24.4c1.4,0.8,3.2,0.8,4.6,0l43.3-24.4c0.9-0.5,1.8-0.8,2.9-0.9l49.4-5.7c1.6-0.2,3-1.2,3.7-2.7
		l20.7-45.2c0.4-0.9,1-1.7,1.8-2.4l36.6-33.7c1.2-1.1,1.7-2.8,1.4-4.4l-9.8-48.7c-0.2-1-0.2-2,0-3l9.8-48.7c0.3-1.6-0.2-3.3-1.4-4.4
		L378,161.7c-0.7-0.7-1.3-1.5-1.8-2.4l-20.7-45.2c-0.7-1.5-2.1-2.5-3.7-2.7l-49.4-5.7c-1-0.1-2-0.4-2.9-0.9l-43.3-24.4
		C255.6,80,254.8,79.8,254,79.8z"/>
</g>
<g>
	<polygon class="st3" points="50.1,284.9 193.1,284.9 193.1,215.1 50.1,215.1 68.1,251.2 	"/>
</g>
<g>
	<polygon class="st3" points="449.9,284.9 308.9,284.9 308.9,215.1 449.9,215.1 432.1,251.2 	"/>
</g>
<g>
	<polygon class="st1" points="353.8,240.2 357,246.6 364.2,247.7 359,252.7 360.2,259.8 353.8,256.5 347.5,259.8 348.7,252.7 
		343.5,247.7 350.7,246.6 	"/>
</g>
<g>
	<polygon class="st1" points="381,242.4 383.5,247.4 389.1,248.2 385.1,252.1 386,257.6 381,255 376.1,257.6 377,252.1 373,248.2 
		378.6,247.4 	"/>
</g>
<g>
	<polygon class="st1" points="145,240.2 141.8,246.6 134.6,247.7 139.8,252.7 138.6,259.8 145,256.5 151.4,259.8 150.1,252.7 
		155.3,247.7 148.2,246.6 	"/>
</g>
<g>
	<polygon class="st1" points="117.8,242.4 115.3,247.4 109.7,248.2 113.8,252.1 112.8,257.6 117.8,255 122.8,257.6 121.8,252.1 
		125.8,248.2 120.3,247.4 	"/>
</g>
<g>
	<polygon class="st1" points="95.6,244.3 94,247.6 90.4,248.1 93,250.7 92.4,254.3 95.6,252.6 98.9,254.3 98.3,250.7 100.9,248.1 
		97.3,247.6 	"/>
</g>
<g>
	<path class="st3" d="M209,364.8c-0.9,0.3-1.7,0.6-2.5,0.7c-0.8,0.1-1.5,0.2-2.1,0.2c-0.3,0.1-0.7,0.2-1,0.2c-0.4,0-0.7,0-1-0.1
		c-0.3-0.1-0.7-0.1-1-0.3c-0.3-0.1-0.6-0.2-0.9-0.4c-0.5-0.3-0.9-0.6-1.2-1c-0.3-0.4-0.5-0.7-0.6-1.1c-0.1-0.4-0.1-0.8-0.1-1.1
		c0-0.4,0.2-0.7,0.3-1c0.1-0.2,0.3-0.5,0.5-0.6c0.2-0.2,0.4-0.3,0.5-0.4c0.2-0.1,0.4-0.2,0.6-0.2c0.2,0,0.4-0.1,0.6-0.1
		c1.1-0.7,2.2-1.5,3.1-2.3c0.9-0.8,1.8-1.6,2.7-2.5l3.3,1.2c-0.4,0.9-0.8,1.7-1.1,2.4c-0.3,0.7-0.6,1.3-0.8,1.8
		c-0.2,0.5-0.4,0.9-0.6,1.3c-0.2,0.4-0.3,0.7-0.4,0.9c-0.1,0.3-0.2,0.5-0.3,0.7c-0.1,0.2-0.2,0.4-0.3,0.7c-0.1,0.2-0.2,0.3-0.2,0.4
		c-0.1,0.1-0.2,0.2-0.3,0.3c0.4,0,0.8,0,1.1-0.1c0.3,0,0.7-0.1,0.9-0.2L209,364.8z M200.2,361.1c-0.3,0.5-0.4,0.9-0.3,1.2
		c0.1,0.3,0.3,0.6,0.8,0.9c0.2,0.1,0.5,0.2,0.7,0.3c0.2,0.1,0.5,0,0.8,0c0.2-0.1,0.5-0.2,0.7-0.4c0.2-0.2,0.4-0.5,0.6-0.8
		c0.1-0.2,0.2-0.4,0.3-0.5c0.1-0.2,0.2-0.4,0.2-0.5c0.1-0.2,0.2-0.4,0.3-0.7c0.1-0.2,0.2-0.5,0.3-0.8c0.1-0.3,0.3-0.7,0.5-1.1
		c0.2-0.4,0.4-0.9,0.6-1.5c-0.6,0.6-1.2,1.1-1.8,1.6c-0.6,0.5-1.3,1-2,1.5c0.1,0.1,0.2,0.3,0.2,0.5c0,0.2,0,0.3-0.1,0.5
		c-0.1,0.1-0.2,0.2-0.3,0.3c-0.1,0.1-0.2,0.2-0.4,0.2c-0.1,0.1-0.3,0.1-0.4,0.1c-0.1,0-0.3,0-0.4-0.1c-0.1-0.1-0.2-0.1-0.3-0.2
		C200.2,361.3,200.2,361.2,200.2,361.1z"/>
	<path class="st3" d="M221.7,363.1c-0.2,0.2-0.4,0.4-0.7,0.6c-0.2,0.2-0.5,0.4-0.8,0.6c-0.3,0.2-0.6,0.4-0.9,0.5
		c-0.3,0.2-0.7,0.2-1,0.3c-0.5,1-1,1.9-1.6,2.6c-0.6,0.7-1.3,1.3-2,1.7c-0.7,0.4-1.4,0.7-2.1,0.8c-0.7,0.1-1.4,0-2.1-0.3
		c-0.5-0.2-1-0.4-1.3-0.7c-0.4-0.3-0.7-0.6-0.9-1c-0.2-0.4-0.3-0.8-0.3-1.4c0-0.5,0.1-1.1,0.4-1.7c0.2-0.4,0.4-0.9,0.7-1.4
		c0.3-0.5,0.7-1,1.1-1.5c0.4-0.5,0.9-1,1.4-1.4c0.5-0.4,1.1-0.8,1.7-1.1c0.6-0.3,1.3-0.4,1.9-0.5c0.7,0,1.4,0.1,2.2,0.4
		c1.7,0.7,2.3,2,1.6,4c0.2,0,0.4,0,0.6,0c0.2-0.1,0.4-0.1,0.6-0.2c0.2-0.1,0.4-0.2,0.5-0.3c0.2-0.1,0.3-0.2,0.4-0.3L221.7,363.1z
		 M216.3,364.7c-0.3-0.3-0.3-0.7-0.1-1.2c0.2-0.6,0.6-0.9,1.1-0.9c0.1-0.5,0.2-0.8,0.1-1.1c-0.1-0.2-0.2-0.4-0.5-0.5
		c-0.3-0.1-0.5-0.1-0.9,0c-0.3,0.1-0.7,0.3-1,0.5c-0.3,0.3-0.7,0.6-1,0.9c-0.3,0.4-0.7,0.7-1,1.2c-0.3,0.4-0.6,0.8-0.8,1.2
		c-0.2,0.4-0.4,0.8-0.6,1.2c-0.1,0.4-0.2,0.7-0.3,0.9c0,0.2-0.1,0.4,0,0.6c0,0.2,0.1,0.3,0.2,0.4c0.1,0.1,0.3,0.2,0.5,0.3
		c0.3,0.1,0.6,0.1,0.9,0c0.4-0.1,0.7-0.4,1.1-0.7c0.4-0.3,0.8-0.7,1.1-1.2C215.6,365.9,215.9,365.3,216.3,364.7z"/>
	<path class="st3" d="M235.2,372.3c-0.7,0.6-1.4,1-2.1,1.4c-0.7,0.3-1.3,0.6-1.9,0.8c-0.3,0.2-0.6,0.4-0.9,0.5
		c-0.3,0.1-0.7,0.2-1,0.3c-0.3,0-0.7,0.1-1,0.1c-0.3,0-0.7,0-0.9-0.1c-0.6-0.1-1.1-0.3-1.5-0.6c-0.4-0.3-0.7-0.6-0.9-0.9
		c-0.2-0.3-0.4-0.7-0.4-1.1c-0.1-0.4-0.1-0.7,0-1.1c0.1-0.3,0.1-0.5,0.2-0.7c0.1-0.2,0.2-0.4,0.4-0.6c0.1-0.2,0.3-0.3,0.5-0.4
		c0.2-0.1,0.3-0.2,0.5-0.2c0.9-1,1.6-2.1,2.3-3.1c0.7-1,1.3-2.1,1.9-3.2l3.5,0.2c-0.1,1-0.3,1.9-0.4,2.6c-0.1,0.7-0.2,1.4-0.2,1.9
		c-0.1,0.5-0.1,1-0.2,1.4c0,0.4-0.1,0.7-0.1,1c0,0.3-0.1,0.6-0.1,0.8c0,0.2-0.1,0.5-0.1,0.7c0,0.2-0.1,0.3-0.1,0.5
		c0,0.1-0.1,0.3-0.2,0.4c0.4-0.1,0.7-0.3,1-0.4c0.3-0.1,0.6-0.3,0.8-0.4L235.2,372.3z M225.8,371.4c-0.1,0.5-0.1,1,0.1,1.3
		c0.2,0.3,0.5,0.5,1,0.6c0.3,0,0.5,0.1,0.8,0c0.3,0,0.5-0.1,0.7-0.2c0.2-0.1,0.4-0.3,0.6-0.6c0.2-0.2,0.3-0.6,0.4-1
		c0-0.2,0.1-0.4,0.1-0.6c0-0.2,0-0.4,0.1-0.6c0-0.2,0-0.4,0.1-0.7c0-0.3,0-0.6,0.1-0.9c0-0.3,0.1-0.7,0.1-1.2c0-0.5,0.1-1,0.2-1.6
		c-0.4,0.7-0.8,1.4-1.2,2c-0.4,0.6-0.9,1.3-1.5,2c0.1,0.1,0.2,0.2,0.3,0.4c0.1,0.1,0.1,0.3,0.1,0.5c0,0.1-0.1,0.3-0.1,0.4
		c-0.1,0.1-0.2,0.2-0.3,0.3c-0.1,0.1-0.2,0.2-0.4,0.2c-0.1,0-0.3,0-0.4,0c-0.1,0-0.2-0.1-0.4-0.1
		C225.9,371.6,225.8,371.5,225.8,371.4z"/>
	<path class="st3" d="M242.9,365.3l3.4,0.2l-2.1,7.9c-0.1,0.4-0.2,0.7-0.2,0.8c0,0.2,0,0.4,0.2,0.6c0.1,0.1,0.3,0.2,0.6,0.2
		c0.4,0,0.8-0.1,1.1-0.3c0.4-0.3,0.7-0.6,1-1c0.3-0.4,0.6-0.9,0.9-1.5c0.3-0.5,0.5-1.1,0.7-1.7c0.2-0.6,0.4-1.1,0.5-1.7
		c0.1-0.6,0.2-1,0.2-1.5c0,0-0.1,0.1-0.1,0.1c-0.1,0-0.1,0-0.2,0.1c-0.1,0-0.2,0-0.2,0c-0.1,0-0.1,0-0.2,0c-0.1,0-0.3,0-0.4-0.1
		c-0.1-0.1-0.2-0.2-0.3-0.3c-0.1-0.1-0.1-0.2-0.1-0.4c0-0.1,0-0.3,0-0.4c0-0.4,0.1-0.7,0.4-0.9c0.2-0.2,0.6-0.3,1.1-0.3
		c0.3,0,0.5,0.1,0.7,0.2c0.2,0.1,0.3,0.3,0.4,0.5c0.1,0.2,0.2,0.4,0.2,0.7c0,0.2,0,0.5,0,0.8c0,0.6-0.1,1.3-0.3,2.1
		c-0.1,0.7-0.4,1.5-0.6,2.3c-0.3,0.8-0.6,1.5-1,2.2c-0.4,0.7-0.8,1.3-1.4,1.8c-0.5,0.5-1.1,0.9-1.8,1.3c-0.7,0.3-1.4,0.4-2.2,0.4
		c-0.8,0-1.4-0.2-1.9-0.6c-0.5-0.3-0.8-0.9-0.9-1.5c-0.3,0.4-0.6,0.7-0.9,1c-0.3,0.2-0.6,0.4-0.9,0.6c-0.3,0.1-0.6,0.2-0.8,0.2
		c-0.3,0-0.5,0-0.8,0c-0.4,0-0.7-0.1-1-0.2c-0.3-0.1-0.6-0.3-0.8-0.5c-0.2-0.2-0.4-0.5-0.5-0.9c-0.1-0.4-0.2-0.8-0.1-1.3
		c0-0.2,0-0.4,0.1-0.7c0-0.3,0.1-0.5,0.2-0.8l2-7.5l3.4,0.2l-2.1,7.9c-0.1,0.2-0.1,0.4-0.1,0.6c0,0.1,0,0.3,0,0.4
		c0,0.1,0,0.2,0.1,0.3c0,0.1,0.1,0.2,0.2,0.2c0.1,0.1,0.2,0.1,0.3,0.1c0.2,0,0.4,0,0.6-0.1c0.2-0.1,0.4-0.2,0.5-0.4
		c0.2-0.2,0.3-0.4,0.4-0.6c0.1-0.2,0.2-0.5,0.4-0.8L242.9,365.3z"/>
	<path class="st3" d="M261.3,372.1c-0.3,0.6-0.6,1.1-1,1.7c-0.4,0.6-0.8,1.1-1.3,1.5c-0.5,0.5-1.1,0.8-1.7,1.1
		c-0.6,0.3-1.3,0.5-2.1,0.6c-0.6,0-1.1,0-1.5-0.1c-0.5-0.1-0.9-0.3-1.2-0.6c-0.3-0.3-0.6-0.6-0.8-1.1c-0.2-0.5-0.3-1-0.4-1.7
		c0-0.5,0-1,0-1.6c0-0.6,0.1-1.2,0.3-1.8c0.1-0.6,0.4-1.3,0.6-1.9c0.3-0.6,0.6-1.2,1.1-1.7c0.4-0.5,0.9-0.9,1.5-1.3
		c0.6-0.3,1.3-0.5,2.1-0.6c0.5,0,1,0,1.3,0.1c0.3,0.1,0.6,0.2,0.8,0.4c0.2,0.2,0.4,0.4,0.5,0.7c0.1,0.3,0.2,0.5,0.2,0.8
		c0.1,0.7,0,1.3-0.3,1.9c-0.2,0.6-0.6,1.2-1.1,1.6c-0.5,0.5-1,0.9-1.6,1.2c-0.6,0.3-1.3,0.5-2,0.6c0,0.2,0,0.3,0,0.5
		c0,0.2,0,0.3,0,0.4c0,0.4,0.1,0.7,0.2,1c0.1,0.2,0.2,0.4,0.4,0.6c0.2,0.1,0.3,0.2,0.6,0.3c0.2,0,0.5,0,0.7,0c0.5,0,0.9-0.1,1.2-0.3
		c0.4-0.2,0.7-0.4,1-0.6c0.3-0.2,0.6-0.5,0.9-0.8c0.3-0.3,0.5-0.6,0.8-1L261.3,372.1z M254.8,371c0.4-0.1,0.9-0.2,1.2-0.5
		c0.4-0.3,0.7-0.6,1-1c0.3-0.4,0.5-0.8,0.6-1.3c0.1-0.5,0.2-0.9,0.2-1.4c0-0.3-0.1-0.5-0.2-0.7c-0.1-0.2-0.3-0.2-0.5-0.2
		c-0.3,0-0.6,0.2-0.8,0.5c-0.3,0.3-0.5,0.7-0.7,1.2c-0.2,0.5-0.4,1-0.5,1.6C254.9,369.8,254.8,370.4,254.8,371z"/>
	<path class="st3" d="M270.8,370.3c-0.2,0.6-0.5,1.2-0.8,1.8c-0.3,0.6-0.7,1.1-1.2,1.6c-0.5,0.5-1,0.9-1.6,1.3
		c-0.6,0.4-1.3,0.6-2,0.8c-0.5,0.1-1.1,0.1-1.5,0.1c-0.5-0.1-0.9-0.2-1.3-0.4c-0.4-0.2-0.7-0.6-0.9-1c-0.3-0.4-0.4-1-0.6-1.6
		c-0.1-0.4-0.1-1-0.1-1.6c0-0.6,0-1.2,0.1-1.9c0.1-0.6,0.2-1.3,0.4-1.9c0.2-0.6,0.5-1.2,0.9-1.8c0.4-0.5,0.8-1,1.4-1.4
		c0.6-0.4,1.2-0.7,2-0.8c0.5-0.1,1-0.1,1.3-0.1c0.4,0.1,0.6,0.2,0.9,0.3c0.2,0.2,0.4,0.4,0.5,0.6c0.1,0.3,0.2,0.5,0.3,0.8
		c0.1,0.7,0.1,1.3-0.1,2c-0.2,0.6-0.5,1.2-0.9,1.7c-0.4,0.5-0.9,1-1.5,1.4c-0.6,0.4-1.2,0.7-1.9,0.8c0,0.2,0,0.3,0.1,0.5
		c0,0.2,0,0.3,0.1,0.4c0.1,0.4,0.2,0.7,0.3,0.9c0.1,0.2,0.3,0.4,0.4,0.5c0.2,0.1,0.4,0.2,0.6,0.2c0.2,0,0.5,0,0.7,0
		c0.5-0.1,0.9-0.2,1.2-0.4c0.4-0.2,0.7-0.4,1-0.7c0.3-0.3,0.5-0.6,0.8-0.9c0.2-0.3,0.5-0.7,0.7-1.1L270.8,370.3z M264.1,369.8
		c0.4-0.1,0.8-0.3,1.2-0.6c0.4-0.3,0.7-0.6,0.9-1.1c0.2-0.4,0.4-0.8,0.5-1.3c0.1-0.5,0.1-1,0-1.4c-0.1-0.3-0.1-0.5-0.3-0.7
		c-0.1-0.2-0.3-0.2-0.5-0.2c-0.3,0.1-0.6,0.2-0.8,0.6c-0.2,0.3-0.4,0.8-0.6,1.2c-0.2,0.5-0.3,1.1-0.4,1.7
		C264.2,368.7,264.2,369.3,264.1,369.8z"/>
	<path class="st3" d="M280.1,367.6c-0.2,0.6-0.4,1.2-0.6,1.9c-0.3,0.6-0.6,1.2-1,1.7c-0.4,0.5-0.9,1-1.4,1.4c-0.6,0.4-1.2,0.7-1.9,1
		c-0.5,0.2-1,0.2-1.5,0.2c-0.5,0-0.9-0.1-1.3-0.3c-0.4-0.2-0.7-0.5-1-0.9c-0.3-0.4-0.5-0.9-0.7-1.6c-0.1-0.4-0.2-0.9-0.3-1.5
		c-0.1-0.6-0.1-1.2-0.1-1.9c0-0.7,0.1-1.3,0.2-2c0.1-0.7,0.4-1.3,0.7-1.9c0.3-0.6,0.7-1.1,1.3-1.6s1.2-0.8,1.9-1
		c0.5-0.1,0.9-0.2,1.3-0.2c0.4,0,0.7,0.1,0.9,0.3c0.2,0.1,0.4,0.3,0.6,0.6c0.1,0.2,0.3,0.5,0.3,0.8c0.2,0.7,0.2,1.3,0.1,1.9
		c-0.1,0.6-0.4,1.2-0.7,1.8c-0.4,0.6-0.8,1.1-1.4,1.5c-0.5,0.4-1.2,0.8-1.8,1c0,0.2,0.1,0.3,0.1,0.5c0,0.2,0.1,0.3,0.1,0.4
		c0.1,0.4,0.2,0.7,0.4,0.9c0.1,0.2,0.3,0.4,0.5,0.5c0.2,0.1,0.4,0.1,0.6,0.1c0.2,0,0.5,0,0.7-0.1c0.4-0.1,0.8-0.3,1.2-0.5
		c0.3-0.2,0.6-0.5,0.9-0.8c0.3-0.3,0.5-0.6,0.7-1c0.2-0.4,0.4-0.7,0.6-1.1L280.1,367.6z M273.4,367.7c0.4-0.2,0.8-0.4,1.1-0.7
		c0.3-0.3,0.6-0.7,0.8-1.1c0.2-0.4,0.3-0.9,0.4-1.4c0.1-0.5,0-1-0.1-1.4c-0.1-0.3-0.2-0.5-0.3-0.6c-0.1-0.1-0.3-0.2-0.5-0.1
		c-0.3,0.1-0.5,0.3-0.7,0.7c-0.2,0.4-0.4,0.8-0.5,1.3c-0.1,0.5-0.2,1.1-0.2,1.7C273.4,366.6,273.4,367.2,273.4,367.7z"/>
	<path class="st3" d="M278.8,360.9l-0.7,0.3l-0.2-0.9l0.7-0.3l-0.5-3.3l3.1-1.7c0,0.2,0,0.3,0.1,0.5c0,0.2,0.1,0.4,0.1,0.6
		c0,0.3,0.1,0.7,0.2,1.2c0.1,0.5,0.2,1,0.2,1.5l1.3-0.5l0.2,0.9l-1.3,0.5l1.1,7.1c0,0.2,0,0.3,0.1,0.4c0,0.1,0.1,0.3,0.1,0.4
		c0.1,0.2,0.2,0.4,0.4,0.5c0.2,0.1,0.4,0.1,0.7,0c0.1,0,0.2-0.1,0.3-0.1c0.1,0,0.2-0.1,0.3-0.2c0,0.5,0,1-0.1,1.3
		c-0.1,0.4-0.2,0.6-0.3,0.9c-0.1,0.2-0.3,0.4-0.5,0.5c-0.2,0.1-0.4,0.2-0.6,0.3c-0.4,0.2-0.8,0.2-1.1,0.2c-0.3,0-0.6-0.1-0.9-0.3
		c-0.3-0.2-0.5-0.4-0.7-0.6c-0.2-0.3-0.4-0.6-0.5-0.9c-0.1-0.4-0.3-0.8-0.3-1.2L278.8,360.9z"/>
	<path class="st3" d="M291.3,365.5c0.1,0.2,0.2,0.5,0.2,0.7c0,0.2,0,0.5-0.1,0.7c-0.1,0.2-0.2,0.4-0.4,0.6c-0.2,0.2-0.4,0.3-0.6,0.4
		c-0.2,0.1-0.5,0.2-0.7,0.2c-0.2,0-0.5,0-0.7-0.1c-0.2-0.1-0.4-0.2-0.6-0.4c-0.2-0.2-0.3-0.4-0.4-0.6c-0.1-0.2-0.2-0.5-0.2-0.7
		c0-0.2,0-0.5,0.1-0.7c0.1-0.2,0.2-0.4,0.4-0.6c0.2-0.2,0.4-0.3,0.6-0.4c0.2-0.1,0.5-0.2,0.7-0.2c0.2,0,0.5,0,0.7,0.1
		c0.2,0.1,0.4,0.2,0.6,0.4C291,365,291.2,365.2,291.3,365.5z"/>
	<path class="st3" d="M297.2,362.4c0.1,0.2,0.2,0.5,0.2,0.7c0,0.2,0,0.5-0.1,0.7c-0.1,0.2-0.2,0.4-0.3,0.6c-0.2,0.2-0.3,0.3-0.6,0.5
		c-0.2,0.1-0.5,0.2-0.7,0.2c-0.2,0-0.5,0-0.7-0.1c-0.2-0.1-0.4-0.2-0.6-0.3c-0.2-0.2-0.3-0.3-0.5-0.6c-0.1-0.2-0.2-0.5-0.2-0.7
		c0-0.2,0-0.5,0.1-0.7c0.1-0.2,0.2-0.4,0.3-0.6c0.2-0.2,0.3-0.4,0.6-0.5c0.2-0.1,0.5-0.2,0.7-0.2c0.2,0,0.5,0,0.7,0.1
		c0.2,0.1,0.4,0.2,0.6,0.3C297,362,297.1,362.1,297.2,362.4z"/>
	<path class="st3" d="M303,359c0.1,0.2,0.2,0.5,0.3,0.7c0,0.2,0,0.5,0,0.7c-0.1,0.2-0.2,0.5-0.3,0.7c-0.1,0.2-0.3,0.4-0.5,0.5
		c-0.2,0.1-0.5,0.2-0.7,0.3c-0.2,0-0.5,0-0.7,0c-0.2-0.1-0.4-0.2-0.6-0.3c-0.2-0.1-0.4-0.3-0.5-0.5c-0.1-0.2-0.2-0.5-0.3-0.7
		c0-0.2,0-0.5,0-0.7c0.1-0.2,0.2-0.4,0.3-0.7c0.1-0.2,0.3-0.4,0.5-0.5c0.2-0.1,0.5-0.2,0.7-0.3c0.2,0,0.5,0,0.7,0
		c0.2,0.1,0.5,0.1,0.7,0.3C302.7,358.6,302.9,358.7,303,359z"/>
</g>
<g>
	<g>
		<g>
			<g>
				<path class="st4" d="M318.5,197.7c26.5,26.5,28,71.5,9.2,103.9c-15.9,22-38.1,36.8-64.2,40.6c-46.6,2.4-91.6-31-96.6-78.4
					c-2.9-24.5,4.2-50.4,22-69.1c30.7-30.4,84-36.5,116.9-9.1C310.4,189.3,314.7,193.3,318.5,197.7z"/>
			</g>
		</g>
	</g>
	<g>
		<g>
			<g>
				<g>
					<path class="st5" d="M289.5,218.5c-14.8-6.9-32.3,0.8-40.1,13.9c-3.8,8.7-0.1,15.3,3.7,21.9c-2.1-7.5-3.4-17.7,4.8-22.3
						c19.1-8.6,39.1-0.3,51,17c13.9,24.6,8.4,58.3-11.2,80.8c11.2-6.9,21.1-16.1,29.4-27.4C336.2,268.8,324.3,232.2,289.5,218.5z"/>
				</g>
			</g>
		</g>
		<g>
			<g>
				<g>
					<path class="st5" d="M238.8,290.8c11.8-2.3,18.9-12.9,20.8-24.8c-0.2-4.2-3-9.2-6.5-11.6c4.4,19.3-15.4,30.5-31,26.2
						c-41-15.3-40-69.2-15.4-99.4c-6.5,3.8-12.5,8.3-17.8,13.6c-4.3,4.6-8,9.6-11.1,14.9c-3.5,13.4-2.4,27.8,1.2,40.8
						C187.1,276.4,209.3,296.5,238.8,290.8z"/>
				</g>
			</g>
		</g>
		<g>
			<g>
				<g>
					<path class="st5" d="M235.6,211.9c-5.5,9.6-8.3,20-7,30.1c3,9.2,13.6,16.3,24.4,12.4c-16.2-1.7-18-20.3-11.8-32.5
						c11.9-17.6,35.4-22.2,54.4-15.5c21.3,7.1,37.8,23.7,44.6,45.4c-0.3-13.9-3.8-27.6-10.6-39.4C305.2,188.5,260,180,235.6,211.9z"
						/>
				</g>
			</g>
		</g>
		<g>
			<g>
				<g>
					<path class="st5" d="M240.1,316.2c21.9-3.7,44.6-25.2,37.4-49.5c-3-9.2-15.2-15.4-24.4-12.4c15.5,4.3,19.2,26.2,7.8,37
						c-32.9,30.6-80.9,5-94.4-31.4c0.1,1.3,0.2,2.6,0.4,3.9c1.3,12.5,5.4,24,11.6,34.2C195.6,311.5,216.8,319.7,240.1,316.2z"/>
				</g>
			</g>
		</g>
		<g>
			<g>
				<g>
					<path class="st5" d="M287.5,245.8c-9.8-9.7-30.1-7-34.4,8.5c13.7-14.3,31.3-2.4,35.5,12.6c9.2,44.1-34.8,70.1-72.2,65.2
						c10.9,5.4,22.8,8.8,35.1,9.8C289.9,330.4,323.1,279.5,287.5,245.8z"/>
				</g>
			</g>
		</g>
		<g>
			<g>
				<g>
					<path class="st5" d="M203.1,223.8c-1.7,16.2,3.4,33,17.4,42.5c12.2,6.2,28.9,1.1,32.5-11.8c-13.7,14.3-35.6,2.7-38.1-13.4
						c-7-44.6,39.7-70.7,79.3-63.1c-12.3-6.7-26.3-9.9-40.4-9.7C228.8,177.6,207.1,195.9,203.1,223.8z"/>
				</g>
			</g>
		</g>
	</g>
	<g class="st6">
		<g>
			<path class="st1" d="M312,247.1c0,40.2-32.6,72.8-72.8,72.8c-40.2,0-72.8-32.6-72.8-72.8c0-40.2,32.6-72.8,72.8-72.8
				C279.5,174.4,312,206.9,312,247.1z"/>
		</g>
	</g>
	<g class="st7">
		<g>
			<g>
				<path class="st1" d="M214,325c0,0-0.8-0.4-2.1-1.3c-1.3-0.9-3.3-2.3-5.6-4.3c-2.3-2-5-4.5-7.7-7.8c-2.8-3.3-5.7-7.1-8.4-11.8
					c-2.7-4.6-5.3-9.8-7.2-15.7c-0.5-1.5-1-2.9-1.4-4.5c-0.4-1.6-0.8-2.9-1.2-4.9c-0.6-3-1.2-5.9-1.5-9.6c-0.7-7-0.5-14.1,0.8-21.3
					c1.2-7.2,3.5-14.2,6.7-20.9c3.2-6.7,7.3-12.8,12.1-18.4c2.5-2.8,5.1-5.3,8.3-7.6c3-2.2,6-3.9,9-5.5c12.2-6.2,24.6-9,35.2-9.6
					c5.3-0.4,10.2-0.1,14.4,0.4c4.3,0.4,7.9,1.3,10.8,2.1c2.9,0.8,5.2,1.6,6.7,2.2c1.5,0.6,2.3,0.9,2.3,0.9s-0.9-0.1-2.5-0.2
					c-1.6-0.1-3.9-0.2-6.9-0.3c-2.9-0.1-6.5,0.1-10.5,0.4c-4,0.3-8.5,1.1-13.3,2.1c-4.8,1-9.8,2.7-14.9,4.7
					c-5.1,2.1-10.4,4.6-15.4,7.7c-2.5,1.5-4.9,3.3-7.1,5.1c-2,1.6-4.1,3.9-5.9,6.2c-3.7,4.7-7.1,10-9.7,15.6
					c-2.7,5.6-4.6,11.5-5.9,17.5c-1.3,5.9-1.8,12.1-1.7,17.8c-0.1,2.7,0.3,6,0.5,9c0.1,1,0.4,2.7,0.6,4c0.2,1.4,0.5,2.8,0.8,4.1
					c1.1,5.4,2.6,10.4,4.3,15c3.5,9.1,7.7,16.4,11,21.3C211.7,322.5,214,325,214,325z"/>
			</g>
		</g>
	</g>
</g>
</svg>
