<?xml version="1.0" encoding="utf-8"?>
<!-- Generator: Adobe Illustrator 23.0.3, SVG Export Plug-In . SVG Version: 6.00 Build 0)  -->
<svg version="1.1" id="Layer_1" xmlns="http://www.w3.org/2000/svg" xmlns:xlink="http://www.w3.org/1999/xlink" x="0px" y="0px"
	 viewBox="0 0 500 500" style="enable-background:new 0 0 500 500;" xml:space="preserve">
<style type="text/css">
	.st0{fill:#44CEE3;}
	.st1{fill:#FFFFFF;}
	.st2{fill:#F4628F;}
	.st3{fill:#E8EC3A;}
	.st4{fill:#97BB02;}
	.st5{opacity:0.2;}
	.st6{opacity:0.5;}
	.st7{fill:#9470D0;}
	.st8{fill:#F23D7A;}
	.st9{fill:#DA1160;}
	.st10{fill:#B2B1B1;}
	.st11{fill:#E2E1DE;}
	.st12{fill:#6332BA;}
	.st13{fill:#5420AE;}
	.st14{fill:#FFC300;}
	.st15{fill:#DDA507;}
	.st16{fill:#49D8E5;}
	.st17{fill:#64095D;}
	.st18{fill:#490748;}
	.st19{fill:#EA0446;}
	.st20{fill:#EEF443;}
	.st21{fill:#03C4DE;}
	.st22{fill:#492111;}
	.st23{fill:#00838C;}
	.st24{fill:#652A1F;}
	.st25{fill:#C09670;}
	.st26{fill:#EBE0AE;}
	.st27{fill:#4E1E14;}
	.st28{fill:#D9A24B;}
	.st29{fill:#FFEAC0;}
	.st30{fill:#CB2519;}
	.st31{fill:#43CEE3;}
	.st32{fill:#00B8D2;}
	.st33{fill:#FFBD17;}
	.st34{fill:#FFD901;}
	.st35{fill:#5E0084;}
	.st36{fill:#F978A3;}
	.st37{fill:#EC115F;}
	.st38{fill:#FF9900;}
	.st39{fill:#EDB107;}
	.st40{fill:#B90615;}
	.st41{fill:#E1E5D8;}
	.st42{fill:#DD3107;}
	.st43{fill:#CDD905;}
	.st44{fill:#B2B212;}
	.st45{fill:#EB024D;}
</style>
<g>
	<g>
		<polygon class="st21" points="13.9,413.3 149.3,413.3 149.3,327.9 13.9,327.9 44.8,370.6 		"/>
	</g>
	<g>
		<path class="st22" d="M240.9,66.3c1.3-1.7,3.3-2.7,5.4-2.7c2.1,0,4.1,1,5.4,2.7l7.8,10.5c1.1,1.5,2.8,2.5,4.7,2.7
			c1.9,0.2,3.7-0.4,5.1-1.6l9.9-8.6c1.6-1.4,3.8-2,5.8-1.5c2.1,0.4,3.8,1.8,4.7,3.8l5.5,11.9c0.8,1.7,2.2,3,4,3.6
			c1.8,0.6,3.7,0.4,5.4-0.5l11.4-6.4c1.9-1,4.1-1.1,6-0.3c1.9,0.9,3.4,2.6,3.8,4.7l2.9,12.8c0.4,1.8,1.6,3.4,3.2,4.3
			c1.6,0.9,3.6,1.2,5.4,0.6l12.5-3.9c2-0.6,4.2-0.3,6,1c1.7,1.2,2.7,3.2,2.8,5.4l0.2,13.1c0,1.9,0.8,3.7,2.2,4.9
			c1.4,1.3,3.3,1.9,5.1,1.7l13-1.2c2.1-0.2,4.2,0.6,5.6,2.2c1.4,1.6,2,3.7,1.6,5.8l-2.6,12.9c-0.4,1.8,0.1,3.8,1.2,5.3
			c1.1,1.5,2.8,2.5,4.7,2.7l13,1.5c2.1,0.3,4,1.5,5,3.3c1.1,1.8,1.2,4.1,0.4,6l-5.2,12c-0.7,1.7-0.7,3.7,0,5.4c0.8,1.7,2.2,3,4,3.6
			l12.4,4.2c2,0.7,3.6,2.3,4.2,4.3c0.7,2,0.3,4.2-0.9,6l-7.6,10.7c-1.1,1.5-1.5,3.4-1.1,5.3c0.4,1.8,1.5,3.4,3.1,4.4l11.3,6.7
			c1.8,1.1,3,3,3.3,5.1c0.2,2.1-0.6,4.2-2.1,5.6l-9.6,8.9c-1.4,1.3-2.2,3.1-2.2,4.9c0,1.9,0.8,3.7,2.2,4.9l9.6,8.9
			c1.6,1.4,2.3,3.5,2.1,5.6c-0.2,2.1-1.4,4-3.3,5.1l-11.3,6.7c-1.6,1-2.8,2.5-3.1,4.4c-0.4,1.8,0,3.8,1.1,5.3l7.6,10.7
			c1.2,1.7,1.6,3.9,0.9,6c-0.7,2-2.2,3.6-4.2,4.3l-12.4,4.2c-1.8,0.6-3.2,1.9-4,3.6c-0.8,1.7-0.8,3.7,0,5.4l5.2,12
			c0.8,2,0.7,4.2-0.4,6c-1.1,1.8-2.9,3.1-5,3.3l-13,1.5c-1.9,0.2-3.6,1.2-4.7,2.7c-1.1,1.5-1.5,3.4-1.2,5.3l2.6,12.9
			c0.4,2.1-0.2,4.2-1.6,5.8c-1.4,1.6-3.5,2.4-5.6,2.2l-13-1.2c-1.9-0.2-3.7,0.4-5.1,1.7c-1.4,1.3-2.2,3-2.2,4.9l-0.2,13.1
			c0,2.1-1.1,4.1-2.8,5.4c-1.7,1.2-3.9,1.6-6,1l-12.5-3.9c-1.8-0.6-3.7-0.3-5.4,0.6c-1.6,0.9-2.8,2.5-3.2,4.3l-2.9,12.8
			c-0.5,2.1-1.9,3.8-3.8,4.7c-1.9,0.9-4.2,0.8-6-0.3l-11.4-6.4c-1.6-0.9-3.6-1.1-5.4-0.5c-1.8,0.6-3.2,1.9-4,3.6l-5.5,11.9
			c-0.9,1.9-2.6,3.3-4.7,3.8c-2.1,0.4-4.2-0.1-5.8-1.5l-9.9-8.6c-1.4-1.2-3.3-1.8-5.1-1.6c-1.9,0.2-3.6,1.2-4.7,2.7l-7.8,10.5
			c-1.3,1.7-3.3,2.7-5.4,2.7c-2.1,0-4.1-1-5.4-2.7l-7.8-10.5c-1.1-1.5-2.8-2.5-4.7-2.7c-1.9-0.2-3.7,0.4-5.1,1.6l-9.9,8.6
			c-1.6,1.4-3.8,2-5.8,1.5c-2.1-0.4-3.8-1.8-4.7-3.8l-5.5-11.9c-0.8-1.7-2.2-3-4-3.6c-1.8-0.6-3.7-0.4-5.4,0.5l-11.4,6.4
			c-1.9,1-4.1,1.1-6,0.3c-1.9-0.9-3.4-2.6-3.8-4.7l-2.9-12.8c-0.4-1.8-1.6-3.4-3.2-4.3c-1.6-0.9-3.6-1.2-5.4-0.6l-12.5,3.9
			c-2,0.6-4.2,0.3-6-1c-1.7-1.2-2.7-3.2-2.8-5.4l-0.2-13.1c0-1.9-0.8-3.7-2.2-4.9c-1.4-1.3-3.3-1.9-5.1-1.7l-13,1.2
			c-2.1,0.2-4.2-0.6-5.6-2.2c-1.4-1.6-2-3.7-1.6-5.8l2.6-12.9c0.4-1.8-0.1-3.8-1.2-5.3c-1.1-1.5-2.8-2.5-4.7-2.7l-13-1.5
			c-2.1-0.3-4-1.5-5-3.3c-1.1-1.8-1.2-4.1-0.4-6l5.2-12c0.7-1.7,0.7-3.7,0-5.4c-0.8-1.7-2.2-3-4-3.6l-12.4-4.2
			c-2-0.7-3.6-2.3-4.2-4.3c-0.7-2-0.3-4.2,0.9-6l7.6-10.7c1.1-1.5,1.5-3.4,1.1-5.3c-0.4-1.8-1.5-3.4-3.1-4.4l-11.3-6.7
			c-1.8-1.1-3-3-3.3-5.1c-0.2-2.1,0.6-4.2,2.1-5.6l9.6-8.9c1.4-1.3,2.2-3.1,2.2-4.9c0-1.9-0.8-3.7-2.2-4.9l-9.6-8.9
			c-1.6-1.4-2.3-3.5-2.1-5.6c0.2-2.1,1.4-4,3.3-5.1l11.3-6.7c1.6-1,2.8-2.5,3.1-4.4c0.4-1.8,0-3.8-1.1-5.3l-7.6-10.7
			c-1.2-1.7-1.6-3.9-0.9-6c0.7-2,2.2-3.6,4.2-4.3l12.4-4.2c1.8-0.6,3.2-1.9,4-3.6c0.8-1.7,0.8-3.7,0-5.4l-5.2-12
			c-0.8-2-0.7-4.2,0.4-6c1.1-1.8,2.9-3.1,5-3.3l13-1.5c1.9-0.2,3.6-1.2,4.7-2.7c1.1-1.5,1.5-3.4,1.2-5.3l-2.6-12.9
			c-0.4-2.1,0.2-4.2,1.6-5.8c1.4-1.6,3.5-2.4,5.6-2.2l13,1.2c1.9,0.2,3.7-0.4,5.1-1.7c1.4-1.3,2.2-3,2.2-4.9l0.2-13.1
			c0-2.1,1.1-4.1,2.8-5.4c1.7-1.2,3.9-1.6,6-1l12.5,3.9c1.8,0.6,3.7,0.3,5.4-0.6c1.6-0.9,2.8-2.5,3.2-4.3l2.9-12.8
			c0.5-2.1,1.9-3.8,3.8-4.7c1.9-0.9,4.2-0.8,6,0.3l11.4,6.4c1.6,0.9,3.6,1.1,5.4,0.5c1.8-0.6,3.2-1.9,4-3.6l5.5-11.9
			c0.9-1.9,2.6-3.3,4.7-3.8c2.1-0.4,4.2,0.1,5.8,1.5l9.9,8.6c1.4,1.2,3.3,1.8,5.1,1.6c1.9-0.2,3.6-1.2,4.7-2.7L240.9,66.3z"/>
	</g>
	<g>
		<polygon class="st23" points="149.3,413.3 149.3,382.4 82.6,382.4 		"/>
	</g>
	<g>
		
			<ellipse transform="matrix(0.7071 -0.7071 0.7071 0.7071 -104.6422 247.3716)" class="st1" cx="246.3" cy="250" rx="156" ry="156"/>
	</g>
	<g>
		<path class="st22" d="M246.3,396.3c-1.5,0-3,0-4.5-0.1l0.1-3.1c3,0.1,6.1,0.1,9.2,0l0.1,3.1C249.5,396.2,247.9,396.3,246.3,396.3z
			 M232.4,395.6c-3.1-0.3-6.2-0.7-9.3-1.2l0.5-3.1c3,0.5,6.1,0.9,9.1,1.2L232.4,395.6z M260.5,395.6l-0.3-3.1c3-0.3,6.1-0.7,9.1-1.2
			l0.5,3C266.7,394.9,263.6,395.3,260.5,395.6z M213.9,392.7c-3.1-0.7-6.1-1.5-9.1-2.4l0.9-3c2.9,0.9,5.9,1.6,8.9,2.3L213.9,392.7z
			 M279,392.6l-0.7-3c3-0.7,6-1.5,8.9-2.3l0.9,3C285.1,391.1,282,391.9,279,392.6z M195.9,387.4c-2.9-1.1-5.9-2.3-8.7-3.5l1.2-2.8
			c2.8,1.2,5.6,2.4,8.5,3.4L195.9,387.4z M296.9,387.3l-1.1-2.9c2.9-1.1,5.7-2.2,8.5-3.4l1.3,2.8C302.8,385,299.8,386.2,296.9,387.3
			z M178.8,379.8c-2.8-1.4-5.5-3-8.2-4.6l1.6-2.6c2.6,1.6,5.3,3.1,8,4.5L178.8,379.8z M314,379.7l-1.4-2.7c2.7-1.4,5.4-2.9,8-4.5
			l1.6,2.6C319.5,376.7,316.8,378.2,314,379.7z M162.7,370.1c-2.5-1.8-5.1-3.7-7.5-5.6l1.9-2.4c2.4,1.9,4.9,3.7,7.4,5.5L162.7,370.1
			z M330,369.9l-1.8-2.5c2.5-1.7,5-3.6,7.3-5.5l1.9,2.4C335.1,366.3,332.5,368.2,330,369.9z M148.1,358.4c-2.3-2.1-4.6-4.3-6.7-6.5
			l2.2-2.2c2.1,2.2,4.3,4.3,6.6,6.4L148.1,358.4z M344.6,358.3l-2.1-2.3c2.3-2.1,4.5-4.2,6.6-6.4l2.2,2.1
			C349.2,354,346.9,356.2,344.6,358.3z M135,345c-2-2.4-4-4.8-5.9-7.3l2.5-1.9c1.8,2.4,3.8,4.8,5.7,7.2L135,345z M357.7,344.8
			l-2.4-2c2-2.3,3.9-4.7,5.7-7.2l2.5,1.9C361.7,340,359.7,342.4,357.7,344.8z M123.8,330c-1.7-2.6-3.3-5.3-4.9-8l2.7-1.5
			c1.5,2.6,3.1,5.3,4.8,7.8L123.8,330z M368.9,329.8l-2.6-1.7c1.7-2.6,3.3-5.2,4.8-7.8l2.7,1.5C372.2,324.5,370.6,327.2,368.9,329.8
			z M114.6,313.7c-1.4-2.8-2.6-5.7-3.8-8.5l2.9-1.2c1.1,2.8,2.4,5.6,3.7,8.4L114.6,313.7z M378.1,313.5l-2.8-1.3
			c1.3-2.8,2.6-5.6,3.7-8.4l2.9,1.2C380.7,307.8,379.5,310.6,378.1,313.5z M107.5,296.4c-1-2.9-1.9-6-2.7-9l3-0.8
			c0.8,3,1.7,5.9,2.6,8.8L107.5,296.4z M385.1,296.1l-2.9-1c1-2.9,1.8-5.8,2.6-8.8l3,0.8C387,290.1,386.1,293.1,385.1,296.1z
			 M102.7,278.2c-0.6-3-1.1-6.1-1.5-9.2l3.1-0.4c0.4,3,0.9,6.1,1.5,9.1L102.7,278.2z M389.9,277.9l-3-0.6c0.6-3,1.1-6,1.5-9.1
			l3.1,0.4C391,271.8,390.5,274.9,389.9,277.9z M100.3,259.7c-0.2-3.1-0.3-6.2-0.3-9.4l3.1,0c0,3.1,0.1,6.1,0.3,9.2L100.3,259.7z
			 M392.3,259.4l-3.1-0.2c0.2-3,0.3-6.1,0.3-9.2l0-0.6l3.1,0l0,0.6C392.5,253.1,392.4,256.3,392.3,259.4z M103.4,241.1l-3.1-0.2
			c0.2-3.1,0.5-6.2,0.9-9.3l3.1,0.4C103.9,235,103.6,238.1,103.4,241.1z M389.1,240.2c-0.2-3.1-0.5-6.1-0.9-9.1l3.1-0.4
			c0.4,3.1,0.7,6.2,0.9,9.3L389.1,240.2z M105.7,222.9l-3-0.6c0.6-3.1,1.3-6.1,2.1-9.1l3,0.8C106.9,216.9,106.2,219.9,105.7,222.9z
			 M386.7,222.1c-0.6-3-1.3-6-2.1-8.9l3-0.8c0.8,3,1.5,6.1,2.1,9.1L386.7,222.1z M110.3,205.2l-2.9-1c1-3,2.1-5.9,3.2-8.8l2.9,1.2
			C112.3,199.4,111.2,202.3,110.3,205.2z M382,204.3c-1-2.9-2-5.8-3.2-8.6l2.9-1.2c1.2,2.9,2.3,5.8,3.3,8.8L382,204.3z M117.1,188.2
			l-2.8-1.3c1.3-2.8,2.8-5.6,4.3-8.3l2.7,1.5C119.9,182.7,118.4,185.4,117.1,188.2z M375.1,187.4c-1.3-2.7-2.8-5.4-4.3-8.1l2.7-1.5
			c1.5,2.7,3,5.5,4.4,8.3L375.1,187.4z M126.1,172.2l-2.6-1.7c1.7-2.6,3.5-5.2,5.4-7.7l2.5,1.8C129.5,167.1,127.8,169.6,126.1,172.2
			z M366,171.5c-1.7-2.5-3.4-5-5.3-7.5l2.5-1.9c1.9,2.5,3.7,5.1,5.4,7.7L366,171.5z M137.1,157.4l-2.4-2c2-2.4,4.1-4.7,6.3-6.9
			l2.2,2.1C141.1,152.8,139,155.1,137.1,157.4z M355,156.8c-2-2.3-4.1-4.6-6.2-6.8l2.2-2.2c2.2,2.2,4.3,4.6,6.3,6.9L355,156.8z
			 M149.8,144.2l-2.1-2.3c2.3-2.1,4.7-4.1,7.1-6.1l1.9,2.4C154.4,140.2,152,142.2,149.8,144.2z M342.2,143.7c-2.2-2-4.6-4-7-5.9
			l1.9-2.4c2.5,1.9,4.9,4,7.2,6.1L342.2,143.7z M164.1,132.8l-1.8-2.5c2.6-1.8,5.2-3.5,7.8-5.1l1.6,2.6
			C169.2,129.3,166.6,131,164.1,132.8z M327.8,132.3c-2.5-1.7-5.1-3.4-7.7-5l1.6-2.6c2.7,1.6,5.3,3.3,7.9,5.1L327.8,132.3z
			 M179.7,123.2l-1.4-2.7c2.7-1.4,5.6-2.8,8.4-4.1l1.3,2.8C185.2,120.5,182.4,121.8,179.7,123.2z M312.1,122.8
			c-2.7-1.4-5.5-2.7-8.3-4l1.2-2.8c2.8,1.2,5.7,2.6,8.5,4L312.1,122.8z M196.4,115.7l-1.1-2.9c2.9-1.1,5.9-2.1,8.9-3l0.9,3
			C202.2,113.7,199.3,114.7,196.4,115.7z M295.3,115.4c-2.9-1-5.8-2-8.7-2.9l0.9-3c3,0.9,6,1.9,8.9,2.9L295.3,115.4z M214,110.5
			l-0.7-3c3-0.7,6.1-1.3,9.2-1.8l0.5,3C220,109.2,217,109.8,214,110.5z M277.7,110.3c-3-0.7-6-1.2-9-1.7l0.5-3.1
			c3.1,0.5,6.2,1.1,9.2,1.8L277.7,110.3z M232.1,107.5l-0.3-3.1c3.1-0.3,6.2-0.5,9.4-0.6l0.1,3.1C238.2,107,235.1,107.2,232.1,107.5
			z M259.6,107.4c-3-0.3-6.1-0.5-9.2-0.5l0.1-3.1c3.1,0.1,6.2,0.3,9.4,0.6L259.6,107.4z"/>
	</g>
	<g>
		<polygon class="st21" points="486.1,412.8 350.7,412.8 350.7,327.4 486.1,327.4 455.2,370.1 		"/>
	</g>
	<g>
		<polygon class="st23" points="350.7,412.8 350.7,381.9 417.4,381.9 		"/>
	</g>
	<g>
		<g>
			<g>
				<g>
					<path class="st24" d="M256.3,226.7c-20.2-43.2-61.5-45.9-61.5-45.9s-41.3,2.8-61.5,45.9c-20.2,43.2,7.3,79.9,61.5,79.9
						C248.9,306.6,276.5,269.9,256.3,226.7z"/>
				</g>
			</g>
			<g>
				<g>
					<g>
						<path class="st25" d="M208.8,212.6c-10.1,0-19.7-4.2-20.3-4.4c-2.1-0.9-3.1-3.4-2.1-5.5c0.9-2.1,3.4-3.1,5.5-2.2
							c4.5,1.9,17.7,6.1,25.3,1.9c3.4-1.8,5.4-5.2,6.1-10.2c0.4-2.3,2.5-3.9,4.8-3.5c2.3,0.4,3.9,2.5,3.5,4.8
							c-1.2,7.7-4.7,13.2-10.4,16.3C217.3,211.9,213,212.6,208.8,212.6z"/>
					</g>
				</g>
				<g>
					<g>
						<path class="st26" d="M208.7,211.2c-9.8,0-19.2-4.1-19.7-4.3c-1.4-0.6-2.1-2.3-1.4-3.7c0.6-1.4,2.3-2.1,3.7-1.4
							c0.2,0.1,16.7,7.2,26.5,1.9c3.8-2.1,6-5.7,6.9-11.2c0.2-1.5,1.6-2.6,3.2-2.3c1.5,0.2,2.6,1.7,2.3,3.2
							c-1.1,7.2-4.4,12.4-9.7,15.3C216.9,210.5,212.8,211.2,208.7,211.2z"/>
					</g>
				</g>
			</g>
			<g>
				<g>
					<g>
						<path class="st25" d="M204.5,234.3c-1.3,0-2.5,0-3.8-0.1c-44.7-1.6-56.2-26.5-56.7-27.6c-0.9-2.1,0-4.6,2.1-5.5
							c2.1-0.9,4.6,0,5.5,2.1c0.4,0.9,10.4,21.3,49.4,22.7c15.1,0.6,26.4-2.4,32.6-8.5c5.2-5.1,5.3-10.7,5.3-10.7
							c0-2.3,1.8-4.2,4.1-4.2c0,0,0,0,0,0c2.3,0,4.2,1.9,4.2,4.2c0,0.4,0,9.2-7.8,16.8C232,230.6,220.3,234.3,204.5,234.3z"/>
					</g>
				</g>
				<g>
					<g>
						<path class="st26" d="M204.6,232.9c-1.2,0-2.5,0-3.8-0.1c-43.8-1.6-55-25.7-55.5-26.8c-0.6-1.4,0-3.1,1.4-3.7
							c1.4-0.6,3.1,0,3.7,1.4c0.4,0.9,10.6,22,50.6,23.5c15.4,0.6,27.1-2.5,33.7-8.9c5.6-5.5,5.7-11.7,5.7-11.7
							c0-1.5,1.2-2.8,2.8-2.8c0,0,0,0,0,0c1.5,0,2.8,1.2,2.8,2.8c0,0.3,0,8.6-7.4,15.8C231.3,229.3,219.9,232.9,204.6,232.9z"/>
					</g>
				</g>
			</g>
			<g>
				<g>
					<g>
						<path class="st25" d="M201.4,259.9c-50.3,0-69.8-32.2-70.6-33.7c-1.2-2-0.5-4.6,1.5-5.7c2-1.2,4.6-0.5,5.7,1.5
							c0.8,1.3,19.8,32.4,70.4,29.3c37.6-2.3,47.2-18.4,47.3-18.6c1.1-2,3.6-2.8,5.7-1.7c2,1.1,2.8,3.6,1.7,5.7
							c-0.4,0.8-11.3,20.4-54.2,23C206.4,259.8,203.9,259.9,201.4,259.9z"/>
					</g>
				</g>
				<g>
					<g>
						<path class="st26" d="M201.4,258.5c-49.6,0-68.6-31.6-69.4-33c-0.8-1.3-0.3-3,1-3.8c1.3-0.8,3-0.3,3.8,1
							c0.8,1.4,20.2,33.1,71.7,30c39-2.4,48.3-19.1,48.4-19.3c0.7-1.4,2.4-1.9,3.8-1.2c1.4,0.7,1.9,2.4,1.2,3.8
							c-0.4,0.8-11,19.7-53,22.3C206.4,258.4,203.9,258.5,201.4,258.5z"/>
					</g>
				</g>
			</g>
			<g>
				<g>
					<g>
						<path class="st25" d="M167.2,278.1C167.2,278.1,167.1,278.1,167.2,278.1c-39.5-0.7-44.7-28.6-44.7-28.9
							c-0.4-2.3,1.2-4.4,3.4-4.8c2.3-0.4,4.4,1.1,4.8,3.4c0.2,0.9,4.4,21.4,36.5,21.9c2.3,0,4.2,1.9,4.1,4.3
							C171.3,276.2,169.5,278.1,167.2,278.1z"/>
					</g>
				</g>
				<g>
					<g>
						<path class="st26" d="M167.2,276.7C167.2,276.7,167.1,276.7,167.2,276.7c-38.4-0.6-43.3-27.5-43.4-27.7
							c-0.3-1.5,0.8-3,2.3-3.2c1.5-0.3,3,0.8,3.2,2.3c0.2,0.9,4.4,22.5,37.9,23.1c1.5,0,2.8,1.3,2.7,2.8
							C169.9,275.4,168.7,276.7,167.2,276.7z"/>
					</g>
				</g>
			</g>
		</g>
		<g class="st5">
			<g>
				<path class="st1" d="M194.7,180.8c0,0-41.3,2.8-61.5,45.9c-5.8,12.3-7.6,24.1-6.1,34.6c11.1,15.9,30.2,26.5,51.9,26.5
					c34.2,0,62-26.2,62-58.5c0-13.8-5.1-26.4-13.5-36.4C210.6,181.9,194.7,180.8,194.7,180.8z"/>
			</g>
		</g>
	</g>
	<g>
		<g>
			<g>
				<path class="st27" d="M362.5,254.5c-20.2-43.2-61.5-45.9-61.5-45.9s-41.3,2.8-61.5,45.9c-20.2,43.2,7.3,79.9,61.5,79.9
					C355.2,334.4,382.7,297.7,362.5,254.5z"/>
			</g>
		</g>
		<g class="st5">
			<g>
				<path class="st1" d="M301,208.6c0,0-41.3,2.8-61.5,45.9c-5.8,12.3-7.6,24.1-6.1,34.6c11.1,15.9,30.2,26.5,51.9,26.5
					c34.2,0,62-26.2,62-58.5c0-13.8-5.1-26.4-13.5-36.4C316.8,209.7,301,208.6,301,208.6z"/>
			</g>
		</g>
		<g>
			<g>
				<path class="st28" d="M245.4,232.4c4.9-7.8,19.5-3.5,25.7,0c6.2,3.5,4.3,24.6-8.2,24.2C250.4,256.2,238.7,242.9,245.4,232.4z"/>
			</g>
		</g>
		<g>
			<g>
				<path class="st28" d="M283.1,224c0,0,11.3-2,10.4-5.3c-1-3.3-1.4-9.4-12.1-7.4C270.6,213.3,273.7,227.2,283.1,224z"/>
			</g>
		</g>
		<g>
			<g>
				<path class="st28" d="M344.6,247.1c0,0,5.8-4.7,9.7,0.9c3.9,5.6,3.4,10.3-2.4,11.7C346.1,261.2,337.9,256.7,344.6,247.1z"/>
			</g>
		</g>
		<g>
			<g>
				<path class="st28" d="M315.3,261c0,0,7.2-7,15.8-3.3c8.7,3.7,7.9,11,1.7,16.4c-6.3,5.3-13.3-0.2-15.1-2.9
					C315.8,268.3,313.8,265.9,315.3,261z"/>
			</g>
		</g>
		<g>
			<g>
				<path class="st28" d="M316.4,232.1c0,0,8.9,10.4,15.4,8.2c6.4-2.1,12.9-9.1,9.2-16.2c-3.7-7.1-15.2-11.9-21.3-6.4
					C313.5,223.3,314.1,226.7,316.4,232.1z"/>
			</g>
		</g>
		<g>
			<g>
				<path class="st28" d="M285.6,235c0,0,9.7-5.8,16.4-4.2c6.7,1.6,10.6,6.3,8.9,13.5c-1.7,7.2-11.9,13.1-20.2,4.7
					C282.3,240.6,283.5,236.1,285.6,235z"/>
			</g>
		</g>
		<g>
			<g>
				<path class="st28" d="M279.2,260.9c0,0,5.8-4.7,9.7,0.9c3.9,5.6,3.4,10.3-2.4,11.7C280.7,275,272.5,270.5,279.2,260.9z"/>
			</g>
		</g>
		<g>
			<g>
				<path class="st29" d="M247.2,231.2c3.6-5.7,14.3-2.6,18.8,0c4.6,2.6,3.1,18-6,17.7C250.9,248.6,242.3,238.9,247.2,231.2z"/>
			</g>
		</g>
		<g>
			<g>
				<path class="st29" d="M281.8,220.5c0,0,8.3-1.4,7.6-3.9c-0.7-2.4-1-6.9-8.9-5.4C272.6,212.6,274.9,222.8,281.8,220.5z"/>
			</g>
		</g>
		<g>
			<g>
				<path class="st29" d="M344.7,246.8c0,0,4.2-3.5,7.1,0.6c2.9,4.1,2.5,7.5-1.8,8.6C345.8,257.1,339.8,253.8,344.7,246.8z"/>
			</g>
		</g>
		<g>
			<g>
				<path class="st29" d="M315.2,260.3c0,0,5.2-5.1,11.6-2.4c6.3,2.7,5.8,8.1,1.2,12c-4.6,3.9-9.7-0.1-11-2.2
					C315.6,265.7,314.1,264,315.2,260.3z"/>
			</g>
		</g>
		<g>
			<g>
				<path class="st29" d="M318.1,227.5c0,0,6.5,7.6,11.2,6c4.7-1.6,9.4-6.7,6.7-11.8c-2.7-5.2-11.1-8.7-15.6-4.7
					C315.9,221,316.4,223.5,318.1,227.5z"/>
			</g>
		</g>
		<g>
			<g>
				<path class="st29" d="M286.3,234.7c0,0,7.1-4.3,12-3.1c4.9,1.2,7.8,4.6,6.5,9.9c-1.3,5.3-8.7,9.5-14.8,3.4
					C283.9,238.8,284.8,235.5,286.3,234.7z"/>
			</g>
		</g>
		<g>
			<g>
				<path class="st29" d="M279.5,260.3c0,0,4.2-3.5,7.1,0.6c2.9,4.1,2.5,7.5-1.8,8.6C280.5,270.6,274.5,267.3,279.5,260.3z"/>
			</g>
		</g>
	</g>
	<g>
		<rect x="81.6" y="296.5" class="st16" width="335.8" height="85.4"/>
	</g>
	<g>
		<path class="st1" d="M135.4,349.3l5.9-27.5l6.4-0.8l-2,9.6h0.3c0.9,0,1.7-0.2,2.4-0.6c0.8-0.4,1.4-1,2-1.6c0.6-0.7,1-1.4,1.3-2.3
			c0.3-0.8,0.5-1.7,0.5-2.5c0-0.6-0.1-1.2-0.3-1.7c-0.2-0.6-0.5-1.1-1-1.5c-0.4-0.4-1-0.8-1.8-1c-0.7-0.3-1.6-0.4-2.6-0.4
			c-0.8,0-1.7,0.1-2.6,0.3c-0.9,0.2-1.7,0.5-2.5,0.9c-0.8,0.4-1.5,0.9-2.3,1.4c-0.7,0.6-1.3,1.3-1.8,2c-0.5,0.8-0.9,1.7-1.2,2.6
			c-0.3,1-0.5,2.1-0.5,3.2c0,0.5,0,1,0.1,1.3c0.1,0.3,0.1,0.6,0.2,0.8c0.1,0.2,0.1,0.4,0.2,0.5c0.1,0.1,0.1,0.2,0.1,0.3
			c-1.5,0-2.6-0.3-3.4-0.9c-0.8-0.6-1.2-1.6-1.2-3.1c0-1,0.2-2,0.6-2.9c0.4-1,0.9-1.9,1.7-2.7c0.7-0.9,1.6-1.6,2.5-2.3
			c1-0.7,2-1.3,3.2-1.8c1.2-0.5,2.4-0.9,3.7-1.2c1.3-0.3,2.6-0.4,4-0.4c1.6,0,3,0.2,4.1,0.6c1.2,0.4,2.1,0.9,2.9,1.5
			c0.8,0.6,1.3,1.4,1.7,2.2c0.4,0.8,0.5,1.7,0.5,2.6c0,0.6-0.1,1.3-0.3,1.9c-0.2,0.6-0.5,1.3-0.8,1.9c-0.4,0.6-0.8,1.1-1.4,1.7
			c-0.5,0.5-1.2,1-1.9,1.4c0.9,0.2,1.7,0.5,2.4,0.9c0.6,0.4,1.2,1,1.6,1.6c0.4,0.6,0.7,1.3,0.9,2.1c0.2,0.8,0.3,1.5,0.3,2.4
			c0,0.7-0.1,1.5-0.2,2.4c-0.1,0.9-0.4,1.8-0.6,2.7c-0.3,0.9-0.7,1.8-1.2,2.7c-0.5,0.9-1.1,1.7-1.8,2.4c-0.7,0.7-1.5,1.2-2.5,1.7
			c-0.9,0.4-2,0.6-3.2,0.6c-0.5,0-1,0-1.5-0.1c-0.5-0.1-1-0.2-1.4-0.5c-0.4-0.2-0.8-0.6-1-1c-0.3-0.4-0.4-1-0.4-1.6
			c0-0.4,0-0.8,0.1-1.2c0.1-0.4,0.2-0.9,0.4-1.4c0.5,0.6,1.1,1,1.5,1.2c0.4,0.2,0.9,0.3,1.4,0.3c0.8,0,1.5-0.3,2-0.8
			c0.5-0.5,1-1.1,1.3-1.9c0.3-0.8,0.6-1.6,0.7-2.5c0.1-0.9,0.2-1.8,0.2-2.6c0-0.7-0.1-1.5-0.2-2.1c-0.1-0.7-0.4-1.3-0.7-1.8
			c-0.3-0.5-0.7-0.9-1.3-1.2c-0.5-0.3-1.2-0.4-2-0.4c-0.2,0-0.5,0-0.8,0c-0.4,0-0.8,0.1-1.2,0.1l-3.5,16.6H135.4z"/>
		<path class="st1" d="M176.9,341.6c-0.6,1-1.3,2-2.1,3c-0.8,1-1.7,1.8-2.6,2.6c-1,0.7-2.1,1.3-3.3,1.8c-1.2,0.5-2.5,0.7-3.9,0.7
			c-1,0-2-0.1-2.8-0.4c-0.8-0.3-1.5-0.7-2.1-1.2c-0.6-0.5-1-1.3-1.4-2.1c-0.3-0.9-0.5-1.9-0.5-3.1c0-0.8,0.1-1.8,0.3-2.9
			c0.2-1.1,0.4-2.2,0.8-3.3c0.4-1.1,0.9-2.3,1.5-3.4c0.6-1.1,1.3-2.1,2.2-2.9c0.9-0.9,1.9-1.6,3-2.1c1.2-0.5,2.5-0.8,4-0.8
			c1,0,1.8,0.1,2.4,0.3c0.6,0.2,1.1,0.5,1.5,0.9c0.4,0.4,0.6,0.8,0.7,1.3c0.1,0.5,0.2,1,0.2,1.6c0,1.3-0.3,2.4-0.8,3.5
			c-0.5,1.1-1.3,2-2.2,2.8c-0.9,0.8-2,1.4-3.2,1.9c-1.2,0.5-2.4,0.8-3.7,0.9c0,0.3-0.1,0.6-0.1,0.9c0,0.3,0,0.6,0,0.8
			c0,0.7,0.1,1.3,0.2,1.8c0.1,0.5,0.3,0.8,0.6,1.1c0.3,0.3,0.6,0.5,1,0.6c0.4,0.1,0.8,0.2,1.4,0.2c0.9,0,1.6-0.1,2.3-0.3
			c0.7-0.2,1.3-0.5,2-0.9c0.6-0.4,1.2-0.9,1.7-1.4c0.5-0.5,1.1-1.1,1.6-1.7H176.9z M165.1,338.5c0.8-0.1,1.6-0.3,2.4-0.7
			c0.8-0.4,1.4-0.9,2-1.6c0.6-0.7,1-1.4,1.4-2.2c0.3-0.8,0.5-1.7,0.5-2.6c0-0.5-0.1-1-0.2-1.3c-0.2-0.3-0.4-0.5-0.8-0.5
			c-0.5,0-1.1,0.3-1.6,0.8c-0.5,0.5-1,1.2-1.5,2.1c-0.5,0.8-0.9,1.8-1.2,2.9C165.6,336.4,165.3,337.5,165.1,338.5z"/>
		<path class="st1" d="M193.7,341.6c-1.1,1.3-2.3,2.4-3.4,3.2c-1.1,0.9-2.2,1.6-3.2,2.2c-0.4,0.5-1,0.9-1.5,1.2
			c-0.6,0.3-1.1,0.6-1.7,0.8c-0.6,0.2-1.2,0.4-1.8,0.4c-0.6,0.1-1.2,0.1-1.7,0.1c-1.1,0-2-0.2-2.8-0.5c-0.8-0.3-1.5-0.8-2-1.3
			c-0.5-0.5-0.9-1.1-1.2-1.8c-0.2-0.7-0.4-1.3-0.4-2c0-0.5,0.1-1,0.2-1.4c0.1-0.4,0.3-0.8,0.5-1.1c0.2-0.3,0.5-0.6,0.7-0.9
			c0.3-0.2,0.6-0.4,0.9-0.6c1.2-2.2,2.2-4.3,3.1-6.4c0.8-2.1,1.6-4.2,2.3-6.4l6.4-0.8c0.1,1.9,0.2,3.5,0.2,4.9
			c0.1,1.4,0.2,2.6,0.2,3.6c0.1,1,0.1,1.9,0.2,2.6c0.1,0.7,0.1,1.3,0.2,1.9c0,0.5,0.1,1,0.1,1.5c0,0.4,0,0.9,0,1.4
			c0,0.3,0,0.6,0,0.9c0,0.3-0.1,0.5-0.1,0.8c0.6-0.4,1.2-0.7,1.7-1.1c0.5-0.4,1-0.7,1.4-1.1H193.7z M176.3,343.2
			c0,1,0.2,1.8,0.6,2.3c0.4,0.5,1.1,0.8,2,0.8c0.5,0,0.9-0.1,1.4-0.2c0.4-0.1,0.9-0.4,1.2-0.7c0.4-0.3,0.6-0.7,0.8-1.2
			c0.2-0.5,0.3-1.1,0.3-1.9c0-0.4,0-0.7,0-1.1c0-0.3,0-0.7-0.1-1.1c0-0.4-0.1-0.8-0.1-1.3c0-0.5-0.1-1-0.2-1.7
			c-0.1-0.6-0.1-1.4-0.2-2.2c-0.1-0.8-0.1-1.8-0.2-2.9c-0.4,1.4-1,2.8-1.5,4.1c-0.6,1.3-1.2,2.7-2,4.1c0.3,0.2,0.5,0.3,0.7,0.6
			c0.2,0.2,0.3,0.5,0.3,0.9c0,0.3,0,0.5-0.1,0.8c-0.1,0.3-0.2,0.5-0.4,0.7c-0.2,0.2-0.4,0.4-0.6,0.5c-0.2,0.1-0.5,0.2-0.8,0.2
			c-0.2,0-0.5,0-0.7-0.1C176.6,343.5,176.4,343.4,176.3,343.2z"/>
		<path class="st1" d="M194.7,329.4h-1.4l0.4-1.7h1.4l1.3-6l6.4-0.9c-0.1,0.3-0.1,0.6-0.2,0.9c-0.1,0.3-0.1,0.7-0.2,1
			c-0.2,0.6-0.3,1.3-0.5,2.2c-0.2,0.8-0.4,1.7-0.6,2.7h2.6l-0.3,1.7h-2.6l-2.8,13c-0.1,0.3-0.1,0.6-0.2,0.8c0,0.3-0.1,0.5-0.1,0.7
			c0,0.4,0.1,0.8,0.3,1.1c0.2,0.3,0.6,0.4,1.2,0.4c0.2,0,0.3,0,0.5,0c0.2,0,0.4,0,0.6-0.1c-0.3,0.9-0.7,1.7-1.1,2.2
			c-0.4,0.6-0.8,1-1.2,1.3c-0.4,0.3-0.8,0.5-1.2,0.6c-0.4,0.1-0.8,0.1-1.2,0.1c-0.8,0-1.4-0.1-2-0.4c-0.5-0.2-1-0.6-1.3-1
			c-0.3-0.4-0.6-1-0.8-1.6c-0.2-0.6-0.2-1.2-0.2-1.9c0-0.7,0.1-1.5,0.3-2.3L194.7,329.4z"/>
		<path class="st1" d="M231.3,341.6c-0.6,1-1.3,2-2.1,3c-0.8,1-1.7,1.8-2.6,2.6c-1,0.7-2.1,1.3-3.3,1.8c-1.2,0.5-2.5,0.7-3.9,0.7
			c-1,0-2-0.1-2.8-0.4c-0.8-0.3-1.5-0.7-2.1-1.2c-0.6-0.5-1-1.3-1.4-2.1c-0.3-0.9-0.5-1.9-0.5-3.1c0-0.8,0.1-1.8,0.3-2.9
			c0.2-1.1,0.4-2.2,0.8-3.3c0.4-1.1,0.9-2.3,1.5-3.4c0.6-1.1,1.3-2.1,2.2-2.9c0.9-0.9,1.9-1.6,3-2.1c1.1-0.5,2.4-0.8,3.9-0.8
			c1,0,1.7,0.1,2.4,0.3c0.6,0.2,1.1,0.5,1.5,0.9c0.4,0.4,0.6,0.8,0.8,1.3c0.1,0.5,0.2,1,0.2,1.4c0,0.5-0.1,1-0.2,1.4
			c-0.1,0.4-0.3,0.7-0.5,1c-0.2,0.3-0.5,0.5-0.7,0.6c-0.3,0.1-0.6,0.2-0.9,0.2c-0.5,0-1-0.2-1.5-0.5c0.4-0.9,0.5-1.8,0.5-2.6
			c0-0.5-0.1-1-0.3-1.3c-0.2-0.3-0.5-0.5-0.9-0.5c-0.4,0-0.9,0.2-1.4,0.6c-0.4,0.4-0.9,1-1.3,1.6c-0.4,0.7-0.8,1.4-1.2,2.3
			c-0.4,0.9-0.7,1.8-0.9,2.7c-0.3,0.9-0.5,1.9-0.6,2.8c-0.1,0.9-0.2,1.8-0.2,2.6c0,0.7,0.1,1.3,0.2,1.8c0.1,0.5,0.3,0.8,0.6,1.1
			c0.3,0.3,0.6,0.5,1,0.6c0.4,0.1,0.8,0.2,1.4,0.2c0.9,0,1.6-0.1,2.3-0.3c0.7-0.2,1.3-0.5,2-0.9c0.6-0.4,1.2-0.9,1.7-1.4
			c0.5-0.5,1.1-1.1,1.6-1.7H231.3z"/>
		<path class="st1" d="M253.5,341.6c-0.6,1.8-1.3,3.2-2,4.2c-0.7,1.1-1.4,1.9-2.1,2.4c-0.7,0.6-1.4,0.9-2.1,1.1
			c-0.7,0.2-1.3,0.3-1.9,0.3c-1,0-1.8-0.1-2.4-0.4c-0.6-0.3-1.2-0.6-1.6-1.1c-0.4-0.5-0.7-1-0.9-1.6c-0.2-0.6-0.3-1.2-0.3-1.8
			c0-0.7,0.1-1.6,0.3-2.6c0.2-1,0.4-2,0.7-3c0.2-1,0.5-2,0.7-3c0.2-1,0.3-1.8,0.3-2.5c0-1.5-0.5-2.2-1.6-2.2c-0.4,0-0.8,0.1-1.1,0.3
			c-0.3,0.2-0.6,0.5-0.9,0.9s-0.5,0.8-0.8,1.3c-0.2,0.5-0.4,1-0.6,1.6l-2.9,13.9h-6.2l6.3-29.4l6.4-0.9l-2.3,10.9
			c0.5-0.5,0.9-0.9,1.4-1.3c0.5-0.3,0.9-0.6,1.3-0.7c0.4-0.2,0.8-0.3,1.2-0.3c0.4-0.1,0.7-0.1,1.1-0.1c0.7,0,1.3,0.1,1.9,0.3
			c0.6,0.2,1.1,0.5,1.5,0.9c0.4,0.4,0.8,0.9,1,1.5c0.2,0.6,0.4,1.4,0.4,2.2c0,0.6-0.1,1.2-0.2,1.9c-0.1,0.7-0.2,1.4-0.4,2
			c-0.2,0.7-0.3,1.4-0.5,2.1c-0.2,0.7-0.3,1.4-0.5,2c-0.2,0.6-0.3,1.2-0.4,1.8c-0.1,0.5-0.2,1-0.2,1.4c0,0.5,0.1,1,0.4,1.3
			c0.2,0.3,0.7,0.5,1.4,0.5c0.5,0,0.9-0.1,1.2-0.3c0.4-0.2,0.7-0.4,1-0.8c0.3-0.3,0.5-0.7,0.8-1.2c0.2-0.5,0.5-1,0.7-1.6H253.5z"/>
		<path class="st1" d="M276,332.9c-0.8,0.9-1.9,1.6-3.3,2.3c-1.3,0.6-2.8,1.1-4.4,1.3c-0.2,2-0.6,3.8-1.1,5.4
			c-0.6,1.6-1.4,3-2.3,4.1c-0.9,1.1-2,2-3.1,2.6c-1.2,0.6-2.4,0.9-3.8,0.9c-1,0-1.9-0.1-2.8-0.4c-0.9-0.2-1.6-0.6-2.2-1.2
			c-0.6-0.5-1.1-1.2-1.4-2.1c-0.3-0.9-0.5-1.9-0.5-3.2c0-0.8,0.1-1.8,0.3-2.9c0.2-1.1,0.5-2.2,0.8-3.3c0.4-1.1,0.9-2.3,1.5-3.3
			c0.6-1.1,1.4-2.1,2.2-2.9c0.9-0.9,1.9-1.6,3.1-2.1c1.2-0.5,2.5-0.8,4-0.8c3.7,0,5.6,2.3,5.6,6.9v0c0.1,0,0.1,0,0.2,0
			c0.1,0,0.2,0,0.3,0c0.5,0,1.1-0.1,1.6-0.2c0.6-0.1,1.2-0.3,1.8-0.6c0.6-0.2,1.2-0.5,1.7-0.8c0.6-0.3,1.1-0.6,1.5-1L276,332.9z
			 M264.7,336.6c-0.4-0.1-0.8-0.3-0.9-0.7c-0.2-0.3-0.2-0.7-0.2-1.1c0-0.6,0.1-1.1,0.4-1.5c0.2-0.4,0.6-0.7,1-0.9
			c0-0.5-0.1-0.9-0.1-1.2c-0.1-0.3-0.2-0.6-0.3-0.8c-0.1-0.2-0.3-0.3-0.5-0.4c-0.2-0.1-0.4-0.1-0.7-0.1c-0.5,0-1,0.2-1.5,0.6
			c-0.5,0.4-0.9,0.9-1.4,1.6c-0.4,0.7-0.8,1.4-1.2,2.3c-0.4,0.9-0.7,1.7-0.9,2.6c-0.3,0.9-0.4,1.8-0.6,2.7c-0.1,0.9-0.2,1.7-0.2,2.4
			c0,0.7,0,1.3,0.1,1.8c0.1,0.4,0.2,0.8,0.4,1.1c0.2,0.3,0.4,0.4,0.7,0.5c0.3,0.1,0.6,0.1,1,0.1c0.5,0,1-0.2,1.6-0.7
			c0.5-0.5,1-1.1,1.5-1.9c0.4-0.8,0.8-1.8,1.2-2.9C264.3,339.1,264.5,337.9,264.7,336.6z"/>
		<path class="st1" d="M288.7,341.6c-0.6,1-1.3,2-2.1,3c-0.8,1-1.7,1.8-2.6,2.6c-1,0.7-2.1,1.3-3.3,1.8c-1.2,0.5-2.5,0.7-3.9,0.7
			c-1,0-2-0.1-2.8-0.4c-0.8-0.3-1.5-0.7-2.1-1.2s-1-1.3-1.4-2.1c-0.3-0.9-0.5-1.9-0.5-3.1c0-0.8,0.1-1.8,0.3-2.9
			c0.2-1.1,0.4-2.2,0.8-3.3c0.4-1.1,0.9-2.3,1.5-3.4c0.6-1.1,1.3-2.1,2.2-2.9c0.9-0.9,1.9-1.6,3-2.1c1.1-0.5,2.4-0.8,3.9-0.8
			c1,0,1.7,0.1,2.4,0.3c0.6,0.2,1.1,0.5,1.5,0.9c0.4,0.4,0.6,0.8,0.8,1.3c0.1,0.5,0.2,1,0.2,1.4c0,0.5-0.1,1-0.2,1.4
			c-0.1,0.4-0.3,0.7-0.5,1c-0.2,0.3-0.5,0.5-0.7,0.6c-0.3,0.1-0.6,0.2-0.9,0.2c-0.5,0-1-0.2-1.5-0.5c0.4-0.9,0.5-1.8,0.5-2.6
			c0-0.5-0.1-1-0.3-1.3c-0.2-0.3-0.5-0.5-0.9-0.5c-0.4,0-0.9,0.2-1.4,0.6c-0.4,0.4-0.9,1-1.3,1.6c-0.4,0.7-0.8,1.4-1.1,2.3
			c-0.4,0.9-0.7,1.8-0.9,2.7c-0.3,0.9-0.5,1.9-0.6,2.8c-0.2,0.9-0.2,1.8-0.2,2.6c0,0.7,0.1,1.3,0.2,1.8c0.1,0.5,0.3,0.8,0.6,1.1
			c0.3,0.3,0.6,0.5,1,0.6c0.4,0.1,0.8,0.2,1.4,0.2c0.9,0,1.6-0.1,2.3-0.3c0.7-0.2,1.3-0.5,2-0.9c0.6-0.4,1.2-0.9,1.7-1.4
			c0.5-0.5,1.1-1.1,1.6-1.7H288.7z"/>
		<path class="st1" d="M311.6,332.9c-0.8,0.9-1.9,1.6-3.3,2.3c-1.3,0.6-2.8,1.1-4.4,1.3c-0.2,2-0.6,3.8-1.2,5.4
			c-0.6,1.6-1.4,3-2.3,4.1c-0.9,1.1-2,2-3.1,2.6c-1.2,0.6-2.4,0.9-3.8,0.9c-1,0-1.9-0.1-2.8-0.4c-0.9-0.2-1.6-0.6-2.2-1.2
			c-0.6-0.5-1.1-1.2-1.4-2.1c-0.3-0.9-0.5-1.9-0.5-3.2c0-0.8,0.1-1.8,0.3-2.9c0.2-1.1,0.5-2.2,0.8-3.3c0.4-1.1,0.9-2.3,1.5-3.3
			c0.6-1.1,1.4-2.1,2.2-2.9c0.9-0.9,1.9-1.6,3.1-2.1c1.2-0.5,2.5-0.8,4-0.8c3.7,0,5.6,2.3,5.6,6.9v0c0.1,0,0.1,0,0.2,0
			c0.1,0,0.2,0,0.3,0c0.5,0,1.1-0.1,1.6-0.2c0.6-0.1,1.2-0.3,1.8-0.6c0.6-0.2,1.2-0.5,1.7-0.8c0.6-0.3,1.1-0.6,1.5-1L311.6,332.9z
			 M300.3,336.6c-0.4-0.1-0.8-0.3-0.9-0.7c-0.2-0.3-0.2-0.7-0.2-1.1c0-0.6,0.1-1.1,0.4-1.5c0.2-0.4,0.6-0.7,1-0.9
			c0-0.5-0.1-0.9-0.1-1.2c-0.1-0.3-0.2-0.6-0.3-0.8c-0.1-0.2-0.3-0.3-0.5-0.4c-0.2-0.1-0.4-0.1-0.7-0.1c-0.5,0-1,0.2-1.5,0.6
			c-0.5,0.4-0.9,0.9-1.4,1.6c-0.4,0.7-0.8,1.4-1.2,2.3c-0.4,0.9-0.7,1.7-0.9,2.6c-0.3,0.9-0.4,1.8-0.6,2.7c-0.1,0.9-0.2,1.7-0.2,2.4
			c0,0.7,0,1.3,0.1,1.8c0.1,0.4,0.2,0.8,0.4,1.1c0.2,0.3,0.4,0.4,0.7,0.5c0.3,0.1,0.6,0.1,1,0.1c0.5,0,1-0.2,1.6-0.7
			c0.5-0.5,1-1.1,1.5-1.9c0.4-0.8,0.8-1.8,1.2-2.9C299.9,339.1,300.1,337.9,300.3,336.6z"/>
		<path class="st1" d="M319.6,341.6c-0.4,1.2-0.9,2.2-1.4,3c-0.5,0.9-1,1.6-1.6,2.2c-0.5,0.6-1.1,1.1-1.7,1.4
			c-0.6,0.4-1.1,0.6-1.7,0.8c-0.5,0.2-1,0.3-1.5,0.4c-0.5,0.1-0.9,0.1-1.3,0.1c-0.6,0-1.3-0.1-1.8-0.3c-0.6-0.2-1.1-0.5-1.5-0.9
			c-0.4-0.4-0.7-1-1-1.6c-0.2-0.6-0.4-1.4-0.4-2.3c0-0.4,0-0.8,0.1-1.3c0.1-0.5,0.1-1,0.3-1.5l4.6-21.7l6.4-0.9l-5,23.4
			c-0.1,0.2-0.1,0.5-0.1,0.7c0,0.2,0,0.5,0,0.7c0,0.6,0.1,1,0.4,1.3c0.3,0.2,0.7,0.4,1.3,0.4c0.4,0,0.8-0.1,1.2-0.3
			c0.4-0.2,0.8-0.5,1.1-0.8c0.3-0.3,0.6-0.7,0.9-1.2c0.3-0.5,0.5-1,0.7-1.5H319.6z"/>
		<path class="st1" d="M342.4,341.6c-0.4,1.2-0.9,2.2-1.3,3c-0.5,0.9-1,1.6-1.5,2.2c-0.5,0.6-1,1.1-1.6,1.4
			c-0.5,0.4-1.1,0.6-1.6,0.8c-0.5,0.2-1,0.3-1.5,0.4c-0.5,0.1-0.9,0.1-1.3,0.1c-1.2,0-2.2-0.3-2.9-1c-0.7-0.7-1.2-1.7-1.3-3
			c-0.4,0.5-0.7,1-1.2,1.4c-0.4,0.5-0.9,0.9-1.4,1.3c-0.5,0.4-1.1,0.7-1.7,0.9c-0.6,0.2-1.3,0.3-2.1,0.3c-0.7,0-1.5-0.1-2.2-0.4
			c-0.7-0.2-1.3-0.6-1.8-1.2c-0.5-0.5-1-1.3-1.3-2.2c-0.3-0.9-0.5-2-0.5-3.3c0-1,0.1-2,0.3-3.2c0.2-1.1,0.5-2.3,0.9-3.4
			c0.4-1.1,0.9-2.2,1.5-3.2c0.6-1,1.3-1.9,2.2-2.7c0.8-0.8,1.8-1.4,2.8-1.9c1-0.5,2.2-0.7,3.4-0.7c1.2,0,2.1,0.2,2.7,0.6
			c0.6,0.4,0.8,0.9,0.8,1.6v0.3l0.5-2.3h6.2l-3.1,14.7c-0.1,0.2-0.1,0.5-0.1,0.7c0,0.2,0,0.5,0,0.7c0,1.2,0.6,1.9,1.8,1.9
			c0.4,0,0.8-0.1,1.2-0.3c0.4-0.2,0.7-0.5,1-0.9c0.3-0.4,0.6-0.8,0.8-1.3c0.2-0.5,0.4-1,0.6-1.6H342.4z M331.5,331.8
			c0-0.1,0-0.3-0.1-0.5c-0.1-0.2-0.2-0.4-0.3-0.5c-0.1-0.2-0.3-0.3-0.5-0.4c-0.2-0.1-0.5-0.2-0.9-0.2c-0.6,0-1.2,0.2-1.7,0.6
			c-0.5,0.4-1,0.9-1.5,1.6c-0.4,0.7-0.9,1.4-1.2,2.2c-0.4,0.8-0.7,1.7-0.9,2.6c-0.2,0.9-0.4,1.7-0.6,2.6c-0.1,0.9-0.2,1.6-0.2,2.3
			c0,0.8,0.1,1.5,0.2,1.9c0.2,0.4,0.3,0.8,0.6,1c0.2,0.2,0.5,0.3,0.7,0.4c0.3,0,0.5,0.1,0.7,0.1c0.3,0,0.7-0.1,1-0.2
			c0.4-0.2,0.7-0.4,1-0.7c0.3-0.3,0.6-0.7,0.9-1.2c0.3-0.5,0.5-1,0.6-1.7L331.5,331.8z"/>
		<path class="st1" d="M353.9,341.6c-0.4,1.2-0.9,2.2-1.4,3c-0.5,0.9-1,1.6-1.6,2.2c-0.5,0.6-1.1,1.1-1.7,1.4
			c-0.6,0.4-1.1,0.6-1.7,0.8c-0.5,0.2-1,0.3-1.5,0.4c-0.5,0.1-0.9,0.1-1.3,0.1c-0.6,0-1.3-0.1-1.8-0.3c-0.6-0.2-1.1-0.5-1.5-0.9
			c-0.4-0.4-0.7-1-1-1.6c-0.2-0.6-0.4-1.4-0.4-2.3c0-0.4,0-0.8,0.1-1.3c0.1-0.5,0.1-1,0.3-1.5l2.6-12.1h-1.4l0.4-1.7h1.4l1.3-6
			l6.4-0.9l-1.5,6.8h2.6l-0.3,1.7h-2.6l-2.8,13c-0.1,0.2-0.1,0.5-0.1,0.7c0,0.2,0,0.5,0,0.7c0,0.6,0.1,1,0.4,1.3
			c0.3,0.2,0.7,0.4,1.3,0.4c0.4,0,0.8-0.1,1.2-0.3c0.4-0.2,0.8-0.5,1.1-0.8c0.3-0.3,0.6-0.7,0.9-1.2c0.3-0.5,0.5-1,0.7-1.5H353.9z"
			/>
		<path class="st1" d="M365.7,343.2c-0.2,1.3-0.6,2.3-1.1,3.1c-0.5,0.8-1.1,1.5-1.7,2c-0.7,0.5-1.4,0.8-2.2,1
			c-0.8,0.2-1.6,0.3-2.5,0.3c-1,0-1.9-0.1-2.8-0.4c-0.8-0.3-1.5-0.7-2.1-1.2c-0.6-0.5-1-1.3-1.4-2.1c-0.3-0.9-0.5-1.9-0.5-3.1
			c0-0.8,0.1-1.8,0.3-2.9c0.2-1.1,0.4-2.2,0.8-3.3c0.4-1.1,0.9-2.3,1.5-3.4c0.6-1.1,1.3-2.1,2.2-2.9c0.9-0.9,1.9-1.6,3-2.1
			c1.2-0.5,2.5-0.8,4-0.8c1,0,1.8,0.1,2.4,0.3c0.6,0.2,1.1,0.5,1.5,0.9c0.4,0.4,0.6,0.8,0.7,1.3c0.1,0.5,0.2,1,0.2,1.6
			c0,1.3-0.3,2.4-0.8,3.5c-0.5,1.1-1.3,2-2.2,2.8c-0.9,0.8-2,1.4-3.2,1.9c-1.2,0.5-2.4,0.8-3.7,0.9c0,0.2-0.1,0.5-0.1,0.7
			c0,0.2,0,0.4,0,0.6c0,0.7,0.1,1.3,0.2,1.7c0.1,0.5,0.3,0.8,0.6,1.1c0.2,0.3,0.5,0.5,0.8,0.6c0.3,0.1,0.7,0.2,1.1,0.2
			c0.4,0,0.9-0.1,1.3-0.2c0.5-0.1,0.9-0.3,1.4-0.5c0.4-0.2,0.9-0.5,1.3-0.7C365,343.8,365.3,343.5,365.7,343.2z M358.3,338.5
			c0.8,0,1.6-0.3,2.4-0.7c0.8-0.4,1.4-1,2-1.6c0.6-0.7,1.1-1.4,1.4-2.2c0.3-0.8,0.5-1.7,0.5-2.6c0-0.5-0.1-1-0.2-1.3
			c-0.2-0.3-0.4-0.5-0.8-0.5c-0.5,0-1.1,0.3-1.6,0.8c-0.5,0.5-1,1.2-1.5,2.1c-0.5,0.9-0.9,1.8-1.2,2.9
			C358.8,336.5,358.5,337.5,358.3,338.5z"/>
	</g>
</g>
</svg>
