<?xml version="1.0" encoding="utf-8"?>
<!-- Generator: Adobe Illustrator 23.0.3, SVG Export Plug-In . SVG Version: 6.00 Build 0)  -->
<svg version="1.1" id="Layer_1" xmlns="http://www.w3.org/2000/svg" xmlns:xlink="http://www.w3.org/1999/xlink" x="0px" y="0px"
	 viewBox="0 0 500 500" style="enable-background:new 0 0 500 500;" xml:space="preserve">
<style type="text/css">
	.st0{fill:#44CEE3;}
	.st1{fill:#FFFFFF;}
	.st2{fill:#F4628F;}
	.st3{fill:#E8EC3A;}
	.st4{fill:#97BB02;}
	.st5{opacity:0.2;}
	.st6{opacity:0.5;}
	.st7{fill:#9470D0;}
	.st8{fill:#F23D7A;}
	.st9{fill:#DA1160;}
	.st10{fill:#B2B1B1;}
	.st11{fill:#E2E1DE;}
	.st12{fill:#6332BA;}
	.st13{fill:#5420AE;}
	.st14{fill:#FFC300;}
	.st15{fill:#DDA507;}
	.st16{fill:#49D8E5;}
	.st17{fill:#64095D;}
	.st18{fill:#490748;}
	.st19{fill:#EA0446;}
	.st20{fill:#EEF443;}
	.st21{fill:#03C4DE;}
	.st22{fill:#492111;}
	.st23{fill:#00838C;}
	.st24{fill:#652A1F;}
	.st25{fill:#C09670;}
	.st26{fill:#EBE0AE;}
	.st27{fill:#4E1E14;}
	.st28{fill:#D9A24B;}
	.st29{fill:#FFEAC0;}
	.st30{fill:#CB2519;}
	.st31{fill:#43CEE3;}
	.st32{fill:#00B8D2;}
	.st33{fill:#FFBD17;}
	.st34{fill:#FFD901;}
	.st35{fill:#5E0084;}
	.st36{fill:#F978A3;}
	.st37{fill:#EC115F;}
	.st38{fill:#FF9900;}
	.st39{fill:#EDB107;}
	.st40{fill:#B90615;}
	.st41{fill:#E1E5D8;}
	.st42{fill:#DD3107;}
	.st43{fill:#CDD905;}
	.st44{fill:#B2B212;}
	.st45{fill:#EB024D;}
</style>
<g>
	<g>
		<path class="st9" d="M288.5,70.7c2.9-2.6,6.9-3.5,10.7-2.5c3.7,1,6.7,3.8,7.9,7.5l11.3,34.2c1.9,5.7,7.8,9,13.7,7.6l35-8.5
			c3.8-0.9,7.7,0.1,10.6,2.8c2.8,2.6,4.2,6.5,3.5,10.4l-5.9,35.5c-1,5.9,2.7,11.6,8.6,13.1l35,8.7c3.8,0.9,6.8,3.7,8.1,7.4
			c1.3,3.7,0.7,7.7-1.7,10.8l-21.8,28.7c-3.6,4.8-3,11.6,1.5,15.6l26.9,24c2.9,2.6,4.3,6.4,3.7,10.3c-0.6,3.8-3,7.1-6.5,8.8
			l-32.6,15.3c-5.4,2.6-8,8.9-5.9,14.5l12.7,33.7c1.4,3.6,0.8,7.7-1.5,10.8c-2.3,3.1-6,4.9-9.8,4.7l-36-1.6c-6-0.3-11.2,4.1-12,10.1
			l-4.5,35.8c-0.5,3.8-2.9,7.2-6.3,8.9c-3.5,1.7-7.6,1.6-10.9-0.4L291,398.8c-5.2-3-11.8-1.6-15.3,3.4l-20.6,29.6
			c-2.2,3.2-5.9,5-9.8,4.9c-3.9-0.1-7.4-2.1-9.5-5.4l-19.1-30.5c-3.2-5.1-9.8-6.9-15.1-4.1l-32,16.6c-3.4,1.8-7.5,1.7-10.9-0.1
			c-3.4-1.9-5.6-5.3-5.9-9.2l-2.7-35.9c-0.5-6-5.4-10.6-11.5-10.7l-36-0.1c-3.9,0-7.5-2-9.6-5.2c-2.1-3.2-2.5-7.3-0.9-10.9
			l14.3-33.1c2.4-5.5,0.1-12-5.2-14.8l-31.8-16.9c-3.4-1.8-5.7-5.2-6.1-9.1c-0.4-3.9,1.2-7.6,4.2-10.1l28-22.7
			c4.7-3.8,5.7-10.5,2.3-15.5l-20.4-29.7c-2.2-3.2-2.6-7.3-1.2-10.9c1.5-3.6,4.6-6.2,8.4-7l35.3-7.1c5.9-1.2,9.9-6.7,9.2-12.7
			l-4.2-35.8c-0.5-3.8,1.1-7.7,4-10.2c3-2.5,7-3.3,10.7-2.3l34.6,10.2c5.8,1.7,11.9-1.3,14-6.9l12.9-33.6c1.4-3.6,4.5-6.3,8.3-7.1
			c3.8-0.8,7.7,0.3,10.5,3l25.9,25.1c4.3,4.2,11.1,4.3,15.7,0.4L288.5,70.7z"/>
	</g>
	<g>
		<path class="st2" d="M240.9,68.4c2.1-3.2,5.8-5.2,9.6-5.2c3.9,0,7.5,1.9,9.6,5.2l19.9,30.1c3.3,5,9.9,6.6,15.2,3.7l31.6-17.4
			c3.4-1.9,7.5-1.9,10.9-0.1c3.4,1.8,5.7,5.2,6.1,9.1l3.6,35.9c0.6,6,5.7,10.5,11.7,10.4l36-0.7c3.9-0.1,7.5,1.8,9.7,5
			c2.2,3.2,2.7,7.3,1.2,10.9l-13.5,33.4c-2.2,5.6,0.2,11.9,5.6,14.6l32.2,16.1c3.5,1.7,5.8,5.1,6.3,8.9c0.5,3.8-1,7.7-4,10.2
			l-27.5,23.3c-4.6,3.9-5.4,10.7-1.9,15.5l21.1,29.2c2.3,3.1,2.8,7.2,1.4,10.8c-1.4,3.6-4.5,6.3-8.3,7.2l-35.2,7.9
			c-5.9,1.3-9.7,6.9-8.9,12.9l5.1,35.7c0.5,3.8-0.9,7.7-3.8,10.3c-2.9,2.6-6.9,3.5-10.6,2.5l-34.8-9.3c-5.8-1.6-11.8,1.6-13.9,7.3
			l-12.1,33.9c-1.3,3.7-4.3,6.4-8.1,7.3c-3.8,0.9-7.7-0.1-10.6-2.7l-26.5-24.4c-4.4-4.1-11.2-4.1-15.7,0l-26.5,24.4
			c-2.8,2.6-6.8,3.7-10.6,2.7c-3.8-0.9-6.8-3.7-8.1-7.3l-12.1-33.9c-2-5.7-8.1-8.8-13.9-7.3l-34.8,9.3c-3.7,1-7.7,0.1-10.6-2.5
			c-2.9-2.6-4.3-6.4-3.8-10.3l5.1-35.7c0.8-6-3-11.6-8.9-12.9l-35.2-7.9c-3.8-0.8-6.9-3.5-8.3-7.2c-1.4-3.6-0.8-7.7,1.4-10.8
			l21.1-29.2c3.5-4.9,2.7-11.6-1.9-15.5l-27.5-23.3c-3-2.5-4.4-6.3-4-10.2c0.5-3.8,2.8-7.2,6.3-8.9l32.2-16.1
			c5.4-2.7,7.8-9.1,5.6-14.6L95,155.1c-1.4-3.6-1-7.7,1.2-10.9c2.2-3.2,5.9-5.1,9.7-5l36,0.7c6,0.1,11.1-4.4,11.7-10.4l3.6-35.9
			c0.4-3.9,2.7-7.3,6.1-9.1c3.4-1.8,7.5-1.8,10.9,0.1l31.6,17.4c5.3,2.9,11.9,1.3,15.2-3.7L240.9,68.4z"/>
	</g>
	<g>
		
			<ellipse transform="matrix(0.7071 -0.7071 0.7071 0.7071 -104.4521 248.9747)" class="st1" cx="248.3" cy="250.6" rx="142.9" ry="142.9"/>
	</g>
	<g>
		<path class="st9" d="M248.3,386.2c-74.8,0-135.7-60.9-135.7-135.7c0-74.8,60.9-135.7,135.7-135.7c74.8,0,135.7,60.9,135.7,135.7
			C384,325.4,323.1,386.2,248.3,386.2z M248.3,121.1c-71.4,0-129.4,58.1-129.4,129.4c0,71.4,58.1,129.4,129.4,129.4
			c71.4,0,129.4-58.1,129.4-129.4C377.8,179.2,319.7,121.1,248.3,121.1z"/>
	</g>
	<g>
		<g>
			<g>
				<g>
					<path class="st10" d="M232.2,313.4c-0.9,1-2,1.8-3.3,2.3c-4.1,1.4-8.5-0.7-10-4.8l-20.4-59.5c-1.4-4.1,0.7-8.5,4.8-10
						c4.1-1.4,8.5,0.7,10,4.8l20.4,59.5C234.6,308.4,234,311.3,232.2,313.4z"/>
				</g>
			</g>
		</g>
		<g>
			<g>
				<g>
					<path class="st11" d="M226.1,313.6c-0.4,0.4-0.9,0.8-1.4,1c-1.7,0.6-3.7-0.3-4.3-2.1L200,253c-0.6-1.7,0.3-3.7,2.1-4.3
						c1.7-0.6,3.7,0.3,4.3,2.1l20.4,59.5C227.2,311.4,226.9,312.7,226.1,313.6z"/>
				</g>
			</g>
		</g>
		<g>
			<g>
				<g>
					<path class="st30" d="M239.9,188.6c-6.4-15.9-24.4-23.5-40.3-17.1c-9.1,3.6-15.5,11.1-18.1,19.8c-7.9-4.4-17.7-5.4-26.8-1.7
						c-15.9,6.4-23.6,24.4-17.2,40.3c0,0,6.8,27.7,73.9,35.8l0,0c0,0,0,0,0,0c0,0,0,0,0,0l0-0.1
						C254.2,213.3,239.9,188.6,239.9,188.6z"/>
				</g>
			</g>
		</g>
		<g class="st5">
			<g>
				<path class="st1" d="M181.5,191.2c-7.9-4.4-17.7-5.4-26.8-1.7c-15.9,6.4-23.6,24.4-17.2,40.3c0,0,4.8,19.6,46.4,30.7
					c9.5-1,18.8-4.7,26.7-11.2c21.9-17.8,25.2-50,7.3-71.9c-2.5-3.1-5.3-5.7-8.3-8.1c-3.4,0.2-6.8,0.8-10.1,2.2
					C190.5,175.1,184.1,182.6,181.5,191.2z"/>
			</g>
		</g>
		<g class="st6">
			<g>
				<g>
					<path class="st1" d="M175.2,195.2c0,0-1.7,0-4.5,0.3c-1.4,0.2-3.1,0.5-5,0.9c-1.9,0.5-3.9,1.2-5.8,2.1
						c-1.9,1.1-3.8,2.4-5.3,4.1c-1.6,1.7-2.8,3.8-3.6,6.3c-0.9,2.4-1.4,5.2-1.6,8c0,0.7,0,1,0.1,1.6c0.1,0.6,0.1,1.2,0.3,1.8
						c0.3,1.2,0.8,2.4,1.3,3.6c2.4,4.8,6.8,9.3,11.2,13.1c4.5,3.8,9.1,7,13.2,9.6c2.1,1.3,4,2.5,5.7,3.5c1.7,1,3.2,1.9,4.5,2.5
						c1.3,0.7,2.3,1.2,3,1.5c0.7,0.3,1.1,0.5,1.1,0.5s-1.7,0-4.6-0.4c-2.9-0.5-7.1-1.4-11.9-3.1c-4.8-1.7-10.3-4.2-15.7-7.8
						c-2.7-1.8-5.4-3.9-7.9-6.4c-2.5-2.5-4.9-5.4-6.6-8.9c-0.9-1.7-1.6-3.6-2-5.6c-0.3-1-0.4-2-0.5-3c-0.1-1-0.1-2.3,0-3.3
						c0.3-3.7,1.3-7.1,2.8-10.4c0.8-1.6,1.7-3.1,2.8-4.6c1.1-1.4,2.3-2.6,3.6-3.7c2.6-2.1,5.6-3.3,8.3-4c2.7-0.7,5.2-0.8,7.3-0.7
						c2.1,0.1,4,0.4,5.4,0.8C173.7,194.4,175.2,195.2,175.2,195.2z"/>
				</g>
			</g>
		</g>
	</g>
	<g>
		<g>
			<g>
				<g>
					<g>
						<path class="st10" d="M256.1,300.2c-1.4,0.1-2.9-0.1-4.2-0.7c-4.2-1.9-6.1-6.8-4.2-11l27.9-60.9c1.9-4.2,6.8-6.1,11-4.2
							c4.2,1.9,6.1,6.8,4.2,11l-27.9,60.9C261.6,298.1,259,299.9,256.1,300.2z"/>
					</g>
				</g>
			</g>
		</g>
		<g>
			<g>
				<g>
					<g>
						<path class="st11" d="M251.3,295.9c-0.6,0.1-1.2,0-1.8-0.3c-1.8-0.8-2.6-2.9-1.8-4.7l27.9-60.9c0.8-1.8,2.9-2.6,4.7-1.8
							c1.8,0.8,2.6,2.9,1.8,4.7l-27.9,60.9C253.7,295,252.5,295.7,251.3,295.9z"/>
					</g>
				</g>
			</g>
		</g>
		<g>
			<g>
				<g>
					<g>
						<path class="st14" d="M347.6,184c8.1,20.8-2,45.6-20,58.8c-14,8.2-29.6,10.8-44.8,6.7c-26-9.9-42.5-39-33.8-65.9
							c4.3-14,14.4-26.4,28.6-32.3c24.1-9.2,54.6,0.3,65.9,23.2C345.2,177.4,346.6,180.7,347.6,184z"/>
					</g>
				</g>
			</g>
		</g>
		<g>
			<g>
				<g>
					<g>
						<path class="st15" d="M350.4,225.4c-3,6.8-11.6,9.7-19.1,6.4L253.1,197c-7.5-3.3-11.1-11.6-8-18.4l1.8-4.1
							c3-6.8,11.6-9.7,19.1-6.4l78.2,34.8c7.5,3.3,11.1,11.6,8,18.4L350.4,225.4z"/>
					</g>
				</g>
			</g>
		</g>
		<g class="st5">
			<g>
				<g>
					<g>
						<path class="st1" d="M329,214.9c-2.4,5.4-9.1,7.6-15,5l-61.5-27.4c-5.9-2.6-8.7-9.1-6.3-14.5l1.4-3.2c2.4-5.4,9.1-7.6,15-5
							l61.5,27.4c5.9,2.6,8.7,9.1,6.3,14.5L329,214.9z"/>
					</g>
				</g>
			</g>
		</g>
		<g class="st5">
			<g>
				<g>
					<path class="st1" d="M263,164.7c0,0,17.3-16.2,41.8-13c24.5,3.2,34.5,19.9,34.6,23S325.7,193.7,263,164.7z"/>
				</g>
			</g>
		</g>
		<g class="st6">
			<g>
				<g>
					<g>
						<path class="st1" d="M266.2,166.2c0,0,0.6-0.9,1.8-2.2c0.6-0.7,1.4-1.5,2.3-2.3c0.9-0.9,2-1.8,3.4-2.7c1.3-1,2.8-1.8,4.3-2.7
							c1.6-0.8,3.3-1.7,5.2-2.3c0.9-0.3,1.9-0.7,2.9-1c1-0.3,2-0.5,3-0.7c1-0.3,2.1-0.4,3.1-0.5l3.2-0.4c2.1-0.1,4.3-0.1,6.3,0
							c2.1,0.2,4.1,0.5,6.1,0.8c1.9,0.4,3.8,0.9,5.5,1.4c1.7,0.5,3.3,1.2,4.7,1.8c1.5,0.6,2.8,1.1,3.9,1.8c1.1,0.6,2.1,1.2,2.8,1.6
							c1.6,0.9,2.4,1.5,2.4,1.5s-1-0.2-2.8-0.6c-0.9-0.2-1.9-0.5-3.1-0.8c-1.2-0.4-2.5-0.6-4-0.9c-1.5-0.3-3.1-0.7-4.7-1
							c-1.7-0.2-3.5-0.4-5.3-0.7c-1.8-0.2-3.7-0.1-5.7-0.3c-1.9,0-3.9,0.1-5.8,0.2l-2.9,0.3c-1,0.1-1.9,0.2-2.9,0.4
							c-0.9,0.2-1.9,0.4-2.8,0.5c-0.9,0.2-1.8,0.5-2.7,0.7c-1.8,0.4-3.4,1.1-5.1,1.6c-1.5,0.7-3.1,1.2-4.4,1.9
							C269.5,163.7,266.2,166.2,266.2,166.2z"/>
					</g>
				</g>
			</g>
		</g>
		<g class="st6">
			<g>
				<g>
					<g>
						<path class="st1" d="M296.5,191.1c0,0-3.5-1.2-8.4-3.1c-2.5-1-5.4-2.2-8.4-3.4c-3.1-1.2-6.3-2.6-9.6-3.8
							c-1.6-0.6-3.3-1.2-4.9-1.8c-1.6-0.5-3.2-1.1-4.8-1.6c-1.6-0.4-3-0.8-4.5-1.1c-1.4-0.3-2.8-0.4-4-0.4c-1.2,0-2.3,0.1-3.2,0.5
							c-0.9,0.3-1.6,0.8-2.2,1.3c-0.2,0.3-0.5,0.5-0.7,0.7c-0.2,0.3-0.3,0.5-0.4,0.6c-0.2,0.4-0.3,0.6-0.3,0.6s0-0.2,0.1-0.6
							c0.1-0.4,0.2-1.1,0.6-1.8c0.4-0.8,1-1.6,2.1-2.3c0.5-0.4,1.1-0.6,1.7-0.9c0.6-0.2,1.3-0.5,2-0.6c1.4-0.3,3-0.5,4.6-0.3
							c1.6,0,3.3,0.2,5,0.6c1.7,0.3,3.5,0.7,5.2,1.2c1.7,0.5,3.5,1.1,5.2,1.8c1.7,0.7,3.4,1.4,5,2.1c1.6,0.7,3.2,1.6,4.7,2.3
							c3,1.6,5.7,3.2,8,4.7C293.8,188.6,296.5,191.1,296.5,191.1z"/>
					</g>
				</g>
			</g>
		</g>
	</g>
	<g>
		<g>
			<g>
				<g>
					<path class="st31" d="M278.4,295.3c11.7,15.7,9,39-3.2,54.3c-9.9,10.2-22.5,16.1-36.3,16.1c-24.2-2.3-44.9-23-43.9-47.8
						c0.4-12.9,6-25.7,16.6-34c18.2-13.4,46.1-12.5,61,4.2C274.9,290.4,276.8,292.8,278.4,295.3z"/>
				</g>
			</g>
		</g>
		<g>
			<g>
				<path class="st32" d="M211.3,325.2L211.3,325.2L211.3,325.2C211.2,325.5,211.3,325.2,211.3,325.2z"/>
			</g>
			<g>
				<path class="st32" d="M245,298.8l0.2,0C245.2,298.9,245.2,298.9,245,298.8z"/>
			</g>
			<g>
				<path class="st32" d="M240.4,325.2L240.4,325.2L240.4,325.2C240.3,325.4,240.4,325.2,240.4,325.2z"/>
			</g>
			<g>
				<path class="st32" d="M214.1,345.7c-2.1-5-3.2-10.6-3.1-16.1c0-1.4,0.2-2.8,0.3-4.2l0-0.2l0,0c0,0-0.1,0.3,0-0.1l0,0l0-0.1
					l0.1-0.6l0.2-1.1c0.1-0.8,0.3-1.6,0.5-2.1c0.2-0.6,0.4-1.2,0.5-1.8c0.2-0.6,0.5-1.3,0.7-1.9c0.4-1.3,1.2-2.5,1.8-3.7
					c1.5-2.3,3.1-4.6,5.1-6.5c0.5-0.5,1-0.9,1.6-1.4c0.5-0.4,1-0.9,1.6-1.3l1.7-1.2l1.8-1c0.3-0.2,0.6-0.4,0.9-0.5l1-0.4
					c0.6-0.3,1.3-0.6,1.9-0.8l2-0.7c0.7-0.3,1.4-0.3,2-0.5c1.3-0.4,2.7-0.5,4.1-0.7c0.7,0,1.4,0,2.1-0.1l1,0l1,0.1l1,0.1l0.5,0
					l0.3,0l0.1,0c0,0,0.1,0,0.1,0l-0.2,0c0.2,0,0.2,0,0.2,0l2.2,0.4c0.4,0.1,0.7,0.2,1,0.2l0.9,0.3c0.6,0.1,1.2,0.4,1.8,0.6
					c2.5,1,4.8,2.4,6.8,4.2c4,3.6,6.7,8.5,7.6,13.8c0.1,0.7,0.2,1.3,0.2,2l0.1,2c0,0.7-0.1,1.3-0.1,2l0,0.5l0,0c0,0,0.1-0.3,0,0.1
					l0,0l0,0.1l0,0.3l-0.2,1.2c-0.4,2.3-1.4,4.7-2.9,6.8c-2.9,4.1-7.5,6.9-12.4,7.6c-0.3,0-0.6,0.1-0.9,0.1l-0.9,0
					c-0.6,0.1-1.2,0-1.8,0l-0.5,0l-0.2,0c0,0-0.3,0,0.1,0l-0.1,0l-1.1-0.2l-0.5-0.1l-0.4-0.1l-0.7-0.2c-2.2-0.7-4.2-1.9-5.8-3.5
					c-1.6-1.6-2.8-3.7-3.5-5.8c-0.3-1.1-0.5-2.2-0.6-3.3l0-0.8l0-0.8l0-0.4l0-0.1c0-0.2,0,0.1,0,0.1l0-0.3l0.2-1
					c0.1-0.3,0.1-0.5,0.2-0.7l0.1-0.3l0.1-0.4c0.1-0.2,0.2-0.5,0.3-0.7l0.3-0.7c0.5-0.9,1.1-1.8,1.8-2.5c1.4-1.5,3.3-2.6,5.3-3.1
					c1-0.3,2-0.4,3-0.4l0.8,0c0,0,0.2,0,0,0l0.1,0l0.2,0l0.5,0.1c0.4,0,0.5,0.1,0.7,0.1c0.2,0,0.4,0.1,0.6,0.2
					c1.8,0.6,3.3,1.8,4.4,3.3c1,1.6,1.6,3.4,1.5,5.2l0,0.3l0,0.2c0,0.1,0-0.2,0,0l0,0.1c0,0.3-0.1,0.6-0.1,0.8
					c-0.1,0.2-0.1,0.3-0.1,0.5l-0.2,0.6c-0.3,0.8-0.8,1.5-1.3,2.1c-1.1,1.2-2.7,2-4.3,2.2c-0.8,0.1-1.7,0.1-2.4-0.1
					c-0.7-0.2-1.4-0.5-2-1c-1.2-0.9-2-2.3-2.1-3.7c0-0.4-0.1-0.7,0-1.1l0-0.1l0,0.1c0,0,0,0.2,0-0.1v0l0,0l0.1-0.3l0.1-0.7
					c0.1-0.3,0.2-0.5,0.3-0.8c0.2-0.3,0.3-0.6,0.6-0.8c0.9-1,2.1-1.6,3.4-1.6l0.2,0l0.1,0l0.1,0c-0.2,0,0,0,0,0l0.6,0.1l0.3,0
					c0.1,0,0.1,0.1,0.2,0.1c0.1,0.1,0.2,0.1,0.4,0.1c0.2,0.1,0.5,0.3,0.7,0.5c0.2,0.2,0.5,0.4,0.6,0.6c0.7,0.9,0.9,2.1,0.7,3.1
					c-0.2,0.9-1,1.8-1.8,2.1c-0.4,0.2-0.9,0.3-1.3,0.3c0,0-0.2,0-0.1,0l-0.2,0l-0.4-0.1c-0.2-0.1-0.4-0.1-0.5-0.2
					c-0.7-0.4-1.2-1.1-1.3-1.7c-0.1-0.2-0.1-0.3-0.1-0.5c0-0.2,0-0.3,0-0.5c0-0.3,0.1-0.6,0.3-0.8c0.3-0.5,0.7-0.8,1-0.9
					c0.7-0.3,1.1-0.2,1.1-0.2c0,0-0.4-0.1-1.2,0.1c-0.4,0.1-0.8,0.4-1.2,0.9c-0.2,0.2-0.4,0.6-0.4,0.9c0,0.1-0.1,0.1-0.1,0.3l0,0.3
					c0,0.2,0,0.4,0,0.6c0.1,0.8,0.5,1.7,1.4,2.3c0.2,0.2,0.5,0.3,0.7,0.4l0.4,0.1l0.2,0c0.2,0,0.2,0,0.2,0c0.6,0.1,1.2,0,1.8-0.2
					c1.2-0.4,2.4-1.3,2.8-2.8c0.4-1.3,0.3-3-0.6-4.4c-0.2-0.4-0.5-0.7-0.8-1c-0.3-0.3-0.7-0.6-1.1-0.8l-0.7-0.3
					c-0.1,0-0.2-0.1-0.3-0.1l-0.3-0.1l-0.6-0.2c-0.1,0,0.1,0-0.2,0l-0.1,0l-0.2,0l-0.3,0c-1.8-0.1-3.8,0.5-5.3,1.9
					c-0.4,0.3-0.7,0.8-1,1.2c-0.3,0.5-0.5,1-0.8,1.6l-0.2,0.6l-0.1,0.3l0,0.1c0,0.1,0-0.1,0,0.2l0,0.2c-0.1,0.5-0.1,1.1-0.1,1.6
					c0.1,2.2,1.1,4.5,2.9,6.1c3.8,3.4,10,3,13.9-0.7c1-0.9,1.8-2,2.4-3.3l0.4-1c0.1-0.4,0.2-0.7,0.3-1.1c0.1-0.3,0.1-0.6,0.2-0.9
					l0-0.1c0,0.1,0-0.2,0-0.2l0-0.3l0.1-0.5c0.3-2.8-0.4-5.7-1.9-8.2c-1.5-2.5-3.9-4.7-6.8-5.8c-0.3-0.2-0.7-0.3-1.2-0.4
					c-0.4-0.1-0.9-0.3-1.1-0.3l-0.5-0.1l-0.2,0l-0.1,0c-0.3,0-0.2,0-0.3,0l-1.1-0.1c-0.8-0.1-1.5,0-2.3,0c-0.8,0.1-1.6,0.1-2.3,0.3
					c-3.1,0.6-6,2.2-8.4,4.4c-1.2,1.1-2.2,2.5-3,3.9l-0.6,1.1c-0.2,0.4-0.3,0.8-0.5,1.2c-0.3,0.7-0.6,1.8-0.8,2.6l-0.2,1l-0.1,0.3
					c0,0-0.1,0.4,0,0.3l0,0.2l-0.1,0.6l-0.1,1.2l0,1.2c0,1.7,0.3,3.3,0.7,5c0.9,3.3,2.6,6.4,4.9,9c2.4,2.6,5.4,4.6,8.8,5.8l1.4,0.4
					l0.7,0.2l0.5,0.1l1.1,0.2l0.1,0c0.4,0.1,0.2,0,0.4,0l0.3,0l0.7,0.1c0.9,0.1,1.7,0.2,2.6,0.1l1.3,0c0.4,0,0.9-0.1,1.3-0.1
					c7-0.8,13.8-4.6,18.2-10.5c2.2-3,3.7-6.4,4.5-10.2l0.2-1.2l0.1-0.3l0-0.1l0.1-0.4l0.1-0.7c0.1-0.9,0.2-1.8,0.2-2.7l-0.1-2.7
					c0-0.9-0.2-1.8-0.3-2.7c-1.1-7.2-4.7-14.1-10.2-19c-2.8-2.5-6-4.5-9.4-5.8c-0.9-0.3-1.7-0.7-2.7-1l-1.4-0.4
					c-0.5-0.1-1-0.3-1.3-0.3l-2.4-0.4c-0.5-0.1-0.2,0-0.4,0l-0.2,0l-0.3,0l-0.7-0.1l-1.4-0.1l-1.4-0.1l-1.4,0c-0.9,0-1.8,0-2.7,0.1
					c-1.8,0.2-3.6,0.4-5.3,0.9c-0.9,0.2-1.8,0.4-2.6,0.7l-2.6,0.9c-0.9,0.3-1.7,0.7-2.5,1.1l-1.2,0.6c-0.4,0.2-0.8,0.4-1.2,0.7
					c-3.2,1.7-6,4-8.6,6.4c-2.6,2.5-4.7,5.4-6.5,8.5c-0.8,1.6-1.7,3.1-2.3,4.8c-0.3,0.8-0.7,1.6-0.9,2.5c-0.3,0.9-0.5,1.8-0.7,2.7
					c-0.3,0.9-0.3,1.7-0.5,2.4l-0.2,1.2l-0.1,0.6l-0.1,0.5l0,0.3c-0.1,1.7-0.3,3.4-0.3,5.1c0,6.8,1.5,13.4,4.2,19.4
					c0.2,0.5,0.5,0.9,0.7,1.4c5.8,6.2,13.3,10.9,21.6,13.4C222.7,359.5,217.3,353.2,214.1,345.7z"/>
			</g>
			<g>
				<path class="st32" d="M265.6,324.7L265.6,324.7L265.6,324.7C265.7,324.4,265.6,324.8,265.6,324.7z"/>
			</g>
		</g>
		<g class="st5">
			<g>
				<path class="st1" d="M271.3,319.1c-3.1,20.7-22.4,35.1-43.1,32c-20.7-3.1-35.1-22.4-32-43.1c3.1-20.7,22.4-35.1,43.1-32
					C260.1,279,274.4,298.3,271.3,319.1z"/>
			</g>
		</g>
		<g class="st6">
			<g>
				<g>
					<path class="st1" d="M214.8,351.8c0,0-0.4-0.3-1-0.8c-0.6-0.6-1.5-1.4-2.5-2.7c-1-1.2-2.2-2.7-3.4-4.6
						c-1.2-1.9-2.4-4.1-3.4-6.7c-1-2.6-2-5.5-2.5-8.7c-0.2-0.8-0.3-1.6-0.4-2.4c-0.1-0.9-0.2-1.6-0.3-2.6c-0.1-1.6-0.2-3.1,0-5.1
						c0.2-3.7,0.8-7.3,2-10.9c1.2-3.6,2.9-7.1,5-10.3c2.1-3.2,4.7-6.1,7.6-8.6c1.5-1.2,3-2.3,4.9-3.3c1.7-0.9,3.4-1.6,5.1-2.2
						c6.7-2.3,13.4-2.8,18.9-2.3c2.8,0.2,5.3,0.7,7.4,1.3c2.2,0.5,4,1.3,5.4,1.9c1.5,0.6,2.5,1.2,3.3,1.6c0.7,0.4,1.1,0.6,1.1,0.6
						s-0.4-0.1-1.3-0.3c-0.8-0.2-2-0.4-3.5-0.7c-1.5-0.3-3.4-0.5-5.5-0.6c-2.1-0.1-4.5-0.1-7,0.1c-2.5,0.2-5.3,0.6-8.1,1.3
						c-2.8,0.7-5.7,1.6-8.5,2.8c-1.4,0.6-2.8,1.3-4.1,2.1c-1.2,0.7-2.4,1.7-3.5,2.7c-2.3,2.2-4.4,4.6-6.2,7.3
						c-1.8,2.7-3.3,5.6-4.4,8.6c-1.1,3-1.9,6.1-2.3,9c-0.3,1.4-0.3,3.1-0.4,4.7c0,0.5,0,1.4,0,2.1c0,0.7,0,1.5,0.1,2.2
						c0.1,2.9,0.5,5.6,1.1,8.1c1.1,5,2.7,9,4,11.8C213.8,350.3,214.8,351.8,214.8,351.8z"/>
				</g>
			</g>
		</g>
	</g>
</g>
</svg>
