<?xml version="1.0" encoding="utf-8"?>
<!-- Generator: Adobe Illustrator 23.0.3, SVG Export Plug-In . SVG Version: 6.00 Build 0)  -->
<svg version="1.1" id="Layer_1" xmlns="http://www.w3.org/2000/svg" xmlns:xlink="http://www.w3.org/1999/xlink" x="0px" y="0px"
	 viewBox="0 0 500 500" style="enable-background:new 0 0 500 500;" xml:space="preserve">
<style type="text/css">
	.st0{fill:#44CEE3;}
	.st1{fill:#FFFFFF;}
	.st2{fill:#F4628F;}
	.st3{fill:#E8EC3A;}
	.st4{fill:#97BB02;}
	.st5{opacity:0.2;}
	.st6{opacity:0.5;}
	.st7{fill:#9470D0;}
	.st8{fill:#F23D7A;}
	.st9{fill:#DA1160;}
	.st10{fill:#B2B1B1;}
	.st11{fill:#E2E1DE;}
	.st12{fill:#6332BA;}
	.st13{fill:#5420AE;}
	.st14{fill:#FFC300;}
	.st15{fill:#DDA507;}
	.st16{fill:#49D8E5;}
	.st17{fill:#64095D;}
	.st18{fill:#490748;}
	.st19{fill:#EA0446;}
	.st20{fill:#EEF443;}
	.st21{fill:#03C4DE;}
	.st22{fill:#492111;}
	.st23{fill:#00838C;}
	.st24{fill:#652A1F;}
	.st25{fill:#C09670;}
	.st26{fill:#EBE0AE;}
	.st27{fill:#4E1E14;}
	.st28{fill:#D9A24B;}
	.st29{fill:#FFEAC0;}
	.st30{fill:#CB2519;}
	.st31{fill:#43CEE3;}
	.st32{fill:#00B8D2;}
	.st33{fill:#FFBD17;}
	.st34{fill:#FFD901;}
	.st35{fill:#5E0084;}
	.st36{fill:#F978A3;}
	.st37{fill:#EC115F;}
	.st38{fill:#FF9900;}
	.st39{fill:#EDB107;}
	.st40{fill:#B90615;}
	.st41{fill:#E1E5D8;}
	.st42{fill:#DD3107;}
	.st43{fill:#CDD905;}
	.st44{fill:#B2B212;}
	.st45{fill:#EB024D;}
</style>
<g>
	<g>
		<path class="st7" d="M241,70.3c1.3-4.2,5.2-7.1,9.6-7.1c4.4,0,8.3,2.9,9.6,7.1c1.2,3.8,4.6,6.6,8.5,7c4,0.4,7.9-1.6,9.8-5.1
			c2.1-3.8,6.6-5.8,10.9-4.9c4.3,0.9,7.5,4.5,7.9,8.9c0.4,4,3.1,7.4,6.9,8.7c3.8,1.2,8,0.1,10.7-2.9c2.9-3.3,7.6-4.4,11.7-2.6
			c4,1.8,6.4,6,5.9,10.4c-0.5,4,1.5,7.9,5,9.9c3.5,2,7.8,1.8,11-0.7c3.5-2.6,8.4-2.7,11.9-0.1c3.6,2.6,5,7.2,3.6,11.4
			c-1.3,3.8-0.2,8,2.8,10.7c3,2.7,7.3,3.3,10.9,1.6c4-1.9,8.7-0.9,11.7,2.4c2.9,3.3,3.4,8.1,1.2,11.9c-2.1,3.5-1.9,7.8,0.5,11.1
			c2.4,3.3,6.4,4.8,10.4,3.9c4.3-1,8.7,1,10.9,4.8c2.2,3.8,1.7,8.6-1.3,11.9c-2.7,2.9-3.5,7.2-1.8,10.9c1.6,3.7,5.3,6,9.3,6
			c4.4-0.1,8.3,2.7,9.7,6.9c1.4,4.2-0.2,8.8-3.8,11.3c-3.3,2.3-4.9,6.4-4,10.3c0.8,3.9,3.9,7,7.9,7.8c4.3,0.9,7.6,4.4,8,8.8
			c0.5,4.4-2,8.6-6,10.3c-3.7,1.6-6.1,5.2-6.1,9.2c0,4,2.4,7.7,6.1,9.2c4.1,1.7,6.5,5.9,6,10.3c-0.5,4.4-3.7,8-8,8.8
			c-3.9,0.8-7,3.8-7.9,7.8c-0.8,3.9,0.8,8,4,10.3c3.6,2.5,5.1,7.1,3.8,11.3c-1.4,4.2-5.3,7-9.7,6.9c-4-0.1-7.7,2.3-9.3,6
			c-1.6,3.7-0.9,8,1.8,10.9c3,3.2,3.5,8,1.3,11.9c-2.2,3.8-6.6,5.8-10.9,4.8c-3.9-0.9-8,0.6-10.4,3.9c-2.4,3.3-2.6,7.6-0.5,11.1
			c2.3,3.8,1.8,8.6-1.2,11.9c-2.9,3.3-7.7,4.2-11.7,2.4c-3.7-1.7-8-1-10.9,1.6c-3,2.7-4.1,6.9-2.8,10.7c1.4,4.2,0,8.8-3.6,11.4
			c-3.6,2.6-8.4,2.6-11.9-0.1c-3.2-2.4-7.6-2.7-11-0.7c-3.5,2-5.4,5.9-5,9.9c0.5,4.4-1.9,8.6-5.9,10.4c-4,1.8-8.8,0.8-11.7-2.6
			c-2.6-3-6.8-4.2-10.7-2.9c-3.8,1.2-6.5,4.6-6.9,8.7c-0.4,4.4-3.6,8-7.9,8.9c-4.3,0.9-8.7-1.1-10.9-4.9c-2-3.5-5.8-5.5-9.8-5.1
			c-4,0.4-7.4,3.2-8.5,7c-1.3,4.2-5.2,7.1-9.6,7.1c-4.4,0-8.3-2.9-9.6-7.1c-1.2-3.8-4.5-6.6-8.5-7c-4-0.4-7.9,1.6-9.8,5.1
			c-2.1,3.8-6.5,5.8-10.9,4.9c-4.3-0.9-7.5-4.5-7.9-8.9c-0.4-4-3.1-7.4-6.9-8.7c-3.8-1.2-8-0.1-10.7,2.9c-2.9,3.3-7.6,4.4-11.6,2.6
			c-4-1.8-6.4-6-5.9-10.4c0.5-4-1.5-7.9-5-9.9c-3.5-2-7.8-1.7-11,0.7c-3.5,2.6-8.4,2.7-11.9,0.1c-3.6-2.6-5-7.2-3.6-11.4
			c1.3-3.8,0.2-8-2.8-10.7c-3-2.7-7.3-3.3-10.9-1.6c-4,1.9-8.7,0.9-11.7-2.4c-2.9-3.3-3.4-8.1-1.2-11.9c2.1-3.5,1.9-7.8-0.5-11.1
			c-2.4-3.3-6.4-4.8-10.4-3.9c-4.3,1-8.7-1-10.9-4.8c-2.2-3.8-1.7-8.6,1.3-11.9c2.7-2.9,3.4-7.2,1.8-10.9c-1.6-3.7-5.3-6-9.3-6
			c-4.4,0.1-8.3-2.7-9.7-6.9c-1.4-4.2,0.2-8.8,3.8-11.3c3.3-2.3,4.9-6.4,4-10.3c-0.8-3.9-3.9-7-7.9-7.8c-4.3-0.9-7.6-4.4-8-8.8
			c-0.5-4.4,2-8.6,6-10.3c3.7-1.6,6.1-5.2,6.1-9.2c0-4-2.4-7.7-6.1-9.2c-4.1-1.7-6.5-5.9-6-10.3c0.5-4.4,3.7-8,8-8.8
			c3.9-0.8,7-3.8,7.9-7.8c0.8-3.9-0.8-8-4-10.3c-3.6-2.5-5.1-7.1-3.8-11.3c1.4-4.2,5.3-7,9.7-6.9c4,0.1,7.7-2.3,9.3-6
			c1.6-3.7,0.9-8-1.8-10.9c-3-3.2-3.5-8-1.3-11.9c2.2-3.8,6.6-5.8,10.9-4.8c3.9,0.9,8-0.6,10.4-3.9c2.4-3.3,2.6-7.6,0.5-11.1
			c-2.3-3.8-1.8-8.6,1.2-11.9c2.9-3.3,7.7-4.2,11.7-2.4c3.6,1.7,8,1,10.9-1.6c3-2.7,4.1-6.9,2.8-10.7c-1.4-4.2,0-8.8,3.6-11.4
			c3.6-2.6,8.4-2.6,11.9,0.1c3.2,2.4,7.6,2.7,11,0.7c3.5-2,5.4-5.9,5-9.9c-0.5-4.4,1.9-8.6,5.9-10.4c4-1.8,8.7-0.8,11.6,2.6
			c2.6,3,6.8,4.2,10.7,2.9c3.8-1.2,6.5-4.6,6.9-8.7c0.4-4.4,3.6-8,7.9-8.9c4.3-0.9,8.7,1.1,10.9,4.9c2,3.5,5.8,5.5,9.8,5.1
			C236.5,76.9,239.8,74.2,241,70.3z"/>
	</g>
	<g>
		<path class="st1" d="M243.9,93.3c1.1-3.7,4.5-6.1,8.3-6.1c3.8,0,7.2,2.5,8.3,6.1c1,3.3,3.9,5.7,7.4,6.1c3.5,0.4,6.8-1.4,8.5-4.4
			c1.9-3.3,5.7-5.1,9.4-4.3c3.7,0.8,6.5,3.9,6.9,7.7c0.3,3.5,2.7,6.4,6,7.5c3.3,1.1,7,0.1,9.3-2.6c2.5-2.9,6.6-3.8,10.1-2.2
			c3.5,1.6,5.6,5.2,5.1,9c-0.4,3.5,1.3,6.8,4.3,8.6c3,1.7,6.8,1.5,9.6-0.6c3.1-2.3,7.3-2.3,10.4-0.1c3.1,2.2,4.4,6.3,3.1,9.9
			c-1.1,3.3-0.2,7,2.4,9.3c2.6,2.3,6.3,2.9,9.5,1.4c3.5-1.6,7.6-0.8,10.1,2.1c2.6,2.8,3,7,1,10.3c-1.8,3-1.6,6.8,0.4,9.6
			c2.1,2.8,5.6,4.2,9,3.4c3.7-0.9,7.6,0.8,9.5,4.1c1.9,3.3,1.4,7.5-1.2,10.3c-2.4,2.6-3,6.3-1.6,9.5c1.4,3.2,4.6,5.2,8.1,5.2
			c3.8-0.1,7.2,2.4,8.4,6c1.2,3.6-0.1,7.6-3.3,9.8c-2.9,2-4.2,5.5-3.5,8.9c0.7,3.4,3.4,6.1,6.8,6.7c3.8,0.7,6.6,3.8,7,7.6
			c0.4,3.8-1.7,7.4-5.2,8.9c-3.2,1.4-5.3,4.5-5.3,8c0,3.5,2.1,6.6,5.3,8c3.5,1.5,5.6,5.1,5.2,8.9c-0.4,3.8-3.2,6.9-7,7.6
			c-3.4,0.7-6.1,3.3-6.8,6.7c-0.7,3.4,0.7,6.9,3.5,8.9c3.1,2.2,4.5,6.2,3.3,9.8c-1.2,3.6-4.6,6.1-8.4,6c-3.5-0.1-6.7,2-8.1,5.2
			c-1.4,3.2-0.8,6.9,1.6,9.5c2.6,2.8,3.1,7,1.2,10.3c-1.9,3.3-5.8,5-9.5,4.1c-3.4-0.8-6.9,0.6-9,3.4c-2.1,2.8-2.2,6.6-0.4,9.6
			c2,3.3,1.6,7.5-1,10.3c-2.6,2.8-6.7,3.7-10.1,2.1c-3.2-1.5-6.9-0.9-9.5,1.4c-2.6,2.3-3.5,6-2.4,9.3c1.2,3.6,0,7.6-3.1,9.9
			c-3.1,2.2-7.3,2.2-10.4-0.1c-2.8-2.1-6.6-2.3-9.6-0.6c-3,1.7-4.7,5.1-4.3,8.6c0.5,3.8-1.6,7.4-5.1,9c-3.5,1.6-7.6,0.7-10.1-2.2
			c-2.3-2.6-5.9-3.6-9.3-2.6c-3.3,1.1-5.7,4-6,7.5c-0.3,3.8-3.1,6.9-6.9,7.7c-3.7,0.8-7.6-0.9-9.4-4.3c-1.7-3-5.1-4.8-8.5-4.4
			c-3.5,0.4-6.4,2.8-7.4,6.1c-1.1,3.7-4.5,6.1-8.3,6.1c-3.8,0-7.2-2.5-8.3-6.1c-1-3.3-3.9-5.7-7.4-6.1c-3.5-0.4-6.8,1.4-8.5,4.4
			c-1.9,3.3-5.7,5.1-9.4,4.3c-3.7-0.8-6.5-3.9-6.9-7.7c-0.3-3.5-2.7-6.4-6-7.5c-3.3-1.1-7-0.1-9.3,2.6c-2.5,2.9-6.6,3.8-10.1,2.2
			c-3.5-1.6-5.6-5.2-5.1-9c0.4-3.5-1.3-6.8-4.3-8.6c-3-1.7-6.8-1.5-9.6,0.6c-3.1,2.3-7.3,2.3-10.4,0.1c-3.1-2.2-4.4-6.3-3.1-9.9
			c1.1-3.3,0.2-7-2.4-9.3c-2.6-2.3-6.3-2.9-9.5-1.4c-3.5,1.6-7.6,0.8-10.1-2.1c-2.6-2.8-3-7-1-10.3c1.8-3,1.6-6.8-0.4-9.6
			c-2.1-2.8-5.6-4.2-9-3.4c-3.7,0.9-7.6-0.8-9.5-4.1c-1.9-3.3-1.4-7.5,1.2-10.3c2.4-2.6,3-6.3,1.6-9.5c-1.4-3.2-4.6-5.2-8.1-5.2
			c-3.8,0.1-7.2-2.4-8.4-6c-1.2-3.6,0.1-7.6,3.3-9.8c2.9-2,4.2-5.5,3.5-8.9c-0.7-3.4-3.4-6.1-6.8-6.7c-3.8-0.7-6.6-3.8-7-7.6
			c-0.4-3.8,1.7-7.4,5.2-8.9c3.2-1.4,5.3-4.5,5.3-8c0-3.5-2.1-6.6-5.3-8c-3.5-1.5-5.6-5.1-5.2-8.9c0.4-3.8,3.2-6.9,7-7.6
			c3.4-0.7,6.1-3.3,6.8-6.7c0.7-3.4-0.7-6.9-3.5-8.9c-3.1-2.2-4.5-6.2-3.3-9.8c1.2-3.6,4.6-6.1,8.4-6c3.5,0.1,6.7-2,8.1-5.2
			c1.4-3.2,0.8-6.9-1.6-9.5c-2.6-2.8-3.1-7-1.2-10.3c1.9-3.3,5.8-5,9.5-4.1c3.4,0.8,6.9-0.6,9-3.4c2.1-2.8,2.2-6.6,0.4-9.6
			c-2-3.3-1.6-7.5,1-10.3c2.6-2.8,6.7-3.7,10.1-2.1c3.2,1.5,6.9,0.9,9.5-1.4c2.6-2.3,3.5-6,2.4-9.3c-1.2-3.6,0-7.6,3.1-9.9
			c3.1-2.2,7.3-2.2,10.4,0.1c2.8,2.1,6.6,2.3,9.6,0.6c3-1.7,4.7-5.1,4.3-8.6c-0.5-3.8,1.6-7.4,5.1-9c3.5-1.6,7.6-0.7,10.1,2.2
			c2.3,2.6,5.9,3.6,9.3,2.6c3.3-1.1,5.7-4,6-7.5c0.3-3.8,3.1-6.9,6.9-7.7c3.7-0.8,7.6,0.9,9.4,4.3c1.7,3,5.1,4.8,8.5,4.4
			C239.9,99,242.8,96.6,243.9,93.3z"/>
	</g>
	<g>
		<path class="st8" d="M13.4,381.5c45-7.1,90.8-7.1,135.7,0c4.5-28.2,8.9-56.4,13.4-84.5c-53.8-8.5-108.7-8.5-162.5,0
			c14.5,12.1,28.1,24.9,40.6,38.1C30.5,350.3,21.4,365.8,13.4,381.5z"/>
	</g>
	<g>
		<polygon class="st9" points="149.1,381.5 149.1,350.5 82.3,350.5 		"/>
	</g>
	<g>
		<path class="st8" d="M486.6,380.9c-45-7.1-90.8-7.1-135.7,0c-4.5-28.2-8.9-56.4-13.4-84.5c53.8-8.5,108.7-8.5,162.5,0
			c-14.5,12.1-28.1,24.9-40.6,38.1C469.5,349.7,478.6,365.2,486.6,380.9z"/>
	</g>
	<g>
		<polygon class="st9" points="350.9,380.9 350.9,350 417.7,350 		"/>
	</g>
	<g>
		<g>
			<g>
				<g>
					<g>
						<path class="st10" d="M255.7,343.9c-1.5,0.3-3.2,0.2-4.8-0.4c-4.8-1.8-7.3-7.1-5.6-11.9l25.9-70.1c1.8-4.8,7.1-7.3,11.9-5.6
							c4.8,1.8,7.3,7.1,5.6,11.9l-25.9,70.1C261.7,341.1,258.9,343.3,255.7,343.9z"/>
					</g>
				</g>
			</g>
			<g>
				<g>
					<g>
						<path class="st11" d="M250,339.5c-0.7,0.1-1.4,0.1-2-0.2c-2.1-0.8-3.1-3-2.4-5.1l25.9-70.1c0.8-2.1,3-3.1,5.1-2.4
							c2.1,0.8,3.1,3,2.4,5.1l-25.9,70.1C252.6,338.3,251.4,339.2,250,339.5z"/>
					</g>
				</g>
			</g>
			<g>
				<g>
					<g>
						<path class="st12" d="M347.7,206.9c10.7,22.5,1.6,51-17.3,67.1c-14.8,10.3-32,14.5-49.2,11.1c-29.7-8.9-50.4-39.8-43-70.5
							c3.6-16,13.9-30.6,29.1-38.3c26-12.2,60.7-4.2,75.2,20.3C344.5,199.8,346.3,203.3,347.7,206.9z"/>
					</g>
				</g>
			</g>
			<g>
				<g>
					<g>
						<path class="st13" d="M354.3,252.7c-2.8,7.9-12.1,11.7-20.7,8.7l-89.8-32.2c-8.6-3.1-13.3-11.9-10.5-19.8l1.7-4.7
							c2.8-7.9,12.1-11.7,20.7-8.7l89.8,32.2c8.6,3.1,13.3,11.9,10.5,19.8L354.3,252.7z"/>
					</g>
				</g>
			</g>
			<g class="st5">
				<g>
					<g>
						<path class="st1" d="M329.6,242.8c-2.2,6.2-9.5,9.2-16.3,6.8l-70.7-25.3c-6.8-2.4-10.4-9.4-8.2-15.6l1.3-3.7
							c2.2-6.2,9.5-9.2,16.3-6.8l70.7,25.3c6.8,2.4,10.4,9.4,8.2,15.6L329.6,242.8z"/>
					</g>
				</g>
			</g>
			<g class="st5">
				<g>
					<path class="st1" d="M252.1,192.5c0,0,17.9-19.4,45.4-17.9c27.4,1.5,40,19.2,40.4,22.8C338.2,200.9,324.2,219.6,252.1,192.5z"
						/>
				</g>
			</g>
			<g class="st6">
				<g>
					<g>
						<path class="st1" d="M255.7,193.9c0,0,0.5-1,1.8-2.6c0.6-0.8,1.4-1.8,2.4-2.8c1-1,2.1-2.2,3.5-3.2c1.3-1.2,2.9-2.2,4.6-3.4
							c1.8-1,3.5-2.2,5.6-3c1-0.4,2-0.9,3.1-1.3c1.1-0.4,2.2-0.7,3.3-1.1c1.1-0.4,2.2-0.7,3.4-0.9l3.5-0.7c2.3-0.3,4.7-0.4,7-0.6
							c2.3,0,4.6,0.2,6.8,0.3c2.2,0.3,4.3,0.7,6.2,1.1c2,0.4,3.7,1.1,5.4,1.6c1.7,0.5,3.2,1,4.4,1.7c1.3,0.6,2.4,1.1,3.3,1.6
							c1.8,0.9,2.8,1.5,2.8,1.5s-1.2-0.2-3.1-0.5c-1-0.2-2.2-0.4-3.5-0.7c-1.3-0.3-2.9-0.5-4.5-0.7c-1.7-0.2-3.5-0.5-5.3-0.7
							c-1.9-0.1-3.9-0.2-5.9-0.4c-2.1,0-4.2,0.1-6.3,0.1c-2.1,0.2-4.3,0.4-6.4,0.7l-3.2,0.6c-1.1,0.2-2.1,0.4-3.1,0.7
							c-1,0.3-2.1,0.6-3.1,0.8c-1,0.3-2,0.7-2.9,1c-2,0.6-3.7,1.5-5.5,2.2c-1.7,0.9-3.3,1.6-4.8,2.4
							C259.3,190.9,255.7,193.9,255.7,193.9z"/>
					</g>
				</g>
			</g>
			<g class="st6">
				<g>
					<g>
						<path class="st1" d="M291.5,219.1c0,0-3.9-1-9.6-2.8c-2.9-0.9-6.2-1.9-9.7-3.1c-3.5-1.1-7.3-2.3-11-3.4
							c-1.9-0.6-3.7-1.1-5.6-1.6c-1.8-0.5-3.6-1-5.4-1.3c-1.8-0.3-3.5-0.7-5.1-0.8c-1.6-0.2-3.1-0.2-4.5-0.2
							c-1.4,0.1-2.6,0.3-3.5,0.8c-1,0.4-1.8,1-2.3,1.6c-0.2,0.3-0.5,0.6-0.7,0.9c-0.2,0.3-0.3,0.5-0.4,0.7c-0.2,0.4-0.3,0.6-0.3,0.6
							s0-0.3,0.1-0.7c0-0.5,0.1-1.2,0.5-2.1c0.3-0.9,1-1.9,2.1-2.8c0.5-0.5,1.2-0.8,1.8-1.2c0.7-0.3,1.4-0.6,2.2-0.8
							c1.6-0.4,3.3-0.8,5.1-0.8c1.8-0.1,3.7,0,5.7,0.2c1.9,0.2,3.9,0.5,5.9,1c2,0.4,3.9,1,5.9,1.5c1.9,0.6,3.9,1.2,5.7,1.9
							c1.9,0.7,3.7,1.5,5.4,2.2c3.5,1.5,6.6,3.1,9.2,4.6C288.4,216.6,291.5,219.1,291.5,219.1z"/>
					</g>
				</g>
			</g>
		</g>
		<g>
			<g>
				<g>
					<g>
						<g>
							<path class="st10" d="M274.5,358c-0.9,1.3-2.1,2.5-3.6,3.3c-4.7,2.4-10.4,0.5-12.8-4.1l-57.2-115.4
								c-2.4-4.7-0.5-10.4,4.1-12.8c4.7-2.4,10.4-0.5,12.8,4.1L275,348.5C276.6,351.6,276.3,355.2,274.5,358z"/>
						</g>
					</g>
				</g>
			</g>
			<g>
				<g>
					<g>
						<g>
							<path class="st11" d="M267.3,359.2c-0.4,0.6-0.9,1.1-1.6,1.4c-2,1-4.5,0.2-5.5-1.8L203,243.5c-1-2-0.2-4.5,1.8-5.5
								c2-1,4.5-0.2,5.5,1.8l57.2,115.4C268.2,356.5,268,358,267.3,359.2z"/>
						</g>
					</g>
				</g>
			</g>
			<g>
				<g>
					<g>
						<g>
							<path class="st14" d="M213.4,146.7c24.3,7.7,39.2,34.3,38,59.6c-2.7,18.2-11.4,34-26,44.6c-27.3,16-64.9,10-82.6-16.9
								c-9.4-13.8-13.2-31.6-8.3-48.4c9-27.9,39.1-48.3,67.5-42.1C205.9,144.2,209.7,145.3,213.4,146.7z"/>
						</g>
					</g>
				</g>
			</g>
			<g>
				<g>
					<g>
						<g>
							<path class="st15" d="M252.2,173.7c3.9,7.6,0.4,17.2-7.9,21.5L157.7,240c-8.3,4.3-18.2,1.6-22.1-6l-2.4-4.6
								c-3.9-7.6-0.4-17.2,7.9-21.5l86.6-44.8c8.3-4.3,18.2-1.6,22.1,6L252.2,173.7z"/>
						</g>
					</g>
				</g>
			</g>
			<g class="st5">
				<g>
					<g>
						<g>
							<path class="st1" d="M227.6,185.2c3.1,6,0.3,13.5-6.2,16.9l-68.2,35.2c-6.5,3.4-14.3,1.3-17.4-4.7l-1.9-3.6
								c-3.1-6-0.3-13.5,6.2-16.9l68.2-35.2c6.5-3.4,14.3-1.3,17.4,4.7L227.6,185.2z"/>
						</g>
					</g>
				</g>
			</g>
			<g class="st5">
				<g>
					<g>
						<path class="st1" d="M136,208.2c0,0-2-26.9,18.2-46.4c20.3-19.5,42.2-16.6,45.1-14.4C202.3,149.7,206.5,173.1,136,208.2z"/>
					</g>
				</g>
			</g>
			<g class="st6">
				<g>
					<g>
						<g>
							<path class="st1" d="M139.6,206.4c0,0-0.4-1.1-0.7-3.2c-0.1-1-0.3-2.3-0.4-3.7c-0.1-1.4-0.1-3.1,0-4.9c0-1.8,0.4-3.7,0.7-5.8
								c0.5-2,0.8-4.2,1.7-6.3c0.4-1.1,0.7-2.2,1.2-3.3c0.5-1.1,1-2.1,1.5-3.2c0.5-1.1,1.1-2.1,1.7-3.2l1.9-3.1
								c1.4-1.9,3-3.8,4.5-5.7c1.6-1.7,3.3-3.3,5-4.8c1.8-1.4,3.5-2.7,5.2-3.9c1.7-1.2,3.4-2.1,5-2.9c1.5-0.9,3-1.7,4.3-2.2
								c1.3-0.6,2.5-1,3.5-1.4c1.9-0.7,3-1.1,3-1.1s-0.9,0.8-2.5,2c-0.8,0.6-1.8,1.4-2.9,2.2c-1.2,0.8-2.4,1.8-3.7,2.9
								c-1.3,1.1-2.8,2.2-4.2,3.5c-1.4,1.4-2.8,2.8-4.4,4.2c-1.4,1.5-2.8,3.2-4.3,4.8c-1.3,1.7-2.7,3.5-4,5.3l-1.8,2.8
								c-0.6,0.9-1.2,1.9-1.7,2.8c-0.5,1-1,1.9-1.5,2.9c-0.5,1-0.9,1.9-1.3,2.9c-0.9,1.9-1.5,3.8-2.2,5.6c-0.5,1.9-1.2,3.6-1.5,5.2
								C139.8,201.7,139.6,206.4,139.6,206.4z"/>
						</g>
					</g>
				</g>
			</g>
			<g class="st6">
				<g>
					<g>
						<g>
							<path class="st1" d="M183.4,197.2c0,0-3.5,2.3-8.8,5.3c-2.6,1.5-5.7,3.3-9,5.1c-3.3,1.8-6.8,3.8-10.2,5.8
								c-1.7,1-3.4,2-5.1,3.1c-1.6,1.1-3.3,2.1-4.8,3.1c-1.5,1.1-2.9,2.1-4.2,3.2c-1.3,1.1-2.3,2.2-3.2,3.2
								c-0.9,1.1-1.5,2.2-1.9,3.2c-0.3,1-0.5,2-0.4,2.8c0.1,0.4,0.1,0.8,0.2,1.1c0.1,0.3,0.2,0.6,0.3,0.8c0.2,0.5,0.3,0.7,0.3,0.7
								s-0.2-0.2-0.5-0.6c-0.3-0.4-0.8-0.9-1.2-1.8c-0.4-0.9-0.7-2.1-0.6-3.5c0-0.7,0.2-1.4,0.4-2.2c0.3-0.7,0.5-1.5,0.9-2.2
								c0.8-1.5,1.8-3,3-4.4c1.2-1.4,2.6-2.8,4.1-4.1c1.5-1.3,3.1-2.6,4.8-3.7c1.7-1.2,3.5-2.3,5.2-3.3c1.8-1,3.6-2,5.4-2.9
								c1.8-0.9,3.7-1.7,5.4-2.5c3.5-1.5,6.9-2.8,9.9-3.7C179.3,197.8,183.4,197.2,183.4,197.2z"/>
						</g>
					</g>
				</g>
			</g>
		</g>
	</g>
	<g>
		<path class="st2" d="M444.2,345.8c-126.5,41.1-262.8,41.1-389.4,0c8.8-27.1,17.6-54.3,26.4-81.4c109.3,35.5,227.1,35.5,336.5,0
			C426.6,291.5,435.4,318.6,444.2,345.8z"/>
	</g>
	<g>
		<g>
			<path class="st1" d="M165.3,332.8c-1,1.6-2,2.9-3,3.7c-1,0.9-1.9,1.5-2.8,1.9c-0.9,0.4-1.7,0.6-2.5,0.6c-0.8,0-1.5-0.1-2.1-0.2
				c-1-0.2-1.9-0.6-2.5-1c-0.6-0.4-1.1-0.9-1.4-1.5c-0.3-0.5-0.5-1.1-0.6-1.7c-0.1-0.6,0-1.2,0.1-1.8c0.2-0.7,0.5-1.5,0.9-2.4
				c0.4-0.9,0.9-1.8,1.4-2.8c0.5-0.9,1-1.9,1.4-2.7c0.4-0.9,0.7-1.7,0.9-2.3c0.3-1.4,0-2.3-1.1-2.5c-0.4-0.1-0.8-0.1-1.2,0
				c-0.4,0.1-0.8,0.3-1.1,0.6c-0.4,0.3-0.7,0.6-1,1c-0.3,0.4-0.6,0.8-0.9,1.2c-0.8,1.8-1.8,3.7-2.8,5.9c-1,2.1-2.2,4.5-3.4,7.2
				c-2.2-0.6-4.4-1.2-6.7-1.8c4.5-8.3,8.9-16.7,13.2-25.1c-0.9-0.3-1.8-0.6-2.7-1c-0.9-0.4-1.9-0.8-2.8-1.2
				c-4.5,8.6-9.2,17.1-14,25.6c-2.2-0.6-4.4-1.3-6.6-2c5-8.5,9.8-17.1,14.5-25.7c-1.2-0.3-2.4-0.5-3.5-0.5c-1.1,0-2.2,0.1-3.2,0.5
				c-1,0.4-1.8,1.1-2.6,2c-0.8,0.9-1.4,2.2-1.9,3.8c-0.2,0.5-0.3,1-0.3,1.3c0,0.4-0.1,0.6,0,0.9c0,0.2,0,0.4,0.1,0.5
				c0,0.1,0,0.2,0,0.3c-0.8-0.2-1.4-0.5-2-0.8c-0.5-0.3-1-0.7-1.3-1.1c-0.3-0.4-0.5-0.9-0.5-1.5c0-0.6,0.1-1.2,0.3-2
				c0.4-1.4,1.2-2.6,2.2-3.7c1-1.1,2.3-2,3.8-2.6c1.5-0.6,3.3-0.9,5.4-1c2.1,0,4.4,0.3,7.1,1.1c0.5,0.1,1.1,0.4,2,0.7
				c0.8,0.4,1.8,0.7,2.8,1.1c1,0.4,2.1,0.8,3.2,1.2c1.1,0.4,2.2,0.8,3.3,1c1.1,0.3,2,0.4,3,0.5c0.9,0.1,1.8,0,2.5-0.3
				c-0.2,0.3-0.5,0.5-0.7,0.8c-0.2,0.3-0.5,0.6-0.7,0.9c-0.3,0.4-0.5,0.8-0.8,1.3c-0.3,0.5-0.7,1.2-1.1,2c-0.4,0.8-0.9,1.7-1.5,2.8
				c-0.5,1.1-1.2,2.4-1.9,3.9c0.6-0.4,1.2-0.7,1.7-0.9c0.6-0.2,1.1-0.3,1.6-0.4c0.5-0.1,1-0.1,1.4,0c0.4,0,0.8,0.1,1.2,0.2
				c0.7,0.2,1.3,0.4,1.9,0.7c0.6,0.3,1,0.7,1.4,1.2c0.4,0.5,0.6,1.1,0.7,1.7c0.1,0.7,0.1,1.4-0.1,2.3c-0.1,0.6-0.3,1.2-0.6,1.8
				c-0.3,0.6-0.5,1.3-0.8,1.9c-0.3,0.6-0.6,1.3-1,1.9c-0.3,0.6-0.7,1.2-1,1.8c-0.3,0.6-0.6,1.1-0.8,1.6c-0.2,0.5-0.4,1-0.5,1.4
				c-0.1,0.5-0.1,1,0.1,1.4c0.2,0.4,0.6,0.7,1.4,0.8c0.5,0.1,1,0.1,1.4,0c0.4-0.1,0.8-0.3,1.2-0.5c0.4-0.3,0.7-0.6,1.1-1
				c0.3-0.4,0.7-0.9,1.1-1.4C164,332.6,164.7,332.7,165.3,332.8z"/>
		</g>
		<g>
			<path class="st1" d="M177.5,336.8c-0.5,1.2-1,2.2-1.7,2.9c-0.7,0.7-1.4,1.3-2.2,1.6c-0.8,0.4-1.7,0.6-2.6,0.6
				c-0.9,0-1.8,0-2.8-0.2c-1.1-0.2-2.1-0.5-2.9-1c-0.8-0.4-1.5-1-2-1.7c-0.5-0.7-0.9-1.5-1-2.4c-0.2-0.9-0.1-2,0.1-3.2
				c0.2-0.8,0.5-1.7,0.9-2.8c0.4-1,0.9-2.1,1.5-3.1c0.6-1,1.4-2,2.2-3c0.9-0.9,1.8-1.8,2.9-2.4c1.1-0.7,2.2-1.2,3.5-1.5
				c1.3-0.3,2.7-0.3,4.2,0c1,0.2,1.8,0.4,2.4,0.8c0.6,0.3,1,0.7,1.3,1.2c0.3,0.4,0.5,0.9,0.5,1.4c0.1,0.5,0,1,0,1.6
				c-0.2,1.2-0.7,2.3-1.4,3.3c-0.8,1-1.7,1.8-2.8,2.4c-1.1,0.6-2.3,1.1-3.7,1.3c-1.4,0.3-2.7,0.3-4.1,0.1c-0.1,0.2-0.1,0.5-0.2,0.7
				c-0.1,0.2-0.1,0.4-0.2,0.6c-0.1,0.7-0.2,1.3-0.1,1.7c0.1,0.5,0.2,0.9,0.4,1.2c0.2,0.3,0.5,0.6,0.8,0.7c0.3,0.2,0.7,0.3,1.1,0.4
				c0.5,0.1,0.9,0.1,1.5,0.1c0.5,0,1-0.1,1.5-0.2c0.5-0.1,1-0.3,1.5-0.5C176.7,337.2,177.1,337,177.5,336.8z M170.5,330.7
				c0.9,0.1,1.8,0.1,2.6-0.2c0.9-0.3,1.7-0.7,2.4-1.2c0.7-0.5,1.4-1.2,1.9-2c0.5-0.8,0.8-1.6,1-2.5c0.1-0.5,0.1-1,0-1.3
				c-0.1-0.3-0.4-0.6-0.8-0.6c-0.6-0.1-1.2,0.1-1.8,0.5c-0.6,0.4-1.3,1-1.9,1.8c-0.6,0.8-1.2,1.6-1.8,2.6
				C171.5,328.8,171,329.8,170.5,330.7z"/>
		</g>
		<g>
			<path class="st1" d="M198,316.3c2.2,0,4.4,0,6.6-0.1c-1.1,3.2-2.2,6.3-3.3,9.4c0.5-0.2,0.9-0.4,1.3-0.5c0.4-0.1,0.7-0.2,1-0.3
				c0.3-0.1,0.6-0.1,0.8-0.1c0.2,0,0.5,0,0.7,0c0.8,0.1,1.5,0.3,2.1,0.6c0.6,0.3,1.1,0.8,1.6,1.4c0.4,0.6,0.7,1.4,0.9,2.4
				c0.2,1,0.2,2.1,0.1,3.5c-0.1,0.8-0.3,1.8-0.5,2.8c-0.3,1-0.7,2.1-1.2,3.1c-0.5,1-1.1,2-1.9,3s-1.7,1.8-2.7,2.5
				c-1,0.7-2.2,1.2-3.6,1.5c-1.3,0.3-2.9,0.4-4.5,0.2c-2.2-0.3-3.8-1-4.7-2.1c-1-1.1-1.3-2.5-1.1-4.3c0.1-0.4,0.1-0.8,0.2-1.2
				c0.1-0.4,0.2-0.8,0.4-1.2C192.9,330.2,195.5,323.3,198,316.3z M196.6,338.9c-0.1,0.4-0.2,0.7-0.3,1c-0.2,1.3,0.6,2.1,2.2,2.3
				c0.5,0.1,1,0,1.5-0.3c0.5-0.3,1-0.6,1.5-1.1c0.5-0.5,0.9-1.1,1.3-1.7c0.4-0.7,0.8-1.4,1.1-2.1c0.3-0.8,0.6-1.5,0.8-2.3
				c0.2-0.8,0.4-1.6,0.4-2.3c0.1-0.5,0.1-1,0-1.5c0-0.5-0.1-1-0.3-1.4c-0.2-0.4-0.4-0.8-0.6-1c-0.3-0.3-0.6-0.4-1-0.5
				c-0.2,0-0.4,0-0.6,0c-0.3,0-0.5,0-0.8,0c-0.3,0-0.5,0.1-0.8,0.2c-0.2,0.1-0.4,0.2-0.6,0.3C199.2,331.8,197.9,335.3,196.6,338.9z"
				/>
		</g>
		<g>
			<path class="st1" d="M230.3,340.9c-0.7,1-1.5,1.9-2.4,2.9c-0.9,0.9-1.9,1.7-3,2.4c-1.1,0.7-2.3,1.2-3.7,1.6
				c-1.3,0.4-2.8,0.5-4.3,0.4c-1.1-0.1-2.1-0.3-3-0.6c-0.9-0.3-1.6-0.8-2.2-1.4c-0.6-0.6-1-1.4-1.3-2.3c-0.3-0.9-0.3-2-0.2-3.2
				c0.1-0.8,0.3-1.8,0.5-2.8c0.3-1.1,0.7-2.1,1.2-3.3c0.5-1.1,1.1-2.2,1.8-3.2c0.7-1,1.6-2,2.6-2.7c1-0.8,2.1-1.4,3.3-1.8
				c1.2-0.4,2.6-0.6,4.2-0.5c1,0.1,1.8,0.2,2.4,0.5c0.6,0.3,1.1,0.6,1.5,1c0.4,0.4,0.6,0.9,0.7,1.4c0.1,0.5,0.2,1,0.1,1.6
				c-0.1,1.3-0.4,2.4-1.1,3.5c-0.6,1-1.5,1.9-2.5,2.7c-1,0.7-2.2,1.3-3.5,1.7c-1.3,0.4-2.7,0.6-4.1,0.6c-0.1,0.3-0.1,0.6-0.1,0.9
				c0,0.3-0.1,0.6-0.1,0.8c-0.1,0.7,0,1.3,0.1,1.8c0.1,0.5,0.3,0.9,0.6,1.2c0.3,0.3,0.6,0.5,1,0.6c0.4,0.1,0.9,0.2,1.5,0.3
				c0.9,0.1,1.8,0,2.6-0.2c0.8-0.2,1.5-0.4,2.2-0.8c0.7-0.4,1.3-0.8,1.9-1.3c0.6-0.5,1.2-1,1.9-1.6
				C229.2,340.9,229.8,340.9,230.3,340.9z M217.8,337.1c0.9,0,1.7-0.2,2.6-0.5c0.8-0.4,1.6-0.8,2.2-1.5c0.7-0.6,1.2-1.3,1.6-2.1
				c0.4-0.8,0.6-1.7,0.7-2.6c0-0.5,0-1-0.2-1.3c-0.1-0.3-0.4-0.5-0.9-0.5c-0.6,0-1.2,0.2-1.7,0.7c-0.6,0.5-1.2,1.1-1.7,2
				c-0.5,0.8-1.1,1.7-1.5,2.8C218.5,335,218.1,336,217.8,337.1z"/>
		</g>
		<g>
			<path class="st1" d="M248.5,341.4c-1.2,1.3-2.5,2.4-3.7,3.2c-1.2,0.8-2.4,1.5-3.5,2.1c-0.5,0.5-1.1,0.9-1.7,1.2
				c-0.6,0.3-1.3,0.6-1.9,0.8c-0.7,0.2-1.3,0.3-2,0.4c-0.7,0.1-1.3,0.1-1.9,0.1c-1.2,0-2.2-0.3-3.1-0.6c-0.9-0.4-1.6-0.8-2.1-1.4
				c-0.5-0.6-0.9-1.2-1.2-1.8c-0.2-0.7-0.3-1.3-0.3-2c0-0.5,0.1-1,0.3-1.4c0.2-0.4,0.4-0.8,0.6-1.1c0.2-0.3,0.5-0.6,0.8-0.8
				c0.3-0.2,0.6-0.4,0.9-0.5c1.4-2.1,2.6-4.2,3.5-6.3c1-2.1,1.8-4.2,2.6-6.3c2.2-0.2,4.5-0.4,6.7-0.7c0.1,1.9,0.1,3.5,0.2,4.9
				c0.1,1.4,0.1,2.6,0.2,3.6c0.1,1,0.1,1.9,0.2,2.6c0.1,0.7,0.1,1.3,0.1,1.9c0,0.5,0.1,1,0.1,1.5c0,0.4,0,0.9,0,1.4
				c0,0.3,0,0.6,0,0.9c0,0.3-0.1,0.5-0.2,0.8c0.7-0.4,1.3-0.7,1.9-1.1c0.6-0.4,1.1-0.7,1.5-1.1C247.1,341.4,247.8,341.4,248.5,341.4
				z M229.6,342.5c0,1,0.1,1.8,0.5,2.3c0.4,0.5,1.1,0.8,2.2,0.8c0.5,0,1,0,1.5-0.1c0.5-0.1,0.9-0.3,1.3-0.6c0.4-0.3,0.7-0.7,1-1.2
				c0.2-0.5,0.4-1.1,0.4-1.9c0-0.4,0-0.7,0-1.1c0-0.3,0-0.7,0-1.1c0-0.4,0-0.8-0.1-1.3c0-0.5-0.1-1-0.1-1.7c0-0.6-0.1-1.4-0.1-2.2
				c0-0.8-0.1-1.8-0.1-2.9c-0.5,1.4-1.1,2.7-1.8,4c-0.7,1.3-1.4,2.6-2.3,4c0.3,0.2,0.5,0.4,0.7,0.6c0.2,0.2,0.3,0.6,0.3,0.9
				c0,0.3-0.1,0.5-0.2,0.8c-0.1,0.2-0.2,0.5-0.4,0.7c-0.2,0.2-0.4,0.4-0.7,0.5c-0.3,0.1-0.5,0.2-0.9,0.1c-0.3,0-0.5-0.1-0.7-0.1
				C229.9,342.9,229.7,342.7,229.6,342.5z"/>
		</g>
		<g>
			<path class="st1" d="M249.5,329.2c-0.5,0-1,0-1.5,0c0.1-0.6,0.3-1.2,0.4-1.7c0.5,0,1,0,1.5,0c0.5-2,0.9-4,1.3-6
				c2.2-0.3,4.4-0.6,6.6-0.9c-0.1,0.3-0.1,0.6-0.2,0.9c-0.1,0.3-0.1,0.7-0.2,1.1c-0.1,0.6-0.3,1.3-0.5,2.2c-0.2,0.8-0.3,1.8-0.5,2.7
				c0.9,0,1.8,0,2.7-0.1c-0.1,0.6-0.2,1.2-0.3,1.7c-0.9,0-1.8,0-2.7,0.1c-0.9,4.3-1.8,8.7-2.8,13c-0.1,0.3-0.1,0.6-0.2,0.8
				c0,0.3-0.1,0.5-0.1,0.7c0,0.5,0.1,0.8,0.3,1.1c0.2,0.3,0.7,0.4,1.3,0.4c0.2,0,0.4,0,0.6,0c0.2,0,0.4-0.1,0.6-0.1
				c-0.3,0.9-0.7,1.7-1.1,2.2c-0.4,0.6-0.8,1-1.3,1.3c-0.4,0.3-0.9,0.5-1.3,0.6c-0.4,0.1-0.9,0.1-1.3,0.1c-0.9,0-1.6-0.1-2.2-0.4
				c-0.6-0.2-1.1-0.6-1.5-1c-0.4-0.4-0.7-1-0.8-1.6c-0.2-0.6-0.3-1.2-0.3-1.9c0-0.7,0.1-1.5,0.3-2.3
				C247.5,337.9,248.5,333.5,249.5,329.2z"/>
		</g>
		<g>
			<path class="st1" d="M288.9,339.5c-0.6,1.1-1.2,2.1-2,3.2c-0.8,1-1.6,2-2.6,2.8c-1,0.8-2.1,1.5-3.4,2.1c-1.3,0.6-2.7,0.9-4.2,1
				c-1.1,0.1-2.2,0-3.1-0.2c-0.9-0.2-1.7-0.6-2.4-1.1c-0.7-0.5-1.2-1.2-1.6-2.1c-0.4-0.9-0.6-1.9-0.7-3.1c0-0.8,0-1.8,0.1-2.9
				c0.1-1.1,0.4-2.2,0.7-3.4c0.3-1.2,0.8-2.3,1.4-3.4c0.6-1.1,1.3-2.2,2.1-3.1c0.9-0.9,1.9-1.7,3-2.3c1.2-0.6,2.5-1,4-1.1
				c1-0.1,1.8,0,2.5,0.2c0.7,0.2,1.2,0.4,1.6,0.8c0.4,0.3,0.7,0.7,0.9,1.2c0.2,0.5,0.3,0.9,0.3,1.4c0,0.5,0,1-0.1,1.4
				c-0.1,0.4-0.2,0.7-0.4,1c-0.2,0.3-0.4,0.5-0.7,0.7c-0.3,0.2-0.6,0.2-0.9,0.3c-0.5,0-1.1-0.1-1.6-0.4c0.3-1,0.4-1.8,0.4-2.6
				c0-0.5-0.2-1-0.4-1.3c-0.2-0.3-0.6-0.4-1-0.4c-0.5,0-0.9,0.3-1.4,0.7c-0.4,0.4-0.9,1-1.2,1.7c-0.4,0.7-0.7,1.5-1.1,2.4
				c-0.3,0.9-0.6,1.8-0.8,2.8c-0.2,1-0.4,1.9-0.5,2.9c-0.1,0.9-0.1,1.8-0.1,2.6c0,0.7,0.2,1.3,0.3,1.8c0.2,0.5,0.4,0.8,0.7,1.1
				c0.3,0.2,0.7,0.4,1.1,0.5c0.4,0.1,0.9,0.1,1.5,0.1c0.9-0.1,1.8-0.2,2.5-0.5c0.7-0.3,1.4-0.6,2-1.1c0.6-0.4,1.2-1,1.7-1.5
				c0.5-0.6,1.1-1.2,1.6-1.9C287.9,339.6,288.4,339.6,288.9,339.5z"/>
		</g>
		<g>
			<path class="st1" d="M313.7,336.5c-0.3,1.2-0.6,2.3-1,3.2c-0.4,0.9-0.8,1.7-1.3,2.4c-0.5,0.7-1,1.2-1.5,1.7
				c-0.5,0.4-1.1,0.8-1.6,1.1c-0.5,0.3-1,0.5-1.5,0.6c-0.5,0.1-1,0.2-1.4,0.3c-1.3,0.2-2.4,0-3.3-0.6c-0.9-0.6-1.5-1.5-1.8-2.8
				c-0.3,0.5-0.7,1.1-1.1,1.6c-0.4,0.5-0.9,1-1.4,1.4c-0.5,0.4-1.1,0.8-1.8,1.1c-0.7,0.3-1.4,0.5-2.3,0.6c-0.8,0.1-1.6,0-2.4-0.1
				c-0.8-0.2-1.5-0.5-2.1-1c-0.6-0.5-1.2-1.2-1.6-2c-0.4-0.9-0.7-1.9-0.8-3.2c-0.1-1-0.1-2,0-3.2c0.1-1.1,0.3-2.3,0.7-3.5
				c0.3-1.2,0.8-2.3,1.3-3.4c0.5-1.1,1.2-2.1,2-3c0.8-0.9,1.7-1.6,2.7-2.2c1-0.6,2.2-1,3.5-1.1c1.3-0.1,2.2-0.1,2.8,0.3
				c0.6,0.3,1,0.8,1.1,1.4c0,0.1,0,0.2,0,0.3c0.1-0.8,0.1-1.6,0.2-2.3c2.2-0.3,4.3-0.6,6.4-0.9c-0.4,5-0.8,10-1.2,15
				c0,0.2-0.1,0.5-0.1,0.7c0,0.2,0,0.5,0,0.7c0.2,1.2,0.9,1.8,2.2,1.6c0.5-0.1,0.9-0.2,1.2-0.5c0.4-0.3,0.7-0.6,0.9-1
				c0.3-0.4,0.5-0.9,0.7-1.4c0.2-0.5,0.3-1.1,0.4-1.7C312.4,336.7,313,336.6,313.7,336.5z M300.8,328.4c0-0.1-0.1-0.3-0.1-0.5
				c-0.1-0.2-0.2-0.4-0.4-0.5c-0.2-0.2-0.4-0.3-0.6-0.4c-0.3-0.1-0.6-0.1-0.9-0.1c-0.6,0.1-1.2,0.3-1.7,0.8c-0.5,0.5-1,1-1.4,1.7
				c-0.4,0.7-0.7,1.5-1,2.4c-0.3,0.9-0.5,1.8-0.7,2.7c-0.2,0.9-0.3,1.8-0.3,2.7c0,0.9,0,1.6,0,2.3c0.1,0.8,0.2,1.5,0.5,1.9
				c0.2,0.4,0.5,0.7,0.7,0.9c0.3,0.2,0.5,0.3,0.8,0.3c0.3,0,0.5,0,0.7,0c0.4,0,0.7-0.2,1.1-0.4c0.4-0.2,0.7-0.5,1-0.8
				c0.3-0.4,0.6-0.8,0.8-1.3c0.2-0.5,0.4-1.1,0.5-1.7C300.1,335,300.5,331.7,300.8,328.4z"/>
		</g>
		<g>
			<path class="st1" d="M336.9,332.2c-0.3,1.9-0.7,3.4-1.2,4.6c-0.5,1.2-1.1,2.1-1.8,2.8c-0.7,0.7-1.3,1.2-2.1,1.5
				c-0.7,0.3-1.4,0.5-2,0.6c-1,0.2-1.9,0.2-2.7,0.1c-0.8-0.1-1.4-0.4-1.9-0.8c-0.5-0.4-0.9-0.8-1.2-1.4c-0.3-0.5-0.5-1.1-0.6-1.7
				c-0.1-0.7-0.2-1.6-0.1-2.6c0-1,0.1-2,0.2-3.1c0.1-1.1,0.1-2.1,0.2-3.1c0-1,0-1.8-0.1-2.5c-0.3-1.5-0.9-2.1-2-1.9
				c-0.4,0.1-0.8,0.2-1.1,0.5c-0.3,0.3-0.6,0.6-0.8,1c-0.2,0.4-0.4,0.9-0.6,1.4c-0.2,0.5-0.3,1.1-0.4,1.6c-0.3,4.7-0.5,9.5-0.9,14.2
				c-2.3,0.4-4.5,0.7-6.8,1c0.6-7.4,1.2-14.8,1.6-22.2c2.1-0.3,4.3-0.7,6.4-1.1c0,0.8-0.1,1.5-0.1,2.3c0.4-0.6,0.8-1.1,1.2-1.5
				c0.4-0.4,0.8-0.7,1.3-1c0.4-0.2,0.8-0.4,1.2-0.6c0.4-0.1,0.8-0.2,1.1-0.3c0.7-0.1,1.4-0.2,2-0.1c0.6,0.1,1.2,0.2,1.7,0.5
				c0.5,0.3,1,0.7,1.3,1.3c0.4,0.6,0.6,1.3,0.8,2.1c0.1,0.6,0.2,1.2,0.2,1.9c0,0.7,0,1.4,0,2.1c0,0.7-0.1,1.4-0.1,2.1
				c-0.1,0.7-0.1,1.4-0.1,2.1c0,0.7-0.1,1.3-0.1,1.8c0,0.6,0,1,0.1,1.4c0.1,0.5,0.3,0.9,0.6,1.2c0.3,0.3,0.8,0.4,1.6,0.2
				c0.5-0.1,0.9-0.3,1.3-0.5c0.3-0.3,0.6-0.6,0.9-1c0.2-0.4,0.4-0.8,0.6-1.4c0.1-0.5,0.3-1.1,0.4-1.7
				C335.6,332.5,336.3,332.4,336.9,332.2z"/>
		</g>
		<g>
			<path class="st1" d="M360.9,326.4c-0.1,1.2-0.3,2.3-0.6,3.3c-0.3,1-0.6,1.8-1,2.5c-0.4,0.7-0.8,1.3-1.3,1.8
				c-0.5,0.5-1,0.9-1.5,1.2c-0.5,0.3-1,0.6-1.5,0.7c-0.5,0.2-0.9,0.3-1.3,0.4c-1.3,0.3-2.4,0.3-3.3-0.2c-0.9-0.4-1.6-1.2-2.1-2.4
				c-0.2,0.6-0.5,1.1-0.9,1.7c-0.3,0.6-0.7,1.1-1.2,1.6c-0.5,0.5-1,0.9-1.7,1.3c-0.6,0.4-1.4,0.7-2.2,0.9c-0.8,0.2-1.6,0.2-2.4,0.2
				c-0.8-0.1-1.5-0.3-2.2-0.7c-0.7-0.4-1.3-1-1.8-1.8c-0.5-0.8-0.9-1.8-1.2-3.1c-0.2-1-0.3-2-0.3-3.2c0-1.1,0.1-2.3,0.3-3.5
				c0.2-1.2,0.5-2.4,0.9-3.5c0.4-1.2,1-2.2,1.6-3.2c0.7-1,1.5-1.8,2.5-2.5c1-0.7,2.1-1.2,3.4-1.5c1.3-0.3,2.2-0.3,2.9,0
				c0.7,0.3,1.1,0.7,1.2,1.3c0,0.1,0,0.1,0,0.2c-0.1-3.4-0.2-6.8-0.3-10.2c2.1-0.8,4.1-1.6,6.2-2.5c0.4,8,0.7,16,0.8,24
				c0,0.3,0,0.5,0,0.7c0,0.2,0.1,0.5,0.1,0.7c0.1,0.6,0.4,1,0.8,1.1c0.4,0.1,0.9,0.1,1.5,0c0.4-0.1,0.8-0.3,1.2-0.6
				c0.3-0.3,0.6-0.6,0.8-1c0.2-0.4,0.4-0.9,0.5-1.4c0.1-0.5,0.2-1.1,0.2-1.6C359.6,326.8,360.2,326.6,360.9,326.4z M347.2,329.9
				c0-3.4-0.1-6.8-0.1-10.2c-0.1-0.1-0.1-0.2-0.2-0.4c-0.1-0.1-0.2-0.3-0.4-0.4c-0.2-0.1-0.4-0.2-0.6-0.3c-0.2,0-0.5,0-0.9,0.1
				c-0.6,0.1-1.2,0.5-1.6,1c-0.5,0.5-0.9,1.1-1.2,1.9c-0.3,0.7-0.6,1.6-0.8,2.5c-0.2,0.9-0.3,1.8-0.4,2.7c-0.1,0.9-0.1,1.8,0,2.7
				c0.1,0.9,0.2,1.6,0.3,2.3c0.2,0.8,0.4,1.4,0.7,1.8c0.3,0.4,0.5,0.7,0.8,0.8c0.3,0.2,0.6,0.2,0.8,0.2c0.3,0,0.5-0.1,0.7-0.1
				c0.3-0.1,0.6-0.2,1-0.5c0.3-0.2,0.7-0.5,0.9-0.9c0.3-0.4,0.5-0.8,0.7-1.3c0.2-0.5,0.3-1.1,0.3-1.7
				C347.2,330.1,347.2,330,347.2,329.9z"/>
		</g>
		<g>
			<path class="st1" d="M370.5,329.4c-0.3,0.7-0.7,1.2-1.1,1.7c-0.4,0.5-0.8,0.8-1.2,1.1c-0.4,0.3-0.9,0.6-1.3,0.7
				c-0.4,0.2-0.9,0.3-1.3,0.5c-0.7,0.2-1.4,0.3-2,0.3c-0.7,0-1.3-0.2-1.8-0.5c-0.6-0.3-1-0.7-1.5-1.3c-0.4-0.6-0.7-1.3-1-2.2
				c-0.1-0.4-0.2-0.8-0.2-1.3c-0.1-0.5-0.1-1-0.1-1.6c-0.2-4.8-0.4-9.5-0.6-14.2c2.1-0.6,4.2-1.2,6.3-1.8c0.3,5,0.6,10,0.9,15.1
				c0,0.4,0.1,0.7,0.2,1.1c0.1,0.2,0.2,0.5,0.3,0.7c0.1,0.2,0.2,0.4,0.4,0.5c0.2,0.1,0.3,0.2,0.5,0.3c0.2,0.1,0.4,0,0.7,0
				c0.4-0.1,0.8-0.3,1.1-0.6c0.3-0.3,0.6-0.6,0.8-1.1c0.2-0.4,0.4-0.9,0.5-1.4c0.1-0.5,0.1-1.1,0.2-1.7c-0.3-4.7-0.6-9.5-1-14.2
				c2.1-0.6,4.2-1.3,6.3-2c0.8,8.5,1.5,17.1,2.1,25.7c0.1,1.6,0,2.9-0.4,4.1c-0.4,1.1-0.9,2-1.5,2.8c-0.6,0.7-1.4,1.3-2.2,1.8
				c-0.8,0.4-1.6,0.8-2.4,1c-0.7,0.2-1.4,0.3-2.2,0.3c-0.7,0-1.4-0.2-2-0.4c-0.6-0.3-1.2-0.6-1.6-1.1c-0.5-0.5-0.8-1-1-1.7
				c-0.3-1-0.3-1.9-0.1-2.6c0.2-0.8,0.6-1.5,1.2-2.2c0.6-0.7,1.3-1.3,2.2-1.9c0.9-0.6,1.8-1.2,2.9-1.8
				C370.6,330.7,370.6,330.1,370.5,329.4z M370.7,332.8c-0.7,0.4-1.3,0.9-1.8,1.3c-0.6,0.5-1,0.9-1.4,1.4c-0.4,0.5-0.6,1-0.8,1.5
				c-0.1,0.5-0.1,1.1,0,1.6c0,0.2,0.1,0.3,0.3,0.5c0.1,0.1,0.3,0.2,0.5,0.3c0.2,0.1,0.4,0.1,0.7,0.2c0.3,0,0.5,0,0.8-0.1
				c0.2-0.1,0.5-0.2,0.7-0.4c0.2-0.2,0.4-0.4,0.6-0.8c0.2-0.3,0.3-0.7,0.4-1.2c0.1-0.5,0.1-1.1,0.1-1.7
				C370.8,334.5,370.7,333.7,370.7,332.8z"/>
		</g>
	</g>
</g>
</svg>
