<?xml version="1.0" encoding="utf-8"?>
<!-- Generator: Adobe Illustrator 23.0.3, SVG Export Plug-In . SVG Version: 6.00 Build 0)  -->
<svg version="1.1" id="Layer_1" xmlns="http://www.w3.org/2000/svg" xmlns:xlink="http://www.w3.org/1999/xlink" x="0px" y="0px"
	 viewBox="0 0 500 500" style="enable-background:new 0 0 500 500;" xml:space="preserve">
<style type="text/css">
	.st0{fill:#44CEE3;}
	.st1{fill:#FFFFFF;}
	.st2{fill:#F4628F;}
	.st3{fill:#E8EC3A;}
	.st4{fill:#97BB02;}
	.st5{opacity:0.2;}
	.st6{opacity:0.5;}
	.st7{fill:#9470D0;}
	.st8{fill:#F23D7A;}
	.st9{fill:#DA1160;}
	.st10{fill:#B2B1B1;}
	.st11{fill:#E2E1DE;}
	.st12{fill:#6332BA;}
	.st13{fill:#5420AE;}
	.st14{fill:#FFC300;}
	.st15{fill:#DDA507;}
	.st16{fill:#49D8E5;}
	.st17{fill:#64095D;}
	.st18{fill:#490748;}
	.st19{fill:#EA0446;}
	.st20{fill:#EEF443;}
	.st21{fill:#03C4DE;}
	.st22{fill:#492111;}
	.st23{fill:#00838C;}
	.st24{fill:#652A1F;}
	.st25{fill:#C09670;}
	.st26{fill:#EBE0AE;}
	.st27{fill:#4E1E14;}
	.st28{fill:#D9A24B;}
	.st29{fill:#FFEAC0;}
	.st30{fill:#CB2519;}
	.st31{fill:#43CEE3;}
	.st32{fill:#00B8D2;}
	.st33{fill:#FFBD17;}
	.st34{fill:#FFD901;}
	.st35{fill:#5E0084;}
	.st36{fill:#F978A3;}
	.st37{fill:#EC115F;}
	.st38{fill:#FF9900;}
	.st39{fill:#EDB107;}
	.st40{fill:#B90615;}
	.st41{fill:#E1E5D8;}
	.st42{fill:#DD3107;}
	.st43{fill:#CDD905;}
	.st44{fill:#B2B212;}
	.st45{fill:#EB024D;}
</style>
<g>
	<g>
		<polygon class="st22" points="27.3,282 140.4,282 140.4,214.3 27.3,214.3 41.5,249.3 		"/>
	</g>
	<g>
		<polygon class="st22" points="472.7,282 359.6,282 359.6,214.3 472.7,214.3 458.5,249.3 		"/>
	</g>
	<g>
		<path class="st22" d="M250.4,78.7c2.4-2.3,6.2-2.3,8.6,0l14.7,13.9c1.9,1.8,4.8,2.2,7.1,1l18-9.2c3-1.5,6.6-0.5,8.2,2.4l10.2,17.5
			c1.3,2.3,4,3.5,6.6,3l19.9-3.8c3.3-0.6,6.4,1.4,7.2,4.6l4.8,19.7c0.6,2.6,2.8,4.5,5.5,4.7l20.2,2c3.3,0.3,5.8,3.2,5.6,6.5
			l-0.9,20.2c-0.1,2.6,1.4,5.1,3.9,6.1l18.8,7.6c3.1,1.2,4.6,4.7,3.6,7.8l-6.6,19.1c-0.9,2.5,0,5.3,2,6.9l15.9,12.5
			c2.6,2.1,3.1,5.8,1.2,8.5l-11.7,16.5c-1.5,2.2-1.5,5.1,0,7.2l11.7,16.5c1.9,2.7,1.4,6.4-1.2,8.5l-15.9,12.5
			c-2.1,1.6-2.9,4.4-2,6.9l6.6,19.1c1.1,3.1-0.5,6.6-3.6,7.8l-18.8,7.6c-2.5,1-4,3.4-3.9,6.1l0.9,20.2c0.2,3.3-2.3,6.2-5.6,6.5
			l-20.2,2c-2.6,0.3-4.8,2.1-5.5,4.7l-4.8,19.7c-0.8,3.2-4,5.3-7.2,4.6l-19.9-3.8c-2.6-0.5-5.2,0.7-6.6,3l-10.2,17.5
			c-1.7,2.9-5.3,3.9-8.2,2.4l-18-9.2c-2.4-1.2-5.2-0.8-7.1,1L259,421.3c-2.4,2.3-6.2,2.3-8.6,0l-14.7-13.9c-1.9-1.8-4.8-2.2-7.1-1
			l-18,9.2c-3,1.5-6.6,0.5-8.2-2.4l-10.2-17.5c-1.3-2.3-4-3.5-6.6-3l-19.9,3.8c-3.3,0.6-6.4-1.4-7.2-4.6l-4.8-19.7
			c-0.6-2.6-2.8-4.5-5.5-4.7l-20.2-2c-3.3-0.3-5.8-3.2-5.6-6.5l0.9-20.2c0.1-2.6-1.4-5.1-3.9-6.1l-18.8-7.6
			c-3.1-1.2-4.6-4.7-3.6-7.8l6.6-19.1c0.9-2.5,0-5.3-2-6.9l-15.9-12.5c-2.6-2.1-3.1-5.8-1.2-8.5l11.7-16.5c1.5-2.2,1.5-5.1,0-7.2
			l-11.7-16.5c-1.9-2.7-1.4-6.4,1.2-8.5l15.9-12.5c2.1-1.6,2.9-4.4,2-6.9l-6.6-19.1c-1.1-3.1,0.5-6.6,3.6-7.8l18.8-7.6
			c2.5-1,4-3.4,3.9-6.1l-0.9-20.2c-0.2-3.3,2.3-6.2,5.6-6.5l20.2-2c2.6-0.3,4.8-2.2,5.5-4.7l4.8-19.7c0.8-3.2,4-5.3,7.2-4.6
			l19.9,3.8c2.6,0.5,5.2-0.7,6.6-3l10.2-17.5c1.7-2.9,5.3-3.9,8.2-2.4l18,9.2c2.4,1.2,5.2,0.8,7.1-1L250.4,78.7z"/>
	</g>
	<g>
		<path class="st16" d="M273.7,79.7c2.7-1.9,6.4-1.4,8.5,1.2l12.6,15.8c1.7,2.1,4.4,2.9,6.9,2l19.1-6.7c3.1-1.1,6.6,0.4,7.8,3.5
			l7.7,18.7c1,2.5,3.4,4,6.1,3.9l20.2-1.1c3.3-0.2,6.2,2.3,6.5,5.6l2.1,20.1c0.3,2.6,2.2,4.8,4.8,5.4l19.7,4.7
			c3.2,0.8,5.3,3.9,4.7,7.2l-3.7,19.9c-0.5,2.6,0.7,5.2,3,6.5l17.6,10c2.9,1.6,4,5.3,2.5,8.2l-9.1,18.1c-1.2,2.4-0.8,5.2,1.1,7.1
			l14,14.6c2.3,2.4,2.3,6.2,0.1,8.6L412.1,268c-1.8,1.9-2.2,4.8-1,7.1l9.4,18c1.5,2.9,0.5,6.6-2.4,8.3l-17.5,10.3
			c-2.3,1.3-3.5,4-3,6.6l3.9,19.9c0.6,3.3-1.4,6.4-4.6,7.3l-19.6,4.9c-2.6,0.6-4.5,2.8-4.7,5.5l-1.8,20.2c-0.3,3.3-3.1,5.8-6.5,5.7
			l-20.2-0.8c-2.6-0.1-5.1,1.5-6,3.9l-7.4,18.8c-1.2,3.1-4.6,4.7-7.8,3.6l-19.2-6.5c-2.5-0.8-5.3,0-6.9,2.1l-12.4,16
			c-2,2.6-5.8,3.2-8.5,1.3l-16.6-11.6c-2.2-1.5-5.1-1.5-7.2,0l-16.4,11.8c-2.7,1.9-6.4,1.4-8.5-1.2l-12.6-15.8
			c-1.7-2.1-4.4-2.9-6.9-2l-19.1,6.7c-3.1,1.1-6.6-0.4-7.8-3.5l-7.7-18.7c-1-2.5-3.4-4-6.1-3.9l-20.2,1.1c-3.3,0.2-6.2-2.3-6.5-5.6
			l-2.1-20.1c-0.3-2.6-2.2-4.8-4.8-5.4l-19.7-4.7c-3.2-0.8-5.3-3.9-4.7-7.2l3.7-19.9c0.5-2.6-0.7-5.2-3-6.5l-17.6-10
			c-2.9-1.6-4-5.3-2.5-8.2l9.1-18.1c1.2-2.4,0.8-5.2-1.1-7.1l-14-14.6c-2.3-2.4-2.3-6.2-0.1-8.6L97.3,232c1.8-1.9,2.2-4.8,1-7.1
			l-9.4-18c-1.5-2.9-0.5-6.6,2.4-8.3l17.5-10.3c2.3-1.3,3.5-4,3-6.6l-3.9-19.9c-0.6-3.3,1.4-6.4,4.6-7.3l19.6-4.9
			c2.6-0.6,4.5-2.8,4.7-5.5l1.8-20.2c0.3-3.3,3.1-5.8,6.5-5.7l20.2,0.8c2.6,0.1,5.1-1.5,6-3.9l7.4-18.8c1.2-3.1,4.6-4.7,7.8-3.6
			l19.2,6.5c2.5,0.8,5.3,0,6.9-2.1l12.4-16c2-2.6,5.8-3.2,8.5-1.3l16.6,11.6c2.2,1.5,5.1,1.5,7.2,0L273.7,79.7z"/>
	</g>
	<g>
		
			<ellipse transform="matrix(0.7071 -0.7071 0.7071 0.7071 -101.5579 251.0608)" class="st1" cx="252.3" cy="248.1" rx="144.2" ry="144.2"/>
	</g>
	<g>
		<path class="st7" d="M252.3,384.7c-75.3,0-136.5-61.3-136.5-136.5c0-75.3,61.3-136.5,136.5-136.5c75.3,0,136.5,61.3,136.5,136.5
			C388.8,323.4,327.6,384.7,252.3,384.7z M252.3,117.3c-72.1,0-130.8,58.7-130.8,130.8c0,72.1,58.7,130.8,130.8,130.8
			c72.1,0,130.8-58.7,130.8-130.8C383.1,176,324.4,117.3,252.3,117.3z"/>
	</g>
	<g>
		<polygon class="st33" points="254.7,126.8 257.8,133.1 264.7,134.1 259.7,139 260.9,145.9 254.7,142.6 248.5,145.9 249.7,139 
			244.7,134.1 251.6,133.1 		"/>
	</g>
	<g>
		<polygon class="st33" points="282,131.9 284.4,136.8 289.8,137.5 285.9,141.3 286.8,146.7 282,144.2 277.1,146.7 278.1,141.3 
			274.2,137.5 279.6,136.8 		"/>
	</g>
	<g>
		<polygon class="st33" points="300.4,143 302,146.2 305.6,146.7 303,149.2 303.6,152.8 300.4,151.1 297.3,152.8 297.9,149.2 
			295.3,146.7 298.8,146.2 		"/>
	</g>
	<g>
		<polygon class="st33" points="228.9,132.2 226.5,137.1 221.1,137.8 225,141.6 224.1,147 228.9,144.5 233.7,147 232.8,141.6 
			236.7,137.8 231.3,137.1 		"/>
	</g>
	<g>
		<polygon class="st33" points="210.4,143.3 208.8,146.5 205.3,147 207.9,149.5 207.3,153 210.4,151.4 213.6,153 213,149.5 
			215.6,147 212,146.5 		"/>
	</g>
	<g>
		<path class="st7" d="M182.1,192.2c-0.5,1.3-1.3,2.5-2.2,3.4c-0.9,0.9-1.9,1.7-3,2.3c-1.1,0.6-2.1,1-3.2,1.3
			c-1.1,0.3-2.1,0.4-3,0.4c-1.5,0-2.8-0.2-3.9-0.5c-1.1-0.4-2-0.9-2.7-1.7c-0.7-0.8-1.3-1.8-1.6-3c-0.4-1.2-0.5-2.8-0.5-4.6
			c0-0.9,0.1-1.9,0.2-3c0.1-1.1,0.3-2.2,0.5-3.3c0.2-1.1,0.6-2.3,0.9-3.5c0.4-1.2,0.9-2.3,1.4-3.3c0.5-1.1,1.2-2.1,1.9-3
			c0.7-0.9,1.5-1.8,2.4-2.4c0.9-0.7,1.9-1.2,3-1.6c1.1-0.4,2.3-0.6,3.6-0.6c0.9,0,1.8,0.1,2.6,0.3c0.8,0.2,1.5,0.5,2.1,0.9
			c0.6,0.4,1.1,1,1.4,1.7c0.3,0.7,0.5,1.5,0.5,2.4c0,0.5-0.1,1-0.1,1.5c-0.1,0.5-0.3,0.8-0.5,1.2c-0.2,0.3-0.5,0.6-0.9,0.8
			c-0.4,0.2-0.8,0.3-1.3,0.3c-0.3,0-0.7-0.1-1.1-0.2c-0.4-0.1-0.8-0.4-1.2-0.9c0.2-0.1,0.5-0.3,0.7-0.6c0.2-0.3,0.4-0.5,0.6-0.9
			c0.2-0.3,0.3-0.7,0.4-1.1c0.1-0.4,0.2-0.8,0.2-1.2c0-0.3,0-0.6-0.1-0.9c-0.1-0.3-0.2-0.6-0.4-0.8c-0.2-0.2-0.4-0.4-0.8-0.5
			c-0.3-0.1-0.7-0.2-1.1-0.2c-0.7,0-1.5,0.3-2.2,0.8c-0.7,0.5-1.4,1.3-2,2.2c-0.6,0.9-1.2,2-1.7,3.3c-0.5,1.2-1,2.5-1.3,3.9
			c-0.4,1.4-0.6,2.8-0.9,4.3c-0.2,1.5-0.3,2.9-0.3,4.2c0,0.9,0.1,1.8,0.2,2.5c0.1,0.8,0.4,1.4,0.7,2c0.4,0.5,0.8,1,1.5,1.3
			c0.6,0.3,1.4,0.5,2.4,0.5c1.6,0,3-0.4,4.4-1.1c1.3-0.7,2.5-1.7,3.4-2.9L182.1,192.2z"/>
		<path class="st7" d="M203.8,191.8c-0.4,1.1-0.8,2-1.2,2.8c-0.4,0.8-0.9,1.5-1.4,2c-0.5,0.5-1,1-1.5,1.3c-0.5,0.3-1,0.6-1.4,0.8
			c-0.5,0.2-0.9,0.3-1.3,0.4c-0.4,0.1-0.8,0.1-1.2,0.1c-1.1,0-2-0.3-2.7-0.9c-0.7-0.6-1.1-1.5-1.2-2.7c-0.3,0.5-0.7,0.9-1.1,1.3
			c-0.4,0.4-0.8,0.8-1.3,1.2c-0.5,0.3-1,0.6-1.6,0.8c-0.6,0.2-1.2,0.3-2,0.3c-0.7,0-1.4-0.1-2-0.3c-0.6-0.2-1.2-0.6-1.7-1.1
			c-0.5-0.5-0.9-1.2-1.2-2c-0.3-0.8-0.4-1.8-0.4-3c0-0.9,0.1-1.9,0.3-2.9c0.2-1,0.5-2.1,0.8-3.1c0.4-1,0.8-2,1.4-3
			c0.6-1,1.2-1.8,2-2.5c0.8-0.7,1.6-1.3,2.6-1.8c1-0.4,2-0.7,3.2-0.7c1.1,0,2,0.2,2.5,0.6c0.5,0.4,0.8,0.9,0.8,1.4v0.3l0.4-2.1h5.8
			l-2.9,13.6c-0.1,0.2-0.1,0.4-0.1,0.7c0,0.2,0,0.4,0,0.6c0,1.1,0.5,1.7,1.6,1.7c0.4,0,0.7-0.1,1.1-0.3c0.3-0.2,0.6-0.5,0.9-0.8
			c0.3-0.3,0.5-0.7,0.7-1.2c0.2-0.5,0.4-0.9,0.5-1.5H203.8z M193.7,182.8c0-0.1,0-0.3-0.1-0.4c-0.1-0.2-0.1-0.3-0.3-0.5
			c-0.1-0.2-0.3-0.3-0.5-0.4c-0.2-0.1-0.5-0.2-0.8-0.2c-0.6,0-1.1,0.2-1.6,0.5c-0.5,0.4-1,0.9-1.4,1.5c-0.4,0.6-0.8,1.3-1.1,2.1
			c-0.3,0.8-0.6,1.6-0.8,2.4c-0.2,0.8-0.4,1.6-0.5,2.4c-0.1,0.8-0.2,1.5-0.2,2.1c0,0.8,0.1,1.4,0.2,1.8c0.1,0.4,0.3,0.7,0.5,0.9
			c0.2,0.2,0.4,0.3,0.7,0.4c0.2,0,0.4,0.1,0.6,0.1c0.3,0,0.6-0.1,0.9-0.2c0.3-0.2,0.7-0.4,1-0.7c0.3-0.3,0.6-0.7,0.8-1.1
			c0.3-0.4,0.4-1,0.6-1.5L193.7,182.8z"/>
		<path class="st7" d="M223.9,191.8c-0.6,1.6-1.2,2.9-1.8,3.9c-0.6,1-1.3,1.7-2,2.2c-0.7,0.5-1.3,0.8-1.9,1
			c-0.6,0.2-1.2,0.2-1.7,0.2c-0.9,0-1.6-0.1-2.2-0.4c-0.6-0.3-1.1-0.6-1.4-1c-0.4-0.4-0.6-0.9-0.8-1.4c-0.2-0.5-0.2-1.1-0.2-1.7
			c0-0.7,0.1-1.5,0.3-2.4c0.2-0.9,0.4-1.8,0.6-2.8c0.2-1,0.4-1.9,0.6-2.8c0.2-0.9,0.3-1.6,0.3-2.3c0-1.4-0.5-2-1.4-2
			c-0.4,0-0.7,0.1-1,0.3c-0.3,0.2-0.6,0.5-0.9,0.8c-0.3,0.3-0.5,0.7-0.7,1.2c-0.2,0.5-0.4,0.9-0.5,1.4l-2.7,12.8h-5.8l4.2-20h5.8
			l-0.4,2.1c0.4-0.5,0.9-0.9,1.3-1.2c0.4-0.3,0.8-0.5,1.2-0.7c0.4-0.2,0.8-0.3,1.1-0.3c0.4-0.1,0.7-0.1,1-0.1c0.6,0,1.2,0.1,1.8,0.3
			c0.5,0.2,1,0.4,1.4,0.8c0.4,0.4,0.7,0.8,0.9,1.4c0.2,0.6,0.3,1.3,0.3,2c0,0.5-0.1,1.1-0.1,1.7c-0.1,0.6-0.2,1.2-0.4,1.9
			c-0.1,0.6-0.3,1.3-0.5,1.9c-0.2,0.6-0.3,1.2-0.5,1.8c-0.1,0.6-0.3,1.1-0.4,1.6c-0.1,0.5-0.1,0.9-0.1,1.3c0,0.5,0.1,0.9,0.3,1.2
			c0.2,0.3,0.6,0.5,1.3,0.5c0.4,0,0.8-0.1,1.1-0.3c0.3-0.2,0.6-0.4,0.9-0.7c0.3-0.3,0.5-0.7,0.7-1.1c0.2-0.4,0.4-0.9,0.6-1.4H223.9z
			"/>
		<path class="st7" d="M244.9,191.8c-0.4,1.1-0.8,2-1.2,2.8c-0.4,0.8-0.9,1.4-1.4,2c-0.5,0.5-1,0.9-1.5,1.3c-0.5,0.3-1,0.6-1.4,0.7
			c-0.5,0.2-0.9,0.3-1.3,0.3c-0.4,0.1-0.8,0.1-1.2,0.1c-1.1,0-2-0.3-2.7-0.9c-0.7-0.6-1.1-1.4-1.2-2.6c-0.3,0.5-0.6,0.9-1,1.3
			c-0.4,0.4-0.8,0.8-1.3,1.2c-0.5,0.3-1,0.6-1.6,0.8c-0.6,0.2-1.2,0.3-2,0.3c-0.7,0-1.4-0.1-2-0.3c-0.6-0.2-1.2-0.6-1.7-1.1
			c-0.5-0.5-0.9-1.2-1.2-2c-0.3-0.8-0.4-1.8-0.4-3c0-0.9,0.1-1.9,0.3-2.9c0.2-1,0.5-2.1,0.8-3.1c0.4-1,0.9-2,1.4-3
			c0.6-1,1.2-1.8,2-2.5c0.8-0.7,1.6-1.3,2.6-1.8c1-0.4,2-0.7,3.2-0.7c1.1,0,2,0.2,2.5,0.6c0.5,0.4,0.8,0.9,0.8,1.4v0.2l2-9.2
			l5.9-0.8l-4.6,21.6c-0.1,0.2-0.1,0.4-0.1,0.7c0,0.2,0,0.4,0,0.6c0,0.6,0.1,0.9,0.4,1.2c0.3,0.2,0.7,0.3,1.2,0.3
			c0.4,0,0.8-0.1,1.1-0.3c0.3-0.2,0.6-0.4,0.9-0.7c0.3-0.3,0.5-0.7,0.7-1.1c0.2-0.4,0.4-0.9,0.5-1.4H244.9z M232.9,191.8l2-9.2
			c0-0.1-0.1-0.3-0.1-0.4c-0.1-0.2-0.1-0.3-0.3-0.5c-0.1-0.1-0.3-0.3-0.5-0.4c-0.2-0.1-0.5-0.1-0.8-0.1c-0.6,0-1.1,0.2-1.6,0.5
			c-0.5,0.4-1,0.9-1.4,1.5c-0.4,0.6-0.8,1.3-1.1,2.1c-0.3,0.8-0.6,1.6-0.8,2.4c-0.2,0.8-0.4,1.6-0.5,2.4c-0.1,0.8-0.2,1.5-0.2,2.1
			c0,0.8,0.1,1.4,0.2,1.8c0.1,0.4,0.3,0.7,0.5,0.9c0.2,0.2,0.4,0.3,0.7,0.4c0.2,0,0.4,0.1,0.6,0.1c0.3,0,0.6-0.1,0.9-0.2
			c0.3-0.1,0.6-0.3,1-0.6c0.3-0.3,0.6-0.6,0.8-1c0.3-0.4,0.4-0.9,0.6-1.5V191.8z"/>
		<path class="st7" d="M252.1,196.9c-0.4,0.5-0.9,0.9-1.3,1.2c-0.4,0.3-0.9,0.5-1.3,0.7c-0.4,0.2-0.8,0.3-1.2,0.3
			c-0.4,0.1-0.8,0.1-1.1,0.1c-0.6,0-1.2-0.1-1.7-0.3c-0.5-0.2-1-0.5-1.4-0.9c-0.4-0.4-0.7-0.9-0.9-1.5c-0.2-0.6-0.3-1.3-0.3-2.2
			c0-0.4,0-0.8,0.1-1.2c0.1-0.4,0.1-0.9,0.2-1.4l2.7-12.8h5.8l-2.9,13.6c-0.1,0.3-0.1,0.7-0.1,1c0,0.2,0,0.5,0.1,0.7
			c0,0.2,0.1,0.4,0.2,0.6c0.1,0.2,0.2,0.3,0.4,0.4c0.1,0.1,0.3,0.1,0.6,0.1c0.4,0,0.7-0.1,1.1-0.3c0.3-0.2,0.6-0.4,0.9-0.7
			c0.3-0.3,0.5-0.7,0.7-1.1c0.2-0.4,0.4-0.9,0.5-1.4l2.7-12.8h5.8l-4.9,23.2c-0.3,1.4-0.7,2.6-1.3,3.5c-0.6,0.9-1.2,1.6-1.8,2.1
			c-0.7,0.5-1.4,0.8-2.1,1c-0.7,0.2-1.4,0.3-2.1,0.3c-0.6,0-1.2-0.1-1.7-0.3c-0.6-0.2-1.1-0.5-1.5-0.9c-0.4-0.4-0.8-0.8-1.1-1.4
			c-0.3-0.5-0.4-1.1-0.4-1.8c0-0.9,0.2-1.7,0.5-2.4c0.4-0.6,0.9-1.2,1.5-1.6c0.6-0.4,1.4-0.8,2.2-1.1c0.8-0.3,1.7-0.6,2.7-0.9
			L252.1,196.9z M251.4,199.9c-0.6,0.2-1.2,0.4-1.8,0.7c-0.5,0.3-1,0.6-1.4,0.9c-0.4,0.3-0.7,0.7-0.9,1.1c-0.2,0.4-0.3,0.9-0.3,1.4
			c0,0.2,0,0.3,0.1,0.5c0.1,0.2,0.2,0.3,0.3,0.4c0.1,0.1,0.3,0.2,0.5,0.3c0.2,0.1,0.4,0.1,0.6,0.1c0.2,0,0.4-0.1,0.6-0.1
			c0.2-0.1,0.4-0.3,0.7-0.5c0.2-0.2,0.4-0.6,0.6-1c0.2-0.4,0.3-0.9,0.5-1.5L251.4,199.9z"/>
		<path class="st7" d="M287.2,191.8c-1,1.2-2.1,2.2-3.1,3c-1,0.8-2,1.5-3,2c-0.4,0.4-0.9,0.8-1.4,1.1c-0.5,0.3-1,0.6-1.6,0.7
			c-0.6,0.2-1.1,0.3-1.7,0.4c-0.6,0.1-1.1,0.1-1.6,0.1c-1,0-1.9-0.2-2.6-0.5c-0.7-0.3-1.3-0.7-1.8-1.2c-0.5-0.5-0.8-1-1.1-1.6
			c-0.2-0.6-0.3-1.2-0.3-1.8c0-0.5,0.1-0.9,0.2-1.3c0.1-0.4,0.3-0.7,0.5-1.1c0.2-0.3,0.4-0.6,0.7-0.8c0.3-0.2,0.5-0.4,0.8-0.5
			c1.1-2,2.1-4,2.8-5.9c0.8-2,1.5-3.9,2.1-5.9l5.9-0.8c0.1,1.7,0.2,3.2,0.2,4.5c0.1,1.3,0.1,2.4,0.2,3.3c0.1,0.9,0.1,1.7,0.2,2.4
			c0.1,0.6,0.1,1.2,0.1,1.7c0,0.5,0.1,1,0.1,1.4c0,0.4,0,0.8,0,1.3c0,0.3,0,0.6,0,0.8c0,0.2-0.1,0.5-0.1,0.7c0.6-0.3,1.1-0.7,1.6-1
			c0.5-0.3,0.9-0.7,1.3-1H287.2z M271.1,193.3c0,0.9,0.2,1.6,0.6,2.1c0.4,0.5,1,0.7,1.9,0.7c0.4,0,0.9-0.1,1.3-0.2
			c0.4-0.1,0.8-0.3,1.1-0.6c0.3-0.3,0.6-0.7,0.8-1.1c0.2-0.5,0.3-1.1,0.3-1.8c0-0.3,0-0.7,0-1c0-0.3,0-0.7-0.1-1
			c0-0.4-0.1-0.8-0.1-1.2c0-0.4-0.1-1-0.2-1.5c-0.1-0.6-0.1-1.3-0.2-2c-0.1-0.8-0.1-1.7-0.2-2.7c-0.4,1.3-0.9,2.6-1.4,3.8
			c-0.5,1.2-1.2,2.5-1.8,3.8c0.3,0.1,0.5,0.3,0.7,0.5c0.2,0.2,0.3,0.5,0.3,0.8c0,0.2,0,0.5-0.1,0.7c-0.1,0.2-0.2,0.4-0.4,0.6
			c-0.2,0.2-0.3,0.3-0.6,0.4c-0.2,0.1-0.5,0.2-0.7,0.2c-0.2,0-0.4,0-0.6-0.1C271.4,193.6,271.2,193.5,271.1,193.3z"/>
		<path class="st7" d="M307.4,191.8c-0.6,1.6-1.2,2.9-1.8,3.9c-0.6,1-1.3,1.7-2,2.2c-0.7,0.5-1.3,0.8-1.9,1
			c-0.6,0.2-1.2,0.2-1.7,0.2c-0.9,0-1.6-0.1-2.2-0.4c-0.6-0.3-1.1-0.6-1.4-1c-0.4-0.4-0.6-0.9-0.8-1.4c-0.2-0.5-0.2-1.1-0.2-1.7
			c0-0.7,0.1-1.5,0.3-2.4c0.2-0.9,0.4-1.8,0.6-2.8c0.2-1,0.4-1.9,0.6-2.8c0.2-0.9,0.3-1.6,0.3-2.3c0-1.4-0.5-2-1.4-2
			c-0.4,0-0.7,0.1-1,0.3c-0.3,0.2-0.6,0.5-0.9,0.8c-0.3,0.3-0.5,0.7-0.7,1.2c-0.2,0.5-0.4,0.9-0.5,1.4l-2.7,12.8H284l5.8-27.2
			l5.9-0.8l-2.1,10.1c0.4-0.5,0.9-0.9,1.3-1.2c0.4-0.3,0.8-0.5,1.2-0.7c0.4-0.2,0.8-0.3,1.1-0.3c0.4-0.1,0.7-0.1,1-0.1
			c0.6,0,1.2,0.1,1.8,0.3c0.5,0.2,1,0.4,1.4,0.8c0.4,0.4,0.7,0.8,0.9,1.4c0.2,0.6,0.3,1.3,0.3,2c0,0.5,0,1.1-0.1,1.7
			c-0.1,0.6-0.2,1.2-0.4,1.9c-0.1,0.6-0.3,1.3-0.5,1.9c-0.2,0.6-0.3,1.2-0.5,1.8c-0.1,0.6-0.3,1.1-0.4,1.6c-0.1,0.5-0.1,0.9-0.1,1.3
			c0,0.5,0.1,0.9,0.3,1.2c0.2,0.3,0.6,0.5,1.3,0.5c0.4,0,0.8-0.1,1.1-0.3c0.3-0.2,0.6-0.4,0.9-0.7c0.3-0.3,0.5-0.7,0.7-1.1
			c0.2-0.4,0.4-0.9,0.6-1.4H307.4z"/>
		<path class="st7" d="M328.2,183.8c-0.8,0.8-1.8,1.5-3,2.1c-1.2,0.6-2.6,1-4.1,1.2c-0.2,1.8-0.5,3.5-1.1,5
			c-0.6,1.5-1.3,2.7-2.1,3.8c-0.8,1-1.8,1.8-2.9,2.4c-1.1,0.6-2.2,0.8-3.5,0.8c-0.9,0-1.8-0.1-2.6-0.3c-0.8-0.2-1.5-0.6-2-1.1
			c-0.6-0.5-1-1.2-1.3-2c-0.3-0.8-0.5-1.8-0.5-2.9c0-0.8,0.1-1.7,0.2-2.7c0.2-1,0.4-2,0.8-3.1c0.4-1.1,0.8-2.1,1.4-3.1
			c0.6-1,1.3-1.9,2.1-2.7c0.8-0.8,1.8-1.4,2.8-1.9c1.1-0.5,2.3-0.7,3.6-0.7c3.4,0,5.1,2.1,5.1,6.4v0c0.1,0,0.1,0,0.2,0
			c0.1,0,0.1,0,0.2,0c0.5,0,1-0.1,1.5-0.2c0.5-0.1,1.1-0.3,1.6-0.5c0.5-0.2,1.1-0.5,1.6-0.8c0.5-0.3,1-0.6,1.4-0.9L328.2,183.8z
			 M317.8,187.2c-0.4-0.1-0.7-0.3-0.8-0.6c-0.2-0.3-0.2-0.7-0.2-1.1c0-0.6,0.1-1,0.3-1.4c0.2-0.4,0.5-0.6,0.9-0.8
			c0-0.4-0.1-0.8-0.1-1.1c-0.1-0.3-0.2-0.5-0.3-0.7c-0.1-0.2-0.3-0.3-0.4-0.4c-0.2-0.1-0.4-0.1-0.7-0.1c-0.5,0-0.9,0.2-1.4,0.6
			c-0.4,0.4-0.9,0.9-1.3,1.5c-0.4,0.6-0.8,1.3-1.1,2.1c-0.3,0.8-0.6,1.6-0.8,2.4c-0.2,0.8-0.4,1.7-0.5,2.5c-0.1,0.8-0.2,1.6-0.2,2.2
			c0,0.7,0,1.2,0.1,1.6c0.1,0.4,0.2,0.7,0.4,1c0.2,0.2,0.4,0.4,0.6,0.5c0.3,0.1,0.6,0.1,1,0.1c0.5,0,1-0.2,1.5-0.6
			c0.5-0.4,0.9-1,1.4-1.8c0.4-0.7,0.8-1.6,1.1-2.6C317.4,189.5,317.6,188.4,317.8,187.2z"/>
		<path class="st7" d="M319.6,209l6.7-31.5h5.8l-0.6,3c0.6-0.5,1.3-0.9,2-1.2c0.8-0.3,1.6-0.5,2.7-0.5c0.7,0,1.3,0.1,1.9,0.3
			c0.6,0.2,1.1,0.6,1.5,1.1c0.4,0.5,0.8,1.1,1,1.9c0.3,0.8,0.4,1.8,0.4,3c0,0.9-0.1,1.9-0.2,2.9c-0.1,1-0.3,2.1-0.6,3.1
			c-0.3,1-0.7,2.1-1.2,3c-0.5,1-1.1,1.8-1.8,2.6c-0.7,0.7-1.6,1.3-2.6,1.8c-1,0.5-2.1,0.7-3.4,0.7c-0.5,0-1,0-1.3-0.1
			c-0.4-0.1-0.7-0.2-1-0.3c-0.3-0.1-0.5-0.3-0.7-0.5c-0.2-0.2-0.3-0.4-0.4-0.5l-2.1,9.7L319.6,209z M328.4,194.8
			c0.1,0.2,0.2,0.4,0.5,0.6c0.2,0.2,0.6,0.3,1,0.3c0.7,0,1.3-0.2,1.9-0.5c0.5-0.4,1-0.8,1.4-1.4c0.4-0.6,0.8-1.3,1.1-2
			c0.3-0.8,0.5-1.5,0.7-2.3c0.2-0.8,0.3-1.6,0.4-2.3c0.1-0.8,0.1-1.5,0.1-2.1c0-0.8-0.1-1.4-0.2-1.8c-0.1-0.4-0.3-0.8-0.5-1
			c-0.2-0.2-0.4-0.4-0.7-0.4c-0.2-0.1-0.4-0.1-0.6-0.1c-0.5,0-0.9,0.2-1.4,0.5c-0.5,0.3-0.9,0.8-1.3,1.5L328.4,194.8z"/>
	</g>
	<g>
		<path class="st22" d="M192.2,217.2c-0.2,0.6-0.5,1.2-0.7,1.6c-0.3,0.5-0.5,0.8-0.8,1.1c-0.3,0.3-0.6,0.6-0.9,0.8
			c-0.3,0.2-0.6,0.3-0.9,0.4c-0.3,0.1-0.6,0.2-0.8,0.2c-0.3,0-0.5,0.1-0.7,0.1c-0.3,0-0.7-0.1-1-0.2c-0.3-0.1-0.6-0.3-0.8-0.5
			c-0.2-0.2-0.4-0.5-0.5-0.8c-0.1-0.3-0.2-0.8-0.2-1.2c0-0.2,0-0.4,0-0.7c0-0.2,0.1-0.5,0.1-0.8l1.4-6.4h-0.8l0.2-0.9h0.7l0.7-3.2
			l3.4-0.5l-0.8,3.6h1.4l-0.2,0.9h-1.4l-1.5,6.8c0,0.1-0.1,0.3-0.1,0.4c0,0.1,0,0.2,0,0.4c0,0.3,0.1,0.5,0.2,0.7
			c0.1,0.1,0.4,0.2,0.7,0.2c0.2,0,0.4-0.1,0.7-0.2c0.2-0.1,0.4-0.2,0.6-0.4c0.2-0.2,0.3-0.4,0.5-0.6c0.1-0.2,0.3-0.5,0.3-0.8H192.2z
			"/>
		<path class="st22" d="M203.7,217.2c-0.3,0.9-0.7,1.7-1,2.2c-0.4,0.6-0.7,1-1.1,1.3c-0.4,0.3-0.7,0.5-1.1,0.6
			c-0.4,0.1-0.7,0.1-1,0.1c-0.5,0-0.9-0.1-1.3-0.2c-0.3-0.1-0.6-0.3-0.8-0.6c-0.2-0.2-0.4-0.5-0.5-0.8c-0.1-0.3-0.1-0.6-0.1-1
			c0-0.4,0.1-0.8,0.2-1.4c0.1-0.5,0.2-1,0.4-1.6c0.1-0.5,0.2-1.1,0.4-1.6c0.1-0.5,0.2-0.9,0.2-1.3c0-0.8-0.3-1.2-0.8-1.2
			c-0.2,0-0.4,0.1-0.6,0.2c-0.2,0.1-0.3,0.3-0.5,0.5c-0.1,0.2-0.3,0.4-0.4,0.7c-0.1,0.3-0.2,0.5-0.3,0.8l-1.5,7.3h-3.3l3.3-15.5
			l3.4-0.5l-1.2,5.8c0.2-0.3,0.5-0.5,0.7-0.7c0.2-0.2,0.5-0.3,0.7-0.4c0.2-0.1,0.4-0.1,0.7-0.2c0.2,0,0.4,0,0.6,0c0.4,0,0.7,0,1,0.1
			c0.3,0.1,0.6,0.2,0.8,0.5c0.2,0.2,0.4,0.5,0.5,0.8c0.1,0.3,0.2,0.7,0.2,1.2c0,0.3,0,0.6-0.1,1c-0.1,0.4-0.1,0.7-0.2,1.1
			c-0.1,0.4-0.2,0.7-0.3,1.1c-0.1,0.4-0.2,0.7-0.3,1c-0.1,0.3-0.2,0.6-0.2,0.9c-0.1,0.3-0.1,0.5-0.1,0.8c0,0.3,0.1,0.5,0.2,0.7
			c0.1,0.2,0.4,0.3,0.7,0.3c0.2,0,0.5,0,0.6-0.1c0.2-0.1,0.4-0.2,0.5-0.4c0.1-0.2,0.3-0.4,0.4-0.6c0.1-0.2,0.2-0.5,0.4-0.8H203.7z"
			/>
		<path class="st22" d="M210,218c-0.1,0.7-0.3,1.2-0.6,1.6c-0.3,0.4-0.6,0.8-0.9,1c-0.3,0.3-0.7,0.4-1.2,0.5
			c-0.4,0.1-0.9,0.2-1.3,0.2c-0.5,0-1-0.1-1.5-0.2c-0.4-0.1-0.8-0.4-1.1-0.6c-0.3-0.3-0.5-0.7-0.7-1.1c-0.2-0.5-0.3-1-0.3-1.7
			c0-0.4,0-0.9,0.1-1.5c0.1-0.6,0.2-1.2,0.4-1.8c0.2-0.6,0.4-1.2,0.8-1.8c0.3-0.6,0.7-1.1,1.2-1.6c0.5-0.5,1-0.8,1.6-1.1
			c0.6-0.3,1.3-0.4,2.1-0.4c0.5,0,0.9,0.1,1.3,0.2c0.3,0.1,0.6,0.3,0.8,0.5c0.2,0.2,0.3,0.4,0.4,0.7c0.1,0.3,0.1,0.5,0.1,0.8
			c0,0.7-0.1,1.3-0.4,1.8c-0.3,0.6-0.7,1.1-1.2,1.5c-0.5,0.4-1,0.8-1.7,1c-0.6,0.3-1.3,0.4-2,0.5c0,0.1,0,0.2,0,0.4
			c0,0.1,0,0.2,0,0.3c0,0.4,0,0.7,0.1,0.9c0.1,0.2,0.2,0.4,0.3,0.6c0.1,0.1,0.3,0.2,0.4,0.3c0.2,0.1,0.4,0.1,0.6,0.1
			c0.2,0,0.5,0,0.7-0.1c0.2-0.1,0.5-0.2,0.7-0.3c0.2-0.1,0.5-0.2,0.7-0.4C209.6,218.3,209.8,218.2,210,218z M206.1,215.5
			c0.4,0,0.9-0.1,1.3-0.4c0.4-0.2,0.8-0.5,1.1-0.8c0.3-0.3,0.6-0.7,0.7-1.2c0.2-0.4,0.3-0.9,0.3-1.4c0-0.3,0-0.5-0.1-0.7
			c-0.1-0.2-0.2-0.3-0.4-0.3c-0.3,0-0.6,0.1-0.9,0.4c-0.3,0.3-0.5,0.7-0.8,1.1c-0.2,0.5-0.5,1-0.7,1.5
			C206.3,214.4,206.2,215,206.1,215.5z"/>
		<path class="st22" d="M218.5,205.7l3.4-0.5l-1.1,5.1c0.2-0.1,0.4-0.3,0.6-0.3c0.2-0.1,0.3-0.2,0.5-0.2c0.1,0,0.3-0.1,0.4-0.1
			c0.1,0,0.2,0,0.4,0c0.4,0,0.8,0.1,1.1,0.2c0.3,0.1,0.6,0.4,0.9,0.7c0.2,0.3,0.4,0.7,0.6,1.2c0.1,0.5,0.2,1.1,0.2,1.8
			c0,0.4,0,0.9-0.1,1.5c-0.1,0.6-0.2,1.1-0.4,1.7c-0.2,0.6-0.4,1.1-0.8,1.7c-0.3,0.5-0.7,1-1.2,1.4c-0.5,0.4-1,0.8-1.6,1
			c-0.6,0.3-1.3,0.4-2.2,0.4c-1.1,0-1.9-0.3-2.4-0.8c-0.5-0.5-0.8-1.2-0.8-2.2c0-0.2,0-0.4,0-0.7c0-0.2,0.1-0.4,0.1-0.7L218.5,205.7
			z M219.3,217.6c0,0.2-0.1,0.4-0.1,0.5c0,0.7,0.4,1.1,1.2,1.1c0.2,0,0.5-0.1,0.7-0.3c0.2-0.2,0.4-0.4,0.6-0.7
			c0.2-0.3,0.4-0.6,0.5-1c0.2-0.4,0.3-0.8,0.4-1.2c0.1-0.4,0.2-0.8,0.3-1.3c0.1-0.4,0.1-0.8,0.1-1.2c0-0.3,0-0.5-0.1-0.8
			c0-0.3-0.1-0.5-0.2-0.7c-0.1-0.2-0.2-0.4-0.4-0.5c-0.2-0.1-0.3-0.2-0.5-0.2c-0.1,0-0.2,0-0.3,0c-0.1,0-0.3,0-0.4,0.1
			c-0.1,0-0.3,0.1-0.4,0.1c-0.1,0.1-0.2,0.1-0.3,0.2L219.3,217.6z"/>
		<path class="st22" d="M235.8,217.2c-0.3,0.5-0.7,1.1-1.1,1.6c-0.4,0.5-0.9,1-1.4,1.3c-0.5,0.4-1.1,0.7-1.7,1
			c-0.6,0.2-1.3,0.4-2.1,0.4c-0.5,0-1-0.1-1.5-0.2c-0.4-0.1-0.8-0.4-1.1-0.6c-0.3-0.3-0.6-0.7-0.7-1.1c-0.2-0.5-0.3-1-0.3-1.7
			c0-0.4,0-0.9,0.1-1.5c0.1-0.6,0.2-1.2,0.4-1.8c0.2-0.6,0.4-1.2,0.8-1.8c0.3-0.6,0.7-1.1,1.2-1.6c0.5-0.5,1-0.8,1.6-1.1
			c0.6-0.3,1.3-0.4,2.1-0.4c0.5,0,0.9,0.1,1.3,0.2c0.3,0.1,0.6,0.3,0.8,0.5c0.2,0.2,0.3,0.4,0.4,0.7c0.1,0.3,0.1,0.5,0.1,0.8
			c0,0.7-0.1,1.3-0.4,1.8c-0.3,0.6-0.7,1.1-1.2,1.5c-0.5,0.4-1,0.8-1.7,1c-0.6,0.3-1.3,0.4-2,0.5c0,0.2,0,0.3,0,0.5
			c0,0.2,0,0.3,0,0.4c0,0.4,0,0.7,0.1,1c0.1,0.2,0.2,0.4,0.3,0.6c0.1,0.1,0.3,0.2,0.5,0.3c0.2,0.1,0.4,0.1,0.7,0.1
			c0.5,0,0.9-0.1,1.2-0.2c0.4-0.1,0.7-0.3,1-0.5c0.3-0.2,0.6-0.5,0.9-0.7c0.3-0.3,0.6-0.6,0.9-0.9H235.8z M229.5,215.5
			c0.4,0,0.8-0.2,1.2-0.4c0.4-0.2,0.8-0.5,1.1-0.8c0.3-0.3,0.5-0.7,0.7-1.2c0.2-0.4,0.3-0.9,0.3-1.4c0-0.3,0-0.5-0.1-0.7
			c-0.1-0.2-0.2-0.3-0.4-0.3c-0.3,0-0.6,0.1-0.9,0.4c-0.3,0.3-0.5,0.6-0.8,1.1c-0.2,0.4-0.5,1-0.7,1.5
			C229.8,214.4,229.7,215,229.5,215.5z"/>
		<path class="st22" d="M244.7,217.2c-0.6,0.7-1.2,1.3-1.8,1.7c-0.6,0.4-1.2,0.8-1.7,1.1c-0.2,0.3-0.5,0.5-0.8,0.6
			c-0.3,0.2-0.6,0.3-0.9,0.4c-0.3,0.1-0.6,0.2-1,0.2c-0.3,0-0.6,0.1-0.9,0.1c-0.6,0-1.1-0.1-1.5-0.3c-0.4-0.2-0.8-0.4-1-0.7
			c-0.3-0.3-0.5-0.6-0.6-0.9c-0.1-0.3-0.2-0.7-0.2-1c0-0.3,0-0.5,0.1-0.7c0.1-0.2,0.2-0.4,0.3-0.6c0.1-0.2,0.2-0.3,0.4-0.5
			c0.1-0.1,0.3-0.2,0.5-0.3c0.6-1.1,1.2-2.3,1.6-3.4c0.4-1.1,0.8-2.2,1.2-3.4l3.4-0.4c0,1,0.1,1.8,0.1,2.6c0,0.7,0.1,1.4,0.1,1.9
			c0,0.5,0.1,1,0.1,1.4c0,0.4,0.1,0.7,0.1,1c0,0.3,0,0.5,0.1,0.8c0,0.2,0,0.5,0,0.7c0,0.2,0,0.3,0,0.5c0,0.1,0,0.3-0.1,0.4
			c0.3-0.2,0.6-0.4,0.9-0.6c0.3-0.2,0.5-0.4,0.7-0.6H244.7z M235.5,218c0,0.5,0.1,0.9,0.3,1.2c0.2,0.3,0.6,0.4,1.1,0.4
			c0.3,0,0.5,0,0.7-0.1c0.2-0.1,0.4-0.2,0.6-0.4c0.2-0.2,0.3-0.4,0.4-0.7c0.1-0.3,0.2-0.6,0.2-1c0-0.2,0-0.4,0-0.6
			c0-0.2,0-0.4,0-0.6c0-0.2,0-0.4-0.1-0.7c0-0.3-0.1-0.5-0.1-0.9c0-0.3-0.1-0.7-0.1-1.2c0-0.4-0.1-1-0.1-1.5
			c-0.2,0.7-0.5,1.5-0.8,2.2c-0.3,0.7-0.7,1.4-1,2.2c0.1,0.1,0.3,0.2,0.4,0.3c0.1,0.1,0.2,0.3,0.2,0.5c0,0.1,0,0.3-0.1,0.4
			c0,0.1-0.1,0.3-0.2,0.4c-0.1,0.1-0.2,0.2-0.3,0.3c-0.1,0.1-0.3,0.1-0.4,0.1c-0.1,0-0.2,0-0.4-0.1
			C235.6,218.2,235.5,218.1,235.5,218z"/>
		<path class="st22" d="M245.2,210.7h-0.8l0.2-0.9h0.7l0.7-3.2l3.4-0.5c0,0.1-0.1,0.3-0.1,0.5c0,0.2-0.1,0.4-0.1,0.6
			c-0.1,0.3-0.2,0.7-0.3,1.1c-0.1,0.4-0.2,0.9-0.3,1.4h1.4l-0.2,0.9h-1.4l-1.5,6.8c0,0.1-0.1,0.3-0.1,0.4c0,0.1,0,0.3,0,0.4
			c0,0.2,0.1,0.4,0.2,0.6c0.1,0.2,0.3,0.2,0.6,0.2c0.1,0,0.2,0,0.3,0c0.1,0,0.2,0,0.3-0.1c-0.2,0.5-0.4,0.9-0.6,1.2
			c-0.2,0.3-0.4,0.5-0.6,0.7c-0.2,0.2-0.4,0.3-0.6,0.3c-0.2,0-0.4,0.1-0.6,0.1c-0.4,0-0.8-0.1-1-0.2c-0.3-0.1-0.5-0.3-0.7-0.5
			c-0.2-0.2-0.3-0.5-0.4-0.8c-0.1-0.3-0.1-0.7-0.1-1c0-0.4,0-0.8,0.1-1.2L245.2,210.7z"/>
		<path class="st22" d="M262,217.2c-0.2,0.6-0.5,1.2-0.7,1.6c-0.3,0.5-0.5,0.8-0.8,1.1s-0.6,0.6-0.9,0.8c-0.3,0.2-0.6,0.3-0.9,0.4
			c-0.3,0.1-0.6,0.2-0.8,0.2c-0.3,0-0.5,0.1-0.7,0.1c-0.3,0-0.7-0.1-1-0.2c-0.3-0.1-0.6-0.3-0.8-0.5c-0.2-0.2-0.4-0.5-0.5-0.8
			c-0.1-0.3-0.2-0.8-0.2-1.2c0-0.2,0-0.4,0-0.7c0-0.2,0.1-0.5,0.1-0.8l1.6-7.3h3.3l-1.6,7.8c0,0.1-0.1,0.3-0.1,0.4
			c0,0.1,0,0.2,0,0.4c0,0.3,0.1,0.5,0.2,0.7c0.1,0.1,0.4,0.2,0.7,0.2c0.2,0,0.4-0.1,0.7-0.2c0.2-0.1,0.4-0.2,0.6-0.4
			c0.2-0.2,0.3-0.4,0.5-0.6c0.1-0.2,0.3-0.5,0.3-0.8H262z M260.6,206.8c0,0.3,0,0.5-0.1,0.7c-0.1,0.2-0.2,0.4-0.4,0.6
			c-0.2,0.2-0.4,0.3-0.6,0.4c-0.2,0.1-0.5,0.1-0.7,0.1c-0.3,0-0.5,0-0.7-0.1c-0.2-0.1-0.4-0.2-0.6-0.4c-0.2-0.2-0.3-0.3-0.4-0.6
			c-0.1-0.2-0.1-0.5-0.1-0.7c0-0.3,0-0.5,0.1-0.7c0.1-0.2,0.2-0.4,0.4-0.6c0.2-0.2,0.4-0.3,0.6-0.4c0.2-0.1,0.5-0.1,0.7-0.1
			c0.3,0,0.5,0,0.7,0.1c0.2,0.1,0.4,0.2,0.6,0.4c0.2,0.2,0.3,0.4,0.4,0.6C260.6,206.3,260.6,206.5,260.6,206.8z"/>
		<path class="st22" d="M260.2,221.2l2.4-11.4h3.3l-0.2,1.2c0.2-0.3,0.5-0.5,0.7-0.7c0.2-0.2,0.5-0.3,0.7-0.4
			c0.2-0.1,0.4-0.1,0.7-0.2c0.2,0,0.4,0,0.6,0c0.4,0,0.7,0,1,0.1c0.3,0.1,0.6,0.2,0.8,0.5c0.2,0.2,0.4,0.5,0.5,0.8
			c0.1,0.3,0.2,0.7,0.2,1.2c0,0.3,0,0.6-0.1,1c-0.1,0.4-0.1,0.7-0.2,1.1c-0.1,0.4-0.2,0.7-0.3,1.1c-0.1,0.4-0.2,0.7-0.3,1
			c-0.1,0.3-0.2,0.6-0.2,0.9c-0.1,0.3-0.1,0.5-0.1,0.8c0,0.3,0.1,0.5,0.2,0.7c0.1,0.2,0.4,0.3,0.7,0.3c0.4,0,0.6,0,0.8-0.1
			c-0.1,0.4-0.2,0.8-0.3,1.1c-0.2,0.3-0.3,0.5-0.6,0.7c-0.2,0.2-0.5,0.3-0.8,0.4c-0.3,0.1-0.6,0.1-0.9,0.1c-0.4,0-0.8-0.1-1.1-0.2
			c-0.3-0.1-0.5-0.3-0.7-0.6c-0.2-0.2-0.3-0.5-0.4-0.8c-0.1-0.3-0.1-0.6-0.1-1c0-0.4,0.1-0.8,0.2-1.4c0.1-0.5,0.2-1,0.4-1.6
			c0.1-0.5,0.2-1.1,0.4-1.6c0.1-0.5,0.2-0.9,0.2-1.3c0-0.8-0.3-1.2-0.8-1.2c-0.2,0-0.4,0.1-0.6,0.2c-0.2,0.1-0.3,0.3-0.5,0.5
			c-0.1,0.2-0.3,0.4-0.4,0.7c-0.1,0.3-0.2,0.5-0.3,0.8l-1.5,7.3H260.2z"/>
		<path class="st22" d="M283.5,217.2c-0.2,0.6-0.5,1.2-0.7,1.6c-0.3,0.5-0.5,0.8-0.8,1.1c-0.3,0.3-0.6,0.6-0.9,0.8
			c-0.3,0.2-0.6,0.3-0.9,0.4c-0.3,0.1-0.6,0.2-0.8,0.2c-0.3,0-0.5,0.1-0.7,0.1c-0.3,0-0.7-0.1-1-0.2c-0.3-0.1-0.6-0.3-0.8-0.5
			c-0.2-0.2-0.4-0.5-0.5-0.8c-0.1-0.3-0.2-0.8-0.2-1.2c0-0.2,0-0.4,0-0.7c0-0.2,0.1-0.5,0.1-0.8l1.4-6.4H277l0.2-0.9h0.7l0.7-3.2
			l3.4-0.5l-0.8,3.6h1.4l-0.2,0.9h-1.4l-1.5,6.8c0,0.1-0.1,0.3-0.1,0.4c0,0.1,0,0.2,0,0.4c0,0.3,0.1,0.5,0.2,0.7
			c0.1,0.1,0.4,0.2,0.7,0.2c0.2,0,0.4-0.1,0.7-0.2c0.2-0.1,0.4-0.2,0.6-0.4c0.2-0.2,0.3-0.4,0.5-0.6c0.1-0.2,0.3-0.5,0.3-0.8H283.5z
			"/>
		<path class="st22" d="M295.3,212.6c-0.4,0.5-1,0.9-1.7,1.2c-0.7,0.3-1.5,0.6-2.3,0.7c-0.1,1.1-0.3,2-0.6,2.9
			c-0.3,0.8-0.7,1.6-1.2,2.2c-0.5,0.6-1,1.1-1.7,1.4c-0.6,0.3-1.3,0.5-2,0.5c-0.5,0-1-0.1-1.5-0.2c-0.4-0.1-0.8-0.3-1.2-0.6
			c-0.3-0.3-0.6-0.7-0.8-1.1c-0.2-0.5-0.3-1-0.3-1.7c0-0.4,0-1,0.1-1.5c0.1-0.6,0.2-1.2,0.4-1.8c0.2-0.6,0.5-1.2,0.8-1.8
			c0.3-0.6,0.7-1.1,1.2-1.5c0.5-0.5,1-0.8,1.6-1.1c0.6-0.3,1.3-0.4,2.1-0.4c2,0,2.9,1.2,2.9,3.6v0c0,0,0.1,0,0.1,0s0.1,0,0.1,0
			c0.3,0,0.6,0,0.9-0.1c0.3-0.1,0.6-0.2,0.9-0.3c0.3-0.1,0.6-0.3,0.9-0.4c0.3-0.2,0.6-0.3,0.8-0.5L295.3,212.6z M289.4,214.5
			c-0.2-0.1-0.4-0.2-0.5-0.4c-0.1-0.2-0.1-0.4-0.1-0.6c0-0.3,0.1-0.6,0.2-0.8c0.1-0.2,0.3-0.4,0.5-0.5c0-0.2,0-0.5-0.1-0.6
			c0-0.2-0.1-0.3-0.2-0.4c-0.1-0.1-0.2-0.2-0.3-0.2c-0.1,0-0.2-0.1-0.4-0.1c-0.3,0-0.5,0.1-0.8,0.3c-0.3,0.2-0.5,0.5-0.7,0.8
			c-0.2,0.3-0.4,0.7-0.6,1.2c-0.2,0.4-0.4,0.9-0.5,1.4c-0.1,0.5-0.2,0.9-0.3,1.4c-0.1,0.5-0.1,0.9-0.1,1.3s0,0.7,0.1,0.9
			c0,0.2,0.1,0.4,0.2,0.6c0.1,0.1,0.2,0.2,0.4,0.3c0.1,0.1,0.3,0.1,0.5,0.1c0.3,0,0.6-0.1,0.8-0.4c0.3-0.2,0.5-0.6,0.8-1
			c0.2-0.4,0.4-0.9,0.6-1.5C289.2,215.8,289.3,215.2,289.4,214.5z"/>
		<path class="st22" d="M299.7,209.8h3.3l-1.6,7.8c-0.1,0.4-0.1,0.6-0.1,0.8c0,0.2,0.1,0.4,0.2,0.6c0.1,0.1,0.3,0.2,0.6,0.2
			c0.4,0,0.7-0.1,1.1-0.4c0.3-0.3,0.7-0.6,0.9-1c0.3-0.4,0.6-0.9,0.8-1.5c0.2-0.5,0.4-1.1,0.6-1.7c0.2-0.6,0.3-1.1,0.4-1.7
			c0.1-0.5,0.1-1,0.1-1.4c0,0-0.1,0.1-0.1,0.1c-0.1,0-0.1,0.1-0.2,0.1c-0.1,0-0.1,0-0.2,0c-0.1,0-0.1,0-0.2,0c-0.1,0-0.3,0-0.4-0.1
			c-0.1-0.1-0.2-0.2-0.3-0.3c-0.1-0.1-0.1-0.2-0.2-0.4c0-0.1-0.1-0.3-0.1-0.4c0-0.4,0.1-0.7,0.3-0.9c0.2-0.2,0.6-0.4,1.1-0.4
			c0.3,0,0.5,0.1,0.7,0.2c0.2,0.1,0.3,0.3,0.4,0.4c0.1,0.2,0.2,0.4,0.2,0.6c0,0.2,0.1,0.5,0.1,0.7c0,0.6-0.1,1.3-0.2,2
			c-0.1,0.7-0.3,1.5-0.5,2.2c-0.2,0.7-0.5,1.5-0.9,2.2c-0.3,0.7-0.8,1.3-1.2,1.9c-0.5,0.5-1,1-1.7,1.3c-0.6,0.3-1.3,0.5-2.1,0.5
			c-0.7,0-1.4-0.2-1.8-0.5c-0.5-0.3-0.8-0.8-0.9-1.4c-0.3,0.4-0.6,0.7-0.8,1c-0.3,0.2-0.6,0.4-0.9,0.6c-0.3,0.1-0.5,0.2-0.8,0.3
			c-0.3,0-0.5,0.1-0.7,0.1c-0.3,0-0.7-0.1-1-0.2c-0.3-0.1-0.6-0.3-0.8-0.5c-0.2-0.2-0.4-0.5-0.5-0.8c-0.1-0.3-0.2-0.8-0.2-1.2
			c0-0.2,0-0.4,0-0.7c0-0.2,0.1-0.5,0.1-0.8l1.5-7.3h3.3l-1.6,7.8c0,0.2-0.1,0.4-0.1,0.6c0,0.1,0,0.3,0,0.4c0,0.1,0.1,0.2,0.1,0.3
			c0.1,0.1,0.1,0.2,0.2,0.2c0.1,0.1,0.2,0.1,0.3,0.1c0.2,0,0.4-0.1,0.6-0.2c0.2-0.1,0.4-0.2,0.5-0.4c0.2-0.2,0.3-0.4,0.4-0.6
			c0.1-0.2,0.2-0.5,0.3-0.8L299.7,209.8z"/>
		<path class="st22" d="M306.7,221.2l2.4-11.4h3.3l-0.2,1.2c0.2-0.3,0.5-0.5,0.7-0.7c0.2-0.2,0.5-0.3,0.7-0.4
			c0.2-0.1,0.4-0.1,0.7-0.2c0.2,0,0.4,0,0.6,0c0.4,0,0.7,0,1,0.1c0.3,0.1,0.6,0.2,0.8,0.5c0.2,0.2,0.4,0.5,0.5,0.8
			c0.1,0.3,0.2,0.7,0.2,1.2c0,0.3,0,0.6-0.1,1c-0.1,0.4-0.1,0.7-0.2,1.1c-0.1,0.4-0.2,0.7-0.3,1.1c-0.1,0.4-0.2,0.7-0.3,1
			c-0.1,0.3-0.2,0.6-0.2,0.9c-0.1,0.3-0.1,0.5-0.1,0.8c0,0.3,0.1,0.5,0.2,0.7c0.1,0.2,0.4,0.3,0.7,0.3c0.4,0,0.6,0,0.8-0.1
			c-0.1,0.4-0.2,0.8-0.3,1.1c-0.2,0.3-0.3,0.5-0.6,0.7c-0.2,0.2-0.5,0.3-0.8,0.4c-0.3,0.1-0.6,0.1-0.9,0.1c-0.4,0-0.8-0.1-1.1-0.2
			c-0.3-0.1-0.5-0.3-0.7-0.6c-0.2-0.2-0.3-0.5-0.4-0.8c-0.1-0.3-0.1-0.6-0.1-1c0-0.4,0.1-0.8,0.2-1.4c0.1-0.5,0.2-1,0.4-1.6
			c0.1-0.5,0.2-1.1,0.4-1.6c0.1-0.5,0.2-0.9,0.2-1.3c0-0.8-0.3-1.2-0.8-1.2c-0.2,0-0.4,0.1-0.6,0.2c-0.2,0.1-0.3,0.3-0.5,0.5
			c-0.1,0.2-0.3,0.4-0.4,0.7c-0.1,0.3-0.2,0.5-0.3,0.8l-1.6,7.3H306.7z"/>
	</g>
	<g>
		<rect x="326.5" y="214.1" class="st22" width="40.7" height="1.4"/>
	</g>
	<g>
		<rect x="135.7" y="214.1" class="st22" width="42.3" height="1.4"/>
	</g>
	<g>
		<g>
			<g>
				<g>
					<path class="st34" d="M211,247.8c12.1,12.1,12.8,32.6,4.2,47.4c-7.2,10.1-17.4,16.8-29.3,18.5c-21.3,1.1-41.8-14.2-44.1-35.7
						c-1.3-11.2,1.9-23,10-31.5c14-13.9,38.3-16.7,53.3-4.2C207.3,244,209.3,245.8,211,247.8z"/>
				</g>
			</g>
		</g>
		<g>
			<g>
				<path class="st35" d="M148.5,250.7c-0.9,1.2-1.6,2.5-2.3,3.8c13.7,11.6,8.3,34,12.2,51.1c1.9,1.4,3.9,2.6,6.1,3.6
					C156.7,291,166.4,263,148.5,250.7z"/>
			</g>
			<g>
				<path class="st35" d="M153.6,244.9c-0.6,0.5-1.2,1-1.7,1.6c-0.4,0.5-0.9,1-1.3,1.5c21.3,12.8,7.5,45.5,19.5,63.6
					c2.5,0.8,5.1,1.4,7.7,1.8C159.5,296.3,178.4,258.3,153.6,244.9z"/>
			</g>
			<g>
				<path class="st35" d="M141.8,278c0.5,4.4,1.7,8.6,3.5,12.4c-0.4-7.4-1-14.7-3.7-20.8C141.5,272.4,141.5,275.2,141.8,278z"/>
			</g>
			<g>
				<path class="st35" d="M142.7,263.3c6.1,8.9,5.8,21.3,6.4,33.3c1.4,1.9,3.1,3.8,4.8,5.4c-1.9-15.4,0.8-33.3-9.5-44
					C143.8,259.7,143.2,261.5,142.7,263.3z"/>
			</g>
			<g>
				<path class="st35" d="M160.3,240.2c-1.3,0.7-2.6,1.6-3.9,2.5c26.9,13.7,4.3,55.4,27.7,71.1c0.6,0,1.2,0,1.7,0
					c1.6-0.2,3.2-0.6,4.7-1C163.4,298.2,188.5,254.2,160.3,240.2z"/>
			</g>
			<g>
				<path class="st35" d="M169.3,236.7c-1.8,0.5-3.6,1-5.3,1.8c28,14.3,2.3,58.9,30.9,72.9c1.6-0.6,3.1-1.3,4.6-2.1
					C170.7,295.6,195.6,251.7,169.3,236.7z"/>
			</g>
			<g>
				<path class="st35" d="M181,235.2c-2.3,0-4.5,0.1-6.7,0.4c23.8,15.8,0.5,58.2,28.6,71.5c1.2-0.8,2.4-1.7,3.6-2.6
					C180.3,291.4,200.4,252.2,181,235.2z"/>
			</g>
			<g>
				<path class="st35" d="M193.5,237.2c-2.2-0.7-4.5-1.1-6.8-1.5c15.2,17.8-1.5,53.6,22.4,66.5c1-1,2-2,2.9-3.1
					C191.5,286.6,203.8,255.5,193.5,237.2z"/>
			</g>
			<g>
				<path class="st35" d="M204.4,241.9c-1.8-1.1-3.8-2.1-5.7-2.9c6.9,18.2-2.1,45.4,15.5,57.5c0.3-0.4,0.7-0.8,1-1.3
					c0.5-0.8,0.9-1.7,1.3-2.5C202.9,281.2,208.2,259,204.4,241.9z"/>
			</g>
			<g>
				<path class="st35" d="M219.7,283.4c-5.7-8.7-5.5-20.6-6.1-32.2c-0.8-1.2-1.6-2.3-2.6-3.4c-0.8-0.9-1.5-1.7-2.3-2.5
					c1.9,15.3-0.7,33.1,9.4,43.7C218.7,287.2,219.3,285.3,219.7,283.4z"/>
			</g>
			<g>
				<path class="st35" d="M217.4,258.4c0.4,6.4,1,12.7,3.2,18.2C220.8,270.3,219.8,264.1,217.4,258.4z"/>
			</g>
		</g>
		<g class="st5">
			<g>
				
					<ellipse transform="matrix(0.7415 -0.671 0.671 0.7415 -136.2162 187.1928)" class="st1" cx="174.8" cy="270.4" rx="33.2" ry="33.2"/>
			</g>
		</g>
		<g class="st6">
			<g>
				<g>
					<path class="st1" d="M163.3,305.9c0,0-0.3-0.2-1-0.6c-0.6-0.4-1.5-1-2.5-2c-1-0.9-2.3-2.1-3.5-3.6c-1.3-1.5-2.6-3.3-3.8-5.4
						c-1.2-2.1-2.4-4.5-3.3-7.2c-0.2-0.7-0.5-1.3-0.6-2c-0.2-0.7-0.4-1.3-0.6-2.2c-0.3-1.4-0.6-2.7-0.7-4.4
						c-0.3-3.2-0.3-6.4,0.4-9.7c0.6-3.3,1.6-6.5,3-9.5c1.4-3,3.3-5.8,5.5-8.4c1.1-1.3,2.3-2.4,3.8-3.5c1.3-1,2.7-1.8,4.1-2.5
						c5.5-2.8,11.2-4.1,16.1-4.4c2.4-0.2,4.6,0,6.6,0.2c1.9,0.2,3.6,0.6,4.9,1c1.3,0.3,2.4,0.7,3,1c0.7,0.3,1,0.4,1,0.4
						s-0.4,0-1.1-0.1c-0.7-0.1-1.8-0.1-3.1-0.1c-1.3,0-3,0-4.8,0.2c-1.8,0.1-3.9,0.5-6.1,1c-2.2,0.5-4.5,1.2-6.8,2.1
						c-2.3,0.9-4.7,2.1-7,3.5c-1.1,0.7-2.2,1.5-3.3,2.3c-0.9,0.7-1.9,1.8-2.7,2.8c-1.7,2.2-3.2,4.6-4.4,7.1c-1.2,2.6-2.1,5.3-2.7,8
						c-0.6,2.7-0.8,5.5-0.8,8.1c-0.1,1.2,0.2,2.7,0.2,4.1c0.1,0.5,0.2,1.2,0.3,1.8c0.1,0.6,0.2,1.3,0.3,1.9c0.5,2.5,1.2,4.8,2,6.8
						c1.6,4.2,3.5,7.5,5,9.7C162.2,304.7,163.3,305.9,163.3,305.9z"/>
				</g>
			</g>
		</g>
	</g>
	<g>
		<g>
			<g>
				<g>
					<g>
						<path class="st36" d="M359,257.3c9.2,19.8,0.6,43.3-19.2,52.5c-19.8,9.2-43.3,0.6-52.5-19.2c-9.2-19.8-0.6-43.3,19.2-52.5
							C326.3,229,349.8,237.6,359,257.3z"/>
					</g>
				</g>
			</g>
		</g>
		<g>
			<g>
				<g>
					<g>
						<g>
							<path class="st37" d="M322.8,274.1c16.2,5.3,17.1,24.6,11.3,37.8c2-0.6,4-1.3,6-2.2c4.1-1.9,7.6-4.4,10.7-7.3
								C351.2,286.9,337.8,272.7,322.8,274.1z"/>
						</g>
					</g>
				</g>
			</g>
			<g>
				<g>
					<g>
						<g>
							<path class="st37" d="M322.8,274.1c-14.8-6-17-25-10.4-38.2c-1.9,0.6-3.8,1.3-5.6,2.1c-4.2,2-7.9,4.6-11.1,7.7
								C295.8,260.6,306.8,275.1,322.8,274.1z"/>
						</g>
					</g>
				</g>
			</g>
			<g>
				<g>
					<g>
						<g>
							<path class="st37" d="M322.8,274.1c12.6-8.6,31.5-3.4,39,9.5c1.6-6.1,1.7-12.6,0.1-19C348.8,256.8,330,259.7,322.8,274.1z"/>
						</g>
					</g>
				</g>
			</g>
			<g>
				<g>
					<g>
						<g>
							<path class="st37" d="M322.8,274.1c-11.7,10-30.6,2.6-37.9-9.2c-1.4,6.1-1.4,12.5,0.2,18.8
								C298,290.3,316.9,288.7,322.8,274.1z"/>
						</g>
					</g>
				</g>
			</g>
			<g>
				<g>
					<g>
						<g>
							<path class="st37" d="M322.8,274.1c2.5,15.2-12,27.1-26.6,28.4c4.7,4.4,10.4,7.6,16.5,9.4
								C324.5,304.3,333.1,286.5,322.8,274.1z"/>
						</g>
					</g>
				</g>
			</g>
			<g>
				<g>
					<g>
						<g>
							<path class="st37" d="M322.8,274.1c-1.8-15.7,13.3-29.6,28.1-28.7c-4.7-4.5-10.4-7.7-16.5-9.5
								C320.9,243.5,314.2,261.5,322.8,274.1z"/>
						</g>
					</g>
				</g>
			</g>
		</g>
		<g class="st6">
			<g>
				<g>
					<g>
						<path class="st1" d="M304,303.3c0,0-0.3-0.2-0.9-0.7c-0.6-0.5-1.4-1.2-2.4-2.2c-1-1-2.1-2.3-3.2-3.9c-1.1-1.6-2.4-3.5-3.4-5.7
							c-1.1-2.2-2.1-4.7-2.7-7.4c-0.2-0.7-0.4-1.4-0.5-2.1c-0.1-0.8-0.3-1.3-0.4-2.3c-0.2-1.4-0.3-2.7-0.3-4.4
							c0-3.2,0.3-6.4,1.1-9.7c0.8-3.2,2.1-6.3,3.8-9.3c1.7-2.9,3.8-5.6,6.2-7.9c1.2-1.2,2.5-2.2,4.1-3.2c1.4-0.9,2.9-1.6,4.3-2.2
							c5.8-2.4,11.5-3.2,16.4-3.1c2.4,0,4.6,0.3,6.6,0.7c1.9,0.4,3.5,0.9,4.9,1.3c1.3,0.4,2.3,0.9,3,1.2c0.7,0.3,1,0.5,1,0.5
							s-0.4-0.1-1.1-0.2c-0.7-0.1-1.8-0.2-3.1-0.4c-1.3-0.1-3-0.2-4.8-0.2c-1.8,0-3.9,0.2-6.1,0.5c-2.2,0.3-4.6,0.9-7,1.6
							c-2.4,0.7-4.9,1.7-7.3,3c-1.2,0.6-2.4,1.3-3.4,2.1c-1,0.7-2,1.6-2.9,2.6c-1.9,2-3.6,4.3-5,6.8c-1.4,2.5-2.5,5.1-3.3,7.8
							c-0.8,2.6-1.3,5.5-1.4,8c-0.2,1.2-0.1,2.7-0.1,4.1c0,0.5,0.1,1.3,0.1,1.9c0,0.6,0.1,1.3,0.2,1.9c0.3,2.5,0.8,4.9,1.4,7
							c1.3,4.3,2.9,7.7,4.2,10.1C303,302,304,303.3,304,303.3z"/>
					</g>
				</g>
			</g>
		</g>
		<g class="st5">
			<g>
				<g>
					<path class="st1" d="M351.5,271.3c-1.4,18.3-17.5,32-35.8,30.5c-18.3-1.5-32-17.5-30.6-35.8c1.5-18.3,17.5-32,35.8-30.5
						C339.3,237,352.9,253,351.5,271.3z"/>
				</g>
			</g>
		</g>
	</g>
	<g>
		<g>
			<path class="st14" d="M211.6,303.5c2.6-4.3,5.2-8.8,8.2-13.2c3-4.4,5.9-8.9,9.3-13.2c1.6-2.2,3.3-4.3,4.9-6.5
				c1.7-2.1,3.5-4.1,5.2-6.1c1.8-2,3.4-4.1,5.2-6c1.4-1.4,2.7-2.8,4-4.1c-8.8,0.2-17.7,2.5-25.9,7.1c-2.4,1.4-4.7,2.9-6.8,4.5
				c-2.5,2.2-4.9,4.5-7.3,6.9c-13.4,15.2-17.6,37-10,56.3c0.2-0.4,0.4-0.9,0.6-1.3c0.8-1.8,1.7-3.7,2.6-5.6c1-1.9,2-3.9,3-6
				C206.7,312,209.2,307.9,211.6,303.5z"/>
		</g>
		<g>
			<path class="st38" d="M304.3,304.5c-2.5,2.8-5,5.9-7.7,8.9c-3.4,4.3-7,8.6-10.3,13.2c-3.3,4.7-6.8,9.3-9.8,14.2
				c-1.5,2.4-3.1,4.9-4.6,7.3c-1.5,2.5-2.8,5-4.2,7.5c-1.2,2.2-2.4,4.3-3.6,6.5c4.3-1.2,8.5-2.9,12.5-5.2
				C295.9,346.1,306,325.2,304.3,304.5z"/>
		</g>
		<g>
			<path class="st14" d="M301.8,292.4c-0.2,0.1-0.4,0.3-0.6,0.4c-2.2,1.5-4.5,3.1-6.7,4.7c-2.2,1.6-4.4,3.4-6.6,5.2
				c-2.2,1.8-4.5,3.5-6.7,5.3c-2.1,1.9-4.3,3.8-6.4,5.7c-4.4,3.8-8.4,7.9-12.5,11.9c-4,4-7.7,8.3-11.4,12.3c-3.5,4.2-7,8.1-10,12.1
				c-1.5,2-3,3.9-4.5,5.8c-1.4,1.9-2.7,3.7-4,5.5c10.2,3.3,21.3,3.7,31.9,0.7c1.8-3.4,3.7-6.7,5.7-10.3c2.6-4.3,5.2-8.8,8.2-13.2
				c3-4.4,5.9-8.9,9.3-13.2c1.6-2.2,3.3-4.3,4.9-6.5c1.7-2.1,3.5-4.1,5.2-6.1c1.8-2,3.4-4.1,5.2-6c0.5-0.5,1-1,1.5-1.5
				C304,300.9,303.2,296.6,301.8,292.4z"/>
		</g>
		<g>
			<path class="st38" d="M297.4,282.2c-3-5.2-6.7-9.8-10.9-13.6c-1,1-2,2-3.1,3.1c-1.6,1.7-3.3,3.5-5,5.4
				c-3.5,3.6-6.8,7.8-10.4,11.8c-3.4,4.3-7,8.6-10.3,13.2c-3.3,4.7-6.8,9.3-9.8,14.2c-1.5,2.4-3.1,4.9-4.6,7.3
				c-1.5,2.5-2.8,5-4.2,7.5c-1.4,2.5-2.8,4.9-4,7.3c-1.2,2.5-2.4,5-3.5,7.4c-1.1,2.4-2.3,4.8-3.3,7.1c-0.8,2-1.5,3.9-2.3,5.7
				c2.5,1.2,5.2,2.2,7.8,3c0.9-1.4,1.8-2.8,2.7-4.2c1.4-2.1,3-4,4.5-6.1c1.5-2,3.1-4.1,4.6-6.2c1.6-2.1,3.4-4.1,5.1-6.1
				c1.7-2,3.4-4.1,5.2-6.1c1.9-2,3.7-3.9,5.6-5.9c3.6-4,7.7-7.6,11.5-11.3c3.9-3.6,7.9-6.9,11.7-10.2c4-3.1,7.7-6.2,11.5-8.9
				c1.9-1.3,3.7-2.7,5.4-3.9c0.1-0.1,0.2-0.1,0.3-0.2C300.8,289,299.3,285.5,297.4,282.2z"/>
		</g>
		<g>
			<path class="st14" d="M279.8,263.4c-0.2,0.1-0.4,0.2-0.6,0.3c-2.2,1.4-4.3,2.9-6.5,4.4c-2.2,1.5-4.5,3.1-6.7,4.7
				c-2.2,1.6-4.4,3.4-6.6,5.2c-2.2,1.8-4.5,3.5-6.7,5.3c-2.1,1.9-4.3,3.8-6.4,5.7c-4.4,3.8-8.4,7.9-12.5,11.9
				c-4,4-7.7,8.3-11.4,12.3c-3.5,4.2-7,8.1-10,12.1c-1.5,2-3,3.9-4.5,5.8c-1.4,1.9-2.7,3.8-4,5.6c-0.3,0.4-0.6,0.8-0.9,1.2
				c5.7,9.2,13.7,16.2,22.9,20.6c0.9-2.2,1.9-4.6,3.1-7.2c0.8-1.8,1.7-3.7,2.6-5.6c1-1.9,2-3.9,3-6c2-4.2,4.5-8.3,6.9-12.7
				c2.6-4.3,5.2-8.8,8.2-13.2c3-4.4,5.9-8.9,9.3-13.2c1.6-2.2,3.3-4.3,4.9-6.5c1.7-2.1,3.5-4.1,5.2-6.1c1.8-2,3.4-4.1,5.2-6
				c1.8-1.9,3.6-3.7,5.4-5.6c1.8-1.8,3.5-3.7,5.3-5.4c0.7-0.7,1.4-1.3,2.2-1.9C284.9,267,282.4,265.1,279.8,263.4z"/>
		</g>
		<g>
			<path class="st38" d="M280,263.5c-9.6-6.4-20.9-9.6-32.4-9.2c-3.1,3.4-6.2,7.1-9.5,10.8c-3.4,4.3-7,8.6-10.3,13.2
				c-3.3,4.7-6.8,9.3-9.8,14.2c-1.5,2.4-3.1,4.9-4.6,7.3c-1.5,2.5-2.8,5-4.2,7.5c-1.4,2.5-2.8,4.9-4,7.4c-1.2,2.5-2.4,5-3.5,7.4
				c-1.1,2.3-2.2,4.6-3.2,6.9c0.9,2.4,2.1,4.8,3.4,7.2c0.5,0.9,1,1.8,1.6,2.6c1-1.6,2.1-3.3,3.2-5c1.4-2.1,3-4,4.5-6.1
				c1.5-2,3.1-4.1,4.6-6.2c1.6-2.1,3.4-4.1,5.1-6.1c1.7-2,3.4-4.1,5.2-6.1c1.9-2,3.7-3.9,5.6-5.9c3.6-4,7.7-7.6,11.5-11.3
				c3.9-3.6,7.9-6.9,11.7-10.2c4-3.1,7.7-6.2,11.5-8.9c1.9-1.3,3.7-2.7,5.4-3.9c1.8-1.2,3.5-2.4,5.2-3.5
				C277.9,264.9,279,264.2,280,263.5z"/>
		</g>
		<g class="st5">
			<g>
				<path class="st1" d="M288,305.9c0,25.5-20.7,46.2-46.2,46.2c-25.5,0-46.2-20.7-46.2-46.2c0-25.5,20.7-46.2,46.2-46.2
					C267.3,259.7,288,280.4,288,305.9z"/>
			</g>
		</g>
		<g class="st6">
			<g>
				<g>
					<path class="st1" d="M224.5,355.3c0,0-0.5-0.3-1.3-0.8c-0.8-0.6-2.1-1.4-3.5-2.7c-1.4-1.3-3.2-2.9-4.9-5
						c-1.8-2.1-3.6-4.5-5.3-7.5c-1.7-2.9-3.4-6.2-4.6-10c-0.3-0.9-0.6-1.9-0.9-2.8c-0.3-1-0.5-1.8-0.8-3.1c-0.4-1.9-0.8-3.8-0.9-6.1
						c-0.4-4.5-0.3-8.9,0.5-13.5c0.8-4.5,2.2-9,4.2-13.2c2-4.2,4.6-8.1,7.7-11.6c1.6-1.8,3.2-3.4,5.3-4.8c1.9-1.4,3.8-2.5,5.7-3.5
						c7.7-4,15.6-5.7,22.3-6.1c3.4-0.2,6.5,0,9.1,0.3c2.7,0.3,5,0.8,6.9,1.3c1.9,0.5,3.3,1,4.2,1.4c0.9,0.4,1.5,0.6,1.5,0.6
						s-0.5,0-1.6-0.1c-1-0.1-2.5-0.1-4.4-0.2c-1.9,0-4.1,0-6.7,0.3c-2.6,0.2-5.4,0.7-8.4,1.3c-3,0.7-6.2,1.7-9.5,3
						c-3.3,1.3-6.6,2.9-9.8,4.9c-1.6,1-3.1,2.1-4.5,3.3c-1.3,1-2.6,2.5-3.8,3.9c-2.4,3-4.5,6.4-6.2,9.9c-1.7,3.6-2.9,7.3-3.8,11.1
						c-0.8,3.8-1.1,7.7-1.1,11.3c-0.1,1.7,0.2,3.8,0.3,5.7c0.1,0.6,0.3,1.7,0.4,2.6c0.1,0.9,0.3,1.8,0.5,2.6
						c0.7,3.4,1.6,6.6,2.7,9.5c2.2,5.8,4.9,10.4,7,13.5C223.1,353.7,224.5,355.3,224.5,355.3z"/>
				</g>
			</g>
		</g>
	</g>
</g>
</svg>
